<?xml version="1.0" encoding="utf-8"?>
<!-- Generator: Adobe Illustrator 22.0.0, SVG Export Plug-In . SVG Version: 6.00 Build 0)  -->
<svg version="1.1" id="Ebene_1" xmlns="http://www.w3.org/2000/svg" xmlns:xlink="http://www.w3.org/1999/xlink" x="0px" y="0px"
	 viewBox="0 0 49.8 52.2" style="enable-background:new 0 0 49.8 52.2;" xml:space="preserve">
<style type="text/css">
	.st0{fill:#87888A;}
	.st1{fill:#FFCC00;stroke:#FFFFFF;stroke-width:2;stroke-miterlimit:10;}
</style>
<title>news_svg</title>
<path class="st0" d="M-40,105.9h21.7l8.1,8.1V84.2c0-3-2.4-5.4-5.4-5.4H-40c-3,0-5.4,2.4-5.4,5.4l0,0v16.2
	C-45.4,103.5-43,105.9-40,105.9L-40,105.9"/>
<path class="st1" d="M-27.8,92.3h-23l-8.2,8.1V70.7c0-3,2.4-5.4,5.4-5.4h25.8c3,0,5.4,2.4,5.4,5.4v16.3
	C-22.4,89.9-24.8,92.3-27.8,92.3"/>
<g>
	<path class="st1" d="M24.9,7.7L4.5,24v26.5h14.3V34.3H31v16.3h14.3V24L24.9,7.7z"/>
	<path class="st0" d="M24.9,1.6l-12.2,9.8V5.7H4.5v12.2l-4.1,3.3l1.5,1.5l23-18.4l23,18.4l1.5-1.5L24.9,1.6z"/>
</g>
</svg>
