<?xml version="1.0" encoding="UTF-8" standalone="no"?>
<!-- Created with Inkscape (http://www.inkscape.org/) -->
<svg
   xmlns:svg="http://www.w3.org/2000/svg"
   xmlns="http://www.w3.org/2000/svg"
   version="1.0"
   width="688.08411"
   height="159.72224"
   id="svg10856">
  <defs
     id="defs10858">
    <clipPath
       id="clipPath8295">
      <path
         d="M 951.071,1920.538 L 750.318,1920.538 L 750.318,1873.938 L 951.071,1873.938 L 951.071,1920.538 z"
         id="path8297" />
    </clipPath>
    <clipPath
       id="clipPath8289">
      <path
         d="M 1204.216,2035.34 L -212.214,2035.34 L -212.214,-51.342 L 1204.216,-51.342 L 1204.216,2035.34 z"
         id="path8291" />
    </clipPath>
    <clipPath
       id="clipPath8283">
      <path
         d="M -212.214,2035.37 L 1204.211,2035.37 L 1204.211,-51.312 L -212.214,-51.312 L -212.214,2035.37 z"
         id="path8285" />
    </clipPath>
  </defs>
  <g
     transform="translate(16.899225,-3.2372684)"
     id="layer1">
    <path
       d="M 154.84674,84.93211 L 160.55013,84.93211 L 160.55013,106.17585 L 160.68723,106.17585 L 177.67743,84.93211 L 183.86066,84.93211 L 165.56801,107.00188 L 185.9823,132.36893 L 178.9079,132.36893 L 160.68723,109.19549 L 160.55013,109.19549 L 160.55013,132.36893 L 154.84674,132.36893 L 154.84674,84.93211"
       id="path8301"
       style="fill:#a7a9ac;fill-opacity:1;fill-rule:nonzero;stroke:none" />
    <path
       d="M 192.49115,84.93211 L 198.21167,84.93211 L 198.21167,128.31418 L 214.84198,128.31418 L 214.84198,132.36893 L 192.49115,132.36893 L 192.49115,84.93211"
       id="path8303"
       style="fill:#a7a9ac;fill-opacity:1;fill-rule:nonzero;stroke:none" />
    <path
       d="M 227.03708,132.37236 L 221.31724,132.37236 L 221.31724,84.935537 L 227.03708,84.935537 L 227.03708,132.37236 z"
       id="path8305"
       style="fill:#a7a9ac;fill-opacity:1;fill-rule:nonzero;stroke:none" />
    <path
       d="M 238.18336,84.93211 L 244.98355,84.93211 L 264.57866,125.08203 L 264.71576,125.08203 L 264.71576,84.93211 L 269.8022,84.93211 L 269.8022,132.36893 L 263.13911,132.36893 L 243.41033,91.944807 L 243.27322,91.944807 L 243.27322,132.36893 L 238.18336,132.36893 L 238.18336,84.93211"
       id="path8307"
       style="fill:#a7a9ac;fill-opacity:1;fill-rule:nonzero;stroke:none" />
    <path
       d="M 286.70671,132.37236 L 281.00298,132.37236 L 281.00298,84.935537 L 286.70671,84.935537 L 286.70671,132.37236 z"
       id="path8309"
       style="fill:#a7a9ac;fill-opacity:1;fill-rule:nonzero;stroke:none" />
    <path
       d="M 297.85642,84.93211 L 303.55637,84.93211 L 303.55637,106.17585 L 303.71061,106.17585 L 320.68367,84.93211 L 326.86691,84.93211 L 308.57768,107.00188 L 328.99197,132.36893 L 321.91758,132.36893 L 303.71061,109.19549 L 303.55637,109.19549 L 303.55637,132.36893 L 297.85642,132.36893 L 297.85642,84.93211"
       id="path8311"
       style="fill:#a7a9ac;fill-opacity:1;fill-rule:nonzero;stroke:none" />
    <path
       d="M 335.48368,84.93211 L 358.39663,84.93211 L 358.39663,88.705805 L 341.20421,88.705805 L 341.20421,105.62745 L 357.49176,105.62745 L 357.49176,109.54853 L 341.20421,109.54853 L 341.20421,128.31418 L 359.08213,128.31418 L 359.08213,132.36893 L 335.48368,132.36893 L 335.48368,84.93211"
       id="path8313"
       style="fill:#a7a9ac;fill-opacity:1;fill-rule:nonzero;stroke:none" />
    <path
       d="M 366.65351,84.93211 L 373.47084,84.93211 L 393.04539,125.08203 L 393.18249,125.08203 L 393.18249,84.93211 L 398.28606,84.93211 L 398.28606,132.36893 L 391.60583,132.36893 L 371.87705,91.944807 L 371.73995,91.944807 L 371.73995,132.36893 L 366.65351,132.36893 L 366.65351,84.93211"
       id="path8315"
       style="fill:#a7a9ac;fill-opacity:1;fill-rule:nonzero;stroke:none" />
    <path
       d="M 141.45201,23.668691 C 139.87878,17.200968 138.62774,14.476093 133.4042,14.476093 L 133.4042,13.101659 L 152.34466,13.101659 L 152.32752,14.469238 C 149.21191,14.469238 146.62413,15.302124 146.62413,18.801618 C 146.62413,20.049234 146.94975,22.095461 147.34391,23.50417 L 154.81247,55.458901 L 154.93243,55.458901 L 168.46083,13.111942 L 171.16857,13.111942 L 185.50244,55.476038 L 185.62241,55.476038 L 192.37119,23.840067 C 192.74821,21.975498 193.39944,19.579664 193.39944,18.17781 C 193.39944,15.456363 191.39434,14.469238 187.50754,14.469238 L 187.4904,13.101659 L 204.63484,13.101659 L 204.6177,14.476093 C 198.70866,14.476093 197.40621,18.009862 196.00093,24.63525 L 187.3533,65.042235 L 182.95237,65.042235 L 168.855,23.271099 L 168.7179,23.271099 L 155.34373,65.052518 L 150.9428,65.004532 L 141.45201,23.668691"
       id="path8317"
       style="fill:#808285;fill-opacity:1;fill-rule:nonzero;stroke:none" />
    <path
       d="M 214.63633,44.425727 L 229.89563,44.425727 L 222.28997,23.555583 L 214.63633,44.425727 z M 199.30848,60.840101 C 204.65198,60.840101 205.5397,58.519672 207.51052,53.25158 L 221.69016,15.960207 L 225.51184,15.960207 L 239.74288,53.799983 C 241.38809,58.104943 243.1704,60.840101 247.62274,60.840101 L 247.62274,62.20768 L 229.80994,62.20768 L 229.80994,60.840101 C 231.935,60.840101 234.67359,60.353393 234.67359,58.57794 C 234.67359,57.693641 234.33084,56.463163 234.05663,55.712537 L 230.85533,47.092334 L 213.67662,47.092334 L 210.73239,55.236112 C 210.32109,56.463163 209.90978,57.553113 209.90978,58.447695 C 209.90978,60.435654 212.09997,60.840101 214.77343,60.840101 L 214.77343,62.20768 L 199.30848,62.20768 L 199.30848,60.840101"
       id="path8319"
       style="fill:#808285;fill-opacity:1;fill-rule:nonzero;stroke:none" />
    <path
       d="M 249.77865,60.850383 C 253.46323,60.850383 255.72196,60.363676 255.72196,55.246395 L 255.72196,23.634416 C 255.72196,18.503424 253.46323,18.023572 249.77865,18.023572 L 249.77865,16.649138 L 267.76283,16.649138 L 267.76283,18.023572 C 263.99599,18.023572 261.80238,18.503424 261.80238,23.634416 L 261.80238,55.246395 C 261.80238,59.14348 262.28223,59.554782 266.46037,59.554782 L 271.04981,59.554782 C 276.94171,59.554782 278.15848,57.505128 279.27242,52.367281 L 280.96904,52.367281 L 280.48919,62.217962 L 249.77865,62.217962 L 249.77865,60.850383"
       id="path8321"
       style="fill:#808285;fill-opacity:1;fill-rule:nonzero;stroke:none" />
    <path
       d="M 297.97295,53.813693 C 297.97295,58.793874 298.50422,59.554782 301.93173,59.554782 C 313.7121,59.554782 318.56204,53.261863 318.56204,39.500387 C 318.56204,26.914548 314.92887,19.326028 301.93173,19.326028 C 298.50422,19.326028 297.97295,19.73733 297.97295,25.073972 L 297.97295,53.813693 z M 285.91838,60.853811 C 289.61667,60.853811 291.87883,60.367103 291.87883,55.246395 L 291.87883,23.634416 C 291.87883,18.503424 289.61667,18.023572 285.91838,18.023572 L 285.91838,16.652566 L 301.93173,16.652566 C 313.28709,16.652566 325.32453,19.120377 325.32453,39.500387 C 325.32453,59.822128 312.68728,62.217962 301.93173,62.217962 L 285.91838,62.217962 L 285.91838,60.853811"
       id="path8323"
       style="fill:#808285;fill-opacity:1;fill-rule:nonzero;stroke:none" />
    <path
       d="M 342.50324,53.813693 C 342.50324,58.934402 342.58893,59.554782 348.32659,59.554782 C 353.94429,59.554782 359.69908,57.299477 359.69908,49.974875 C 359.69908,40.124195 351.4799,39.500387 345.67369,39.500387 L 342.50324,39.500387 L 342.50324,53.813693 z M 342.50324,36.833779 L 345.67369,36.833779 C 349.62904,36.833779 357.36837,36.765229 357.36837,28.076476 C 357.36837,21.173459 352.84748,19.326028 347.31547,19.326028 C 343.00023,19.326028 342.50324,19.932698 342.50324,25.073972 L 342.50324,36.833779 z M 330.47951,60.853811 C 334.16409,60.853811 336.42282,60.367103 336.42282,55.246395 L 336.42282,23.634416 C 336.42282,18.503424 334.16409,18.023572 330.47951,18.023572 L 330.47951,16.652566 L 347.31547,16.652566 C 352.57328,16.652566 363.79154,16.652566 363.79154,27.603479 C 363.79154,34.513351 358.92789,36.833779 355.72659,37.865462 L 355.72659,38.00599 C 360.50455,38.821739 366.12225,41.625447 366.12225,49.974875 C 366.12225,61.265113 355.24674,62.217962 348.32659,62.217962 L 330.47951,62.217962 L 330.47951,60.853811"
       id="path8325"
       style="fill:#808285;fill-opacity:1;fill-rule:nonzero;stroke:none" />
    <path
       d="M 408.7674,46.413686 C 408.7674,55.794797 407.41353,62.903465 393.16535,62.903465 C 379.01999,62.903465 376.82638,56.062143 376.82638,46.413686 L 376.82638,23.634416 C 376.82638,18.503424 374.63277,18.020145 370.86593,18.020145 L 370.86593,16.649138 L 388.86724,16.649138 L 388.86724,18.020145 C 385.16553,18.020145 382.90679,18.503424 382.90679,23.634416 L 382.90679,46.413686 C 382.90679,53.392109 384.552,60.23343 393.45669,60.23343 C 403.30394,60.23343 404.86346,54.554037 404.86346,46.413686 L 404.86346,23.634416 C 404.86346,18.503424 402.61844,18.020145 398.92015,18.020145 L 398.92015,16.649138 L 414.72785,16.649138 L 414.72785,18.020145 C 410.96101,18.020145 408.7674,18.503424 408.7674,23.634416 L 408.7674,46.413686"
       id="path8327"
       style="fill:#808285;fill-opacity:1;fill-rule:nonzero;stroke:none" />
    <path
       d="M 527.09553,44.998122 L 506.57808,44.998122 L 506.57808,40.692477 L 527.09553,40.692477 L 527.09553,44.998122 z"
       id="path8329"
       style="fill:#808285;fill-opacity:1;fill-rule:nonzero;stroke:none" />
    <path
       d="M 429.3702,36.360782 C 437.31861,36.360782 444.35873,35.610156 444.35873,27.055076 C 444.35873,21.235154 439.30314,19.260905 433.82254,19.260905 C 429.73009,19.260905 429.3702,20.076654 429.3702,23.764661 L 429.3702,36.360782 z M 417.33276,60.78526 C 421.0996,60.78526 423.28979,60.298553 423.28979,55.177844 L 423.28979,23.569293 C 423.28979,18.438301 421.0996,17.955022 417.33276,17.955022 L 417.33276,16.587443 L 435.48489,16.587443 C 442.86776,16.587443 450.7956,18.496569 450.7956,27.055076 C 450.7956,35.815807 443.69036,38.139663 438.82672,38.547537 L 447.8685,53.871961 C 450.06211,57.57025 451.96096,60.78526 456.2762,60.78526 L 456.2762,62.152839 L 445.86341,62.152839 L 432.18076,39.030817 L 429.3702,39.030817 L 429.3702,55.177844 C 429.3702,60.298553 431.6495,60.78526 435.3992,60.78526 L 435.3992,62.152839 L 417.33276,62.152839 L 417.33276,60.78526"
       id="path8331"
       style="fill:#808285;fill-opacity:1;fill-rule:nonzero;stroke:none" />
    <path
       d="M 493.57786,60.867521 C 490.63362,61.895776 486.38693,62.852052 480.64927,62.852052 C 466.48334,62.852052 459.22386,53.885671 459.22386,38.221923 C 459.22386,23.648126 463.47056,15.919077 479.41536,15.919077 C 484.81027,15.919077 489.19406,16.871927 492.55303,17.759653 L 493.16998,28.570038 L 491.45622,28.570038 C 490.75358,24.60783 487.96358,18.582257 478.59276,18.582257 C 466.75754,18.582257 466.00692,29.255542 466.00692,37.327342 C 466.00692,45.950972 467.71725,59.770716 482.00313,59.770716 C 484.81027,59.770716 486.18128,59.499942 487.48373,59.225741 L 487.48373,43.908172 C 487.48373,38.698348 484.89596,38.290474 481.52328,38.290474 L 481.52328,36.922895 L 499.33265,36.922895 L 499.33265,38.290474 C 495.90857,38.290474 493.57786,38.698348 493.57786,43.908172 L 493.57786,60.867521"
       id="path8333"
       style="fill:#808285;fill-opacity:1;fill-rule:nonzero;stroke:none" />
    <path
       d="M 576.42091,60.79897 C 580.1192,60.79897 582.38137,60.312263 582.38137,55.194982 L 582.38137,23.583003 C 582.38137,18.452012 580.1192,17.968732 576.42091,17.968732 L 576.42091,16.597725 L 607.41937,16.597725 L 607.89922,24.954009 L 606.18889,24.954009 C 605.36629,20.765585 603.10413,19.271188 598.24048,19.271188 L 592.22862,19.271188 C 588.66743,19.271188 588.47892,20.025241 588.47892,25.019132 L 588.47892,36.988018 L 597.29791,36.988018 C 601.87022,36.988018 603.51543,35.959763 603.51543,31.233218 L 604.95498,31.233218 L 604.95498,45.399142 L 603.51543,45.399142 C 603.51543,41.570606 601.87022,39.658052 597.29791,39.658052 L 588.47892,39.658052 L 588.47892,53.758853 C 588.47892,59.08864 588.80453,59.499942 592.22862,59.499942 L 598.78888,59.499942 C 604.06383,59.499942 606.18889,57.851307 607.21372,53.131617 L 608.92748,53.131617 L 608.44762,62.163122 L 576.42091,62.163122 L 576.42091,60.79897"
       id="path8335"
       style="fill:#808285;fill-opacity:1;fill-rule:nonzero;stroke:none" />
    <path
       d="M 615.86477,60.79897 C 619.61447,60.79897 621.80808,60.312263 621.80808,55.194982 L 621.80808,23.583003 C 621.80808,18.452012 619.61447,17.968732 615.86477,17.968732 L 615.86477,16.597725 L 633.86608,16.597725 L 633.86608,17.968732 C 630.16436,17.968732 627.90563,18.452012 627.90563,23.583003 L 627.90563,55.194982 C 627.90563,60.312263 630.16436,60.79897 633.86608,60.79897 L 633.86608,62.163122 L 615.86477,62.163122 L 615.86477,60.79897"
       id="path8337"
       style="fill:#808285;fill-opacity:1;fill-rule:nonzero;stroke:none" />
    <path
       d="M 639.97734,60.79897 C 643.67906,60.79897 645.93779,60.312263 645.93779,55.194982 L 645.93779,23.583003 C 645.93779,18.452012 643.67906,17.968732 639.97734,17.968732 L 639.97734,16.597725 L 657.97866,16.597725 L 657.97866,17.968732 C 654.21182,17.968732 652.01821,18.452012 652.01821,23.583003 L 652.01821,55.194982 C 652.01821,59.08864 652.5152,59.499942 656.6762,59.499942 L 661.26907,59.499942 C 667.14041,59.499942 668.37431,57.453715 669.47112,52.315869 L 671.18487,52.315869 L 670.70502,62.163122 L 639.97734,62.163122 L 639.97734,60.79897"
       id="path8339"
       style="fill:#808285;fill-opacity:1;fill-rule:nonzero;stroke:none" />
    <path
       d="M 532.26766,62.22139 L 561.1102,15.764839 L 546.75919,15.764839 C 538.10814,15.764839 537.09703,17.533437 535.31814,23.380779 L 533.63866,23.394489 L 534.16993,13.105087 L 569.39793,13.105087 L 569.3808,16.015048 L 540.43885,62.389338 L 557.06916,62.351635 C 566.0424,62.351635 567.67047,59.770716 568.69872,53.69373 L 570.40905,53.70744 L 569.86065,65.00796 L 532.30193,65.00796 L 532.26766,62.22139"
       id="path8341"
       style="fill:#808285;fill-opacity:1;fill-rule:nonzero;stroke:none" />
    <path
       d="M 49.001623,161.45483 L 48.30241,160.95441 C 47.993934,160.74533 47.582632,160.46085 47.051367,160.14209 C 36.655711,153.73949 20.505256,151.56987 11.802793,150.84667 C -6.0408546,149.35913 -15.668747,137.64388 -15.668747,127.37161 L -15.668747,4.4574641 L 113.67199,4.4574641 L 113.67199,127.37161 C 113.67199,137.64388 104.04753,149.35913 86.186743,150.84667 C 80.277706,151.34023 60.151332,153.53384 49.704264,160.95099 L 49.001623,161.45483"
       id="path8343"
       style="fill:#ffd51f;fill-opacity:1;fill-rule:nonzero;stroke:none" />
    <path
       d="M 114.88876,3.2372684 L -16.899225,3.2372684 L -16.899225,127.38189 C -16.899225,138.20256 -6.8634584,150.53134 11.699968,152.084 C 20.299605,152.7935 36.227272,154.92884 46.417276,161.19777 C 46.897129,161.49939 47.291293,161.76331 47.599769,161.97924 L 49.018761,162.95951 L 50.424042,161.96553 C 60.59691,154.72662 80.449082,152.57071 86.303279,152.084 C 104.87013,150.53134 114.88876,138.20256 114.88876,127.38189 L 114.88876,3.2372684 z M 112.44152,5.6913698 L 112.44152,127.38189 C 112.44152,136.82127 103.6705,148.16978 86.101055,149.63676 C 75.582009,150.51763 58.372452,153.30077 49.001623,159.96043 C 48.676009,159.74107 48.250997,159.43945 47.702595,159.11041 C 37.903327,153.07798 22.781127,150.54162 11.905619,149.63676 C -5.6672553,148.16978 -14.434841,136.82127 -14.434841,127.38189 L -14.434841,5.6913698 L 112.44152,5.6913698"
       id="path8345"
       style="fill:#231f20;fill-opacity:1;fill-rule:nonzero;stroke:none" />
    <path
       d="M 17.266254,100.14 C 18.054582,100.29766 18.602985,101.62068 19.545552,101.53842 C 21.156484,100.94889 23.449492,101.12027 25.128975,101.72351 C 26.29433,101.62411 27.096369,101.65496 28.535926,102.11425 C 30.078308,102.13824 30.301097,100.25653 30.455335,100.35593 C 30.729536,100.80151 30.935187,100.8632 31.209388,101.38419 C 32.234215,103.11508 30.952325,104.5375 32.525554,105.35668 C 32.953994,105.58632 33.570947,105.5589 34.067936,105.52805 C 33.913698,106.60087 32.354179,107.55029 31.243663,107.68739 C 31.277939,107.98558 33.639497,108.40374 34.616339,107.564 C 34.462101,109.16122 32.457004,109.7816 31.209388,109.85015 C 32.031992,111.11833 33.570947,110.57336 34.153624,110.32315 C 34.273587,110.85441 33.69091,111.49193 33.313883,111.73528 C 32.611242,112.18429 32.100542,112.23913 31.312214,112.23913 C 33.056819,112.671 33.947973,113.4936 34.153624,115.01199 C 33.502396,114.79948 32.851168,114.28878 31.466452,114.38818 C 31.346489,114.4156 32.902581,116.81144 39.137233,116.34872 C 42.119171,116.05395 45.783186,115.41986 49.121586,113.53816 C 50.01274,113.02746 56.795794,109.37715 60.185608,108.36261 C 64.757914,107.20754 67.19145,107.28294 70.169961,107.41661 C 71.318179,107.47145 72.740598,107.58799 73.511789,106.68655 C 74.317256,105.83653 74.043054,105.4595 73.751716,104.9488 C 72.620635,103.47497 70.581263,102.69692 68.511044,102.93685 C 66.523085,103.18706 65.220629,103.50239 62.824795,104.22902 C 59.414417,105.19901 60.031369,105.8708 55.047761,106.18614 C 51.400884,105.92222 50.903895,105.96678 48.096759,104.82198 C 46.588652,104.24959 43.143999,103.66006 42.530473,105.47321 C 42.376235,107.9136 45.646085,108.959 46.640065,109.10981 C 45.886011,110.02838 43.726676,109.45941 42.886935,109.03097 C 43.538163,110.07637 44.377904,110.16891 45.320471,110.27516 C 43.572438,111.63589 41.450806,110.43626 41.125192,110.32315 C 41.005229,110.40884 41.159467,111.63589 43.98374,111.64274 C 43.760951,112.23913 42.461923,112.75668 41.228017,112.48934 C 39.925561,112.21514 39.102957,111.60847 38.006152,110.92639 C 37.546865,110.89897 37.58114,111.67016 37.255526,111.88952 C 36.073033,112.72241 35.267567,112.51333 34.205037,112.65386 C 34.273587,112.24941 36.587161,112.01977 36.210134,109.41486 C 36.261547,106.45691 35.301842,104.14676 36.912775,102.20679 C 37.358352,101.73722 40.011249,99.262554 45.269058,101.45274 C 46.091662,101.79206 47.291293,102.21707 48.216722,102.75519 C 50.235529,103.72518 53.865268,104.51008 55.698989,104.30786 C 57.087133,104.15019 58.441002,103.69776 59.722893,103.26589 C 62.413493,102.3576 65.186353,101.72351 68.099742,101.1991 C 71.181079,100.78437 72.877699,101.95658 73.923091,102.59067 C 74.522907,102.97798 75.191272,103.50239 75.804798,104.18104 C 77.175804,103.47497 78.118371,102.54269 81.765248,103.26246 C 84.455848,103.87599 86.238156,104.5992 88.102725,104.7363 C 90.604811,104.7363 90.89615,104.14676 92.092353,103.54009 C 92.092353,105.72685 90.947563,106.05932 90.313472,106.51518 L 90.313472,106.53917 C 91.478828,106.53917 92.932095,106.02847 93.617598,105.08933 C 93.926074,105.54176 93.154883,107.55029 92.46938,108.11925 C 92.075216,108.68137 90.861875,109.02412 90.553399,109.08924 C 91.273177,109.30518 93.891799,109.49026 94.628715,107.94102 C 94.508752,109.40457 93.53191,110.1552 91.955253,110.57336 C 90.724774,110.95381 90.244922,110.8647 89.250942,110.57336 C 89.302355,110.91611 89.816483,111.46794 90.433435,111.40282 C 91.32459,111.53306 91.97239,111.09434 92.126628,111.14918 C 92.298004,111.44395 91.118939,112.23913 90.690499,112.41393 C 88.993879,113.10629 86.800269,112.44135 86.286141,112.10546 C 85.295589,111.44395 84.815737,110.2923 84.747187,109.89814 C 84.558673,108.73964 84.592948,107.8759 83.581831,106.3815 C 82.399338,104.98308 81.285396,104.54436 79.437964,104.54436 C 76.3532,105.01393 75.839073,108.13982 76.627401,109.35659 C 77.175804,110.28202 79.643615,112.3351 83.23908,111.77299 C 82.296513,113.05145 80.946071,113.05145 80.380531,113.08573 C 80.397669,113.32222 81.439634,113.63413 82.262238,113.62042 C 82.87919,113.60671 83.37618,113.32222 83.37618,113.32222 C 83.221942,114.23394 81.388221,114.87146 80.140605,114.90574 C 81.18257,116.1465 83.30763,116.17049 84.712911,115.71463 C 85.792579,115.58781 86.303279,114.4773 86.320416,114.66581 C 86.543205,114.99485 85.775441,116.10537 85.398415,116.51324 C 86.135331,117.14733 86.765993,116.48925 87.194433,116.19791 C 88.154137,115.52612 88.394064,115.0257 88.839641,114.31963 C 88.959604,114.31963 89.028154,114.54585 89.028154,114.6898 C 89.011016,115.10796 88.651127,116.04024 88.651127,116.04024 C 89.576556,115.90314 90.433435,115.59467 91.598791,115.69064 C 92.263729,115.73177 93.46336,115.90314 93.497635,116.23904 C 93.274846,116.48239 92.846407,116.38642 92.503655,116.45497 C 91.495965,116.65377 89.850758,117.20903 89.867895,117.99393 C 89.902171,118.44293 90.484848,118.79254 90.89615,118.93307 C 91.886702,119.25868 92.520793,119.33751 93.53191,119.26554 C 94.371651,119.19699 95.177117,118.55604 95.177117,118.65201 C 94.971467,119.64599 93.017782,120.67767 91.513103,120.7188 C 91.598791,121.81561 92.914957,122.49426 93.617598,123.25517 C 95.09143,124.10862 96.753775,124.58504 98.018528,125.95605 C 98.704031,126.69296 99.132471,127.27221 98.961095,128.56781 C 98.446968,129.47268 97.607226,130.23702 96.8566,130.89853 C 96.393886,131.33382 95.639832,131.72798 94.954329,131.28926 C 93.823249,130.54549 93.394809,128.97912 93.223433,127.84118 C 93.10347,126.93289 93.549047,126.4976 93.154883,125.56531 C 92.880682,124.9655 92.692168,124.78041 91.989528,124.82839 C 91.376002,125.15058 90.741912,126.12742 91.818152,127.71779 C 92.332279,129.27388 94.817228,131.25499 93.206296,132.53688 C 92.96637,132.88648 91.32459,133.75707 90.570536,134.06898 C 89.490869,133.90788 88.068449,134.24721 87.605735,133.10927 C 87.160158,132.04674 88.154137,131.19329 88.651127,130.49751 C 88.839641,130.25415 89.319493,130.10677 89.182392,129.64748 C 89.045292,129.18134 88.651127,129.47268 88.411201,129.56522 C 87.725698,129.87027 87.091607,130.42896 86.286141,130.60033 C 85.895404,130.81969 85.329864,130.80256 84.901425,130.60033 C 84.490123,130.39125 84.421573,129.89769 84.181646,129.56522 C 83.787482,129.01682 82.74209,128.83516 83.067704,127.82747 C 83.359043,127.11112 83.616106,126.65869 84.198784,126.34678 C 85.364139,125.90463 86.371829,127.16939 86.628893,127.25508 C 87.00592,127.44016 87.64001,127.64924 88.479751,127.13854 C 89.302355,126.28509 89.987858,125.29454 89.576556,124.13946 C 89.302355,123.37513 88.839641,122.58337 87.828523,122.50454 C 86.354692,122.39829 83.993133,123.46767 82.964878,123.92353 C 81.285396,124.70158 80.03778,123.30658 79.712166,123.80357 C 78.906699,125.72298 81.233983,126.1994 80.67187,126.8095 C 79.180901,126.70667 77.758482,126.01432 76.935878,124.7667 C 75.259823,122.29546 76.644539,119.46776 76.078999,116.37957 C 75.959036,115.68378 75.328373,115.24506 74.77997,114.96743 C 73.71744,114.4156 72.260746,114.39161 71.198216,115.0257 C 70.221374,115.59467 69.127997,116.92112 68.768107,117.89796 C 68.391081,118.82339 67.894091,121.61681 68.442493,122.74447 C 68.922346,123.70074 69.659262,124.62617 70.684089,125.1026 C 70.786914,125.29454 70.752639,125.43507 70.546988,125.43507 C 68.493906,125.47962 67.465651,123.20032 67.208588,123.42311 C 67.002937,123.52937 67.037212,123.79671 66.968662,123.99208 C 66.69446,124.8661 66.728736,125.89435 67.088625,126.78208 C 67.465651,127.74178 68.116879,128.08111 69.333648,129.01682 C 69.624986,129.19848 69.89576,129.44869 70.204237,129.56522 C 70.272787,129.66119 70.546988,129.7743 70.087701,129.89769 C 68.716695,130.25073 67.174313,129.87027 66.163195,128.86944 L 66.077507,128.86944 C 65.99182,129.2636 66.214608,129.55837 66.660185,129.9491 C 67.414239,130.69973 68.408218,130.76828 68.425356,131.07676 C 67.294276,131.62516 65.906132,131.26184 64.99784,130.68602 C 64.706501,130.49751 64.620813,130.48037 64.449437,130.36041 C 64.332902,130.54549 64.4323,130.86425 64.521415,131.04934 C 64.980702,131.88565 66.728736,132.07759 66.505947,132.32094 C 65.546243,132.91391 63.733087,132.17356 62.105017,130.36041 C 60.973936,129.1265 58.749478,129.79829 57.138546,129.64748 C 55.921778,129.53437 54.430808,130.09649 54.327983,130.63118 C 54.27657,130.98421 54.687872,131.65601 54.893523,132.17356 C 54.996349,132.5026 54.927798,132.82822 54.824973,133.14355 C 54.499359,133.54114 54.036644,133.70223 53.508807,133.63026 C 52.309176,133.45888 50.663968,134.13067 50.029878,132.86592 C 49.550026,131.94049 51.023858,130.39125 50.526868,130.29871 C 49.94419,130.02451 48.676009,130.96365 47.66832,131.1693 C 46.708615,131.36467 45.594672,132.21812 44.686381,131.57032 C 43.760951,130.88482 44.018015,129.58579 43.846639,128.59523 C 44.292216,127.82747 45.200508,127.32363 46.1088,127.3579 C 46.725753,127.38532 47.154192,127.32363 47.548357,127.62868 C 47.548357,127.62868 46.999954,127.10769 47.034229,126.71696 C 47.068504,126.15827 47.428393,125.70584 47.616907,125.20542 C 48.38467,124.62617 49.155861,124.13946 50.201254,124.38625 C 51.675086,124.71871 52.994679,125.70584 53.971521,126.86434 C 54.893523,127.44016 55.887503,126.95688 57.035721,127.10769 C 58.149663,127.16939 59.380141,126.88148 60.254158,126.1994 C 59.363004,125.9629 58.45814,126.36049 57.721224,126.04174 C 57.412747,125.58588 58.903717,125.79838 59.482967,124.82839 C 59.500104,124.70158 59.688618,124.47536 59.568655,124.32798 C 58.852304,124.03321 58.132526,124.36568 57.549848,124.69472 C 57.104271,124.91751 56.881482,125.78467 56.230254,125.62015 L 56.178842,125.43507 C 56.89862,124.22515 57.704086,122.65535 59.157353,122.20635 C 58.951702,121.99041 58.612378,122.0384 58.355314,121.9013 C 57.824049,121.88416 56.89862,121.02042 56.984308,120.80449 C 57.189959,120.43432 59.979957,121.05127 62.036466,118.57318 C 62.22498,118.44293 62.344943,118.1653 62.482043,117.96994 C 63.253234,116.71204 63.767362,115.44043 64.620813,114.22709 C 65.237766,113.36335 65.99182,112.68813 66.882974,112.16372 C 66.420259,112.08832 66.12892,112.16715 65.426279,112.35566 C 62.773382,113.23996 60.442671,114.94687 58.149663,116.53723 C 57.944012,116.66405 54.807835,118.87823 51.195233,121.38374 C 49.789952,122.40857 46.999954,123.75558 44.823481,124.5679 C 42.684711,125.47962 40.371138,125.77782 39.857011,125.89435 C 38.948719,125.93891 38.880169,126.05202 37.341214,126.1994 C 37.440612,126.60728 38.503142,126.78551 39.000132,126.76837 C 40.182625,127.0083 41.125192,126.79922 41.193742,126.9843 C 41.382255,127.05285 40.868128,127.35447 40.696752,127.44016 C 39.65136,128.05369 38.451729,128.34845 37.169838,128.50955 C 36.861362,128.55068 36.467198,128.54382 36.158721,128.53354 C 34.496376,128.50955 33.108232,128.03655 31.603553,127.71779 C 31.843479,128.10167 32.388454,128.94141 33.913698,129.38699 C 33.879423,129.66119 33.502396,129.64748 33.26247,129.71946 C 32.337041,129.96967 31.62069,129.74003 30.541023,129.58921 C 30.541023,129.58921 29.152879,129.20876 28.79299,128.97912 C 28.073211,128.72205 27.747597,128.53354 27.216332,128.34845 C 27.010681,128.64322 28.79299,130.02794 29.564181,130.35355 C 30.746674,130.99107 30.746674,130.57291 30.815224,130.65517 C 30.678123,130.89853 30.455335,131.14873 29.872657,131.22071 C 28.570201,131.18301 28.99864,131.14188 27.456258,130.60033 C 26.685067,130.29186 26.448569,130.09649 25.917304,130.00052 C 24.889049,129.77773 23.757969,129.80515 22.729714,129.74688 C 22.078486,129.89769 21.170194,129.76745 20.419568,129.91826 C 17.848931,130.49751 14.990383,130.45638 12.488296,129.77773 C 12.076994,129.77773 11.648555,129.6989 11.357216,130.01423 L 11.271528,130.25415 C 11.957031,130.60033 12.728222,130.76828 13.3109,131.35096 C 13.670789,131.70399 13.910715,132.28667 13.756477,132.80765 C 13.585101,133.4246 12.591122,134.04156 11.939894,134.37403 C 10.945914,134.58311 9.921087,134.3089 9.4069596,133.59941 C 9.0127953,133.04072 9.0813456,132.40321 8.8756946,131.73827 C 8.7900067,131.38181 8.532943,131.01506 8.1216411,130.89853 C 7.2133494,130.61404 7.0762488,131.44693 6.579259,131.93021 C 6.4764335,132.18384 6.3564704,132.25925 6.2707825,132.56087 C 6.047994,132.9379 5.8594806,133.22238 5.6881048,133.59941 C 5.0574419,134.33632 3.7721234,134.36032 3.1894457,133.71937 C 2.9837948,133.47945 2.8295566,133.04758 2.7952814,132.99959 C 2.486805,132.46147 1.8527145,131.79653 1.7841642,131.63544 C 1.9898152,130.80256 2.3154292,130.13419 3.0694827,129.91826 C 4.0634623,129.62692 5.6709673,129.55837 6.0994067,129.41441 C 6.8534602,129.07851 6.9562857,128.32789 6.8534602,127.96114 C 6.4250208,127.495 5.3110781,127.82062 4.5261769,128.34845 C 4.2519757,128.50955 3.7035731,128.8146 3.2237209,128.78032 C 2.6924559,128.74262 2.0240903,128.79403 1.7841642,128.2045 C 1.9212649,127.06656 1.5271005,126.13428 1.1843489,125.178 C 1.2014865,124.62617 1.4414126,124.12575 1.9726776,123.86526 C 2.9666572,123.40255 4.3376636,123.38541 5.396766,123.61505 C 6.8020475,123.93724 7.7103392,125.49676 9.3041341,125.43507 C 10.997327,125.38023 12.608259,124.65702 14.339155,125.0786 C 15.470235,125.3528 17.14629,125.9629 17.883206,125.50704 C 18.551572,125.24998 18.56871,124.9655 18.671535,124.5302 C 18.825773,123.90982 18.63726,123.09064 17.968894,122.8987 C 17.557592,122.78217 17.266254,122.9981 16.889227,123.34428 C 16.169448,123.99208 15.178896,124.27314 14.904695,124.13946 C 14.596219,124.03321 15.36741,123.65618 15.418822,123.09064 C 15.453098,122.81644 15.487373,122.71362 15.401685,122.50111 C 14.887558,123.17633 13.944991,123.90982 12.916736,123.77958 C 12.762498,123.49509 13.687927,123.11806 13.430863,122.99125 C 12.848186,123.34085 11.442904,123.46767 10.654575,123.34085 C 10.260411,123.18319 9.715436,123.11121 9.7668488,122.75475 C 10.774538,122.50111 10.963052,122.18235 11.460042,121.74363 C 12.094132,120.43432 10.363237,119.84136 9.921087,118.75141 C 8.9613825,116.60921 9.8525367,114.16882 6.2193698,114.1414 C 5.1739775,114.63154 5.071152,116.0848 3.9434992,116.29388 C 2.5896305,116.5201 1.2186241,116.00597 0.43029545,114.89545 C 0.22464449,114.62125 0.036131118,114.40532 0.070406277,114.11741 C 0.1389566,113.30851 0.43029545,112.42764 1.2186241,112.01977 C 2.281154,111.46451 3.7207107,111.81754 4.9511889,111.63589 C 5.2253902,111.59133 5.3282157,111.28628 5.3624908,111.08748 C 5.3453532,110.91611 5.3453532,110.66933 5.0917171,110.59392 C 4.2691133,109.87414 3.2408585,110.73445 2.4182547,110.44654 C 1.6813388,110.21689 1.2014865,109.77475 0.67022156,109.26405 C 0.46457061,108.68137 0.31033239,108.0747 0.46457061,107.45432 L 0.56739608,107.18012 L 2.4011171,105.53491 C 3.2237209,105.33268 4.3033884,105.09619 5.0403043,105.66173 C 5.8080679,106.24098 6.047994,107.22125 5.9623061,108.08841 C 5.928031,108.70536 6.6649469,109.10981 7.1447991,109.35659 C 7.35045,109.35659 7.5046883,109.20235 7.5903762,109.05154 C 7.9845405,108.25636 6.8020475,107.78679 7.2476246,106.92991 C 7.8303023,105.80911 9.0470704,105.85367 10.126738,105.93593 C 10.414649,105.96678 11.031602,105.94964 11.460042,106.57345 C 11.734243,107.25895 11.648555,107.86905 11.391491,108.26664 C 10.894501,109.67192 9.9724997,109.75418 9.8011239,110.4294 C 9.6640233,110.68989 9.4926475,111.71815 10.126738,112.44135 C 10.520902,112.87665 11.014465,113.06173 11.460042,113.35307 C 12.67681,114.13112 12.762498,114.02144 13.73934,115.28276 C 13.927853,115.59124 14.30488,116.5578 14.596219,117.17132 C 14.819007,116.7566 15.43596,116.02311 15.43596,116.02311 C 16.255136,115.23135 16.700713,115.19708 17.609005,114.83719 C 17.64328,114.24765 17.386217,113.69582 17.163428,113.17827 C 16.666438,112.10546 16.01521,111.13204 15.552496,110.04552 C 14.921833,108.57511 14.44198,106.8168 14.93897,105.03106 C 15.281722,103.84172 15.912385,102.85116 16.426512,101.81263 C 16.683576,101.28822 16.135173,99.910354 16.135173,99.910354 C 16.529338,99.992615 16.597888,100.02346 17.266254,100.14"
       id="path8347"
       style="fill:#231f20;fill-opacity:1;fill-rule:nonzero;stroke:none" />
    <path
       d="M 9.7497112,104.95223 C 9.9382246,105.28813 10.1096,105.58632 10.143876,105.94964 C 9.4240972,105.93593 8.4986679,105.88109 7.881715,106.23069 C 7.8131647,105.76455 7.8645774,105.20929 7.3847252,105.02421 C 7.0591112,104.9728 6.7677723,105.00707 6.5107087,105.1476 C 6.6649469,104.17761 7.1619367,104.16047 7.8988526,104.07136 C 9.2013086,104.15705 9.3726844,104.44496 9.7497112,104.95223"
       id="path8349"
       style="fill:#ed1c24;fill-opacity:1;fill-rule:nonzero;stroke:none" />
    <path
       d="M 2.1954661,105.38067 L 2.3668419,105.5589 L 0.61880882,107.09443 C 0.32746997,106.72426 0.36174513,106.27868 -0.066694359,106.27868 C -0.52940901,106.2444 -0.61166939,106.71055 -0.8515955,106.83736 C -1.1943471,106.31295 -0.74877002,105.53148 -0.49513385,105.15788 C -0.049556779,104.76714 0.41315787,104.42782 1.2014865,104.66089 C 1.5956509,104.77743 1.95554,105.00707 2.1954661,105.38067"
       id="path8351"
       style="fill:#ed1c24;fill-opacity:1;fill-rule:nonzero;stroke:none" />
    <path
       d="M 21.821422,107.67711 C 21.821422,107.84505 21.83856,107.92389 21.735734,108.10897 C 21.053659,107.76622 20.162504,107.88276 19.459864,107.49202 C 19.151387,107.32064 19.014287,106.97789 18.997149,106.69341 C 20.042541,107.51944 21.684322,106.27868 21.821422,107.67711"
       id="path8353"
       style="fill:#ffffff;fill-opacity:1;fill-rule:nonzero;stroke:none" />
    <path
       d="M 27.79901,107.1287 C 27.79901,107.19383 27.79901,107.17326 27.73046,107.32407 C 27.696184,107.36177 27.661909,107.39262 27.559084,107.45774 C 27.353433,107.57428 27.250607,107.55714 26.73648,107.65997 C 26.345743,107.74566 25.420314,107.90675 24.854774,108.10897 C 24.940462,107.49545 25.128975,106.79623 25.951579,107.01902 C 26.585669,107.07386 27.216332,107.3275 27.79901,107.1287"
       id="path8355"
       style="fill:#ffffff;fill-opacity:1;fill-rule:nonzero;stroke:none" />
    <path
       d="M 24.152133,110.58707 C 24.871911,110.47053 25.557415,110.34371 25.248938,110.86127 C 24.854774,111.39253 23.826519,110.77901 23.072465,111.00865 C 22.558338,111.07035 22.009936,110.77901 22.284137,110.49795 C 22.318412,110.45339 22.438375,110.43626 22.506925,110.39513 C 23.03819,110.28887 23.415217,110.71046 24.152133,110.58707"
       id="path8357"
       style="fill:#ffffff;fill-opacity:1;fill-rule:nonzero;stroke:none" />
    <path
       d="M 20.642357,117.64432 C 19.562689,118.75484 18.740085,121.08212 16.889227,120.76336 C 16.255136,120.65025 15.689596,120.14984 15.487373,119.55345 C 15.281722,119.00505 15.487373,118.51148 15.809559,118.09675 C 17.249116,116.2219 19.63124,116.68462 21.135919,114.94001 C 21.941385,114.03172 22.369825,113.39077 22.592613,112.26312 C 22.883952,111.73871 24.443472,112.24598 24.614848,112.0609 C 25.403176,112.18772 23.877932,114.31278 20.642357,117.64432"
       id="path8359"
       style="fill:#ed1c24;fill-opacity:1;fill-rule:nonzero;stroke:none" />
    <path
       d="M 2.0412279,116.0848 C 1.835577,116.2219 1.4071375,116.78744 1.4585502,117.17132 C 1.4928254,117.41125 1.7327515,117.84997 1.835577,118.03849 C 1.5785133,118.0522 1.0815235,117.8911 0.48170819,117.5175 C -0.20379499,117.17818 -0.6150969,116.11908 -0.20379499,115.26905 C -0.13524468,115.11824 0.0018559591,114.62468 0.17323175,114.52871 C 0.60167124,115.11824 1.3728623,115.80375 2.0412279,116.0848"
       id="path8361"
       style="fill:#ed1c24;fill-opacity:1;fill-rule:nonzero;stroke:none" />
    <path
       d="M 47.634044,125.19514 C 47.411256,125.70927 47.154192,126.40848 47.102779,127.00144 C 46.760028,126.90204 46.554377,126.1994 46.074525,126.06573 C 45.577535,125.9869 45.234783,126.36735 45.097683,126.48731 C 44.909169,126.08629 45.251921,125.63386 45.491847,125.36651 C 45.971699,124.82839 47.017092,124.75984 47.634044,125.19514"
       id="path8363"
       style="fill:#ed1c24;fill-opacity:1;fill-rule:nonzero;stroke:none" />
    <path
       d="M 1.8013018,128.17708 C 1.304312,128.02627 0.41315787,127.77949 -0.10096952,128.03655 C -0.27234531,128.07768 -0.40601843,128.26277 -0.68021971,128.55068 C -1.1257968,127.72465 -0.97155856,127.29963 -0.83445792,126.87805 C -0.39230837,126.25081 0.036131118,125.88407 0.84159735,125.53789 L 1.2357617,125.14715 C 1.4928254,126.04174 1.9726776,126.91575 1.8013018,128.17708"
       id="path8365"
       style="fill:#ed1c24;fill-opacity:1;fill-rule:nonzero;stroke:none" />
    <path
       d="M 84.387297,130.0108 C 84.678636,130.3844 83.650381,130.12048 83.513281,130.32956 C 83.273355,130.51464 83.187667,130.5969 83.221942,130.87111 C 83.23908,131.14531 83.530418,131.47092 83.427593,131.46064 C 83.221942,131.44007 82.999153,131.38523 82.87919,131.31326 C 82.622127,131.13502 82.416476,130.92595 82.296513,130.63803 C 82.056587,129.91826 82.724952,129.04081 83.084841,128.49241 C 83.084841,128.49241 84.318747,129.43155 84.387297,130.0108"
       id="path8367"
       style="fill:#ed1c24;fill-opacity:1;fill-rule:nonzero;stroke:none" />
    <path
       d="M 44.05229,130.4221 C 43.298237,129.96624 42.701849,130.39811 42.444785,130.9945 C 42.27341,130.91224 42.136309,130.44267 42.256272,129.96281 C 42.359097,129.63377 42.530473,129.33901 42.886935,129.05109 L 43.898052,128.50955 C 43.949465,128.98254 43.949465,129.95939 44.05229,130.4221"
       id="path8369"
       style="fill:#ed1c24;fill-opacity:1;fill-rule:nonzero;stroke:none" />
    <path
       d="M 98.309867,130.84711 C 98.241317,131.25841 98.138491,131.78625 97.847152,132.18727 C 97.538676,132.61914 96.736637,133.22581 96.35961,132.9379 C 96.22251,132.85221 97.233627,131.84795 96.428161,131.18986 C 96.976563,130.73058 97.590089,130.11705 98.121354,129.66462 C 98.155629,129.98338 98.258454,130.33641 98.309867,130.84711"
       id="path8371"
       style="fill:#ed1c24;fill-opacity:1;fill-rule:nonzero;stroke:none" />
    <path
       d="M 3.1208954,133.57199 C 2.5724929,133.89417 2.2297413,134.75791 2.2468789,135.28917 C 1.7156139,135.30974 1.0815235,135.05953 0.70449672,134.09297 C 0.41315787,133.48287 0.60167124,132.10844 1.8013018,131.57032 C 2.2468789,132.05017 2.7610063,132.85906 3.1208954,133.57199"
       id="path8373"
       style="fill:#ed1c24;fill-opacity:1;fill-rule:nonzero;stroke:none" />
    <path
       d="M 93.480497,134.3089 C 93.46336,134.27806 93.634735,134.49742 93.360534,134.69964 C 92.760719,135.40914 91.410277,135.13151 90.913288,134.75791 C 90.759049,134.63795 90.604811,134.18209 90.501986,134.01757 C 91.564516,133.58913 91.907267,133.38005 92.486517,132.98588 C 92.760719,133.47945 92.555068,134.92586 93.480497,134.3089"
       id="path8375"
       style="fill:#ed1c24;fill-opacity:1;fill-rule:nonzero;stroke:none" />
    <path
       d="M 13.979266,134.3089 C 14.013541,134.88815 13.842165,135.37486 13.482276,135.72447 C 12.882461,136.29001 11.871344,136.22146 11.168703,135.99181 C 11.134428,135.92669 12.196958,135.18292 11.837068,134.3706 C 12.436884,134.08269 12.848186,133.81534 13.413726,133.29093 C 13.687927,133.51372 13.962128,133.99014 13.979266,134.3089"
       id="path8377"
       style="fill:#ed1c24;fill-opacity:1;fill-rule:nonzero;stroke:none" />
    <path
       d="M 53.543082,133.58913 C 53.440256,133.77764 53.337431,134.24035 53.440256,134.41173 C 53.611632,134.69279 53.817283,134.89501 53.954384,135.06981 C 53.320293,135.27889 52.737616,135.22748 52.154938,134.83331 C 51.777911,134.5694 51.555123,133.81877 51.143821,133.61997 C 51.829324,133.59598 52.771891,133.54114 53.543082,133.58913"
       id="path8379"
       style="fill:#ed1c24;fill-opacity:1;fill-rule:nonzero;stroke:none" />
    <path
       d="M 17.300529,58.317449 C 18.088857,58.471687 18.63726,59.794708 19.562689,59.715875 C 21.170194,59.122915 23.46663,59.301146 25.146113,59.904389 C 26.328606,59.801563 27.113507,59.828983 28.570201,60.291698 C 30.095446,60.315691 30.335372,58.430557 30.472472,58.533382 C 30.746674,58.985815 30.969462,59.0338 31.226526,59.554782 C 32.268491,61.285678 30.9866,62.711524 32.542692,63.537556 C 32.988269,63.767199 33.588084,63.732924 34.102212,63.705504 C 33.947973,64.774889 32.371316,65.727738 31.260801,65.861411 C 31.295076,66.159605 33.656635,66.577762 34.650614,65.738021 C 34.479238,67.345526 32.474142,67.962479 31.226526,68.027602 C 32.04913,69.295782 33.588084,68.757662 34.170762,68.493744 C 34.290725,69.035291 33.725185,69.662527 33.348158,69.909308 C 32.645517,70.36174 32.114252,70.409725 31.346489,70.41658 C 33.073957,70.84502 33.982249,71.674478 34.170762,73.18944 C 33.519534,72.970079 32.885444,72.469662 31.48359,72.56906 C 31.380764,72.59648 32.936856,74.988886 39.15437,74.533027 C 42.136309,74.23826 45.817461,73.597315 49.155861,71.715609 C 50.047016,71.204909 56.812932,67.554604 60.219883,66.536632 C 64.775051,65.381559 67.225725,65.460392 70.204237,65.597493 C 71.352454,65.648905 72.757736,65.765441 73.546065,64.867432 C 74.334393,64.01398 74.07733,63.636954 73.768853,63.133109 C 72.637773,61.652422 70.598401,60.870948 68.545319,61.114302 C 66.540222,61.357656 65.237766,61.679842 62.841932,62.403048 C 59.448692,63.369607 60.065645,64.044828 55.082036,64.363587 C 51.418022,64.096241 50.93817,64.140798 48.113897,62.992581 C 46.622927,62.430468 43.178274,61.830653 42.547611,63.654091 C 42.41051,66.087628 45.68036,67.129592 46.67434,67.294113 C 45.903149,68.205832 43.743814,67.64372 42.92121,67.208425 C 43.555301,68.253818 44.412179,68.34636 45.337609,68.456041 C 43.589576,69.813337 41.467943,68.610279 41.142329,68.493744 C 41.022366,68.586287 41.193742,69.813337 44.018015,69.82362 C 43.778089,70.41658 42.479061,70.930707 41.245155,70.666789 C 39.959836,70.392587 39.120095,69.775635 38.02329,69.103841 C 37.560575,69.072994 37.59485,69.840757 37.289801,70.073828 C 36.090171,70.893005 35.301842,70.697636 34.239312,70.834737 C 34.307863,70.426863 36.604298,70.193792 36.244409,67.588879 C 36.278684,64.630933 35.31898,62.324215 36.929912,60.380814 C 37.392627,59.911244 40.028387,57.440005 45.303334,59.630188 C 46.125937,59.972939 47.30843,60.394524 48.230432,60.929216 C 50.252667,61.899203 53.899543,62.684104 55.716127,62.481881 C 57.104271,62.33107 58.45814,61.878638 59.757168,61.446771 C 62.447768,60.531624 65.220629,59.897534 68.116879,59.383406 C 71.181079,58.968677 72.894837,60.134032 73.940229,60.764695 C 74.557182,61.155432 75.225547,61.679842 75.839073,62.355063 C 77.210079,61.652422 78.152646,60.713283 81.799523,61.433061 C 84.472985,62.060296 86.272431,62.776647 88.119862,62.913748 C 90.621949,62.913748 90.913288,62.324215 92.109491,61.717545 C 92.126628,63.9043 90.981838,64.229914 90.33061,64.692629 L 90.33061,64.720049 C 91.495965,64.720049 92.96637,64.202494 93.634735,63.263354 C 93.943212,63.722642 93.172021,65.731166 92.503655,66.293278 C 92.092353,66.858819 90.879013,67.20157 90.570536,67.263265 C 91.290314,67.479199 93.908937,67.660857 94.645853,66.121903 C 94.543027,67.582024 93.566185,68.33265 91.989528,68.757662 C 90.741912,69.131262 90.26206,69.042146 89.26808,68.757662 C 89.319493,69.096986 89.83362,69.645389 90.450573,69.576839 C 91.358865,69.710512 91.989528,69.27179 92.143766,69.330058 C 92.315142,69.621396 91.136076,70.409725 90.724774,70.594811 C 89.011016,71.283742 86.800269,70.611948 86.320416,70.286334 C 85.312727,69.621396 84.850012,68.473179 84.781462,68.082442 C 84.592948,66.913659 84.627224,66.053352 83.616106,64.562383 C 82.416476,63.153674 81.319671,62.725234 79.455102,62.725234 C 76.370338,63.191377 75.873348,66.320699 76.661677,67.534039 C 77.210079,68.459469 79.677891,70.515978 83.256217,69.957293 C 82.31365,71.222046 80.963209,71.222046 80.397669,71.259749 C 80.431944,71.503103 81.473909,71.815007 82.279375,71.797869 C 82.913466,71.780731 83.410455,71.503103 83.410455,71.503103 C 83.23908,72.411394 81.422496,73.03863 80.17488,73.083187 C 81.233983,74.323948 83.341905,74.344513 84.747187,73.885226 C 85.809717,73.765263 86.320416,72.654748 86.354692,72.839834 C 86.560342,73.172303 85.792579,74.279391 85.415552,74.683837 C 86.169606,75.321355 86.783131,74.6667 87.211571,74.375361 C 88.188413,73.70014 88.428339,73.203151 88.873916,72.493655 C 88.993879,72.493655 89.062429,72.726726 89.045292,72.870681 C 89.028154,73.285411 88.668265,74.207413 88.668265,74.207413 C 89.610832,74.07374 90.467711,73.778973 91.615928,73.861234 C 92.280867,73.912646 93.480497,74.07374 93.53191,74.413064 C 93.291984,74.663272 92.863544,74.563874 92.53793,74.62557 C 91.513103,74.827793 89.867895,75.386478 89.902171,76.171379 C 89.919308,76.620384 90.501986,76.973418 90.913288,77.110519 C 91.920977,77.42585 92.555068,77.514966 93.566185,77.43956 C 94.388789,77.377865 95.194255,76.736919 95.194255,76.829462 C 95.005742,77.820014 93.03492,78.851697 91.547378,78.896254 C 91.615928,79.989632 92.949232,80.675135 93.634735,81.436044 C 95.125705,82.286068 96.78805,82.762492 98.035666,84.126644 C 98.738306,84.866987 99.149608,85.453092 98.978233,86.745266 C 98.481243,87.65013 97.624364,88.414466 96.890875,89.079404 C 96.411023,89.511271 95.65697,89.905435 94.988604,89.470141 C 93.840386,88.722943 93.429084,87.159995 93.257709,86.018632 C 93.120608,85.103486 93.583323,84.675046 93.172021,83.735907 C 92.914957,83.139519 92.726444,82.954433 92.023803,83.009274 C 91.410277,83.33146 90.759049,84.304875 91.852427,85.895242 C 92.349417,87.451334 94.851503,89.425583 93.223433,90.717757 C 93.000645,91.067363 91.358865,91.931097 90.587674,92.249856 C 89.508006,92.085336 88.102725,92.42466 87.622872,91.290152 C 87.177295,90.224194 88.188413,89.374171 88.685402,88.674957 C 88.856778,88.428176 89.33663,88.28422 89.19953,87.824933 C 89.079567,87.358791 88.668265,87.65013 88.445476,87.739245 C 87.742835,88.044294 87.108745,88.609834 86.320416,88.777783 C 85.912542,88.990289 85.347002,88.980006 84.9357,88.777783 C 84.50726,88.558422 84.43871,88.071714 84.198784,87.739245 C 83.80462,87.187415 82.759227,87.012612 83.084841,86.011777 C 83.37618,85.291999 83.633244,84.836139 84.233059,84.51738 C 85.398415,84.085513 86.406104,85.346839 86.64603,85.432527 C 87.023057,85.614186 87.674285,85.830119 88.514027,85.315992 C 89.319493,84.465968 90.004996,83.468561 89.593694,82.320343 C 89.319493,81.552579 88.873916,80.760823 87.862799,80.685418 C 86.371829,80.57231 84.027408,81.641695 82.999153,82.100982 C 81.319671,82.8756 80.054917,81.487456 79.746441,81.984446 C 78.923837,83.897 81.25112,84.376852 80.689008,84.98695 C 79.215176,84.884125 77.809894,84.188339 76.953015,82.947578 C 75.27696,80.469484 76.678814,77.648639 76.096136,74.553592 C 75.976173,73.854379 75.362648,73.415656 74.814246,73.141455 C 73.734578,72.59648 72.295021,72.56906 71.232491,73.203151 C 70.255649,73.778973 69.162272,75.098567 68.785245,76.071981 C 68.408218,77.007693 67.928366,79.790836 68.476769,80.911634 C 68.939483,81.878193 69.693537,82.80705 70.718364,83.283475 C 70.821189,83.468561 70.769777,83.612516 70.564126,83.615944 C 68.511044,83.657074 67.499927,81.370921 67.242863,81.593709 C 67.037212,81.713672 67.071487,81.977591 67.002937,82.17296 C 66.711598,83.043549 66.763011,84.075231 67.105762,84.956103 C 67.482789,85.919235 68.151155,86.261986 69.350785,87.187415 C 69.659262,87.375929 69.912898,87.62271 70.238512,87.739245 C 70.289925,87.838643 70.581263,87.948324 70.101411,88.071714 C 68.733832,88.417894 67.208588,88.044294 66.197471,87.050315 L 66.111783,87.050315 C 66.008957,87.437624 66.231746,87.735818 66.677323,88.126555 C 67.448514,88.884036 68.442493,88.935448 68.442493,89.247352 C 67.328551,89.80261 65.940407,89.432438 65.032115,88.866898 C 64.723639,88.674957 64.637951,88.65782 64.48714,88.531002 C 64.350039,88.722943 64.449437,89.041701 64.55569,89.22336 C 64.99784,90.063101 66.763011,90.251615 66.523085,90.498396 C 65.580518,91.087928 63.767362,90.347585 62.122154,88.531002 C 61.008211,87.300523 58.783754,87.975744 57.172821,87.824933 C 55.956053,87.711825 54.447946,88.267083 54.362258,88.801775 C 54.293708,89.158237 54.722147,89.833458 54.910661,90.347585 C 55.013486,90.683482 54.944936,91.005668 54.859248,91.314145 C 54.533634,91.718591 54.070919,91.869402 53.543082,91.804279 C 52.343451,91.632904 50.698244,92.308124 50.064153,91.039943 C 49.584301,90.117941 51.040995,88.565277 50.561143,88.476161 C 49.978465,88.195105 48.710284,89.137672 47.702595,89.339895 C 46.74289,89.542119 45.61181,90.392143 44.720656,89.740915 C 43.778089,89.065694 44.05229,87.759811 43.880915,86.765831 C 44.326492,86.004922 45.217646,85.494223 46.143075,85.535353 C 46.760028,85.559345 47.17133,85.504505 47.565494,85.809554 C 47.565494,85.809554 47.034229,85.285144 47.068504,84.894407 C 47.102779,84.335722 47.462669,83.890145 47.634044,83.3863 C 48.418946,82.80705 49.172999,82.320343 50.235529,82.560269 C 51.709361,82.896165 53.011817,83.890145 54.002369,85.04179 C 54.910661,85.614186 55.90464,85.127478 57.052858,85.285144 C 58.183938,85.346839 59.414417,85.058928 60.271296,84.376852 C 59.397279,84.140354 58.492415,84.541373 57.755499,84.222614 C 57.429885,83.756472 58.937992,83.982688 59.500104,83.009274 C 59.53438,82.8756 59.705755,82.645957 59.585792,82.502001 C 58.869442,82.21409 58.166801,82.546559 57.566985,82.86189 C 57.121408,83.094961 56.915757,83.958695 56.264529,83.80103 L 56.213117,83.615944 C 56.932895,82.399176 57.721224,80.825946 59.177918,80.383796 C 58.985977,80.167863 58.646653,80.208993 58.389589,80.07532 C 57.858324,80.065037 56.932895,79.201303 57.001445,78.988797 C 57.224234,78.611771 60.014232,79.228723 62.053604,76.747202 C 62.259255,76.620384 62.379218,76.342755 62.516318,76.147387 C 63.28751,74.889488 63.801637,73.61788 64.655088,72.411394 C 65.272041,71.544233 66.008957,70.869012 66.900111,70.344602 C 66.437397,70.265769 66.146058,70.344602 65.443417,70.529688 C 62.79052,71.417415 60.459809,73.127745 58.183938,74.711258 C 57.978287,74.848358 54.824973,77.059106 51.229509,79.561193 C 49.80709,80.589447 47.034229,81.919323 44.840619,82.741927 C 42.701849,83.657074 40.388276,83.95184 39.874148,84.075231 C 38.965857,84.112934 38.914444,84.226042 37.354924,84.376852 C 37.474887,84.784727 38.537417,84.956103 39.017269,84.942392 C 40.199762,85.182319 41.159467,84.97324 41.21088,85.165181 C 41.416531,85.230304 40.885266,85.528498 40.731027,85.614186 C 39.668497,86.231138 38.486004,86.525905 37.204114,86.686998 C 36.895637,86.724701 36.484335,86.717846 36.192996,86.714418 C 34.513514,86.686998 33.142507,86.210573 31.637828,85.895242 C 31.877754,86.279124 32.422729,87.122293 33.930836,87.56787 C 33.896561,87.838643 33.536672,87.824933 33.296745,87.900339 C 32.354179,88.143692 31.654965,87.920904 30.575298,87.770093 C 30.575298,87.770093 29.170016,87.386211 28.810127,87.159995 C 28.107486,86.906359 27.781872,86.714418 27.250607,86.525905 C 27.027819,86.824099 28.810127,88.205388 29.581318,88.531002 C 30.780949,89.161665 30.780949,88.75379 30.832361,88.839478 C 30.712398,89.072549 30.48961,89.336468 29.906932,89.394736 C 28.587339,89.357033 29.015778,89.322758 27.490533,88.777783 C 26.702205,88.469306 26.482844,88.27051 25.951579,88.167685 C 24.923324,87.951751 23.775106,87.982599 22.763989,87.920904 C 22.112761,88.071714 21.204469,87.944896 20.453843,88.102562 C 17.883206,88.674957 15.007521,88.637255 12.522572,87.951751 C 12.094132,87.951751 11.68283,87.869491 11.374354,88.18825 L 11.305803,88.435031 C 11.991307,88.777783 12.74536,88.942304 13.328038,89.524981 C 13.687927,89.878015 13.927853,90.460693 13.773615,90.981675 C 13.619377,91.598628 12.625397,92.215581 11.974169,92.554905 C 10.963052,92.753701 9.9382246,92.482927 9.4240972,91.780287 C 9.0470704,91.218174 9.0984832,90.577229 8.9099698,89.912291 C 8.8071443,89.559256 8.5500806,89.19594 8.1559163,89.079404 C 7.230487,88.791493 7.1105239,89.627807 6.5963966,90.104231 C 6.5107087,90.364723 6.3907456,90.433273 6.3050577,90.741749 C 6.0822692,91.115349 5.8766182,91.406687 5.72238,91.780287 C 5.071152,92.50692 3.789261,92.537768 3.2065833,91.88654 C 3.0009324,91.660324 2.8466942,91.225029 2.8295566,91.173616 C 2.5210801,90.632069 1.8698521,89.973986 1.8013018,89.809465 C 2.0069528,88.980006 2.3497044,88.321923 3.0866203,88.102562 C 4.0977375,87.807796 5.6881048,87.735818 6.1336819,87.59529 C 6.8705978,87.255966 6.9734233,86.495057 6.8705978,86.142023 C 6.4421583,85.672453 5.3282157,85.998067 4.5433145,86.525905 C 4.2691133,86.686998 3.7378483,86.992047 3.2408585,86.964627 C 2.7267311,86.913214 2.0583655,86.971482 1.8184394,86.388804 C 1.95554,85.244014 1.5613757,84.304875 1.2014865,83.355453 C 1.2186241,82.80705 1.4585502,82.299778 2.0069528,82.042714 C 2.9837948,81.579999 4.3719387,81.562862 5.4139036,81.795933 C 6.8191851,82.114692 7.7446144,83.670784 9.3212717,83.615944 C 11.014465,83.557676 12.625397,82.837898 14.356293,83.256055 C 15.50451,83.526828 17.180566,84.133499 17.900344,83.684494 C 18.56871,83.424003 18.585847,83.139519 18.70581,82.704225 C 18.860048,82.080417 18.671535,81.27495 17.986032,81.076155 C 17.57473,80.963047 17.283391,81.175552 16.923502,81.521732 C 16.203724,82.17296 15.213172,82.447161 14.93897,82.31006 C 14.613356,82.207235 15.401685,81.830208 15.453098,81.27495 C 15.470235,81.004177 15.50451,80.891069 15.418822,80.675135 C 14.904695,81.353783 13.979266,82.080417 12.933873,81.957026 C 12.779635,81.672542 13.722202,81.292088 13.465138,81.175552 C 12.882461,81.518304 11.477179,81.651977 10.688851,81.518304 C 10.298114,81.357211 9.7325736,81.292088 9.8011239,80.928771 C 10.808814,80.675135 10.980189,80.352949 11.494317,79.924509 C 12.128407,78.611771 10.380374,78.015383 9.9382246,76.925433 C 8.9785201,74.77638 9.8696742,72.346272 6.2365074,72.322279 C 5.2082526,72.808986 5.1054271,74.26568 3.9777744,74.467904 C 2.6239056,74.700975 1.2528993,74.179993 0.46457061,73.069477 C 0.25891965,72.795276 0.070406277,72.58277 0.10468144,72.288004 C 0.17323175,71.482538 0.46457061,70.608521 1.2528993,70.200647 C 2.2982916,69.641961 3.7549859,69.994996 4.9683265,69.813337 C 5.2425278,69.76878 5.3453532,69.463731 5.396766,69.264935 C 5.3624908,69.093559 5.3796284,68.850205 5.1225647,68.7748 C 4.3033884,68.055022 3.2751336,68.911901 2.4525298,68.627417 C 1.6984763,68.397773 1.2186241,67.948769 0.70449672,67.444924 C 0.48170819,66.851964 0.32746997,66.248721 0.48170819,65.631768 L 0.60167124,65.354139 L 2.4182547,63.708931 C 3.2408585,63.506708 4.320526,63.277064 5.0540144,63.839177 C 5.8423431,64.421855 6.0651316,65.398697 5.9965813,66.262431 C 5.9451685,66.879384 6.699222,67.287258 7.1790743,67.534039 C 7.3675876,67.534039 7.5218258,67.390084 7.6075137,67.22899 C 8.0016781,66.433807 6.8363227,65.960809 7.2818997,65.107358 C 7.8474399,63.983133 9.064208,64.024263 10.143876,64.113378 C 10.448924,64.140798 11.04874,64.120233 11.494317,64.754324 C 11.768518,65.439827 11.665693,66.046497 11.425766,66.447517 C 10.928777,67.845943 10.006775,67.928204 9.8182615,68.610279 C 9.6982984,68.87077 9.5097851,69.888743 10.143876,70.615376 C 10.534612,71.057526 11.031602,71.235756 11.494317,71.530523 C 12.693947,72.308569 12.796773,72.195461 13.756477,73.460214 C 13.962128,73.768691 14.322017,74.728395 14.613356,75.352203 C 14.853282,74.930619 15.453098,74.193703 15.453098,74.193703 C 16.289412,73.405374 16.717851,73.371099 17.64328,73.01121 C 17.660418,72.425104 17.420492,71.876702 17.180566,71.355719 C 16.700713,70.286334 16.032348,69.309492 15.573061,68.22297 C 14.956108,66.752566 14.459118,64.990822 14.973245,63.205087 C 15.298859,62.026021 15.929522,61.032042 16.460787,59.990077 C 16.717851,59.469094 16.169448,58.08095 16.169448,58.08095 C 16.546475,58.166638 16.615026,58.197486 17.300529,58.317449"
       id="path8381"
       style="fill:#231f20;fill-opacity:1;fill-rule:nonzero;stroke:none" />
    <path
       d="M 9.7668488,63.129681 C 9.9724997,63.455295 10.143876,63.767199 10.161013,64.127088 C 9.4583723,64.109951 8.5158055,64.061966 7.9159902,64.404717 C 7.8474399,63.948858 7.8988526,63.37989 7.4190004,63.201659 C 7.0933864,63.146819 6.8020475,63.184522 6.5278462,63.32505 C 6.699222,62.35849 7.1962118,62.337925 7.9159902,62.245382 C 9.2355838,62.33107 9.389822,62.622409 9.7668488,63.129681"
       id="path8383"
       style="fill:#ed1c24;fill-opacity:1;fill-rule:nonzero;stroke:none" />
    <path
       d="M 2.2126037,63.558121 L 2.4011171,63.726069 L 0.65308398,65.271879 C 0.36174513,64.894852 0.39602029,64.452702 -0.0324192,64.452702 C -0.51227143,64.425282 -0.58082174,64.887997 -0.83445792,65.011388 C -1.1772095,64.486978 -0.73163244,63.708931 -0.47799627,63.331905 C -0.0324192,62.941168 0.43029545,62.608699 1.2186241,62.838342 C 1.629926,62.95145 1.9898152,63.177667 2.2126037,63.558121"
       id="path8385"
       style="fill:#ed1c24;fill-opacity:1;fill-rule:nonzero;stroke:none" />
    <path
       d="M 21.855697,65.851129 C 21.83856,66.025932 21.855697,66.09791 21.770009,66.282996 C 21.087934,65.936817 20.179642,66.060207 19.494139,65.669471 C 19.185662,65.498095 19.048562,65.151916 19.014287,64.867432 C 20.076817,65.703746 21.701459,64.452702 21.855697,65.851129"
       id="path8387"
       style="fill:#ffffff;fill-opacity:1;fill-rule:nonzero;stroke:none" />
    <path
       d="M 27.816147,65.306154 C 27.833285,65.367849 27.816147,65.350712 27.764735,65.50495 C 27.73046,65.542652 27.679047,65.570073 27.593359,65.638623 C 27.387708,65.755158 27.284883,65.734593 26.774183,65.844274 C 26.362881,65.923107 25.437451,66.0842 24.889049,66.282996 C 24.974737,65.669471 25.146113,64.977112 25.968716,65.196473 C 26.619944,65.258169 27.23347,65.508377 27.816147,65.306154"
       id="path8389"
       style="fill:#ffffff;fill-opacity:1;fill-rule:nonzero;stroke:none" />
    <path
       d="M 24.186408,68.764517 C 24.906186,68.651409 25.59169,68.521164 25.283213,69.042146 C 24.889049,69.569984 23.860794,68.956458 23.089603,69.186102 C 22.575476,69.247797 22.044211,68.956458 22.301274,68.671974 C 22.352687,68.630844 22.47265,68.617134 22.541201,68.576004 C 23.072465,68.469751 23.449492,68.877625 24.186408,68.764517"
       id="path8391"
       style="fill:#ffffff;fill-opacity:1;fill-rule:nonzero;stroke:none" />
    <path
       d="M 20.676632,75.821773 C 19.596964,76.922005 18.774361,79.259571 16.906364,78.937385 C 16.289412,78.827704 15.710161,78.317004 15.50451,77.730899 C 15.315997,77.179069 15.521648,76.692362 15.843834,76.274205 C 17.266254,74.392499 19.665515,74.855213 21.170194,73.110608 C 21.97566,72.202316 22.386962,71.557943 22.626888,70.440573 C 22.918227,69.912735 24.460609,70.423435 24.649123,70.231494 C 25.420314,70.36174 23.912207,72.483372 20.676632,75.821773"
       id="path8393"
       style="fill:#ed1c24;fill-opacity:1;fill-rule:nonzero;stroke:none" />
    <path
       d="M 2.0755031,74.262253 C 1.8527145,74.392499 1.4242751,74.958039 1.4928254,75.34192 C 1.5271005,75.588702 1.7670266,76.023996 1.8698521,76.209082 C 1.5956509,76.22622 1.1157986,76.068554 0.51598334,75.691527 C -0.16951984,75.352203 -0.59453181,74.289673 -0.18665742,73.439649 C -0.10096952,73.295693 0.018993539,72.798704 0.19036933,72.699306 C 0.61880882,73.292266 1.4071375,73.974342 2.0755031,74.262253"
       id="path8395"
       style="fill:#ed1c24;fill-opacity:1;fill-rule:nonzero;stroke:none" />
    <path
       d="M 47.66832,83.37259 C 47.445531,83.893573 47.188467,84.592786 47.119917,85.175464 C 46.794303,85.076066 46.588652,84.376852 46.1088,84.239752 C 45.594672,84.160919 45.269058,84.544801 45.131958,84.664764 C 44.926307,84.267172 45.286196,83.811312 45.526122,83.543966 C 46.005974,83.009274 47.034229,82.940723 47.66832,83.37259"
       id="path8397"
       style="fill:#ed1c24;fill-opacity:1;fill-rule:nonzero;stroke:none" />
    <path
       d="M 1.835577,86.337391 C 1.3214496,86.200291 0.44743303,85.946655 -0.066694359,86.203718 C -0.23807015,86.244849 -0.39230837,86.440217 -0.64594455,86.721273 C -1.0915216,85.902097 -0.9372834,85.47023 -0.80018276,85.0555 C -0.35803321,84.414555 0.070406277,84.058093 0.87587251,83.708487 L 1.2528993,83.31775 C 1.5271005,84.212332 1.9898152,85.089776 1.835577,86.337391"
       id="path8399"
       style="fill:#ed1c24;fill-opacity:1;fill-rule:nonzero;stroke:none" />
    <path
       d="M 84.421573,88.184823 C 84.712911,88.565277 83.684657,88.301358 83.547556,88.517292 C 83.30763,88.702377 83.204804,88.774355 83.23908,89.051984 C 83.273355,89.329613 83.564694,89.662082 83.461868,89.651799 C 83.23908,89.620952 83.033429,89.569539 82.913466,89.497561 C 82.639264,89.322758 82.433613,89.110252 82.330788,88.818913 C 82.073724,88.102562 82.759227,87.218263 83.101979,86.66986 C 83.101979,86.66986 84.335885,87.615855 84.421573,88.184823"
       id="path8401"
       style="fill:#ed1c24;fill-opacity:1;fill-rule:nonzero;stroke:none" />
    <path
       d="M 44.086565,88.596124 C 43.315374,88.140265 42.718987,88.572132 42.461923,89.175375 C 42.290547,89.093114 42.153446,88.623545 42.27341,88.140265 C 42.376235,87.811223 42.547611,87.519884 42.904072,87.231973 L 43.932327,86.690426 C 43.966602,87.163423 43.98374,88.136837 44.086565,88.596124"
       id="path8403"
       style="fill:#ed1c24;fill-opacity:1;fill-rule:nonzero;stroke:none" />
    <path
       d="M 98.344142,89.024564 C 98.258454,89.435866 98.155629,89.973986 97.881428,90.375005 C 97.572951,90.79659 96.770912,91.406687 96.393886,91.115349 C 96.256785,91.029661 97.247337,90.039109 96.445298,89.381026 C 97.010838,88.918311 97.624364,88.297931 98.138491,87.848926 C 98.189904,88.164257 98.292729,88.520719 98.344142,89.024564"
       id="path8405"
       style="fill:#ed1c24;fill-opacity:1;fill-rule:nonzero;stroke:none" />
    <path
       d="M 3.1551706,91.749439 C 2.606768,92.068198 2.2640165,92.925077 2.281154,93.466625 C 1.7327515,93.483762 1.1157986,93.236981 0.7216343,92.273849 C 0.44743303,91.660324 0.6359464,90.28589 1.8184394,89.740915 C 2.281154,90.23105 2.7781438,91.033088 3.1551706,91.749439"
       id="path8407"
       style="fill:#ed1c24;fill-opacity:1;fill-rule:nonzero;stroke:none" />
    <path
       d="M 93.514772,92.486355 C 93.480497,92.455507 93.66901,92.674868 93.394809,92.877092 C 92.777856,93.579733 91.427415,93.305531 90.947563,92.93536 C 90.776187,92.808541 90.639086,92.352682 90.519123,92.191589 C 91.598791,91.770004 91.920977,91.550643 92.520793,91.166761 C 92.777856,91.653469 92.572205,93.09988 93.514772,92.486355"
       id="path8409"
       style="fill:#ed1c24;fill-opacity:1;fill-rule:nonzero;stroke:none" />
    <path
       d="M 14.013541,92.486355 C 14.030679,93.055323 13.859303,93.552312 13.499414,93.895064 C 12.916736,94.460604 11.905619,94.398909 11.18584,94.172693 C 11.151565,94.100715 12.214095,93.350089 11.871344,92.554905 C 12.454021,92.263566 12.882461,91.992793 13.430863,91.47181 C 13.722202,91.687744 13.996403,92.171024 14.013541,92.486355"
       id="path8411"
       style="fill:#ed1c24;fill-opacity:1;fill-rule:nonzero;stroke:none" />
    <path
       d="M 53.560219,91.783714 C 53.457394,91.975655 53.354568,92.434942 53.457394,92.606318 C 53.645907,92.880519 53.848131,93.079315 53.971521,93.267829 C 53.337431,93.470052 52.754753,93.425494 52.189213,93.024475 C 51.795049,92.760556 51.589398,92.00993 51.178096,91.807707 C 51.863599,91.790569 52.789028,91.735729 53.560219,91.783714"
       id="path8413"
       style="fill:#ed1c24;fill-opacity:1;fill-rule:nonzero;stroke:none" />
    <path
       d="M 17.231978,16.357799 C 18.020307,16.512038 18.56871,17.835059 19.494139,17.756226 C 21.105071,17.170121 23.415217,17.338069 25.077562,17.944739 C 26.242918,17.841914 27.044956,17.872761 28.501651,18.335476 C 30.026895,18.359469 30.266821,16.46748 30.42106,16.573733 C 30.678123,17.022737 30.900912,17.070723 31.157975,17.59856 C 32.19994,19.332883 30.918049,20.755302 32.474142,21.577906 C 32.902581,21.804122 33.519534,21.776702 34.033661,21.745854 C 33.879423,22.815239 32.302766,23.768089 31.192251,23.901762 C 31.226526,24.199956 33.588084,24.614685 34.582064,23.778371 C 34.410688,25.379021 32.405591,26.002829 31.157975,26.064524 C 31.977152,27.332705 33.519534,26.794585 34.119349,26.537522 C 34.222175,27.072214 33.656635,27.702877 33.279608,27.946231 C 32.576967,28.398663 32.045702,28.453503 31.277939,28.460358 C 33.005407,28.881942 33.913698,29.714829 34.102212,31.233218 C 33.450984,31.017285 32.799756,30.510012 31.415039,30.60941 C 31.312214,30.629976 32.868306,33.029237 39.08582,32.56995 C 42.067759,32.282038 45.748911,31.634238 49.087311,29.752531 C 49.978465,29.245259 56.744382,25.598382 60.151332,24.573555 C 64.706501,23.418482 67.157175,23.50417 70.135686,23.641271 C 71.283904,23.696111 72.689186,23.809219 73.460377,22.900927 C 74.282981,22.054331 74.008779,21.677304 73.71744,21.173459 C 72.569223,19.6962 70.529851,18.914726 68.476769,19.151225 C 66.488809,19.401433 65.186353,19.720192 62.79052,20.443398 C 59.380141,21.409958 59.997094,22.081751 54.996349,22.403937 C 51.366609,22.136591 50.869619,22.177721 48.045346,21.032931 C 46.554377,20.463963 43.109723,19.871003 42.479061,21.694442 C 42.34196,24.134833 45.61181,25.169943 46.60579,25.331036 C 45.834599,26.246183 43.675264,25.677215 42.85266,25.252203 C 43.48675,26.294168 44.343629,26.386711 45.269058,26.496391 C 43.521025,27.853688 41.416531,26.657485 41.073779,26.537522 C 40.953816,26.630064 41.125192,27.853688 43.949465,27.860543 C 43.726676,28.460358 42.427648,28.974485 41.193742,28.707139 C 39.891286,28.432938 39.051545,27.819412 37.95474,27.144192 C 37.495452,27.116772 37.543438,27.884535 37.221251,28.110751 C 36.021621,28.936783 35.216154,28.731132 34.170762,28.875087 C 34.239312,28.467213 36.535748,28.234142 36.175859,25.632657 C 36.227272,22.671284 35.250429,20.364565 36.861362,18.421164 C 37.324077,17.951594 39.959836,15.480355 45.234783,17.66711 C 46.057387,18.009862 47.23988,18.441729 48.161882,18.969566 C 50.184116,19.939553 53.830993,20.727882 55.664714,20.522231 C 57.035721,20.37142 58.389589,19.915561 59.688618,19.487121 C 62.379218,18.575402 65.152078,17.937884 68.048329,17.420329 C 71.129666,17.0056 72.826286,18.170955 73.871679,18.805046 C 74.488631,19.19921 75.156997,19.720192 75.770522,20.398841 C 77.141529,19.6962 78.066958,18.753633 81.730973,19.476839 C 84.421573,20.097219 86.200453,20.816997 88.051312,20.947243 C 90.553399,20.954098 90.861875,20.364565 92.058078,19.754468 C 92.058078,21.94465 90.913288,22.273692 90.26206,22.732979 L 90.26206,22.760399 C 91.423988,22.760399 92.880682,22.242844 93.566185,21.303705 C 93.874661,21.762992 93.10347,23.768089 92.435105,24.333629 C 92.04094,24.899169 90.810462,25.241921 90.501986,25.300188 C 91.238902,25.516122 93.840386,25.704635 94.577302,24.165681 C 94.474477,25.622375 93.480497,26.376428 91.920977,26.794585 C 90.673362,27.168184 90.193509,27.082497 89.19953,26.794585 C 89.250942,27.133909 89.782207,27.685739 90.39916,27.620617 C 91.290314,27.75429 91.938115,27.315568 92.075216,27.36698 C 92.263729,27.661747 91.084663,28.453503 90.656224,28.631734 C 88.942466,29.327519 86.748856,28.648871 86.251866,28.326685 C 85.244176,27.661747 84.781462,26.513529 84.712911,26.115937 C 84.524398,24.954009 84.541536,24.09713 83.564694,22.602733 C 82.347925,21.194024 81.25112,20.762157 79.386552,20.762157 C 76.318925,21.231727 75.804798,24.357621 76.593126,25.570962 C 77.141529,26.499819 79.60934,28.556328 83.187667,27.997643 C 82.2451,29.258969 80.891231,29.258969 80.329119,29.303527 C 80.363394,29.540025 81.405359,29.851929 82.210825,29.838219 C 82.844915,29.821082 83.341905,29.540025 83.341905,29.540025 C 83.170529,30.451745 81.336808,31.089263 80.089192,31.123538 C 81.165432,32.367726 83.273355,32.388291 84.678636,31.929004 C 85.741166,31.805613 86.251866,30.691671 86.286141,30.880184 C 86.50893,31.212653 85.724029,32.319741 85.347002,32.727615 C 86.101055,33.361706 86.714581,32.710478 87.160158,32.419139 C 88.119862,31.743918 88.359788,31.240073 88.805365,30.534005 C 88.925328,30.534005 88.993879,30.767076 88.976741,30.911032 C 88.959604,31.325761 88.599714,32.251191 88.599714,32.251191 C 89.542281,32.11409 90.39916,31.819324 91.547378,31.905011 C 92.212316,31.946142 93.429084,32.11409 93.46336,32.449986 C 93.240571,32.696768 92.794994,32.600797 92.46938,32.672775 C 91.441125,32.868143 89.799345,33.426828 89.816483,34.21173 C 89.850758,34.657307 90.433435,35.013768 90.861875,35.147441 C 91.852427,35.469628 92.486517,35.551888 93.480497,35.479911 C 94.320238,35.41136 95.125705,34.77727 95.125705,34.869813 C 94.937191,35.863792 92.96637,36.892047 91.478828,36.940032 C 91.547378,38.03341 92.863544,38.70863 93.566185,39.479822 C 95.057154,40.329846 96.7195,40.802843 97.967115,42.173849 C 98.669756,42.910765 99.081058,43.493443 98.909682,44.778761 C 98.412692,45.697335 97.555814,46.458244 96.822325,47.116327 C 96.342473,47.555049 95.588419,47.942358 94.920054,47.507064 C 93.754698,46.763293 93.360534,45.196918 93.189158,44.058983 C 93.052058,43.147264 93.514772,42.718824 93.10347,41.776257 C 92.846407,41.179869 92.640756,40.998211 91.938115,41.046196 C 91.341727,41.375238 90.690499,42.341797 91.766739,43.928737 C 92.298004,45.491684 94.765816,47.465934 93.154883,48.758107 C 92.914957,49.107714 91.290314,49.971448 90.519123,50.286779 C 89.439456,50.129113 88.017037,50.461583 87.554322,49.323647 C 87.125883,48.25769 88.119862,47.417948 88.616852,46.715308 C 88.805365,46.461671 89.26808,46.327998 89.130979,45.861856 C 89.011016,45.399142 88.599714,45.697335 88.359788,45.779596 C 87.674285,46.081217 87.040195,46.639902 86.251866,46.818133 C 85.843992,47.030639 85.295589,47.016929 84.86715,46.818133 C 84.455848,46.6022 84.37016,46.108637 84.130234,45.779596 C 83.753207,45.227766 82.690677,45.049535 83.016291,44.0487 C 83.30763,43.328922 83.581831,42.883345 84.164509,42.561158 C 85.329864,42.125864 86.337554,43.383762 86.57748,43.46945 C 86.954507,43.657963 87.605735,43.873897 88.445476,43.35977 C 89.250942,42.502891 89.953583,41.505483 89.525144,40.357266 C 89.250942,39.59293 88.805365,38.801173 87.794248,38.722341 C 86.320416,38.61266 83.958858,39.685473 82.913466,40.137905 C 81.233983,40.919378 79.986367,39.524379 79.677891,40.024797 C 78.855287,41.93735 81.18257,42.417203 80.620457,43.023873 C 79.146626,42.921048 77.724207,42.228689 76.884465,40.994784 C 75.22212,38.513262 76.610264,35.682134 76.044724,32.593942 C 75.907623,31.894729 75.294098,31.459434 74.745695,31.185233 C 73.683165,30.629976 72.226471,30.60941 71.163941,31.240073 C 70.187099,31.819324 69.093721,33.132062 68.716695,34.112332 C 68.356806,35.044616 67.859816,37.834614 68.408218,38.955412 C 68.888071,39.918544 69.624986,40.8474 70.632676,41.323825 C 70.752639,41.505483 70.701226,41.649439 70.495575,41.652867 C 68.442493,41.697424 67.431376,39.414699 67.174313,39.630632 C 66.968662,39.747168 67.002937,40.011087 66.917249,40.21331 C 66.643048,41.077044 66.69446,42.115581 67.037212,42.996453 C 67.414239,43.963012 68.065467,44.298909 69.282235,45.227766 C 69.573574,45.419707 69.844347,45.66306 70.169961,45.779596 C 70.221374,45.878994 70.512713,45.988674 70.032861,46.108637 C 68.665282,46.461671 67.140037,46.081217 66.12892,45.090665 L 66.043232,45.090665 C 65.940407,45.477974 66.163195,45.776168 66.62591,46.166905 C 67.379964,46.920959 68.373943,46.979226 68.391081,47.294558 C 67.26,47.839533 65.871857,47.469361 64.963565,46.896966 C 64.672226,46.71188 64.586538,46.694743 64.415162,46.567924 C 64.281489,46.763293 64.384315,47.082052 64.48714,47.267138 C 64.92929,48.103452 66.69446,48.291965 66.454534,48.542174 C 65.511967,49.131706 63.698811,48.391363 62.053604,46.567924 C 60.939661,45.340874 58.715203,46.016094 57.104271,45.861856 C 55.887503,45.755603 54.379396,46.314288 54.293708,46.842126 C 54.225157,47.19516 54.653597,47.87038 54.84211,48.391363 C 54.944936,48.723832 54.893523,49.035736 54.77356,49.354495 C 54.465084,49.758942 54.002369,49.920035 53.474532,49.848057 C 52.274901,49.673254 50.629693,50.348474 49.995603,49.083721 C 49.515751,48.161719 50.972445,46.6022 50.50973,46.516512 C 49.909915,46.238883 48.641734,47.174595 47.616907,47.380246 C 46.67434,47.582469 45.54326,48.432493 44.652106,47.781265 C 43.726676,47.106044 43.98374,45.807016 43.812364,44.809609 C 44.257941,44.045273 45.149095,43.531145 46.074525,43.572276 C 46.691478,43.596268 47.102779,43.544855 47.514081,43.846477 C 47.514081,43.846477 46.965679,43.322067 46.999954,42.938185 C 47.017092,42.372645 47.394118,41.930495 47.565494,41.419796 C 48.350395,40.8474 49.121586,40.357266 50.166979,40.597192 C 51.640811,40.933088 52.960404,41.930495 53.933819,43.082141 C 54.859248,43.661391 55.83609,43.167829 56.984308,43.322067 C 58.115388,43.383762 59.345866,43.102706 60.219883,42.417203 C 59.328729,42.177277 58.423864,42.578296 57.686949,42.262964 C 57.361335,41.803677 58.869442,42.019611 59.431554,41.046196 C 59.465829,40.919378 59.637205,40.689735 59.517242,40.542352 C 58.800891,40.25444 58.09825,40.583482 57.515573,40.898813 C 57.052858,41.135312 56.847207,41.999046 56.195979,41.837953 L 56.144566,41.652867 C 56.847207,40.442954 57.652673,38.869724 59.10594,38.424147 C 58.917427,38.204786 58.578103,38.252771 58.321039,38.11567 C 57.789774,38.108815 56.847207,37.241654 56.932895,37.032575 C 57.155684,36.652121 59.928544,37.265646 61.985053,34.794407 C 62.190704,34.657307 62.310668,34.383105 62.447768,34.18431 C 63.218959,32.926411 63.715949,31.65823 64.586538,30.44489 C 65.203491,29.581156 65.940407,28.905935 66.831561,28.384953 C 66.385984,28.30612 66.077507,28.384953 65.374867,28.570038 C 62.721969,29.447483 60.408396,31.168096 58.115388,32.755035 C 57.909737,32.885281 54.77356,35.096029 51.143821,37.598115 C 49.738539,38.62637 46.948541,39.966529 44.772069,40.785705 C 42.633299,41.697424 40.336863,41.995618 39.805598,42.115581 C 38.897306,42.153284 38.845894,42.26982 37.289801,42.417203 C 37.406337,42.825077 38.468867,42.996453 38.948719,42.98617 C 40.14835,43.226096 41.090917,43.01359 41.159467,43.205531 C 41.34798,43.267227 40.816715,43.568848 40.662477,43.661391 C 39.599947,44.264634 38.400317,44.5594 37.135563,44.727348 C 36.827087,44.765051 36.415785,44.758196 36.107308,44.754769 C 34.444963,44.727348 33.073957,44.250924 31.569277,43.928737 C 31.809204,44.322902 32.354179,45.159215 33.862286,45.604792 C 33.845148,45.878994 33.468121,45.861856 33.228195,45.937262 C 32.302766,46.184043 31.586415,45.961254 30.506747,45.810443 C 30.506747,45.810443 29.101466,45.426562 28.741577,45.203773 C 28.038936,44.943282 27.713322,44.754769 27.182057,44.562828 C 26.959269,44.864449 28.741577,46.245738 29.512768,46.567924 C 30.695261,47.20887 30.695261,46.794141 30.780949,46.876401 C 30.643848,47.109472 30.42106,47.376818 29.838382,47.438513 C 28.518788,47.397383 28.964365,47.363108 27.421983,46.818133 C 26.633655,46.502802 26.397156,46.314288 25.883029,46.211463 C 24.854774,45.992102 23.706556,46.026377 22.695439,45.968109 C 22.044211,46.108637 21.135919,45.985247 20.385293,46.139485 C 17.814656,46.715308 14.93897,46.67075 12.454021,45.992102 C 12.025582,45.992102 11.61428,45.913269 11.305803,46.2286 L 11.237253,46.471954 C 11.922756,46.818133 12.67681,46.982654 13.259487,47.565332 C 13.619377,47.925221 13.859303,48.497616 13.722202,49.028881 C 13.550826,49.638979 12.539709,50.252504 11.905619,50.595256 C 10.894501,50.797479 9.8696742,50.51985 9.3555469,49.81721 C 8.9785201,49.255097 9.0299328,48.621006 8.8414195,47.956068 C 8.738594,47.592752 8.4815303,47.232863 8.0702284,47.116327 C 7.1619367,46.831843 7.0419736,47.668157 6.5278462,48.148009 C 6.4421583,48.405073 6.3221953,48.480478 6.2365074,48.7821 C 6.0137188,49.155699 5.8080679,49.44361 5.6538297,49.81721 C 5.0026017,50.554125 3.7207107,50.574691 3.138033,49.930318 C 2.9323821,49.697246 2.7781438,49.261952 2.7610063,49.210539 C 2.4525298,48.675847 1.8184394,48.010909 1.7327515,47.849815 C 1.95554,47.016929 2.281154,46.355418 3.0352075,46.139485 C 4.0291871,45.855001 5.6195545,45.776168 6.047994,45.63564 C 6.8020475,45.296316 6.9220106,44.538835 6.8020475,44.175518 C 6.373608,43.712804 5.2596653,44.041845 4.4747642,44.562828 C 4.2005629,44.727348 3.669298,45.02897 3.1723082,44.998122 C 2.6581808,44.956992 1.9898152,45.011832 1.7498891,44.425727 C 1.8698521,43.284364 1.4928254,42.348652 1.1329362,41.395803 C 1.1500738,40.8474 1.3899999,40.343556 1.9384024,40.083064 C 2.9152445,39.62035 4.3033884,39.603212 5.3453532,39.839711 C 6.7506348,40.155042 7.6760641,41.711134 9.269859,41.652867 C 10.945914,41.594599 12.556847,40.878248 14.287742,41.296405 C 15.43596,41.567179 17.112015,42.177277 17.831794,41.724844 C 18.500159,41.464353 18.517297,41.179869 18.63726,40.748002 C 18.791498,40.124195 18.602985,39.311873 17.934619,39.113077 C 17.50618,38.996542 17.231978,39.215903 16.837814,39.562082 C 16.135173,40.21331 15.144621,40.487511 14.87042,40.357266 C 14.544806,40.25444 15.315997,39.867131 15.384547,39.311873 C 15.401685,39.037672 15.453098,38.934847 15.350272,38.712058 C 14.836145,39.394134 13.910715,40.124195 12.865323,39.997376 C 12.711085,39.712893 13.653652,39.335866 13.396588,39.209048 C 12.796773,39.555227 11.408629,39.6889 10.603163,39.555227 C 10.212426,39.397561 9.6811609,39.329011 9.7325736,38.965694 C 10.740263,38.712058 10.911639,38.393299 11.425766,37.961432 C 12.059857,36.648693 10.311824,36.055733 9.8696742,34.965783 C 8.9099698,32.820158 9.8011239,30.386622 6.1679571,30.362629 C 5.1397023,30.852764 5.0368768,32.309458 3.9092241,32.515109 C 2.5553553,32.737898 1.1843489,32.213488 0.39602029,31.1064 C 0.19036933,30.835626 0.0018559591,30.62312 0.018993539,30.331782 C 0.10468144,29.522888 0.39602029,28.645444 1.1843489,28.237569 C 2.2297413,27.682312 3.6864356,28.038773 4.8997762,27.853688 C 5.1739775,27.80913 5.2768029,27.504081 5.3282157,27.305285 C 5.2939405,27.133909 5.3110781,26.880273 5.0368768,26.811723 C 4.2348381,26.091944 3.2065833,26.952251 2.3668419,26.667767 C 1.629926,26.438124 1.1500738,25.985691 0.6359464,25.485274 C 0.41315787,24.895741 0.25891965,24.289071 0.41315787,23.672118 L 0.53312092,23.394489 L 2.3497044,21.749282 C 3.1723082,21.550486 4.2519757,21.317415 4.9854641,21.882955 C 5.7737927,22.45535 5.9965813,23.43562 5.928031,24.302781 C 5.8766182,24.916307 6.6306717,25.327608 7.1105239,25.570962 C 7.2990373,25.570962 7.4532755,25.423579 7.5389634,25.269341 C 7.9331278,24.477584 6.7677723,24.00116 7.2133494,23.147708 C 7.7960271,22.023483 9.0127953,22.068041 10.092463,22.150301 C 10.380374,22.177721 10.997327,22.157156 11.425766,22.791247 C 11.699968,23.473322 11.597142,24.090275 11.357216,24.48444 C 10.843089,25.886294 9.9382246,25.968554 9.7497112,26.65063 C 9.6126105,26.911121 9.4412347,27.929093 10.092463,28.655726 C 10.466062,29.094448 10.963052,29.279534 11.425766,29.570873 C 12.625397,30.348919 12.711085,30.239239 13.705065,31.500565 C 13.893578,31.809041 14.270605,32.772173 14.544806,33.392553 C 14.784732,32.967541 15.384547,32.234053 15.384547,32.234053 C 16.220861,31.445724 16.649301,31.404594 17.57473,31.05156 C 17.591868,30.462027 17.351941,29.917052 17.129153,29.389215 C 16.632163,28.326685 15.963798,27.349843 15.50451,26.26332 C 14.887558,24.792916 14.390568,23.0346 14.904695,21.242009 C 15.230309,20.062944 15.860972,19.068964 16.392237,18.030427 C 16.649301,17.506017 16.100898,16.121301 16.100898,16.121301 C 16.477925,16.206989 16.546475,16.237836 17.231978,16.357799"
       id="path8415"
       style="fill:#231f20;fill-opacity:1;fill-rule:nonzero;stroke:none" />
    <path
       d="M 9.6982984,21.152894 C 9.8868118,21.478508 10.058188,21.786984 10.092463,22.146874 C 9.389822,22.133164 8.4472551,22.078323 7.8474399,22.431357 C 7.761752,21.968643 7.8303023,21.403103 7.3333125,21.221444 C 7.024836,21.166604 6.7334972,21.207734 6.4592959,21.348262 C 6.6306717,20.378275 7.1276615,20.35771 7.8474399,20.272022 C 9.1670335,20.35771 9.3212717,20.645622 9.6982984,21.152894"
       id="path8417"
       style="fill:#ed1c24;fill-opacity:1;fill-rule:nonzero;stroke:none" />
    <path
       d="M 2.161191,21.581334 L 2.3325668,21.756137 L 0.58453366,23.291664 C 0.29319481,22.914637 0.32746997,22.472488 -0.10096952,22.472488 C -0.57739423,22.438213 -0.64594455,22.904355 -0.90300824,23.0346 C -1.2286222,22.517045 -0.78304518,21.728717 -0.54311907,21.35169 C -0.10096952,20.960953 0.36174513,20.625057 1.1500738,20.858128 C 1.5613757,20.971236 1.9212649,21.200879 2.161191,21.581334"
       id="path8419"
       style="fill:#ed1c24;fill-opacity:1;fill-rule:nonzero;stroke:none" />
    <path
       d="M 21.787147,23.874342 C 21.770009,24.049145 21.787147,24.12455 21.701459,24.309636 C 21.019383,23.956602 20.111092,24.08342 19.408451,23.692683 C 19.117112,23.521308 18.980011,23.175128 18.945736,22.890645 C 20.008266,23.726958 21.632909,22.475915 21.787147,23.874342"
       id="path8421"
       style="fill:#ffffff;fill-opacity:1;fill-rule:nonzero;stroke:none" />
    <path
       d="M 27.747597,23.325939 C 27.764735,23.391062 27.747597,23.373924 27.696184,23.528163 C 27.661909,23.55901 27.627634,23.589858 27.507671,23.661836 C 27.319158,23.774944 27.216332,23.757806 26.702205,23.860632 C 26.29433,23.94632 25.386039,24.11084 24.803361,24.309636 C 24.906186,23.699538 25.077562,22.996898 25.900166,23.219686 C 26.551394,23.277954 27.164919,23.528163 27.747597,23.325939"
       id="path8423"
       style="fill:#ffffff;fill-opacity:1;fill-rule:nonzero;stroke:none" />
    <path
       d="M 24.10072,26.78773 C 24.837636,26.667767 25.523139,26.540949 25.214663,27.055076 C 24.803361,27.589769 23.792244,26.976244 23.021053,27.20246 C 22.506925,27.264155 21.97566,26.976244 22.232724,26.695187 C 22.284137,26.65063 22.4041,26.633492 22.47265,26.588934 C 22.986778,26.486109 23.380942,26.900838 24.10072,26.78773"
       id="path8425"
       style="fill:#ffffff;fill-opacity:1;fill-rule:nonzero;stroke:none" />
    <path
       d="M 20.608082,33.858695 C 19.528414,34.962356 18.70581,37.293066 16.837814,36.977735 C 16.220861,36.861199 15.641611,36.357355 15.43596,35.760967 C 15.247447,35.215992 15.453098,34.729285 15.778712,34.3077 C 17.197703,32.429421 19.596964,32.895564 21.105071,31.14753 C 21.90711,30.246094 22.318412,29.594866 22.558338,28.470641 C 22.849677,27.949658 24.392059,28.463785 24.580572,28.268417 C 25.351764,28.398663 23.843657,30.520295 20.608082,33.858695"
       id="path8427"
       style="fill:#ed1c24;fill-opacity:1;fill-rule:nonzero;stroke:none" />
    <path
       d="M 2.0069528,32.302603 C 1.7841642,32.432849 1.3557247,33.001817 1.4071375,33.385698 C 1.4414126,33.625624 1.6984763,34.067774 1.7841642,34.25286 C 1.5271005,34.263142 1.0301107,34.112332 0.44743303,33.735305 C -0.23807015,33.392553 -0.66308213,32.330023 -0.23807015,31.479999 C -0.16951984,31.339471 -0.049556779,30.845909 0.12181902,30.743084 C 0.5502585,31.332616 1.3214496,32.014692 2.0069528,32.302603"
       id="path8429"
       style="fill:#ed1c24;fill-opacity:1;fill-rule:nonzero;stroke:none" />
    <path
       d="M 47.599769,41.395803 C 47.376981,41.913358 47.119917,42.609144 47.051367,43.202104 C 46.708615,43.099278 46.520102,42.39321 46.04025,42.262964 C 45.526122,42.177277 45.200508,42.568013 45.063407,42.694831 C 44.857757,42.28353 45.217646,41.834525 45.457572,41.567179 C 45.920286,41.029059 46.982816,40.960508 47.599769,41.395803"
       id="path8431"
       style="fill:#ed1c24;fill-opacity:1;fill-rule:nonzero;stroke:none" />
    <path
       d="M 1.7670266,44.374314 C 1.2528993,44.233786 0.37888271,43.983577 -0.13524468,44.247496 C -0.30662047,44.281771 -0.45743117,44.473712 -0.71449486,44.758196 C -1.1600719,43.935592 -1.0058337,43.507153 -0.86873308,43.088996 C -0.42315601,42.454905 0.0018559591,42.095016 0.8073222,41.748837 L 1.1843489,41.354673 C 1.4585502,42.249254 1.9212649,43.123271 1.7670266,44.374314"
       id="path8433"
       style="fill:#ed1c24;fill-opacity:1;fill-rule:nonzero;stroke:none" />
    <path
       d="M 84.353022,46.208035 C 84.644361,46.585062 83.616106,46.317716 83.479006,46.533649 C 83.23908,46.72559 83.136254,46.794141 83.170529,47.071769 C 83.187667,47.349398 83.496143,47.675012 83.393318,47.66473 C 83.170529,47.637309 82.964878,47.582469 82.827778,47.513919 C 82.570714,47.342543 82.382201,47.123182 82.262238,46.835271 C 82.005174,46.11892 82.690677,45.238048 83.033429,44.689646 C 83.033429,44.689646 84.267334,45.628785 84.353022,46.208035"
       id="path8435"
       style="fill:#ed1c24;fill-opacity:1;fill-rule:nonzero;stroke:none" />
    <path
       d="M 44.000878,46.636475 C 43.246824,46.184043 42.650436,46.61591 42.393373,47.219152 C 42.221997,47.130037 42.102034,46.667322 42.204859,46.177188 C 42.307685,45.851574 42.479061,45.560235 42.85266,45.268896 L 43.863777,44.727348 C 43.898052,45.203773 43.91519,46.177188 44.000878,46.636475"
       id="path8437"
       style="fill:#ed1c24;fill-opacity:1;fill-rule:nonzero;stroke:none" />
    <path
       d="M 98.258454,47.047777 C 98.189904,47.448796 98.104216,47.986916 97.812877,48.387935 C 97.504401,48.812947 96.702362,49.41619 96.325335,49.128279 C 96.188235,49.046018 97.182214,48.045184 96.376748,47.390528 C 96.942288,46.924386 97.555814,46.307433 98.069941,45.861856 C 98.121354,46.177188 98.224179,46.530222 98.258454,47.047777"
       id="path8439"
       style="fill:#ed1c24;fill-opacity:1;fill-rule:nonzero;stroke:none" />
    <path
       d="M 3.0866203,49.786362 C 2.5382177,50.105121 2.1954661,50.968855 2.2126037,51.50012 C 1.6642012,51.52754 1.0472483,51.277331 0.65308398,50.310772 C 0.37888271,49.697246 0.56739608,48.322813 1.7498891,47.777838 C 2.2126037,48.267972 2.7095935,49.070011 3.0866203,49.786362"
       id="path8441"
       style="fill:#ed1c24;fill-opacity:1;fill-rule:nonzero;stroke:none" />
    <path
       d="M 93.446222,50.523278 C 93.429084,50.49243 93.60046,50.715219 93.326259,50.90716 C 92.709306,51.616655 91.358865,51.342454 90.879013,50.972282 C 90.707637,50.845464 90.553399,50.393032 90.450573,50.231939 C 91.530241,49.803499 91.852427,49.590993 92.452242,49.203684 C 92.709306,49.693819 92.503655,51.136803 93.446222,50.523278"
       id="path8443"
       style="fill:#ed1c24;fill-opacity:1;fill-rule:nonzero;stroke:none" />
    <path
       d="M 13.927853,50.523278 C 13.962128,51.0991 13.80789,51.592663 13.430863,51.935414 C 12.848186,52.500954 11.837068,52.432404 11.11729,52.209616 C 11.083015,52.137638 12.145545,51.390439 11.802793,50.588401 C 12.385471,50.297062 12.81391,50.026288 13.362313,49.505306 C 13.653652,49.721239 13.927853,50.201091 13.927853,50.523278"
       id="path8445"
       style="fill:#ed1c24;fill-opacity:1;fill-rule:nonzero;stroke:none" />
    <path
       d="M 53.491669,49.803499 C 53.388844,49.992013 53.286018,50.4513 53.388844,50.622676 C 53.577357,50.900305 53.783008,51.102528 53.899543,51.294469 C 53.268881,51.493265 52.686203,51.44528 52.120663,51.047688 C 51.726498,50.783769 51.520847,50.033143 51.109546,49.83092 C 51.777911,49.803499 52.720478,49.755514 53.491669,49.803499"
       id="path8447"
       style="fill:#ed1c24;fill-opacity:1;fill-rule:nonzero;stroke:none" />
  </g>
</svg>
