<?xml version="1.0" encoding="utf-8"?>
<!-- Generator: Adobe Illustrator 22.1.0, SVG Export Plug-In . SVG Version: 6.00 Build 0)  -->
<!DOCTYPE svg PUBLIC "-//W3C//DTD SVG 1.1//EN" "http://www.w3.org/Graphics/SVG/1.1/DTD/svg11.dtd">
<svg version="1.1" id="Ebene_1" xmlns="http://www.w3.org/2000/svg" xmlns:xlink="http://www.w3.org/1999/xlink" x="0px" y="0px"
	 viewBox="0 0 54.6 52.2" style="enable-background:new 0 0 54.6 52.2;" xml:space="preserve">
<style type="text/css">
	.st0{clip-path:url(#SVGID_2_);}
	.st1{fill:#fc0;}
	.st2{fill:#ffffff;}
</style>
<title>food_svg</title>
<g>
	<defs>
		<rect id="SVGID_1_" x="1" y="1" width="52" height="49.9"/>
	</defs>
	<clipPath id="SVGID_2_">
		<use xlink:href="#SVGID_1_"  style="overflow:visible;"/>
	</clipPath>
	<g class="st0">
		<path class="st1" d="M26.8,1C12.5,1,1,11.2,1,23.8c0.1,6.4,3,12.4,7.9,16.4c-1.4,5.7-8.1,8-7.7,9.6c4.3,2.5,15.8-2.3,19.6-3.9
			c2,0.4,3.9,0.6,5.9,0.6c14.2,0,25.8-10.2,25.8-22.8S41,1,26.8,1z"/>
	</g>
</g>
<path class="st2" d="M30.4,35.6c-1.7,0.8-3.5,1.3-5.3,1.4c-1.9,0-4.5-0.9-4.5-3.7c0-3.3,2.3-8,2.3-10.7c0-3-3.9-1.4-4.2-1.3l0.4-1.6
	c1.7-0.8,3.5-1.3,5.3-1.4c1.7,0,4.5,0.6,4.5,3.7s-2.3,8.2-2.3,10.7c0,0.7-0.1,1.8,2.1,1.8c0.8-0.1,1.5-0.2,2.2-0.5L30.4,35.6z"/>
<path class="st2" d="M27.6,15.3c-1.9,0.1-3.5-1.4-3.5-3.3c0,0,0,0,0,0l0,0c0.1-1.9,1.7-3.3,3.5-3.3c1.9-0.1,3.5,1.4,3.6,3.3
	c0,1.9-1.6,3.3-3.5,3.3c0,0,0,0,0,0H27.6z"/>
</svg>
