<svg id="Ebene_1" data-name="Ebene 1" xmlns="http://www.w3.org/2000/svg" xmlns:xlink="http://www.w3.org/1999/xlink" viewBox="0 0 50 52.18"><defs><style>.cls-1{fill:none;}.cls-2{clip-path:url(#clip-path);}.cls-3{fill:#fc0;}.cls-4{fill:#87888a;}</style><clipPath id="clip-path"><rect class="cls-1" y="4.18" width="50" height="48"/></clipPath></defs><title>info_svg</title><g class="cls-2"><path class="cls-3" d="M24.8,4.18C11.1,4.18,0,14,0,26.13a20.75,20.75,0,0,0,7.63,15.8C6.33,47.4-.2,49.65.24,51.19,4.36,53.57,15.48,49,19.09,47.45a27.7,27.7,0,0,0,5.71.61c13.7,0,24.8-9.82,24.8-21.94S38.5,4.18,24.8,4.18Z"/></g><path class="cls-4" d="M28.23,37.41a14.31,14.31,0,0,1-5.1,1.38c-1.84,0-4.37-.85-4.37-3.58,0-3.16,2.23-7.66,2.23-10.27,0-2.9-3.77-1.33-4-1.22l.38-1.55a14.64,14.64,0,0,1,5.11-1.38c1.59,0,4.29.57,4.29,3.58s-2.24,7.85-2.24,10.27c0,.67-.08,1.73,2,1.73a6.62,6.62,0,0,0,2.13-.5Z"/><path class="cls-4" d="M25.58,17.91a3.28,3.28,0,0,1-3.4-3.16,3.35,3.35,0,0,1,3.4-3.17A3.3,3.3,0,0,1,29,14.75a3.24,3.24,0,0,1-3.39,3.16Z"/></svg>