<svg id="Ebene_1" data-name="Ebene 1" xmlns="http://www.w3.org/2000/svg" viewBox="0 0 47.65 52.18"><defs><style>.cls-1{fill:#87888a;}.cls-2{fill:#fc0;}</style></defs><title>pin_svg</title><path class="cls-1" d="M14.6,34.23C6.77,35.32.35,37.8,0,41.55a1.07,1.07,0,0,0,0,.25C0,47.14,12.27,50,23.81,50c11.33,0,23.37-2.78,23.81-7.93a1,1,0,0,0,0-.25c0-3.92-6.6-6.51-14.66-7.63a98,98,0,0,1-6.85,10.6A3,3,0,0,1,23.81,46a2.91,2.91,0,0,1-2.29-1.15A93.25,93.25,0,0,1,14.6,34.23Z"/><path class="cls-2" d="M23.81,0A13.85,13.85,0,0,0,10,13.83C10,26,22.53,42.46,23.07,43.15a.93.93,0,0,0,1.49,0c.54-.7,13.08-17.46,13.08-29.32A13.85,13.85,0,0,0,23.81,0Zm0,8.87a6,6,0,1,1-6,6,6,6,0,0,1,6-6Z"/></svg>