<svg id="Obergeschoss" xmlns="http://www.w3.org/2000/svg" viewBox="0 0 975.63 989.35"><defs><style>.cls-1{fill:#f2f2f2;}.cls-1,.cls-9{stroke:#1d1d1b;}.cls-1,.cls-10,.cls-11,.cls-12,.cls-4,.cls-5,.cls-6,.cls-7,.cls-8,.cls-9{stroke-miterlimit:10;}.cls-1,.cls-10,.cls-9{stroke-dasharray:10 3 3 3 10 3;}.cls-2,.cls-4,.cls-5,.cls-6{fill:#fff7cc;}.cls-3{fill:#ffd500;}.cls-10,.cls-11,.cls-4,.cls-5,.cls-6,.cls-7,.cls-8{stroke:#878787;}.cls-10,.cls-4,.cls-7,.cls-8{stroke-width:0.5px;}.cls-5{stroke-width:0.33px;}.cls-11,.cls-6{stroke-width:0.33px;}.cls-11,.cls-7,.cls-8{fill:none;}.cls-7{stroke-dasharray:3 3 3 3 3 3;}.cls-10,.cls-9{fill:#dfdfdf;}.cls-12{fill:#fff;stroke:#9d9d9c;}.cls-13{font-size:14px;fill:#575756;font-family:ArialMT, Arial;}.cls-14{letter-spacing:-0.02em;}</style></defs><title>WZK_Bad_Füssing_200227_OG</title><path class="cls-1" d="M406.38,988.55s23.94-28.93,29.93-36.24l35.91-31.26,41.57-38.24s80.48-52.55,82.14-54.21,23-15,23-15l107.41-46.89,25.93-12.31S850,694.59,857,687.94s79.48-73.16,79.48-73.16l20.29-19L975,565.23l-199.86-267L625,98.23s-7.54-8.87,2.66-20L563.78.69.68,418.91,135,618.1,254.08,798.34Z"/><polyline class="cls-2" points="350.51 209.74 346.97 209.96 359.16 233.91 378.23 252.31 367.89 300.19 448.03 409.1 580.47 311.67 597.01 334.2 605.16 328.13 583.63 337.61 569.33 333.78 573.15 345.59 595.1 332.12 614.05 358.39 621.54 383.33 600.42 376.68 630.51 382.89 518.56 464.97 526.43 475.77 489.18 543.67 451.83 571.05 434.07 583.93 377.04 625.92 388.87 641.56 389.34 641.21 414.69 675.69 300.56 759.35 275.01 725.15 268.07 716.37 242.88 681.95 319.38 625.83 324.45 632.78 342.28 619.93 342.35 619.83 330.89 603.58 310.78 576.2 443.4 479.1 440.19 474.56 458.85 460.98 432.82 425.06 406.05 388.82 298.64 467.79 266.71 446.95 259.62 452.28 197.27 368.81 204.2 363.88 216 351.07 264.83 315.71"/><polygon class="cls-3" points="299.86 759.99 414.69 675.69 389.31 641.22 274.53 725.51 299.86 759.99"/><polygon class="cls-3" points="242.88 681.95 268.07 716.37 363.37 646.59 337.99 612.01 242.88 681.95"/><polygon class="cls-3" points="356.67 598.32 377.04 625.92 434.07 583.93 414.03 556.5 356.67 598.32"/><polygon class="cls-3" points="330.89 603.58 310.78 576.2 443.4 479.1 463.47 506.48 330.89 603.58"/><polygon class="cls-3" points="290.82 429.88 311.77 458.15 407.8 387.9 387.09 359.47 290.82 429.88"/><polygon class="cls-3" points="188.12 370.03 274.03 487.19 300.08 468.02 284.89 447.4 287.67 445.29 217.17 349.08 188.12 370.03"/><polyline class="cls-3" points="315.49 321.85 247.98 371.29 227.14 342.91 264.83 315.75 263.83 314.42 237.95 278.68 275.94 250.6 268.46 240.38 304.87 213.61 312.36 223.83 351.76 195.32 407.38 271.22 368.31 299.49 335.05 253.6 318.92 265.49 342.53 297.57 322.58 312.46 324.33 315.03"/><path class="cls-3" d="M389,198.52"/><path class="cls-3" d="M302.74,287.89"/><polygon class="cls-3" points="283.51 420.07 359.66 364.54 338.29 335.61 359.66 320.56 352.09 310.5 255.16 381.58 283.51 420.07"/><polygon class="cls-3" points="448.03 409.1 468.23 436.45 601.03 339.21 580.47 311.67 448.03 409.1"/><polygon class="cls-3" points="474.66 445.51 499.71 479.99 538.4 451.83 513.02 417.14 474.66 445.51"/><polyline class="cls-3" points="593.93 411.26 621.65 449.73 661.11 420.91 607.07 347.91 549.49 390.53 513.02 417.14 538.4 451.83 593.82 411.37"/><path class="cls-3" d="M661.11,420.91"/><polygon class="cls-4" points="348.94 349.78 368.77 335.42 378.42 349.07 358.62 363.32 348.94 349.78"/><polyline class="cls-4" points="373.71 342.43 359.49 352.86 364.07 359.14 358.27 351.2 354.4 345.82"/><path class="cls-2" d="M465.52,470"/><polygon class="cls-4" points="316.6 584.4 330.89 603.58 323.76 608.74 316.04 614.33 301.96 595.27 309.37 589.77 316.6 584.4"/><line class="cls-4" x1="314.56" y1="596.62" x2="323.77" y2="608.74"/><polygon class="cls-4" points="268.05 716.42 282.34 735.6 275.21 740.76 267.49 746.35 253.41 727.29 260.82 721.79 268.05 716.42"/><line class="cls-4" x1="260.82" y1="721.79" x2="275.21" y2="740.76"/><path class="cls-2" d="M345.36,335.78"/><polygon class="cls-4" points="345.36 335.78 351.51 344.03 366.53 333 360.44 324.69 345.36 335.78"/><line class="cls-5" x1="345.36" y1="335.78" x2="366.53" y2="333"/><line class="cls-6" x1="360.44" y1="324.69" x2="351.51" y2="344.03"/><polygon class="cls-7" points="621.65 449.73 593.82 411.37 557.77 438.07 585.21 476.27 621.65 449.73"/><polygon class="cls-4" points="478.31 450.29 483.18 457.01 490.85 451.33 485.94 444.62 478.31 450.29"/><line class="cls-6" x1="485.94" y1="444.62" x2="483.18" y2="457.01"/><line class="cls-6" x1="478.31" y1="450.29" x2="490.85" y2="451.33"/><polygon class="cls-4" points="485.28 459.84 490.14 466.55 497.81 460.88 492.9 454.17 485.28 459.84"/><line class="cls-6" x1="492.9" y1="454.17" x2="490.14" y2="466.55"/><line class="cls-6" x1="485.28" y1="459.84" x2="497.81" y2="460.88"/><polygon class="cls-4" points="492.05 469.38 498.2 477.64 513.22 466.61 507.12 458.3 492.05 469.38"/><line class="cls-5" x1="492.05" y1="469.38" x2="513.22" y2="466.61"/><line class="cls-6" x1="507.12" y1="458.3" x2="498.2" y2="477.64"/><polygon class="cls-4" points="350.93 602.82 337.99 612.01 363.37 646.59 372.05 640.13 367.31 633.75 365.19 635.35 349.52 614.07 355.79 609.58 350.93 602.82"/><line class="cls-4" x1="306.95" y1="602.02" x2="321.81" y2="591.4"/><polyline class="cls-8" points="355.79 609.58 371.35 630.68 367.31 633.75"/><polygon class="cls-4" points="349.52 614.07 343 618.83 337.99 612.01 344.69 607.25 349.52 614.07"/><polygon class="cls-4" points="369.9 641.73 363.37 646.59 358.65 640.16 365.19 635.35 369.9 641.73"/><path class="cls-2" d="M393.23,222.8"/><path class="cls-9" d="M692.3,358"/><polygon class="cls-4" points="580.47 311.67 586.88 307.12 598.2 322.7 623.47 303.93 628.57 310.94 605.16 328.13 597.01 334.2 580.47 311.67"/><path class="cls-10" d="M622,315.57"/><path class="cls-3" d="M488.85,501.8"/><path class="cls-3" d="M448.35,468.59"/><polygon class="cls-4" points="463.47 506.48 482.28 492.65 475.22 483.17 464.74 490.82 455.21 477.55 465.52 470.01 458.92 460.87 440.19 474.56 463.47 506.48"/><line class="cls-4" x1="465.52" y1="470.01" x2="475.22" y2="483.17"/><line class="cls-6" x1="455.22" y1="477.73" x2="475.3" y2="483.17"/><line class="cls-6" x1="465.54" y1="470.23" x2="464.91" y2="490.66"/><polyline class="cls-8" points="446.75 483.67 455.21 477.55 448.73 468.31"/><polyline class="cls-4" points="471.8 500.36 464.74 490.82 456.41 496.85"/><line class="cls-4" x1="606.13" y1="327.46" x2="601" y2="320.31"/><polygon class="cls-3" points="526.26 474.44 414.03 556.5 434.07 583.93 488.89 543.28 494.3 550.76 551.45 508.78 526.26 474.44"/><polygon class="cls-4" points="601.03 339.21 615.22 328.71 630.93 350.24 638.25 344.92 643.07 352.07 621.65 367.81 601.03 339.21"/><polyline class="cls-8" points="636.11 357.33 630.93 350.24 616.55 360.99"/><line class="cls-8" x1="609.18" y1="350.41" x2="623.31" y2="340.04"/><line class="cls-8" x1="616.16" y1="344.87" x2="624.03" y2="355.45"/><polyline class="cls-11" points="494.3 550.76 436.2 593.83 382.66 633.07 388.87 641.56 389.34 641.21 414.69 675.69 300.56 759.35 275.01 725.15 268.07 716.37 242.88 681.95 319.38 625.83 337.99 612.01"/><polyline class="cls-11" points="494.28 550.6 537.4 609.46 545.94 621.1 619.87 567 673.58 639.55 766.52 572.21 725.95 517.12 780.03 477.44 700.13 368.59 687.16 378.12 634.59 306.51 605.16 328.13 597.01 334.2 580.47 311.67 448.03 409.1 367.89 300.19 493.76 207.91 423.92 112.39 360.05 159.14 360.66 160 298.51 205.47 204.03 274.59 183.63 271.32 180.81 289.55 199.87 292.43 214.84 313.16 132.78 373.35 150.99 398.02 144.06 402.95 229.25 519.67 236.34 514.35 254.3 539.4 424.78 413.92 432.82 425.06 458.85 460.98 440.19 474.56 443.4 479.1 310.78 576.2 330.89 603.58"/><path class="cls-11" d="M149.22,574"/><polyline class="cls-3" points="227.14 342.91 216 351.07 236.45 379.78 247.98 371.29"/><g id="Beschriftung"><circle class="cls-12" cx="365.08" cy="254.86" r="3.5"/><text class="cls-13" transform="translate(373.23 259.03)">T6 (Massage, Elektrotherapie) </text><circle class="cls-12" cx="334.49" cy="355.18" r="3.5"/><text class="cls-13" transform="translate(342.64 359.35)">T7 (Massage, Medi Jet) </text><circle class="cls-12" cx="293.03" cy="293.55" r="3.5"/><text class="cls-13" transform="translate(301.18 297.72)">T7 (Gruppentherapie)</text><path class="cls-12" d="M248,371.29"/><circle class="cls-12" cx="278.91" cy="466.91" r="3.5"/><text class="cls-13" transform="translate(287.06 471.08)">Sonographie</text><circle class="cls-12" cx="220.2" cy="382" r="3.5"/><text class="cls-13" transform="translate(97.79 386.18)"><tspan class="cls-14"> </tspan><tspan x="3.64" y="0">T8 (Ergotherapie)</tspan></text><circle class="cls-12" cx="252.13" cy="346.53" r="3.5"/><text class="cls-13" transform="translate(181.49 350.71)">Oberärzte</text><circle class="cls-12" cx="330" cy="423.46" r="3.5"/><text class="cls-13" transform="translate(338.15 427.63)">Sitzungssaal</text><circle class="cls-12" cx="376.12" cy="389.82" r="3.5"/><text class="cls-13" transform="translate(384.27 394)">Psychologen</text><circle class="cls-12" cx="291.92" cy="234.57" r="3.5"/><text class="cls-13" transform="translate(300.07 238.75)">Ruheraum</text></g></svg>