<?xml version="1.0" encoding="utf-8"?>
<!-- Generator: Adobe Illustrator 23.0.0, SVG Export Plug-In . SVG Version: 6.00 Build 0)  -->
<svg version="1.1" id="Layer_1" xmlns="http://www.w3.org/2000/svg" xmlns:xlink="http://www.w3.org/1999/xlink" x="0px" y="0px"
	 viewBox="0 0 964.7 834.8" style="enable-background:new 0 0 964.7 834.8;" xml:space="preserve">
<style type="text/css">
	.st0{display:none;}
	.st1{display:inline;}
	.st2{fill:#C6C6C6;stroke:#1D1D1B;stroke-width:1.0006;stroke-miterlimit:10;stroke-dasharray:10.0006,3,3,3,10,3;}
	.st3{fill:#FFF7CC;}
	.st4{fill:#FFD500;}
	.st5{fill:#FFF7CC;stroke:#878787;stroke-width:0.326;stroke-miterlimit:10;}
	.st6{fill:none;stroke:#878787;stroke-width:0.326;stroke-miterlimit:10;}
	.st7{fill:#FFF7CC;stroke:#878787;stroke-width:0.326;stroke-linecap:round;stroke-linejoin:round;stroke-miterlimit:10;}
	.st8{fill:none;stroke:#878787;stroke-width:0.326;stroke-linecap:round;stroke-linejoin:round;stroke-miterlimit:10;}
	.st9{fill:#6A97BC;}
	.st10{fill:#FFFFFF;stroke:#9D9D9C;stroke-miterlimit:10;}
	.st11{fill:none;}
	.st12{fill:#575756;}
	.st13{font-family:'ArialMT';}
	.st14{font-size:14px;}
	.st15{fill:#FFFFFF;}
	
		.st16{display:none;opacity:0.55;fill:none;stroke:#878787;stroke-width:0.326;stroke-miterlimit:10;stroke-dasharray:10.0006,3,3,3,10,3;enable-background:new    ;}
	
		.st17{opacity:0.55;fill:#DFDFDF;stroke:#1D1D1B;stroke-width:1.0006;stroke-miterlimit:10;stroke-dasharray:10.0006,3,3,3,10,3;enable-background:new    ;}
	.st18{fill:none;stroke:#878787;stroke-width:0.2268;stroke-miterlimit:10;}
	.st19{fill:#DFDFDF;stroke:#1D1D1B;stroke-width:1.0006;stroke-miterlimit:10;stroke-dasharray:10.0006,3,3,3,10,3;}
	.st20{fill:#77AAD4;}
	.st21{fill:none;stroke:#FFD500;stroke-width:0.326;stroke-miterlimit:10;}
	.st22{fill:#FFD500;stroke:#FFD500;stroke-width:0.326;stroke-miterlimit:10;}
	.st23{fill:none;stroke:#878787;stroke-width:0.2835;stroke-miterlimit:10;}
	.st24{fill:none;stroke:#878787;stroke-width:0.2835;stroke-miterlimit:10;stroke-dasharray:1.8988,1.8988,1.8988,1.8988;}
	
		.st25{fill:none;stroke:#878787;stroke-width:0.2835;stroke-miterlimit:10;stroke-dasharray:1.8988,1.8988,1.8988,1.8988,1.8988,1.8988;}
	.st26{fill:none;stroke:#878787;stroke-width:0.2835;stroke-miterlimit:10;stroke-dasharray:1.5361,1.5361,1.5361,1.5361;}
	.st27{fill:none;stroke:#878787;stroke-width:0.2835;stroke-miterlimit:10;stroke-dasharray:1.8842,1.8842,1.8842,1.8842;}
	
		.st28{fill:none;stroke:#878787;stroke-width:0.2835;stroke-miterlimit:10;stroke-dasharray:1.8842,1.8842,1.8842,1.8842,1.8842,1.8842;}
	.st29{fill:none;stroke:#878787;stroke-width:0.2835;stroke-miterlimit:10;stroke-dasharray:1.5623,1.5623,1.5623,1.5623;}
	.st30{fill:#E30613;}
	.st31{fill:none;stroke:#878787;stroke-width:0.3255;stroke-miterlimit:10;}
	.st32{fill:none;stroke:#878787;stroke-width:0.3255;stroke-miterlimit:10;stroke-dasharray:1.5584,1.5584,1.5584,1.5584;}
	
		.st33{fill:none;stroke:#878787;stroke-width:0.3255;stroke-miterlimit:10;stroke-dasharray:1.5584,1.5584,1.5584,1.5584,1.5584,1.5584;}
	.st34{fill:none;stroke:#878787;stroke-width:0.3255;stroke-miterlimit:10;stroke-dasharray:2.6994,2.6994,2.6994,2.6994;}
	
		.st35{fill:none;stroke:#878787;stroke-width:0.3255;stroke-miterlimit:10;stroke-dasharray:2.6994,2.6994,2.6994,2.6994,2.6994,2.6994;}
	.st36{fill:none;stroke:#878787;stroke-width:0.3255;stroke-miterlimit:10;stroke-dasharray:1.578,1.578,1.578,1.578;}
	.st37{fill:none;stroke:#878787;stroke-width:0.3255;stroke-miterlimit:10;stroke-dasharray:1.578,1.578,1.578,1.578,1.578,1.578;}
	.st38{fill:none;stroke:#878787;stroke-width:0.3255;stroke-miterlimit:10;stroke-dasharray:2.695,2.695,2.695,2.695;}
	.st39{fill:none;stroke:#878787;stroke-width:0.3255;stroke-miterlimit:10;stroke-dasharray:2.695,2.695,2.695,2.695,2.695,2.695;}
	.st40{font-size:25px;}
</style>
<g id="Untergeschoss" class="st0">
	<g id="Grundstück_2_" class="st1">
		<path class="st2" d="M276.1,15.3c-1.9,5.2-3.9,10.5-5.8,15.7l-11.4-3.1c-2.9-0.9-6.8-2-11.4-2.9c-11.6-2.1-20.6-1.5-22.7-1.3
			c-14,1.1-25.3,6-32.4,9.9L179.2,40c-5.7,2.1-10.3,4.2-13.7,5.9c-5.7,2.9-10.4,5.3-15.4,9.9c-3.9,3.6-6.6,7.2-8.3,9.7l-5.3,13
			c-8.6,20.3-17.3,40.5-25.9,60.8c-1,2.9-1.7,5.4-2.1,7.3c-0.7,3-1.3,5.9-1.3,9.7c0,1.9,0.2,3.4,0.3,4.5l2.5,13
			c1.2,9.5,2.3,16.9,3,22c0.5,3.3,0.9,6,1.2,9.9s0.7,8.8,0.2,15c-0.4,5.5-0.7,9.1-2.5,13.4c-2.2,5.2-5.4,8.5-6.9,10.1
			c-0.9,0.9-22.3,22.9-35.2,40.3c-5,6.7-5.3,8.2-13.9,20c-5.5,7.6-10.4,13.8-12.2,16.2c-2,2.6-3.8,4.8-5.1,6.4l-4.1,12.7
			c-3.9,13.4-6.9,21.2-9.1,25.9c-0.8,1.7-2.5,5.4-3.5,10.6c-0.6,3.3-0.6,5.3-0.8,9.7c0,0-0.2,3-1.3,14c-0.5,5.2-1.3,10.6-4,24.1
			c-3.5,18.2-5.4,27.9-8.9,41.6c-2.3,9.1-4.6,16.8-6.4,23v7.1l2.1,22.3l0.8,6.9l6.9,4.3l25.4,11.6l20.1,9.6l1.5,0.7l63.4-5.4
			l28.2-10.9l44.6-3.3l5.6,26.4l19.3,84.9l1.8,7.3l1.3,2.1l16.5,10.6h5.3l79.9-1h12.4l31.9,1.8l42.8,2.5l16,1.8l5.3,1.5l14.5,7.5
			l6.8-7.7l52-63.9l6.6-8.1l11.2-17.8l54.6-69.6l65-78.6l21.6-27.1l19.8-25.3c7-9.9,15.1-24.5,19.2-43.4c0.6-3,2.3-8.2,2.2-15.2
			c0-2.6-0.3-4.4-0.5-6.3c-0.4-3.6-1.4-10.9-4.8-18.3c-1.5-3.2-2.7-4.8-6.3-10.1c-6-8.8-11.7-17.9-17.7-26.8
			c-2.4-3.6-6.1-9.1-10.6-16l-7.4-7.3l-24.3-22.6l-27.4-24.4l-31.9-24.4l-53.7-42l-68-45.4L391.2,42l-37.5-14.9l-39.3-14.7L287.2,2
			l-6.4-1.5c-3.7,0.2-6.8,2.4-7.6,5.4c-0.7,2.6,0.5,4.8,0.8,5.4L276.1,15.3z"/>
	</g>
	<g id="Gebäude_1_" class="st1">
		<path class="st3" d="M539.6,302.6l21.6-79.4l-26.3,3.3l-0.4,1.2l-8.8-2.5l-0.5,2.2l-8.8-2.4l2.1-7.6l-23.8,8l6.8-25.5l35.9-12
			c0,0,3.1-9.7,2.7-9.7s-74.5,24.9-74.5,24.9l-3.5,12.6l-49,16.5l-14.5,54.2l-38.8,22.2l-43.1-11.8l-22.4-38.6l0.4-1.5l5.8,1.5
			l2.9-11l-5.7-1.6l4-15.3l4.6,1.2l3.7-13.4l2.5,4.3l18.7-10.5l-2.6-4.5l20.7-12l-1.7-24.3l10.2-5.9l1.2-24.9l2.2-45.9l-33.1,19
			l-8.7-14.7l-13.8,7.8L289,77.9l-7.4,9.8c-5.5-4.1-27.5-19.6-58.6-17.2c-36.3,2.9-57.2,28.1-60.7,32.5l-5.1-3.6l-8.8,11.3
			l21.8,17.1L141,166.1l-12.1-8.9L119,170l41.2,32l-5.1,7.3l21.2,16.5l5.6-7.2l35.6,27.6l-3.6,13.8l4,1.5l0.9,4.6L89.9,282.7
			l7.5,57.1l123.5-15.7l-0.8-7.4l18.1-2.2l23.6,40.5l3.9-2l3.6,2.6l-88.4,115l45.6,35.3L312,395.3l-5.8-4.6l11.4-14.4l44.8,12.2
			l1.4-4.2l4.7-0.6l17,128.7l57.1-7.3l-16.2-123.7l-5.8,0.8l-0.6-3.7l43.7-24.9l3.1,5.4l7.3-4l-3.1-5.6l4.5-2.4l85.5,65.9l35.1-45.6
			l-73-56.5l8.5-10.7L539.6,302.6z"/>
		<polygon class="st4" points="496.4,320.3 510.8,301.8 509.8,300.9 523.9,249.2 498.6,242.4 480.8,309.2 495.7,320.9 		"/>
		<polygon class="st4" points="443.6,320.9 457.9,302.7 526.4,355.4 531.6,348.8 502.4,326.2 517.3,306.9 532.1,251.6 543.9,254.6 
			546,247.7 540.5,246.4 546.4,225.1 561.2,223.3 539.6,302.6 531.8,300.7 523.3,311.3 596.3,367.8 561.2,413.4 475.7,347.4 
			458.5,334.1 443.6,322.1 		"/>
		<polygon class="st4" points="525.7,225.3 525.2,227.5 522.4,237.5 493.5,229.6 474.2,300.2 441.5,291.4 455.7,239.1 464.5,241.6 
			472.2,212.7 500.6,203.3 494.7,225.5 518.5,217.5 516.4,225.1 		"/>
		<polygon class="st4" points="462.2,215.9 435.4,314.9 427.5,319.4 425.6,316 398.3,331.5 400.1,335 365.8,354.5 288.3,333.4 
			254.6,274.6 275.5,196.8 310.4,177.1 315.4,185.5 328.6,178.1 329.7,179.7 347.5,169.8 349.4,195.5 328.7,207.5 331.2,212.1 
			312.6,222.5 310.1,218.3 306.4,231.6 301.7,230.5 297.7,245.7 303.4,247.3 300.5,258.3 294.7,256.8 294.3,258.3 316.7,296.9 
			359.8,308.7 398.6,286.5 413.1,232.4 		"/>
		<polygon class="st4" points="451.2,361.3 432.1,327.5 394.5,349.1 409.1,374.3 419.6,368.5 424.1,376.7 		"/>
		<polygon class="st4" points="426.6,381.9 402.2,385.7 418.4,508.7 442.7,505.6 		"/>
		<polygon class="st4" points="432.1,327.5 443.6,320.9 458,332.4 454.4,337.3 463.9,354.1 451.2,361.3 		"/>
		<polyline class="st4" points="409.7,509.8 385.6,512.9 368.6,384.2 363.9,384.8 362.5,389 307.3,373.9 313.7,350.2 367.6,364.9 
			390.4,361.9 409.7,509.8 409.7,509.8 385.6,512.9 		"/>
		<polyline class="st4" points="226.5,506.4 180.9,471.1 269.3,356 265.7,353.4 261.9,355.4 230.8,301.6 252.2,289.8 282.3,341.9 
			300.7,356 285.6,375.7 306.2,391.2 312.1,395.8 226.5,506.4 		"/>
		<polygon class="st4" points="221,324.4 97.5,340.2 90,283 213.3,267.1 214.7,279.1 239.3,275.9 241.3,288.5 216.9,291.7 		"/>
		<polygon class="st4" points="248.3,264.2 218.9,268 218,261.8 214.1,260.3 217.7,246.5 182.2,218.9 176.5,226 155.3,209.5 
			160.4,202.2 119.2,170.2 129.1,157.4 141.2,166.3 170.4,128 148.6,111 157.4,99.6 269.5,186.2 263,211 245.7,206.2 199.8,170.6 
			195.8,176.3 242,211.9 260.9,217.2 		"/>
		<polygon class="st4" points="319.5,98.9 328.2,113.6 312.9,122.3 304.4,107.2 		"/>
		<polygon class="st4" points="359.1,140.5 339.6,107 361.3,94.6 		"/>
		<polygon class="st5" points="522.6,237.4 531.1,239.7 534.4,227.9 525.8,225.5 		"/>
		<polyline class="st5" points="522.6,237.4 534.4,227.9 534.9,226.6 546.4,225.1 540.5,246.4 535.7,245.1 536.8,241.2 531.1,239.7 
			525.8,225.5 		"/>
		<polyline class="st5" points="531.1,239.7 534.4,227.9 534.9,226.6 		"/>
		<path class="st4" d="M97.5,340.2"/>
		<polyline class="st4" points="354.4,167.4 343.2,147.9 359.2,138.8 357.9,165.4 354.4,167.4 		"/>
		<line class="st6" x1="538.3" y1="245.8" x2="541.4" y2="234.8"/>
		<polyline class="st6" points="544.2,233 539.2,231.7 536.8,241.2 		"/>
		<path class="st6" d="M532.7,233.9"/>
		<line class="st6" x1="537.3" y1="239.3" x2="531.7" y2="237.7"/>
		<polyline class="st6" points="534.6,238.6 535.9,233.5 533.2,232.7 538.7,234.2 		"/>
		<line class="st6" x1="543.6" y1="235.5" x2="538.6" y2="234.2"/>
		<polygon class="st5" points="237.9,265.5 239.3,275.9 214.7,279.1 213.3,267.1 218.7,266.4 218.9,268 		"/>
		<polyline class="st6" points="214.1,273.5 230.5,271.5 229.9,266.6 230.5,271.5 231.1,276.9 		"/>
		<path class="st3" d="M475.7,347.4"/>
		<path class="st6" d="M470.7,357.4"/>
		<g>
			<polygon class="st6" points="457.4,333.2 475.7,347.4 471.1,349.9 474.2,355.5 467,359.4 454.4,337.3 			"/>
			<line class="st6" x1="470.7" y1="357.4" x2="465.6" y2="347.4"/>
			<line class="st6" x1="461.3" y1="349.5" x2="471.6" y2="344.5"/>
		</g>
		<g>
			<polygon class="st5" points="460.9,320.4 470.9,328.1 463.3,337.8 457.4,333.2 458,332.4 443.6,320.9 450.3,312.4 			"/>
			<polyline class="st6" points="467.4,332.6 451.8,320.4 455.2,316.1 451.8,320.4 			"/>
			<line class="st6" x1="451.8" y1="320.4" x2="448.3" y2="324.6"/>
		</g>
		<g>
			<g>
				<polyline class="st7" points="300.7,356 290.9,348.5 282.9,359.1 292.5,366.6 300.7,356 282.9,359.1 				"/>
				<polyline class="st7" points="290.9,348.5 275.1,369 265.3,361.3 270.1,354.9 271.5,356 282.3,341.9 290.9,348.5 292.5,366.6 
									"/>
			</g>
			<polyline class="st7" points="276.7,349.2 281,352.4 285.3,355.7 			"/>
			<line class="st8" x1="281" y1="352.4" x2="270.8" y2="365.7"/>
		</g>
		<g>
			<polygon class="st7" points="450.3,312.4 457.9,302.7 467.7,310.3 460.3,320 			"/>
			<line class="st8" x1="450.3" y1="312.4" x2="467.7" y2="310.3"/>
			<line class="st8" x1="457.9" y1="302.7" x2="460.3" y2="320"/>
		</g>
		<g>
			<polygon class="st5" points="390.4,361.9 392.2,375 380.1,376.7 378.4,363.5 			"/>
			<polyline class="st5" points="392.2,375 378.4,363.5 367.6,364.9 370,383.8 368.5,384 369.5,390.7 381.7,389.1 378.4,363.5 			
				"/>
			<line class="st6" x1="390.4" y1="361.9" x2="380.1" y2="376.7"/>
			<polyline class="st6" points="376.1,389.8 374,372.9 368.7,373.5 374,372.9 379.6,372.2 			"/>
		</g>
		<g>
			<polygon class="st5" points="596.3,367.8 581.3,387.2 571.3,379.4 586.3,360.1 			"/>
			<polyline class="st5" points="576.1,383.1 587,369.1 582.2,365.3 587,369.1 592.2,373.2 			"/>
		</g>
		<g>
			<polygon class="st5" points="442.7,505.4 418.5,508.6 416.9,496 441.1,492.9 			"/>
			<polyline class="st5" points="417.6,502 435.2,499.7 434.5,493.7 435.2,499.7 436,506.3 			"/>
		</g>
		<g>
			<polygon class="st5" points="200,486 180.8,470.7 188.8,460.8 207.8,476 			"/>
			<polyline class="st5" points="185,465.6 198.8,476.6 202.7,471.8 198.8,476.6 194.7,481.8 			"/>
		</g>
		<g>
			<polygon class="st5" points="92.8,307.5 89.7,283.2 102.3,281.7 105.3,305.9 			"/>
			<polyline class="st5" points="96.2,282.4 98.5,300 104.5,299.3 98.5,300 91.9,300.8 			"/>
		</g>
		<g>
			<polygon class="st5" points="239.3,275.9 241.3,288.5 228.3,290.3 226.6,277.5 			"/>
			<line class="st6" x1="241.3" y1="288.5" x2="226.6" y2="277.5"/>
			<line class="st6" x1="228.3" y1="290.3" x2="239.3" y2="275.9"/>
		</g>
		<g>
			<polygon class="st6" points="347.1,154.7 334.2,162 336.7,166.6 349.7,159.2 			"/>
			<polyline class="st6" points="348.3,156.8 338.4,162.4 337.2,160.3 338.4,162.4 339.8,164.8 			"/>
		</g>
		<g>
			<polygon class="st5" points="349.7,159.4 354.3,167.3 346.1,172 341.8,163.7 			"/>
			<line class="st6" x1="354.2" y1="167.2" x2="341.9" y2="163.7"/>
			<line class="st6" x1="346.1" y1="172" x2="349.7" y2="159.4"/>
		</g>
		<path class="st9" d="M339.6,107l18.7,32.3L268.1,191l1.3-4.8l-107-82.9c3.6-4.4,25.6-30.5,63.1-32.5c29.3-1.5,50.1,12.7,56.1,17.2
			l7.4-9.8l25,43.3L339.6,107z"/>
		<circle class="st10" cx="235.3" cy="179.4" r="3.5"/>
		<rect x="242.1" y="174.2" class="st11" width="167.6" height="11.7"/>
		<text transform="matrix(1 0 0 1 242.1042 184.2002)" class="st12 st13 st14">Wasch- und Bügelraum</text>
		<circle class="st10" cx="233.2" cy="252.4" r="3.5"/>
		<rect x="240" y="247.2" class="st11" width="167.6" height="11.7"/>
		<text transform="matrix(1 0 0 1 239.9588 257.2139)" class="st12 st13 st14">Inhalation</text>
		<circle class="st10" cx="150.5" cy="304.3" r="3.5"/>
		<rect x="157.3" y="299.1" class="st11" width="167.6" height="11.7"/>
		<text transform="matrix(1 0 0 1 157.2763 309.1271)" class="st12 st13 st14">Reha-Kraftraum</text>
		<circle class="st10" cx="342" cy="370.6" r="3.5"/>
		<rect x="193.4" y="364.9" class="st11" width="140.6" height="11.7"/>
		<text transform="matrix(1 0 0 1 298.2105 374.9203)" class="st12 st13 st14">Labor</text>
		<circle class="st10" cx="433.9" cy="348.4" r="3.5"/>
		<rect x="285.3" y="342.7" class="st11" width="140.6" height="11.7"/>
		<text transform="matrix(1 0 0 1 372.9622 352.7231)" class="st12 st13 st14">Röntgen</text>
		<circle class="st10" cx="419.8" cy="422.9" r="3.5"/>
		<rect x="426.6" y="417.7" class="st11" width="167.6" height="11.7"/>
		<text transform="matrix(1 0 0 1 426.6277 427.6812)" class="st12 st13 st14">Ergotherapie</text>
	</g>
</g>
<g id="_x32_.Obergeschoss" class="st0">
	<g id="Grundstück" class="st1">
		<path class="st15" d="M276.1,15.3c-1.9,5.2-3.9,10.5-5.8,15.7l-11.4-3.1c-2.9-0.9-6.8-2-11.4-2.9c-11.6-2.1-20.6-1.5-22.7-1.3
			c-14,1.1-25.3,6-32.4,9.9L179.2,40c-5.7,2.1-10.3,4.2-13.7,5.9c-5.7,2.9-10.4,5.3-15.4,9.9c-3.9,3.6-6.6,7.2-8.3,9.7l-5.3,13
			c-8.6,20.3-17.3,40.5-25.9,60.8c-1,2.9-1.7,5.4-2.1,7.3c-0.7,3-1.3,5.9-1.3,9.7c0,1.9,0.2,3.4,0.3,4.5l2.5,13
			c1.2,9.5,2.3,16.9,3,22c0.5,3.3,0.9,6,1.2,9.9s0.7,8.8,0.2,15c-0.4,5.5-0.7,9.1-2.5,13.4c-2.2,5.2-5.4,8.5-6.9,10.1
			c-0.9,0.9-22.3,22.9-35.2,40.3c-5,6.7-5.3,8.2-13.9,20c-5.5,7.6-10.4,13.8-12.2,16.2c-2,2.6-3.8,4.8-5.1,6.4l-4.1,12.7
			c-3.9,13.4-6.9,21.2-9.1,25.9c-0.8,1.7-2.5,5.4-3.5,10.6c-0.6,3.3-0.6,5.3-0.8,9.7c0,0-0.2,3-1.3,14c-0.5,5.2-1.3,10.6-4,24.1
			c-3.5,18.2-5.4,27.9-8.9,41.6c-2.3,9.1-4.6,16.8-6.4,23v7.1l2.1,22.3l0.8,6.9l6.9,4.3l25.4,11.6l20.1,9.6l1.5,0.7l63.4-5.4
			l28.2-10.9l44.6-3.3l5.6,26.4l19.3,84.9l1.8,7.3l1.3,2.1l16.5,10.6h5.3l79.9-1h12.4l31.9,1.8l42.8,2.5l16,1.8l5.3,1.5l14.5,7.5
			l6.8-7.7l52-63.9l6.6-8.1l11.2-17.8l54.6-69.6l65-78.6l21.6-27.1l19.8-25.3c7-9.9,15.1-24.5,19.2-43.4c0.6-3,2.3-8.2,2.2-15.2
			c0-2.6-0.3-4.4-0.5-6.3c-0.4-3.6-1.4-10.9-4.8-18.3c-1.5-3.2-2.7-4.8-6.3-10.1c-6-8.8-11.7-17.9-17.7-26.8
			c-2.4-3.6-6.1-9.1-10.6-16l-7.4-7.3l-24.3-22.6l-27.4-24.4l-31.9-24.4l-53.7-42l-68-45.4L391.2,42l-37.5-14.9l-39.3-14.7L287.2,2
			l-6.4-1.5c-3.7,0.2-6.8,2.4-7.6,5.4c-0.7,2.6,0.5,4.8,0.8,5.4L276.1,15.3z"/>
		<path class="st16" d="M276.1,15.3c-1.9,5.2-3.9,10.5-5.8,15.7l-11.4-3.1c-2.9-0.9-6.8-2-11.4-2.9c-11.6-2.1-20.6-1.5-22.7-1.3
			c-14,1.1-25.3,6-32.4,9.9L179.2,40c-5.7,2.1-10.3,4.2-13.7,5.9c-5.7,2.9-10.4,5.3-15.4,9.9c-3.9,3.6-6.6,7.2-8.3,9.7l-5.3,13
			c-8.6,20.3-17.3,40.5-25.9,60.8c-1,2.9-1.7,5.4-2.1,7.3c-0.7,3-1.3,5.9-1.3,9.7c0,1.9,0.2,3.4,0.3,4.5l2.5,13
			c1.2,9.5,2.3,16.9,3,22c0.5,3.3,0.9,6,1.2,9.9s0.7,8.8,0.2,15c-0.4,5.5-0.7,9.1-2.5,13.4c-2.2,5.2-5.4,8.5-6.9,10.1
			c-0.9,0.9-22.3,22.9-35.2,40.3c-5,6.7-5.3,8.2-13.9,20c-5.5,7.6-10.4,13.8-12.2,16.2c-2,2.6-3.8,4.8-5.1,6.4l-4.1,12.7
			c-3.9,13.4-6.9,21.2-9.1,25.9c-0.8,1.7-2.5,5.4-3.5,10.6c-0.6,3.3-0.6,5.3-0.8,9.7c0,0-0.2,3-1.3,14c-0.5,5.2-1.3,10.6-4,24.1
			c-3.5,18.2-5.4,27.9-8.9,41.6c-2.3,9.1-4.6,16.8-6.4,23v7.1l2.1,22.3l0.8,6.9l6.9,4.3l25.4,11.6l20.1,9.6l1.5,0.7l63.4-5.4
			l28.2-10.9l44.6-3.3l5.6,26.4l19.3,84.9l1.8,7.3l1.3,2.1l16.5,10.6h5.3l79.9-1h12.4l31.9,1.8l42.8,2.5l16,1.8l5.3,1.5l14.5,7.5
			l6.8-7.7l52-63.9l6.6-8.1l11.2-17.8l54.6-69.6l65-78.6l21.6-27.1l19.8-25.3c7-9.9,15.1-24.5,19.2-43.4c0.6-3,2.3-8.2,2.2-15.2
			c0-2.6-0.3-4.4-0.5-6.3c-0.4-3.6-1.4-10.9-4.8-18.3c-1.5-3.2-2.7-4.8-6.3-10.1c-6-8.8-11.7-17.9-17.7-26.8
			c-2.4-3.6-6.1-9.1-10.6-16l-7.4-7.3l-24.3-22.6l-27.4-24.4l-31.9-24.4l-53.7-42l-68-45.4L391.2,42l-37.5-14.9l-39.3-14.7L287.2,2
			l-6.4-1.5c-3.7,0.2-6.8,2.4-7.6,5.4c-0.7,2.6,0.5,4.8,0.8,5.4L276.1,15.3z"/>
		<path class="st17" d="M276.1,15.3c-1.9,5.2-3.9,10.5-5.8,15.7l-11.4-3.1c-2.9-0.9-6.8-2-11.4-2.9c-11.6-2.1-20.6-1.5-22.7-1.3
			c-14,1.1-25.3,6-32.4,9.9L179.2,40c-5.7,2.1-10.3,4.2-13.7,5.9c-5.7,2.9-10.4,5.3-15.4,9.9c-3.9,3.6-6.6,7.2-8.3,9.7l-5.3,13
			c-8.6,20.3-17.3,40.5-25.9,60.8c-1,2.9-1.7,5.4-2.1,7.3c-0.7,3-1.3,5.9-1.3,9.7c0,1.9,0.2,3.4,0.3,4.5l2.5,13
			c1.2,9.5,2.3,16.9,3,22c0.5,3.3,0.9,6,1.2,9.9s0.7,8.8,0.2,15c-0.4,5.5-0.7,9.1-2.5,13.4c-2.2,5.2-5.4,8.5-6.9,10.1
			c-0.9,0.9-22.3,22.9-35.2,40.3c-5,6.7-5.3,8.2-13.9,20c-5.5,7.6-10.4,13.8-12.2,16.2c-2,2.6-3.8,4.8-5.1,6.4l-4.1,12.7
			c-3.9,13.4-6.9,21.2-9.1,25.9c-0.8,1.7-2.5,5.4-3.5,10.6c-0.6,3.3-0.6,5.3-0.8,9.7c0,0-0.2,3-1.3,14c-0.5,5.2-1.3,10.6-4,24.1
			c-3.5,18.2-5.4,27.9-8.9,41.6c-2.3,9.1-4.6,16.8-6.4,23v7.1l2.1,22.3l0.8,6.9l6.9,4.3l25.4,11.6l20.1,9.6l1.5,0.7l63.4-5.4
			l28.2-10.9l44.6-3.3l5.6,26.4l19.3,84.9l1.8,7.3l1.3,2.1l16.5,10.6h5.3l79.9-1h12.4l31.9,1.8l42.8,2.5l16,1.8l5.3,1.5l14.5,7.5
			l6.8-7.7l52-63.9l6.6-8.1l11.2-17.8l54.6-69.6l65-78.6l21.6-27.1l19.8-25.3c7-9.9,15.1-24.5,19.2-43.4c0.6-3,2.3-8.2,2.2-15.2
			c0-2.6-0.3-4.4-0.5-6.3c-0.4-3.6-1.4-10.9-4.8-18.3c-1.5-3.2-2.7-4.8-6.3-10.1c-6-8.8-11.7-17.9-17.7-26.8
			c-2.4-3.6-6.1-9.1-10.6-16l-7.4-7.3l-24.3-22.6l-27.4-24.4l-31.9-24.4l-53.7-42l-68-45.4L391.2,42l-37.5-14.9l-39.3-14.7L287.2,2
			l-6.4-1.5c-3.7,0.2-6.8,2.4-7.6,5.4c-0.7,2.6,0.5,4.8,0.8,5.4L276.1,15.3z"/>
	</g>
	<g id="Gebäude" class="st1">
		<polygon class="st3" points="478.7,286.1 493.4,232.1 431.6,240.1 415.5,299.4 363,329.6 348.6,325.7 304.3,313.7 274.2,261.2 
			290.3,201.8 241,163.6 214.7,261.3 218.9,262.5 219.5,267.5 90.6,283.9 97.6,340.9 221.4,324.9 220.2,317.9 239,315.5 262.2,356 
			266.2,353.8 270.1,357 266,361.9 181.2,471.9 226.9,506.7 312.5,396.1 306.5,392.1 318,377.2 363,389.5 364.1,385.1 368.6,384.5 
			385.6,512.9 442.7,505.6 426.6,381.9 420.7,382.7 420.2,378.9 418.1,364.6 458.4,341.3 456.1,337.1 458.3,334.1 464.1,338.5 
			495.1,298.2 		"/>
		<path class="st4" d="M97.5,340.2"/>
		<path class="st6" d="M532.7,233.9"/>
		<path class="st3" d="M475.7,347.4"/>
		<path class="st6" d="M470.7,357.4"/>
		<polygon class="st4" points="467.7,310.3 479,319 471.6,328.6 459.9,320.4 467.2,311 467.7,310.3 450.3,312.4 		"/>
		<polygon class="st4" points="426.6,381.9 442.7,505.6 418.5,508.7 402.6,385.2 		"/>
		<g>
			<polygon class="st5" points="442.7,505.4 418.5,508.6 416.9,496 441.1,492.9 			"/>
			<polyline class="st5" points="417.6,502 435.2,499.7 434.5,493.7 435.2,499.7 436,506.3 			"/>
		</g>
		<polygon class="st4" points="409.7,509.8 385.6,512.9 369.5,390.7 393.9,387.4 		"/>
		<polygon class="st4" points="393.9,387.4 392.4,375 380.3,376.7 381.7,389.1 		"/>
		<polygon class="st4" points="312.2,396.2 226.7,507 207.4,492 250.1,436.2 260.9,422.5 292.7,381.6 		"/>
		<polygon class="st4" points="208.5,476.5 189.4,461.4 266.5,361.4 276.1,368.8 282.9,359.1 292.1,366.3 292.7,366.8 		"/>
		<g>
			<polygon class="st5" points="200.4,486.7 181.4,471.8 189.4,461.4 208.2,476.3 			"/>
			<polyline class="st6" points="185.4,466.4 198.9,476.8 202.7,472.1 198.9,476.8 194.7,482 			"/>
		</g>
		<polygon class="st4" points="239.3,315.2 233.6,305.1 254.4,293.3 282.9,342.7 271.2,357.6 270.6,357.3 269,356 266.2,353.8 
			262.2,356 239,315.5 		"/>
		<polygon class="st4" points="221.6,325 218.5,300.8 94.7,316.7 97.6,340.9 		"/>
		<polygon class="st4" points="102.4,282.3 105.4,306.4 216.3,292.2 228.3,290.8 227,279.5 215,281 213.4,267.9 		"/>
		<g>
			<polygon class="st5" points="93.7,307.9 90.8,284.1 102.7,282.5 105.9,306.3 			"/>
			<polyline class="st6" points="96.7,283.5 98.9,300.1 105,299.3 99,300.1 92.9,300.9 			"/>
		</g>
		<g>
			<g>
				<polyline class="st7" points="300.7,356 291.3,349.2 283.4,359.5 292.5,366.6 300.7,356 283.4,359.5 				"/>
				<polyline class="st7" points="292.5,366.6 291.3,349.2 282.9,342.7 271.2,357.6 270.1,357 266.7,361.4 276.1,368.8 291.3,349.2 
									"/>
			</g>
			<polyline class="st7" points="278,349 282.2,352.2 286.5,355.5 			"/>
			<line class="st8" x1="281.6" y1="351.9" x2="271.5" y2="365.1"/>
		</g>
		<path class="st6" d="M523.8,311.4l8.3-10.7l8.1,2.1l21.3-79.5l-24.6,3.5l11.9-43.4l-85.4,28.2l-30.3,10l-3.7,14.1l-22.6,2.8
			L395,283.1l-35.4,20.3l-4.5-1.2l0.8-2.7c-1-1.5-5.3-7.6-13.7-9.9c-8.4-2.3-15.2,0.7-16.9,1.5l-0.7,2.7l-4.5-1.1L300,257.3
			l6.8-25.8l3.7-13l39.9-22.6l-2.3-24.4l10.2-5.8l3.6-70.7L319,119.6l-26.1-45l-6.6,8.9l-1.2-0.8c-5.4-4-30.7-21.7-66.1-17.5
			c-36.9,4.4-57.7,29.5-61.7,34.5l-9,11.6l5.8,4.3l-3,4.5l12.1,9.2l-35,45.6l4.4,3.6l-1.2,1.9l86.9,66.6"/>
		<polygon class="st4" points="306.7,373.5 313.1,350.4 360.2,363.2 360.6,366.1 365.6,365.5 365.8,364.6 367.4,364.9 370.3,384.3 
			364.1,385.1 363,389.5 318,377.2 318,376.6 		"/>
		<g>
			<polygon class="st5" points="390.4,361.9 392.2,375 380.1,376.7 378.4,363.5 			"/>
			<polyline class="st5" points="378.4,363.5 381.7,389.1 369.5,390.7 368.5,384 370,383.8 367.6,364.9 378.4,363.5 392.2,375 			
				"/>
			<line class="st6" x1="380.1" y1="376.7" x2="390.4" y2="361.9"/>
			<polyline class="st6" points="376.1,389.8 374,372.9 368.7,373.5 374,372.9 379.6,372.2 			"/>
		</g>
		<polygon class="st4" points="394.9,349.5 439.5,323.9 444,321.5 459.1,332.8 456.1,337.1 458.4,341.3 417.4,364.8 416.9,364.6 
			406.8,370.3 		"/>
		<polygon class="st4" points="493.4,232.1 478.8,285.8 478.3,286.3 475.2,297.3 451.8,291.1 467.2,235.6 		"/>
		<polygon class="st4" points="457.9,236.7 438.9,306.6 435.7,305.9 427,317.5 428.4,320.4 374.5,351.3 372.7,348.5 358.2,350.4 
			357.3,353.7 297.3,337.3 297.9,334 286.4,325 283.6,326.7 252.5,272.7 255.3,270.8 254.6,264.2 247.9,265.1 269.4,185.6 
			290.3,201.8 274.2,261.2 304.3,313.7 363,329.6 415.5,299.4 431.6,240.1 		"/>
		<polygon class="st4" points="241,163.6 261.7,179.7 238.6,265.5 219.7,267.9 218.9,262.5 214.7,261.3 		"/>
		<path class="st6" d="M468.4,351.6c-2,1.3-48.3,27.3-48.3,27.3"/>
		<polyline class="st6" points="495.1,298.2 499.3,292.9 596.3,367.7 561.4,413.3 464.1,338.5 		"/>
		<polyline class="st18" points="355.1,167.6 350.3,159.2 342,164 346.9,172.5 348.2,171.5 		"/>
		<path class="st18" d="M319.2,119.7l-69.7,39.5c-0.6-1.2-8.1-16.9-18.1-17.1c-1.5,0-3.2,0.3-3.3,0.3c-7.2,1.5-11.2,7.4-12.6,9.6
			l-44.6,58.3"/>
		<polyline class="st18" points="157.4,99.6 179.8,117.2 132.6,178.4 		"/>
		<line class="st18" x1="170.9" y1="128.8" x2="154.2" y2="115.5"/>
		<path class="st18" d="M163.6,104.5c4.6-5.7,21.2-25.1,50.4-30.9c36.1-7.2,63.5,11.9,68,15.2l4.3-5.3"/>
		<line class="st18" x1="289.9" y1="78.7" x2="314.8" y2="122.1"/>
		<line class="st18" x1="214.7" y1="153" x2="175.2" y2="122.8"/>
		<polyline class="st6" points="232.7,194.5 226.2,192.8 224.2,200.2 222.1,207.8 228.5,209.4 		"/>
		<line class="st6" x1="230.5" y1="202" x2="224.2" y2="200.2"/>
		<polyline class="st6" points="288.2,209.6 294.7,211.4 290.5,226.5 284.1,224.7 		"/>
		<line class="st6" x1="292.6" y1="218.9" x2="286.2" y2="217.2"/>
		<polyline class="st6" points="280.1,239.2 286.6,241.1 282.6,256 276.1,254.3 		"/>
		<line class="st6" x1="284.6" y1="248.5" x2="278.2" y2="246.7"/>
		<polyline class="st6" points="277.7,267.4 283.5,264.1 291.4,277.8 285.6,281 		"/>
		<line class="st6" x1="287.3" y1="270.7" x2="281.5" y2="274.1"/>
		<polyline class="st6" points="293,294 298.9,290.7 306.6,304.1 300.8,307.5 		"/>
		<line class="st6" x1="302.7" y1="297.4" x2="296.9" y2="300.7"/>
		<polyline class="st6" points="311.2,315.5 312.9,309.2 328.1,313.2 326.3,319.7 		"/>
		<line class="st6" x1="320.6" y1="311.2" x2="318.8" y2="317.6"/>
		<polyline class="st6" points="340.9,323.6 342.6,317.2 357.8,321.5 356.1,327.7 		"/>
		<line class="st6" x1="350.2" y1="319.3" x2="348.5" y2="325.7"/>
		<path class="st6" d="M369.1,326c0-0.1-3.3-5.7-3.3-5.7l13.5-7.7l3.3,5.7"/>
		<line class="st6" x1="372.4" y1="316.4" x2="375.7" y2="322.2"/>
		<polyline class="st6" points="395.7,310.8 392.3,305 405.9,297.3 409.2,302.9 		"/>
		<line class="st6" x1="399.1" y1="301.2" x2="402.4" y2="306.9"/>
		<polyline class="st6" points="417.3,292.6 410.8,290.9 414.9,275.8 421.3,277.5 		"/>
		<line class="st6" x1="412.9" y1="283.2" x2="419.4" y2="285.1"/>
		<polyline class="st6" points="425.3,263 418.9,261.3 423,246.3 429.4,247.9 		"/>
		<line class="st6" x1="421" y1="253.6" x2="427.3" y2="255.4"/>
		<polyline class="st18" points="412.6,237.7 414.1,232.5 431.8,226.6 		"/>
		<polyline class="st6" points="491.7,238.4 498,240.2 494,255.4 487.6,253.6 		"/>
		<polyline class="st6" points="485,263 491.4,264.7 487.3,280 480.8,278.1 		"/>
		<line class="st6" x1="489.4" y1="272.3" x2="483" y2="270.5"/>
		<polyline class="st6" points="503.8,296.4 508.7,290.1 522.3,300.7 517.5,306.9 		"/>
		<polyline class="st6" points="528.1,315 533,308.9 546.6,319.4 541.9,325.6 		"/>
		<polyline class="st6" points="552.5,333.7 557.3,327.7 571.1,338.3 566.3,344.4 		"/>
		<polyline class="st6" points="576.8,352.6 581.6,346.5 595.3,357 590.5,363.2 		"/>
		<polyline class="st6" points="555.3,408.7 550.6,414.9 536.7,404.5 541.6,398.3 		"/>
		<polyline class="st6" points="531,390 526.2,396.2 512.5,385.5 517.3,379.5 		"/>
		<polyline class="st6" points="506.6,371.2 502,377.4 488.1,366.9 493.1,360.7 		"/>
		<polyline class="st6" points="482.3,352.4 477.6,358.6 463.8,348.1 468.5,342 		"/>
		<polyline class="st6" points="431.7,421.1 438.4,420.3 440.4,435.9 433.8,436.8 		"/>
		<line class="st6" x1="439.4" y1="428" x2="432.9" y2="429"/>
		<polyline class="st6" points="435.6,451.6 442.3,450.8 444.4,466.2 437.7,467.1 		"/>
		<line class="st6" x1="443.3" y1="458.4" x2="436.7" y2="459.4"/>
		<polyline class="st6" points="439.5,482 446.2,481.2 448.2,496.7 441.8,497.6 		"/>
		<polyline class="st6" points="382.5,489.4 375.8,490.3 377.8,505.6 384.3,504.8 		"/>
		<line class="st6" x1="376.8" y1="498" x2="383.3" y2="497.1"/>
		<polyline class="st6" points="378.5,458.9 371.9,459.8 373.8,475.2 380.5,474.4 		"/>
		<line class="st6" x1="372.9" y1="467.6" x2="379.4" y2="466.6"/>
		<polyline class="st6" points="374.5,428.6 367.9,429.4 370,444.8 376.6,444.1 		"/>
		<line class="st6" x1="369" y1="437.1" x2="375.5" y2="436.2"/>
		<polyline class="st6" points="370.5,398 364.1,398.9 366.1,414.4 372.5,413.6 		"/>
		<path class="st6" d="M365.1,406.8"/>
		<line class="st6" x1="365.1" y1="406.6" x2="371.6" y2="405.8"/>
		<polyline class="st6" points="306.7,403.6 312,407.7 301.1,421.6 295.8,417.7 		"/>
		<line class="st6" x1="306.6" y1="414.6" x2="301.2" y2="410.6"/>
		<polyline class="st6" points="285.4,431 290.8,435.1 280,449 274.7,444.9 		"/>
		<line class="st6" x1="285.4" y1="442" x2="280" y2="437.9"/>
		<polyline class="st6" points="264.3,458.4 269.6,462.4 258.9,476.3 253.6,472.2 		"/>
		<line class="st6" x1="264.3" y1="469.3" x2="258.9" y2="465.3"/>
		<polyline class="st6" points="243.2,485.6 248.5,489.7 237.9,503.6 232.6,499.5 		"/>
		<line class="st6" x1="243.2" y1="496.6" x2="237.8" y2="492.6"/>
		<polyline class="st6" points="186.9,464.1 181.7,460.2 192.3,446.4 197.6,450.4 		"/>
		<polyline class="st6" points="207.9,436.9 202.7,432.9 213.4,419 218.7,423.1 		"/>
		<line class="st6" x1="208.2" y1="426" x2="213.3" y2="429.9"/>
		<polyline class="st6" points="229.2,409.4 223.8,405.5 234.6,391.7 239.8,395.6 		"/>
		<line class="st6" x1="229.2" y1="398.5" x2="234.4" y2="402.6"/>
		<polyline class="st6" points="250.2,382.2 245,378.1 255.6,364.3 260.9,368.4 		"/>
		<line class="st6" x1="250.3" y1="371.2" x2="255.5" y2="375.3"/>
		<path class="st6" d="M213.1,326c0.1,0.2,0.9,6.5,0.9,6.5l-15.4,2.1l-0.9-6.5"/>
		<line class="st6" x1="206.2" y1="333.6" x2="205.3" y2="327.1"/>
		<polyline class="st6" points="182.8,330.4 183.5,336.7 168,338.8 167.1,332 		"/>
		<line class="st6" x1="175.8" y1="337.7" x2="174.9" y2="331.1"/>
		<path class="st6" d="M152.2,333.9c0.2,0.3,0.9,6.7,0.9,6.7l-15.4,1.9l-1-6.7"/>
		<line class="st6" x1="145.3" y1="341.6" x2="144.4" y2="335.1"/>
		<polyline class="st6" points="121.8,337.9 122.6,344.3 107.2,346.2 106.3,339.7 		"/>
		<line class="st6" x1="114.9" y1="345.3" x2="114" y2="338.8"/>
		<polyline class="st6" points="99,282.5 98,276.1 113.6,274.2 114.4,280.6 		"/>
		<polyline class="st6" points="129.4,278.6 128.6,272.2 144.1,270.2 144.9,276.7 		"/>
		<line class="st6" x1="136.2" y1="271.2" x2="137.1" y2="277.7"/>
		<polyline class="st6" points="159.9,274.9 159,268.2 174.6,266.3 175.3,272.7 		"/>
		<line class="st6" x1="166.7" y1="267.3" x2="167.6" y2="273.7"/>
		<polyline class="st6" points="190.2,270.8 189.5,264.3 204.9,262.5 205.8,268.8 		"/>
		<line class="st6" x1="197.2" y1="263.4" x2="198.1" y2="269.8"/>
		<g>
			<circle class="st5" cx="468.7" cy="230.6" r="4.2"/>
		</g>
		<polygon class="st5" points="462.4,236.1 461.6,231.3 468.7,230.6 469.3,235.1 		"/>
		<g>
			<circle class="st5" cx="260.3" cy="172.7" r="4.2"/>
		</g>
		<polygon class="st5" points="265.7,182.7 268.8,179 260.3,172.7 257.5,176.3 		"/>
		<g>
			<polyline class="st6" points="427.7,390.7 434.4,389.9 436.5,405.4 429.8,406.2 			"/>
			<line class="st6" x1="435.5" y1="397.5" x2="428.9" y2="398.5"/>
		</g>
		<circle class="st10" cx="257.3" cy="324.4" r="3.5"/>
		<rect x="265.4" y="318.6" class="st11" width="175" height="33.5"/>
		<text transform="matrix(1 0 0 1 265.4366 328.6203)" class="st12 st13 st14">Schwestern-Zentralstation</text>
		<circle class="st10" cx="337.5" cy="370.7" r="3.5"/>
		<rect x="345.6" y="364.8" class="st11" width="175" height="33.5"/>
		<text transform="matrix(1 0 0 1 345.6094 374.8505)" class="st12 st13 st14">Schwestern-Zentralstation</text>
		<g>
			<polygon class="st5" points="238.6,265.5 240.1,277.8 215,281 213.4,268 219.5,267.5 219.5,267.9 			"/>
			<polyline class="st6" points="214.4,274.8 230.6,272.8 229.9,266.6 230.5,271.5 231.3,278.8 			"/>
			<g>
				<polygon class="st5" points="240.1,277.8 241.5,289 228.3,290.6 226.9,279.5 				"/>
				<line class="st6" x1="227" y1="279.6" x2="241.5" y2="289"/>
				<line class="st6" x1="228.3" y1="290.6" x2="240" y2="277.9"/>
			</g>
		</g>
		<g>
			<g>
				<polygon class="st5" points="460.9,320.4 471.6,328.6 464.1,338.5 457.4,333.2 458,332.4 443.6,320.9 450.3,312.4 				"/>
				<polyline class="st6" points="468.1,333.1 451.8,320.4 455.2,316.1 451.8,320.4 				"/>
				<line class="st6" x1="451.8" y1="320.4" x2="448.3" y2="324.6"/>
			</g>
			<g>
				<g>
					<polygon class="st7" points="450.3,312.4 457.9,302.7 467.7,310.3 460.3,320 					"/>
				</g>
				<line class="st8" x1="460.3" y1="320" x2="457.9" y2="302.7"/>
				<line class="st6" x1="467.7" y1="310.3" x2="450.3" y2="312.4"/>
			</g>
		</g>
	</g>
</g>
<g id="Erdgeschoss">
	<g id="Grundstück_1_">
		<path class="st19" d="M276.1,15.3c-1.9,5.2-3.9,10.5-5.8,15.7l-11.4-3.1c-2.9-0.9-6.8-2-11.4-2.9c-11.6-2.1-20.6-1.5-22.7-1.3
			c-14,1.1-25.3,6-32.4,9.9L179.2,40c-5.7,2.1-10.3,4.2-13.7,5.9c-5.7,2.9-10.4,5.3-15.4,9.9c-3.9,3.6-6.6,7.2-8.3,9.7l-5.3,13
			c-8.6,20.3-17.3,40.5-25.9,60.8c-1,2.9-1.7,5.4-2.1,7.3c-0.7,3-1.3,5.9-1.3,9.7c0,1.9,0.2,3.4,0.3,4.5l2.5,13
			c1.2,9.5,2.3,16.9,3,22c0.5,3.3,0.9,6,1.2,9.9s0.7,8.8,0.2,15c-0.4,5.5-0.7,9.1-2.5,13.4c-2.2,5.2-5.4,8.5-6.9,10.1
			c-0.9,0.9-22.3,22.9-35.2,40.3c-5,6.7-5.3,8.2-13.9,20c-5.5,7.6-10.4,13.8-12.2,16.2c-2,2.6-3.8,4.8-5.1,6.4l-4.1,12.7
			c-3.9,13.4-6.9,21.2-9.1,25.9c-0.8,1.7-2.5,5.4-3.5,10.6c-0.6,3.3-0.6,5.3-0.8,9.7c0,0-0.2,3-1.3,14c-0.5,5.2-1.3,10.6-4,24.1
			c-3.5,18.2-5.4,27.9-8.9,41.6c-2.3,9.1-4.6,16.8-6.4,23v7.1l2.1,22.3l0.8,6.9l6.9,4.3l25.4,11.6l20.1,9.6l1.5,0.7l63.4-5.4
			l28.2-10.9l44.6-3.3l5.6,26.4l19.3,84.9l1.8,7.3l1.3,2.1l16.5,10.6h5.3l79.9-1h12.4l31.9,1.8l42.8,2.5l16,1.8l5.3,1.5l14.5,7.5
			l6.8-7.7l52-63.9l6.6-8.1l11.2-17.8l54.6-69.6l65-78.6l21.6-27.1l19.8-25.3c7-9.9,15.1-24.5,19.2-43.4c0.6-3,2.3-8.2,2.2-15.2
			c0-2.6-0.3-4.4-0.5-6.3c-0.4-3.6-1.4-10.9-4.8-18.3c-1.5-3.2-2.7-4.8-6.3-10.1c-6-8.8-11.7-17.9-17.7-26.8
			c-2.4-3.6-6.1-9.1-10.6-16l-7.4-7.3l-24.3-22.6l-27.4-24.4l-31.9-24.4l-53.7-42l-68-45.4L391.2,42l-37.5-14.9l-39.3-14.7L287.2,2
			l-6.4-1.5c-3.7,0.2-6.8,2.4-7.6,5.4c-0.7,2.6,0.5,4.8,0.8,5.4L276.1,15.3z"/>
	</g>
	<g id="Gebäude_2_">
		<path class="st3" d="M539.6,302.6l21.6-79.4l-26.3,3.3l-0.4,1.2l-8.8-2.5l-3.1,12.1l-8.9-2.3l4.8-17.6l-23.8,8l6.8-25.5l35.9-12
			c0,0,3.1-9.7,2.7-9.7s-74.5,24.9-74.5,24.9l-3.5,13.3l-26.3,8.9l-3,13.8l-22.5,3.3l-11.8,44l-38.8,22.2l-6.4-1.8l-0.7,2.8l-29.6-8
			l0.6-3l-6.9-1.9l-22.4-38.6l0.4-1.5l3-11.1l4.1-15.5l5,1.4l3.8-13.4l18-10.7l21.3-12l-1.8-24.3l9.7-5.9l1.2-24.9l2.2-45.9
			l-46.8,27.3l-8.7-15.2l-16.6-28.6l-7.4,9.8c-5.5-4.1-27.5-19.6-58.6-17.2c-36.3,2.9-57.2,28.1-60.7,32.5l-5.1-3.6l-8.8,11.3
			l21.8,17.1L141.1,166l0,0l-9.6,13.5l28.8,22.4l21.8,16.6l35.6,27.6l-3.6,13.8l4,1.5l0.9,4.6L90.1,282.6l7.5,57.1L221.1,324
			l-0.8-7.4l18.1-2.2l23.6,40.5l3.9-2l3.6,2.6l-88.4,115l45.6,35.3l85.5-110.6l-5.8-4.6l11.4-14.4l44.8,12.2l1.4-4.2l4.7-0.6
			l17,128.7l57.1-7.3l-16.2-123.7l-5.8,0.8l-0.6-3.7l43.7-24.9l7.3-4.2l4.5-2.4l85.5,65.9l35.1-45.6l-73-56.5l8.5-10.7L539.6,302.6z
			"/>
		<path class="st4" d="M97.5,340.2"/>
		<path class="st6" d="M532.7,233.9"/>
		<path class="st3" d="M475.7,347.4"/>
		<path class="st6" d="M470.7,357.4"/>
		<g>
			<polygon class="st5" points="596.3,367.8 581.3,387.2 571.3,379.4 586.3,360.1 			"/>
			<polyline class="st5" points="576.1,383.1 587,369.1 582.2,365.3 587,369.1 592.2,373.2 			"/>
		</g>
		<path class="st20" d="M242.1,165l-26.6-20.7l-3.7,4.6l-30.6-23.8l3.6-4.7l-22.3-17.3c3.6-4.4,25.6-30.5,63.1-32.5
			c29.3-1.5,50.1,12.7,56.1,17.2l7.4-9.8l26.1,45.1L242.1,165z"/>
		<polygon class="st4" points="359.8,308.7 364.6,346.3 397.5,327.5 401.8,335.2 436.2,315.4 442.6,291.2 473.5,299.8 472.7,302.7 
			543.9,357.9 538.9,364.6 486,324.3 479.1,333.2 471.6,327.5 463.3,337.8 561.2,413.4 596.3,367.8 523.3,311.3 531.8,300.7 
			539.6,302.6 561.7,222.9 546.4,225.1 541.6,242.4 521.5,237 522,235.5 514.7,233.1 518.5,217.5 494.7,225.5 501.5,200 537.4,188 
			540.1,178.4 465.6,203.2 462.2,215.9 435.9,225.5 432.9,239.3 410.4,242.5 398.6,286.5 		"/>
		<polygon class="st4" points="467.7,310.3 486,324.3 479.2,333.5 471.6,327.5 471.1,328.2 459.9,320.4 467.2,311 467.7,310.3 
			450.3,312.4 		"/>
		<g>
			<g>
				<polygon class="st5" points="460.9,320.4 470.9,328.1 463.3,337.8 457.4,333.2 458,332.4 443.6,320.9 450.3,312.4 				"/>
				<polyline class="st6" points="467.4,332.6 451.8,320.4 455.2,316.1 451.8,320.4 				"/>
				<line class="st6" x1="451.8" y1="320.4" x2="448.3" y2="324.6"/>
			</g>
			<g>
				<g>
					<polygon class="st7" points="450.3,312.4 457.9,302.7 467.7,310.3 460.3,320 					"/>
				</g>
				<line class="st8" x1="460.3" y1="320" x2="457.9" y2="302.7"/>
				<line class="st6" x1="467.7" y1="310.3" x2="450.3" y2="312.4"/>
			</g>
		</g>
		<polygon class="st4" points="411.1,352 417.5,362.7 421.9,360.4 429.4,373.8 420.2,379.1 420.7,382.8 426.6,382 442.7,505.6 
			418.5,508.7 400.9,372.3 403,370.9 400.9,357.7 		"/>
		<g>
			<polygon class="st5" points="442.7,505.4 418.5,508.6 416.9,496 441.1,492.9 			"/>
			<polyline class="st5" points="417.6,502 435.2,499.7 434.5,493.7 435.2,499.7 436,506.3 			"/>
		</g>
		<polygon class="st4" points="409.7,509.8 385.6,512.9 369.5,390.7 391.2,388 400.9,463.2 403.4,462.9 		"/>
		<polygon class="st4" points="393.9,387.4 392.4,375 380.3,376.7 381.7,389.1 		"/>
		<polygon class="st4" points="317.7,376.7 306.2,391.2 312.1,395.8 226.5,506.4 207,491.7 250.1,436.2 252.3,437.9 262.9,424.5 
			260.9,422.5 300.7,370.7 318.7,375.5 		"/>
		<polygon class="st4" points="286,375.5 253.7,417.4 251.5,415.8 241.2,428.9 243.4,430.5 208.2,476.3 188.8,460.8 265.3,361.3 
			275.5,368.4 282.9,359.1 292.1,366.3 292.7,366.8 		"/>
		<g>
			<polygon class="st5" points="200,486 180.8,470.7 188.8,460.8 207.8,476 			"/>
			<polyline class="st5" points="185,465.6 198.8,476.6 202.7,471.8 198.8,476.6 194.7,481.8 			"/>
		</g>
		<polygon class="st4" points="301.2,330.4 313.2,314.9 324.4,317.7 328.5,303.2 323,301.8 323.6,298.8 316.7,296.9 294.3,258.3 
			300.2,236.3 267.1,227.1 255.2,271.2 274.3,304.6 285.6,298.3 273.9,277.9 269.5,280.2 266.5,274.9 270.4,272.3 266.2,264.9 
			273.3,238.6 278.1,239.9 272.8,259.3 295.8,299.8 279.7,309 291.8,330.1 295.1,326 		"/>
		<polygon class="st4" points="238.3,314.9 235.4,308.5 256.3,296.6 282.3,341.9 271.5,356 270.1,354.9 269.3,356 265.7,353.4 
			261.9,355.4 		"/>
		<polygon class="st4" points="221,324.4 218.3,303 171.8,308.9 174.7,330.4 		"/>
		<polygon class="st4" points="102.3,281.7 106.5,315.4 156.8,308.9 152.5,275 		"/>
		<line class="st21" x1="167.5" y1="273" x2="170.2" y2="293.6"/>
		<line class="st21" x1="182.7" y1="271" x2="185.4" y2="291.5"/>
		<line class="st21" x1="198" y1="269" x2="200.7" y2="289.6"/>
		<line class="st21" x1="157.9" y1="316.7" x2="159.9" y2="332.3"/>
		<line class="st21" x1="142.5" y1="318.5" x2="144.6" y2="334.1"/>
		<line class="st21" x1="127.2" y1="320.5" x2="129.2" y2="336.2"/>
		<line class="st21" x1="111.9" y1="322.6" x2="114" y2="338.2"/>
		<polygon class="st22" points="216.1,291.9 214.7,279.1 226.3,277.6 228.1,290.4 		"/>
		<g>
			<polygon class="st5" points="92.8,307.5 89.7,283.2 102.3,281.7 105.3,305.9 			"/>
			<polyline class="st5" points="96.2,282.4 98.5,300 104.5,299.3 98.5,300 91.9,300.8 			"/>
		</g>
		<g>
			<g>
				<polyline class="st7" points="300.7,356 290.9,348.5 282.9,359.1 292.5,366.6 300.7,356 282.9,359.1 				"/>
				<polyline class="st7" points="292.5,366.6 290.9,348.5 282.3,341.9 271.5,356 270.1,354.9 265.3,361.3 275.1,369 290.9,348.5 
									"/>
			</g>
			<polyline class="st7" points="276.7,349.2 281,352.4 285.3,355.7 			"/>
			<line class="st8" x1="281" y1="352.4" x2="270.8" y2="365.7"/>
		</g>
		<polygon class="st4" points="248.4,254.5 253.5,236.5 212.3,204.7 210.2,207.6 198.4,198.8 201,195.7 188.9,185.9 195.9,177.4 
			253.9,222.2 257.9,208.4 250.3,202.9 265.9,183.2 215.5,144.3 211.8,149 181.2,125.2 184.7,120.5 157.4,99.6 148.6,111 170.4,128 
			131.6,179.8 217.7,246.5 214.1,260.3 218,261.8 218.9,268 237.9,265.5 241.3,252.6 		"/>
		<polygon class="st4" points="269,220.7 271.3,212.6 309.3,222.5 306.8,231.6 268.7,221.3 		"/>
		<path class="st4" d="M272.8,205.6l2.5-9.2c0,0,58.3-33.8,58.4-33.4c0.1,0.3,5.8,10.4,5.8,10.4l-49.7,28.5l-2,7.8L272.8,205.6z"/>
		<polygon class="st4" points="293.2,211 302.2,213.7 343.6,190.1 338.1,180.5 298.4,203.7 294.4,206.5 		"/>
		<polygon class="st4" points="262,163 276.2,188 350.4,145.4 336.2,120.4 		"/>
		<polygon class="st4" points="331.4,111.7 361.3,94.6 359.1,140.5 350.4,145.4 		"/>
		<g>
			<polygon class="st6" points="353.6,151.1 341,158.2 343.4,162.7 356.2,155.6 			"/>
			<polyline class="st6" points="354.8,153.2 345,158.7 343.8,156.7 345,158.7 346.3,161.2 			"/>
		</g>
		<g>
			<polygon class="st5" points="351.1,158.5 355.8,166.5 348.2,171.1 343.4,162.7 			"/>
			<line class="st6" x1="355.6" y1="166.4" x2="343.4" y2="162.7"/>
			<line class="st6" x1="348.2" y1="171.1" x2="351.1" y2="158.5"/>
		</g>
		<polyline class="st6" points="355.8,166.5 357.9,165.4 358.7,148.3 353.6,151.1 		"/>
		<g>
			<polygon class="st5" points="237.9,265.5 239.3,275.9 214.7,279.1 213.3,267.1 218.7,266.4 218.9,268 			"/>
			<polyline class="st6" points="214.1,273.5 230.5,271.5 229.9,266.6 230.5,271.5 231.1,276.9 			"/>
			<g>
				<polygon class="st5" points="239.3,275.9 241.3,288.5 228.3,290.3 226.6,277.5 				"/>
				<line class="st6" x1="226.6" y1="277.5" x2="241.3" y2="288.5"/>
				<line class="st6" x1="228.3" y1="290.3" x2="239.3" y2="275.9"/>
			</g>
		</g>
		<polygon class="st4" points="256.2,175.9 258,173.6 250.4,160.1 242.1,165 		"/>
		<g>
			<g>
				<g>
					<polyline class="st23" points="309.4,233 309.7,231.6 311.1,232 					"/>
					<line class="st24" x1="312.9" y1="232.5" x2="319.3" y2="234.3"/>
					<line class="st25" x1="320.3" y1="234.5" x2="330.3" y2="237.3"/>
					<polyline class="st23" points="331.2,237.5 332.6,237.9 332.2,239.3 					"/>
					<line class="st26" x1="331.8" y1="240.8" x2="330.3" y2="245.9"/>
					<polyline class="st23" points="330.1,246.7 329.7,248 328.4,247.7 					"/>
					<line class="st27" x1="326.6" y1="247.2" x2="320.2" y2="245.5"/>
					<line class="st28" x1="319.3" y1="245.2" x2="309.3" y2="242.5"/>
					<polyline class="st23" points="308.4,242.3 307,241.9 307.4,240.5 					"/>
					<line class="st29" x1="307.8" y1="239" x2="309.2" y2="233.8"/>
				</g>
			</g>
			<polygon class="st30" points="309.7,236.9 315.1,236.4 314.1,240.3 			"/>
			<circle class="st10" cx="324" cy="240.9" r="3.5"/>
		</g>
		<g>
			<g>
				<g>
					<polyline class="st31" points="342.9,254.8 343.2,253.5 344.6,253.8 					"/>
					<line class="st32" x1="346.1" y1="254.2" x2="351.4" y2="255.6"/>
					<line class="st33" x1="352.1" y1="255.8" x2="360.4" y2="258"/>
					<polyline class="st31" points="361.2,258.2 362.5,258.6 362.2,260 					"/>
					<line class="st34" x1="361.5" y1="262.6" x2="359.1" y2="271.7"/>
					<line class="st35" x1="358.7" y1="273" x2="354.9" y2="287.4"/>
					<polyline class="st31" points="354.6,288.7 354.2,290.1 352.9,289.7 					"/>
					<line class="st36" x1="351.3" y1="289.3" x2="346" y2="287.8"/>
					<line class="st37" x1="345.3" y1="287.6" x2="336.9" y2="285.4"/>
					<polyline class="st31" points="336.1,285.2 334.7,284.8 335.1,283.4 					"/>
					<line class="st38" x1="335.8" y1="280.8" x2="338.3" y2="271.7"/>
					<line class="st39" x1="338.6" y1="270.4" x2="342.5" y2="256.1"/>
				</g>
			</g>
			<polygon class="st30" points="344.9,285.6 344.2,278.4 349.4,279.8 			"/>
			<circle class="st10" cx="351.4" cy="262.2" r="3.5"/>
		</g>
		<path class="st19" d="M639,834.1l-67.7-54.2c0,0,335.9-385.1,337.9-381.8c2,3.3,54.8,62.7,54.8,62.7L639,834.1z"/>
		<polygon class="st19" points="785,430.4 822.7,465.6 557.8,771.3 531.7,749.5 		"/>
		<rect x="669.9" y="618.9" class="st11" width="183.2" height="62.3"/>
		<text transform="matrix(1 0 0 1 721.9603 636.8077)" class="st12 st13 st40">Parken</text>
		<polyline class="st6" points="536.4,226.3 548,182.7 537.9,186.4 		"/>
		<g>
			<polyline class="st5" points="525.8,225.5 531.1,239.7 536.8,241.2 535.7,245.1 540.5,246.4 546.4,225.1 534.9,226.6 
				534.4,227.9 522.6,237.4 			"/>
			<line class="st6" x1="538.3" y1="245.8" x2="541.4" y2="234.8"/>
			<polyline class="st6" points="544.2,233 539.2,231.7 536.8,241.2 			"/>
			<line class="st6" x1="537.3" y1="239.3" x2="531.7" y2="237.7"/>
			<polyline class="st6" points="534.6,238.6 535.9,233.5 533.2,232.7 538.7,234.2 			"/>
			<line class="st6" x1="543.6" y1="235.5" x2="538.6" y2="234.2"/>
			<polygon class="st5" points="522.6,237.4 531.1,239.7 534.4,227.9 525.8,225.5 			"/>
			<line class="st6" x1="534.4" y1="227.9" x2="522.6" y2="237.4"/>
			<line class="st6" x1="525.8" y1="225.5" x2="531.1" y2="239.7"/>
		</g>
		<path class="st6" d="M463.3,211.5l-30.2,10.1l-3.7,14.1l-22.6,2.8L395,283.1l-35.4,20.3l-4.5-1.2l0.8-2.7c-1-1.5-5.3-7.6-13.7-9.9
			c-8.4-2.3-15.2,0.7-16.9,1.5l-0.7,2.7l-4.5-1.1L300,257.3l6.8-25.8"/>
		<path class="st6" d="M285.1,82.7c-5.4-4-30.7-21.7-66.1-17.5c-36.9,4.4-57.7,29.5-61.7,34.5"/>
		<polyline class="st6" points="154.2,115.5 151.2,120 163.3,129.2 128.3,174.8 132.6,178.4 		"/>
		<g>
			<polygon class="st5" points="390.4,361.9 392.2,375 380.1,376.7 378.4,363.5 			"/>
			<polyline class="st5" points="378.4,363.5 381.7,389.1 369.5,390.7 368.5,384 370,383.8 367.6,364.9 378.4,363.5 392.2,375 			
				"/>
			<line class="st6" x1="380.1" y1="376.7" x2="390.4" y2="361.9"/>
			<polyline class="st6" points="376.1,389.8 374,372.9 368.7,373.5 374,372.9 379.6,372.2 			"/>
		</g>
		<polyline class="st6" points="346.8,308.2 343.2,322.9 341.4,322.4 		"/>
		<line class="st6" x1="337.1" y1="321" x2="332.8" y2="319.8"/>
		<line class="st6" x1="328.8" y1="318.8" x2="324.5" y2="317.7"/>
		<rect x="364.1" y="256.8" class="st11" width="105.3" height="13.1"/>
		<text transform="matrix(1 0 0 1 364.0764 266.7906)" class="st12 st13 st14">Haupteingang</text>
		<rect x="333.4" y="236.5" class="st11" width="93.9" height="13.2"/>
		<text transform="matrix(1 0 0 1 333.3838 246.5755)" class="st12 st13 st14">Nebeneingang</text>
		<circle class="st10" cx="237.1" cy="114.1" r="3.5"/>
		<rect x="245.2" y="108.3" class="st11" width="140.6" height="11.7"/>
		<text transform="matrix(1 0 0 1 245.2054 118.3223)" class="st12 st13 st14">Schwimmbad</text>
		<circle class="st10" cx="169.5" cy="161.2" r="3.5"/>
		<rect x="177.6" y="155.3" class="st11" width="140.6" height="11.7"/>
		<text transform="matrix(1 0 0 1 177.6252 165.3692)" class="st12 st13 st14">Turnhalle</text>
		<circle class="st10" cx="128.8" cy="292.3" r="3.5"/>
		<rect x="136.9" y="286.5" class="st11" width="140.6" height="37"/>
		<text transform="matrix(1 0 0 1 136.9259 296.4949)" class="st12 st13 st14">Krankengymnastik/</text>
		<text transform="matrix(1 0 0 1 136.9259 310.4949)" class="st12 st13 st14">Isokinetik</text>
		<circle class="st10" cx="197.9" cy="316.6" r="3.5"/>
		<rect x="206.1" y="310.8" class="st11" width="140.6" height="35.7"/>
		<text transform="matrix(1 0 0 1 206.0644 320.8015)" class="st12 st13 st14">Vortragsraum</text>
		<circle class="st10" cx="265.8" cy="337.9" r="3.5"/>
		<rect x="118.3" y="331.1" class="st11" width="140.6" height="41"/>
		<text transform="matrix(1 0 0 1 188.1294 341.1646)" class="st12 st13 st14">Anmeldung </text>
		<text transform="matrix(1 0 0 1 201.3294 355.1646)" class="st12 st13 st14">ambulant</text>
		<circle class="st10" cx="309" cy="304.7" r="3.5"/>
		<rect x="317.2" y="298.8" class="st11" width="140.6" height="35.7"/>
		<text transform="matrix(1 0 0 1 317.1742 308.8487)" class="st12 st13 st14">Anmeldung/</text>
		<text transform="matrix(1 0 0 1 317.1742 322.8487)" class="st12 st13 st14">Verwaltung</text>
		<circle class="st10" cx="251.9" cy="452.9" r="3.5"/>
		<rect x="260" y="447.1" class="st11" width="140.6" height="37"/>
		<text transform="matrix(1 0 0 1 260.0389 457.1077)" class="st12 st13 st14">Chefärzte/Oberärzte/</text>
		<text transform="matrix(1 0 0 1 260.0389 471.1077)" class="st12 st13 st14">Oberschwester</text>
		<circle class="st10" cx="421.1" cy="434.4" r="3.5"/>
		<rect x="429.3" y="428.6" class="st11" width="140.6" height="37"/>
		<text transform="matrix(1 0 0 1 429.2812 438.6248)" class="st12 st13 st14">Funktionsdiagnostik</text>
		<circle class="st10" cx="557.5" cy="372.3" r="3.5"/>
		<rect x="565.6" y="366.4" class="st11" width="140.6" height="37"/>
		<text transform="matrix(1 0 0 1 565.632 376.4657)" class="st12 st13 st14">Gesellschaftsraum</text>
		<circle class="st10" cx="523.8" cy="369.5" r="3.5"/>
		<rect x="376.3" y="362.7" class="st11" width="140.6" height="41"/>
		<text transform="matrix(1 0 0 1 456.2168 372.7349)" class="st12 st13 st14">Bibliothek</text>
		<circle class="st10" cx="421.1" cy="291.6" r="3.5"/>
		<rect x="429.2" y="285.7" class="st11" width="140.6" height="35.7"/>
		<text transform="matrix(1 0 0 1 429.2289 295.7556)" class="st12 st13 st14">Speisesaal</text>
		<circle class="st10" cx="436.8" cy="343.8" r="3.5"/>
		<rect x="289.3" y="337.1" class="st11" width="140.6" height="41"/>
		<text transform="matrix(1 0 0 1 373.1693 347.0829)" class="st12 st13 st14">Cafeteria</text>
	</g>
</g>
</svg>
