<?xml version="1.0" encoding="utf-8"?>
<!-- Generator: Adobe Illustrator 23.0.0, SVG Export Plug-In . SVG Version: 6.00 Build 0)  -->
<svg version="1.1" id="Ebene_1" xmlns="http://www.w3.org/2000/svg" xmlns:xlink="http://www.w3.org/1999/xlink" x="0px" y="0px"
	 viewBox="0 0 710.7 689.9" style="enable-background:new 0 0 710.7 689.9;" xml:space="preserve">
<style type="text/css">
	.st0{fill:#FFFFFF;}
	.st1{opacity:0.3;fill:none;stroke:#DFDFDF;stroke-width:0.326;stroke-miterlimit:10;enable-background:new    ;}
	.st2{opacity:0.35;}
	.st3{fill:#DFDFDF;}
	.st4{fill:none;stroke:#1D1D1B;stroke-width:1.0006;stroke-miterlimit:10;}
	.st5{fill:none;stroke:#1D1D1B;stroke-width:1.0006;stroke-miterlimit:10;stroke-dasharray:2.9876,2.9876,9.9586,2.9876;}
	
		.st6{fill:none;stroke:#1D1D1B;stroke-width:1.0006;stroke-miterlimit:10;stroke-dasharray:9.9593,2.9876,2.9876,2.9876,9.9586,2.9876;}
	.st7{fill:none;stroke:#1D1D1B;stroke-width:1.0006;stroke-miterlimit:10;stroke-dasharray:3.0968,3.0968,10.3228,3.0968;}
	
		.st8{fill:none;stroke:#1D1D1B;stroke-width:1.0006;stroke-miterlimit:10;stroke-dasharray:10.3234,3.0968,3.0968,3.0968,10.3228,3.0968;}
	.st9{fill:none;stroke:#1D1D1B;stroke-width:1.0006;stroke-miterlimit:10;stroke-dasharray:2.9133,2.9133,9.7108,2.9133;}
	
		.st10{fill:none;stroke:#1D1D1B;stroke-width:1.0006;stroke-miterlimit:10;stroke-dasharray:9.7115,2.9133,2.9133,2.9133,9.7108,2.9133;}
	.st11{fill:none;stroke:#1D1D1B;stroke-width:1.0006;stroke-miterlimit:10;stroke-dasharray:2.972,2.972,9.9068,2.972;}
	
		.st12{fill:none;stroke:#1D1D1B;stroke-width:1.0006;stroke-miterlimit:10;stroke-dasharray:9.9074,2.972,2.972,2.972,9.9068,2.972;}
	.st13{fill:none;stroke:#1D1D1B;stroke-width:1.0006;stroke-miterlimit:10;stroke-dasharray:2.9894,2.9894,9.9648,2.9894;}
	
		.st14{fill:none;stroke:#1D1D1B;stroke-width:1.0006;stroke-miterlimit:10;stroke-dasharray:9.9654,2.9894,2.9894,2.9894,9.9648,2.9894;}
	.st15{fill:none;stroke:#1D1D1B;stroke-width:1.0006;stroke-miterlimit:10;stroke-dasharray:2.9841,2.9841,9.9471,2.9841;}
	
		.st16{fill:none;stroke:#1D1D1B;stroke-width:1.0006;stroke-miterlimit:10;stroke-dasharray:9.9478,2.9841,2.9841,2.9841,9.9471,2.9841;}
	.st17{fill:#FFF7CC;}
	.st18{fill:#FFD500;}
	.st19{fill:#FFF7CC;stroke:#878787;stroke-width:0.326;stroke-miterlimit:10;}
	.st20{fill:none;stroke:#878787;stroke-width:0.326;stroke-miterlimit:10;}
	.st21{fill:#FFFFFF;stroke:#9D9D9C;stroke-miterlimit:10;}
	.st22{fill:none;}
	.st23{fill:#575756;}
	.st24{font-family:'ArialMT';}
	.st25{font-size:14px;}
	.st26{fill:#FFD500;stroke:#878787;stroke-width:0.326;stroke-miterlimit:10;}
</style>
<path class="st0" d="M1.4,186.1c2.7,0.7,4.9,0.8,6.2,0.9c3.8,0.3,7.1,0.6,11.4,0.4c2.4-0.1,8.4-0.5,15.9-2.6
	c1.3-0.4,4.1-1.2,14.1-5.7c7.3-3.3,11.4-5.1,16.7-7.9c4.7-2.5,9.8-5.6,19.8-11.9c10.6-6.6,16-10,22-14.1c7.5-5.1,13.1-9.3,17.2-12.3
	c9.8-7.3,10.1-8,19.4-15c7.2-5.4,13-9.8,21.1-15C174.1,97.2,174,98,185,91c6.9-4.4,9.2-6.2,17.2-11c4.5-2.8,8.9-5.3,14.5-7.9
	c7.3-3.4,10.6-4.1,12.3-4.4c3.4-0.6,6-0.5,11-0.4c5.9,0.1,8.9,0,12.8,0.9c1.9,0.4,2.8,0.8,5.7,1.3c1.3,0.3,4,0.7,7.5,1.1
	c2.1,0.2,4.3,0.4,10.6,0.4c5.2,0.1,8.2,0.1,12.6,0c6.9-0.2,10.4-0.2,14.1-0.9c1.5-0.3,1.1-0.2,9.9-2.4c9.1-2.2,9.1-2.1,11.4-2.9
	c1.3-0.4,4.5-1.6,11-4c6.7-2.5,7.3-2.7,8.1-3.1c3.8-1.7,4.9-2.8,10.1-5.7c3.2-1.8,5.7-3.1,7.9-4.2c3.3-1.6,3.7-1.6,6.2-2.8
	c4.8-2.3,8.1-4.6,10.9-6.6c3.7-2.6,6.4-4.9,8.6-6.8c3.3-2.8,3.9-3.6,7.1-6.3c2.2-1.8,3.5-2.8,7.3-5.6c7-5.2,10.5-7.8,12.2-9.2
	c2.7-2.1,6.5-5.3,10.9-9.6l5.4,7.6l7.1,9.4L445,28l5.4,8.6l5.6,14.9l9.2,25.8c1.9,6.4,3.3,11.6,4.3,15.2c1.3,4.7,1.7,6.3,2.8,10.2
	c0.8,2.8,2,7,3.8,12.2c1.7,5.1,3,9,5.1,13.7c2.4,5.5,2.9,5.4,7.7,14.8c3.9,7.8,3.7,8,6.9,14c0.6,1,3.3,6.2,7.4,12.9
	c2.8,4.6,3.8,5.8,8.1,12.6c2.3,3.6,3.3,6.2,6.1,9.7c1.5,1.9,2.7,3,4.8,5.1c6.2,6.2,7.8,8.2,10.6,10.9c6.1,6,17,15.1,29.9,21.6
	c5.5,2.8,10.6,4.7,16.7,5.8c2.2,0.4,4.1,0.6,5.4,0.7l1,7.1l4.5,20l3.8,16.5c3.2,10.1,5.9,18.2,7.9,23.9c1.5,4.4,2.2,6.2,3,8.1
	c3.4,8.6,6.8,14.7,8.9,18.5c7.5,13.5,16.3,25.2,20.5,30.6l15.7,16.8l19.3,21.8l23.4,26.6l16.8,19.2l-4.1,6.8l-11.6,9.4l-15,15.4
	c-1.6,2.6-4.1,6.4-7.1,11.1c-3.1,4.8-4.6,6.9-7.9,11.9c-10.3,15.4-10.1,15.6-13.9,20.8c-3.8,5.2-3.4,4.1-11.2,13.9
	c-10.6,13.3-10.4,14.1-16.8,21.6c-2.4,2.8-6.8,7.3-15.5,16.3c-11.2,11.5-14.5,14.7-16,16c-6,5.5-11.3,9.7-15,12.6L564.4,612
	l-13.1-23c-3.5-5.7-6.3-10.4-8.3-13.5c-2.8-4.6-4-6.6-5.9-9.7c-4.1-6.6-5.4-7.1-7.3-11.2c-1.1-2.5-1.5-3.9-3.1-6.9
	c-1.8-3.3-2.8-5-4.6-6.1c-3.9-2.4-8.5-0.9-8.8-0.8c-0.8,0.3-1.4,0.6-5,3.5s-6.2,5.3-6.6,5.6c-1.5,1.3-4.1,3.7-7.8,6.9l-14.5,11.6
	l-21.9,12.9l-20.1,12.6l-16.3,9.1c-10,4.3-18.1,7.7-23.9,10.1c-8.3,3.4-12,4.9-20.4,8.5c-9.3,4-14.1,6-19.2,8.5
	c-3.4,1.7-10.3,5.1-18.7,10c-1.3,0.8-1.3,0.8-14.4,8.9c-12.1,7.5-13.9,8.7-16.8,10.4c-5.2,3.1-9.6,5.6-13,7.5
	c-6.9,3.9-10.4,5.9-12,6.7c-2.8,1.4-5.3,2.7-10.2,5.5c-1.5,0.8-3.7,2.1-5.6,4.5c-1.1,1.3-1.7,2.6-2.1,3.5l-0.3,1.1l-4.2,0.2
	c-2.3,0.2-5.2,0.4-8.7,0.7c-2.4,0.2-6.6,0.4-11.3,0.6c-8.1,0.2-14.1,0-20.6-0.3c-7.5-0.3-11.3-0.5-14.4-1.3c-5-1.3-8.5-3.1-12-4.8
	c-4.1-2.1-8.3-4.2-12.8-8.4c-0.8-0.8-0.5-0.6-7-7.9c-5.9-6.7-6.2-6.9-7.8-8.9c-2.3-2.8-4.7-5.8-7-9.9c-1.7-3-4-7.5-5.7-13.4
	l-3.7-10.2l-3.8-8.4c-0.1-4.5-0.3-11.2-0.7-19.4c-0.6-11.6-0.9-11.7-1.3-22.2c-0.4-9.4-0.7-21.3-0.6-26.2c0-2.3-0.2-4.7,0-7
	c0.1-0.7,0.2-1.6-0.1-2.9c-0.3-1.3-0.8-2.2-1.7-3.6c-0.6-0.9-1.3-2.2-2.7-3.6c-0.2-0.2-1.2-1.1-2.6-2.1c-1.6-1.1-2.3-1.2-3.3-2.3
	c-0.7-0.8-1.1-1.5-1.2-1.7c-0.7-1.3-0.8-2.5-0.8-3.1c-0.1-1.4,0.1-2.5,0.4-3.8c0.1-0.7,0.4-1.8,1-3.1c0.5-1.3,1.2-2.2,2.4-3.8
	c2.5-3.3,2.8-3.3,4.2-5.3c0.9-1.3,1.9-2.8,2.7-4.9c0.6-1.5,1-2.7,1-4.3s-0.6-2.7-1.9-5.4c-1.5-3-2.6-5-3.2-6.1
	c-2.2-4.2-3.6-7.4-4-8.3c-1.7-3.9-1.2-3.7-2.6-6.9c-0.5-1.3-2.3-5.3-5.5-9.9c-1.2-1.7-2.2-3-4.2-5.4c-3.1-3.8-6.1-7.4-10.3-11.4
	c-2.2-2.1-4.5-4-9-7.7c-5.5-4.5-6.6-5.1-9.7-7.7c-4.7-4-7.8-7.3-11.2-11.1c-19.2-21-28.9-36.8-28.9-36.8
	C41,362.8,35.8,348,34.5,344.4c-4.7-13.6-6.7-24.7-8.3-34c-2.9-17-1.2-16.4-3.5-29.6c-2.7-15.4-8.6-35.9-16.3-53.7
	c-1.6-3.7-4.8-10.8-5.9-20.8c-0.7-6.8-0.2-12.6,0.3-16.3L1.4,186.1z"/>
<path class="st1" d="M1.7,185.9c2.7,0.7,4.9,0.8,6.2,0.9c3.8,0.3,7.1,0.6,11.4,0.4c2.4-0.1,8.4-0.5,15.9-2.6
	c1.3-0.4,4.1-1.2,14.1-5.7c7.3-3.3,11.4-5.1,16.7-7.9c4.7-2.5,9.8-5.6,19.8-11.9c10.6-6.6,16-10,22-14.1c7.5-5.1,13.1-9.3,17.2-12.3
	c9.8-7.3,10.1-8,19.4-15c7.2-5.4,13-9.8,21.1-15c8.9-5.7,8.8-4.9,19.8-11.9c6.9-4.4,9.2-6.2,17.2-11c4.5-2.8,8.9-5.3,14.5-7.9
	c7.3-3.4,10.6-4.1,12.3-4.4c3.4-0.6,6-0.5,11-0.4c5.9,0.1,8.9,0,12.8,0.9c1.9,0.4,2.8,0.8,5.7,1.3c1.3,0.3,4,0.7,7.5,1.1
	c2.1,0.2,4.3,0.4,10.6,0.4c5.2,0.1,8.2,0.1,12.6,0c6.9-0.2,10.4-0.2,14.1-0.9c1.5-0.3,1.1-0.2,9.9-2.4c9.1-2.2,9.1-2.1,11.4-2.9
	c1.3-0.4,4.5-1.6,11-4c6.7-2.5,7.3-2.7,8.1-3.1c3.8-1.7,4.9-2.8,10.1-5.7c3.2-1.8,5.7-3.1,7.9-4.2c3.3-1.6,3.7-1.6,6.2-2.8
	c4.8-2.3,8.1-4.6,10.9-6.6c3.7-2.6,6.4-4.9,8.6-6.8c3.3-2.8,3.9-3.6,7.1-6.3c2.2-1.8,3.5-2.8,7.3-5.6c7-5.2,10.5-7.8,12.2-9.2
	c2.7-2.1,6.5-5.3,10.9-9.6l5.4,7.6l7.1,9.4l7.6,10.1l5.4,8.6l5.6,14.9l9.2,25.8c1.9,6.4,3.3,11.6,4.3,15.2c1.3,4.7,1.7,6.3,2.8,10.2
	c0.8,2.8,2,7,3.8,12.2c1.7,5.1,3,9,5.1,13.7c2.4,5.5,2.9,5.4,7.7,14.8c3.9,7.8,3.7,8,6.9,14c0.6,1,3.3,6.2,7.4,12.9
	c2.8,4.6,3.8,5.8,8.1,12.6c2.3,3.6,3.3,6.2,6.1,9.7c1.5,1.9,2.7,3,4.8,5.1c6.2,6.2,7.8,8.2,10.6,10.9c6.1,6,17,15.1,29.9,21.6
	c5.5,2.8,10.6,4.7,16.7,5.8c2.2,0.4,4.1,0.6,5.4,0.7l1,7.1l4.5,20l3.8,16.5c3.2,10.1,5.9,18.2,7.9,23.9c1.5,4.4,2.2,6.2,3,8.1
	c3.4,8.6,6.8,14.7,8.9,18.5c7.5,13.5,16.3,25.2,20.5,30.6l15.7,16.8l19.3,21.8l23.4,26.6l16.8,19.2l-4.1,6.8l-11.6,9.4l-15,15.4
	c-1.6,2.6-4.1,6.4-7.1,11.1c-3.1,4.8-4.6,6.9-7.9,11.9c-10.3,15.4-10.1,15.6-13.9,20.8c-3.8,5.2-3.4,4.1-11.2,13.9
	c-10.6,13.3-10.4,14.1-16.8,21.6c-2.4,2.8-6.8,7.3-15.5,16.3c-11.2,11.5-14.5,14.7-16,16c-6,5.5-11.3,9.7-15,12.6l-11.1,10.4
	L551.5,589c-3.5-5.7-6.3-10.4-8.3-13.5c-2.8-4.6-4-6.6-5.9-9.7c-4.1-6.6-5.4-7.1-7.3-11.2c-1.1-2.5-1.5-3.9-3.1-6.9
	c-1.8-3.3-2.8-5-4.6-6.1c-3.9-2.4-8.5-0.9-8.8-0.8c-0.8,0.3-1.4,0.6-5,3.5s-6.2,5.3-6.6,5.6c-1.5,1.3-4.1,3.7-7.8,6.9L479.8,568
	l-21.9,12.9l-20.1,12.6l-16.3,9.1c-10,4.3-18.1,7.7-23.9,10.1c-8.3,3.4-12,4.9-20.4,8.5c-9.3,4-14.1,6-19.2,8.5
	c-3.4,1.7-10.3,5.1-18.7,10c-1.3,0.8-1.3,0.8-14.4,8.9c-12.1,7.5-13.9,8.7-16.8,10.4c-5.2,3.1-9.6,5.6-13,7.5
	c-6.9,3.9-10.4,5.9-12,6.7c-2.8,1.4-5.3,2.7-10.2,5.5c-1.5,0.8-3.7,2.1-5.6,4.5c-1.1,1.3-1.7,2.6-2.1,3.5l-0.3,1.1l-4.2,0.2
	c-2.3,0.2-5.2,0.4-8.7,0.7c-2.4,0.2-6.6,0.4-11.3,0.6c-8.1,0.2-14.1,0-20.6-0.3c-7.5-0.3-11.3-0.5-14.4-1.3c-5-1.3-8.5-3.1-12-4.8
	c-4.1-2.1-8.3-4.2-12.8-8.4c-0.8-0.8-0.5-0.6-7-7.9c-5.9-6.7-6.2-6.9-7.8-8.9c-2.3-2.8-4.7-5.8-7-9.9c-1.7-3-4-7.5-5.7-13.4
	l-3.7-10.2l-3.8-8.4c-0.1-4.5-0.3-11.2-0.7-19.4c-0.6-11.6-0.9-11.7-1.3-22.2c-0.4-9.4-0.7-21.3-0.6-26.2c0-2.3-0.2-4.7,0-7
	c0.1-0.7,0.2-1.6-0.1-2.9c-0.3-1.3-0.8-2.2-1.7-3.6c-0.6-0.9-1.3-2.2-2.7-3.6c-0.2-0.2-1.2-1.1-2.6-2.1c-1.6-1.1-2.3-1.2-3.3-2.3
	c-0.7-0.8-1.1-1.5-1.2-1.7c-0.7-1.3-0.8-2.5-0.8-3.1c-0.1-1.4,0.1-2.5,0.4-3.8c0.1-0.7,0.4-1.8,1-3.1c0.5-1.3,1.2-2.2,2.4-3.8
	c2.5-3.3,2.8-3.3,4.2-5.3c0.9-1.3,1.9-2.8,2.7-4.9c0.6-1.5,1-2.7,1-4.3s-0.6-2.7-1.9-5.4c-1.5-3-2.6-5-3.2-6.1
	c-2.2-4.2-3.6-7.4-4-8.3c-1.7-3.9-1.2-3.7-2.6-6.9c-0.5-1.3-2.3-5.3-5.5-9.9c-1.2-1.7-2.2-3-4.2-5.4c-3.1-3.8-6.1-7.4-10.3-11.4
	c-2.2-2.1-4.5-4-9-7.7c-5.5-4.5-6.6-5.1-9.7-7.7c-4.7-4-7.8-7.3-11.2-11.1c-19.2-21-28.9-36.8-28.9-36.8
	c-10.7-17.4-15.9-32.2-17.2-35.8c-4.7-13.6-6.7-24.7-8.3-34c-2.9-17-1.2-16.4-3.5-29.6c-2.7-15.4-8.6-35.9-16.3-53.7
	C5.2,223,2,215.9,0.9,205.9c-0.7-6.8-0.2-12.6,0.3-16.3L1.7,185.9z"/>
<path class="st0" d="M1.4,186.1c2.7,0.7,4.9,0.8,6.2,0.9c3.8,0.3,7.1,0.6,11.4,0.4c2.4-0.1,8.4-0.5,15.9-2.6
	c1.3-0.4,4.1-1.2,14.1-5.7c7.3-3.3,11.4-5.1,16.7-7.9c4.7-2.5,9.8-5.6,19.8-11.9c10.6-6.6,16-10,22-14.1c7.5-5.1,13.1-9.3,17.2-12.3
	c9.8-7.3,10.1-8,19.4-15c7.2-5.4,13-9.8,21.1-15C174.1,97.2,174,98,185,91c6.9-4.4,9.2-6.2,17.2-11c4.5-2.8,8.9-5.3,14.5-7.9
	c7.3-3.4,10.6-4.1,12.3-4.4c3.4-0.6,6-0.5,11-0.4c5.9,0.1,8.9,0,12.8,0.9c1.9,0.4,2.8,0.8,5.7,1.3c1.3,0.3,4,0.7,7.5,1.1
	c2.1,0.2,4.3,0.4,10.6,0.4c5.2,0.1,8.2,0.1,12.6,0c6.9-0.2,10.4-0.2,14.1-0.9c1.5-0.3,1.1-0.2,9.9-2.4c9.1-2.2,9.1-2.1,11.4-2.9
	c1.3-0.4,4.5-1.6,11-4c6.7-2.5,7.3-2.7,8.1-3.1c3.8-1.7,4.9-2.8,10.1-5.7c3.2-1.8,5.7-3.1,7.9-4.2c3.3-1.6,3.7-1.6,6.2-2.8
	c4.8-2.3,8.1-4.6,10.9-6.6c3.7-2.6,6.4-4.9,8.6-6.8c3.3-2.8,3.9-3.6,7.1-6.3c2.2-1.8,3.5-2.8,7.3-5.6c7-5.2,10.5-7.8,12.2-9.2
	c2.7-2.1,6.5-5.3,10.9-9.6l5.4,7.6l7.1,9.4L445,28l5.4,8.6l5.6,14.9l9.2,25.8c1.9,6.4,3.3,11.6,4.3,15.2c1.3,4.7,1.7,6.3,2.8,10.2
	c0.8,2.8,2,7,3.8,12.2c1.7,5.1,3,9,5.1,13.7c2.4,5.5,2.9,5.4,7.7,14.8c3.9,7.8,3.7,8,6.9,14c0.6,1,3.3,6.2,7.4,12.9
	c2.8,4.6,3.8,5.8,8.1,12.6c2.3,3.6,3.3,6.2,6.1,9.7c1.5,1.9,2.7,3,4.8,5.1c6.2,6.2,7.8,8.2,10.6,10.9c6.1,6,17,15.1,29.9,21.6
	c5.5,2.8,10.6,4.7,16.7,5.8c2.2,0.4,4.1,0.6,5.4,0.7l1,7.1l4.5,20l3.8,16.5c3.2,10.1,5.9,18.2,7.9,23.9c1.5,4.4,2.2,6.2,3,8.1
	c3.4,8.6,6.8,14.7,8.9,18.5c7.5,13.5,16.3,25.2,20.5,30.6l15.7,16.8l19.3,21.8l23.4,26.6l16.8,19.2l-4.1,6.8l-11.6,9.4l-15,15.4
	c-1.6,2.6-4.1,6.4-7.1,11.1c-3.1,4.8-4.6,6.9-7.9,11.9c-10.3,15.4-10.1,15.6-13.9,20.8c-3.8,5.2-3.4,4.1-11.2,13.9
	c-10.6,13.3-10.4,14.1-16.8,21.6c-2.4,2.8-6.8,7.3-15.5,16.3c-11.2,11.5-14.5,14.7-16,16c-6,5.5-11.3,9.7-15,12.6L564.4,612
	l-13.1-23c-3.5-5.7-6.3-10.4-8.3-13.5c-2.8-4.6-4-6.6-5.9-9.7c-4.1-6.6-5.4-7.1-7.3-11.2c-1.1-2.5-1.5-3.9-3.1-6.9
	c-1.8-3.3-2.8-5-4.6-6.1c-3.9-2.4-8.5-0.9-8.8-0.8c-0.8,0.3-1.4,0.6-5,3.5s-6.2,5.3-6.6,5.6c-1.5,1.3-4.1,3.7-7.8,6.9l-14.5,11.6
	l-21.9,12.9l-20.1,12.6l-16.3,9.1c-10,4.3-18.1,7.7-23.9,10.1c-8.3,3.4-12,4.9-20.4,8.5c-9.3,4-14.1,6-19.2,8.5
	c-3.4,1.7-10.3,5.1-18.7,10c-1.3,0.8-1.3,0.8-14.4,8.9c-12.1,7.5-13.9,8.7-16.8,10.4c-5.2,3.1-9.6,5.6-13,7.5
	c-6.9,3.9-10.4,5.9-12,6.7c-2.8,1.4-5.3,2.7-10.2,5.5c-1.5,0.8-3.7,2.1-5.6,4.5c-1.1,1.3-1.7,2.6-2.1,3.5l-0.3,1.1l-4.2,0.2
	c-2.3,0.2-5.2,0.4-8.7,0.7c-2.4,0.2-6.6,0.4-11.3,0.6c-8.1,0.2-14.1,0-20.6-0.3c-7.5-0.3-11.3-0.5-14.4-1.3c-5-1.3-8.5-3.1-12-4.8
	c-4.1-2.1-8.3-4.2-12.8-8.4c-0.8-0.8-0.5-0.6-7-7.9c-5.9-6.7-6.2-6.9-7.8-8.9c-2.3-2.8-4.7-5.8-7-9.9c-1.7-3-4-7.5-5.7-13.4
	l-3.7-10.2l-3.8-8.4c-0.1-4.5-0.3-11.2-0.7-19.4c-0.6-11.6-0.9-11.7-1.3-22.2c-0.4-9.4-0.7-21.3-0.6-26.2c0-2.3-0.2-4.7,0-7
	c0.1-0.7,0.2-1.6-0.1-2.9c-0.3-1.3-0.8-2.2-1.7-3.6c-0.6-0.9-1.3-2.2-2.7-3.6c-0.2-0.2-1.2-1.1-2.6-2.1c-1.6-1.1-2.3-1.2-3.3-2.3
	c-0.7-0.8-1.1-1.5-1.2-1.7c-0.7-1.3-0.8-2.5-0.8-3.1c-0.1-1.4,0.1-2.5,0.4-3.8c0.1-0.7,0.4-1.8,1-3.1c0.5-1.3,1.2-2.2,2.4-3.8
	c2.5-3.3,2.8-3.3,4.2-5.3c0.9-1.3,1.9-2.8,2.7-4.9c0.6-1.5,1-2.7,1-4.3s-0.6-2.7-1.9-5.4c-1.5-3-2.6-5-3.2-6.1
	c-2.2-4.2-3.6-7.4-4-8.3c-1.7-3.9-1.2-3.7-2.6-6.9c-0.5-1.3-2.3-5.3-5.5-9.9c-1.2-1.7-2.2-3-4.2-5.4c-3.1-3.8-6.1-7.4-10.3-11.4
	c-2.2-2.1-4.5-4-9-7.7c-5.5-4.5-6.6-5.1-9.7-7.7c-4.7-4-7.8-7.3-11.2-11.1c-19.2-21-28.9-36.8-28.9-36.8
	C41,362.8,35.8,348,34.5,344.4c-4.7-13.6-6.7-24.7-8.3-34c-2.9-17-1.2-16.4-3.5-29.6c-2.7-15.4-8.6-35.9-16.3-53.7
	c-1.6-3.7-4.8-10.8-5.9-20.8c-0.7-6.8-0.2-12.6,0.3-16.3L1.4,186.1z"/>
<g class="st2">
	<path class="st3" d="M1.7,185.9c2.7,0.7,4.9,0.8,6.2,0.9c3.8,0.3,7.1,0.6,11.4,0.4c2.4-0.1,8.4-0.5,15.9-2.6
		c1.3-0.4,4.1-1.2,14.1-5.7c7.3-3.3,11.4-5.1,16.7-7.9c4.7-2.5,9.8-5.6,19.8-11.9c10.6-6.6,16-10,22-14.1
		c7.5-5.1,13.1-9.3,17.2-12.3c9.8-7.3,10.1-8,19.4-15c7.2-5.4,13-9.8,21.1-15c8.9-5.7,8.8-4.9,19.8-11.9c6.9-4.4,9.2-6.2,17.2-11
		c4.5-2.8,8.9-5.3,14.5-7.9c7.3-3.4,10.6-4.1,12.3-4.4c3.4-0.6,6-0.5,11-0.4c5.9,0.1,8.9,0,12.8,0.9c1.9,0.4,2.8,0.8,5.7,1.3
		c1.3,0.3,4,0.7,7.5,1.1c2.1,0.2,4.3,0.4,10.6,0.4c5.2,0.1,8.2,0.1,12.6,0c6.9-0.2,10.4-0.2,14.1-0.9c1.5-0.3,1.1-0.2,9.9-2.4
		c9.1-2.2,9.1-2.1,11.4-2.9c1.3-0.4,4.5-1.6,11-4c6.7-2.5,7.3-2.7,8.1-3.1c3.8-1.7,4.9-2.8,10.1-5.7c3.2-1.8,5.7-3.1,7.9-4.2
		c3.3-1.6,3.7-1.6,6.2-2.8c4.8-2.3,8.1-4.6,10.9-6.6c3.7-2.6,6.4-4.9,8.6-6.8c3.3-2.8,3.9-3.6,7.1-6.3c2.2-1.8,3.5-2.8,7.3-5.6
		c7-5.2,10.5-7.8,12.2-9.2c2.7-2.1,6.5-5.3,10.9-9.6l5.4,7.6l7.1,9.4l7.6,10.1l5.4,8.6l5.6,14.9l9.2,25.8c1.9,6.4,3.3,11.6,4.3,15.2
		c1.3,4.7,1.7,6.3,2.8,10.2c0.8,2.8,2,7,3.8,12.2c1.7,5.1,3,9,5.1,13.7c2.4,5.5,2.9,5.4,7.7,14.8c3.9,7.8,3.7,8,6.9,14
		c0.6,1,3.3,6.2,7.4,12.9c2.8,4.6,3.8,5.8,8.1,12.6c2.3,3.6,3.3,6.2,6.1,9.7c1.5,1.9,2.7,3,4.8,5.1c6.2,6.2,7.8,8.2,10.6,10.9
		c6.1,6,17,15.1,29.9,21.6c5.5,2.8,10.6,4.7,16.7,5.8c2.2,0.4,4.1,0.6,5.4,0.7l1,7.1l4.5,20l3.8,16.5c3.2,10.1,5.9,18.2,7.9,23.9
		c1.5,4.4,2.2,6.2,3,8.1c3.4,8.6,6.8,14.7,8.9,18.5c7.5,13.5,16.3,25.2,20.5,30.6l15.7,16.8l19.3,21.8l23.4,26.6l16.8,19.2l-4.1,6.8
		l-11.6,9.4l-15,15.4c-1.6,2.6-4.1,6.4-7.1,11.1c-3.1,4.8-4.6,6.9-7.9,11.9c-10.3,15.4-10.1,15.6-13.9,20.8
		c-3.8,5.2-3.4,4.1-11.2,13.9c-10.6,13.3-10.4,14.1-16.8,21.6c-2.4,2.8-6.8,7.3-15.5,16.3c-11.2,11.5-14.5,14.7-16,16
		c-6,5.5-11.3,9.7-15,12.6l-11.1,10.4L551.5,589c-3.5-5.7-6.3-10.4-8.3-13.5c-2.8-4.6-4-6.6-5.9-9.7c-4.1-6.6-5.4-7.1-7.3-11.2
		c-1.1-2.5-1.5-3.9-3.1-6.9c-1.8-3.3-2.8-5-4.6-6.1c-3.9-2.4-8.5-0.9-8.8-0.8c-0.8,0.3-1.4,0.6-5,3.5s-6.2,5.3-6.6,5.6
		c-1.5,1.3-4.1,3.7-7.8,6.9L479.8,568l-21.9,12.9l-20.1,12.6l-16.3,9.1c-10,4.3-18.1,7.7-23.9,10.1c-8.3,3.4-12,4.9-20.4,8.5
		c-9.3,4-14.1,6-19.2,8.5c-3.4,1.7-10.3,5.1-18.7,10c-1.3,0.8-1.3,0.8-14.4,8.9c-12.1,7.5-13.9,8.7-16.8,10.4
		c-5.2,3.1-9.6,5.6-13,7.5c-6.9,3.9-10.4,5.9-12,6.7c-2.8,1.4-5.3,2.7-10.2,5.5c-1.5,0.8-3.7,2.1-5.6,4.5c-1.1,1.3-1.7,2.6-2.1,3.5
		l-0.3,1.1l-4.2,0.2c-2.3,0.2-5.2,0.4-8.7,0.7c-2.4,0.2-6.6,0.4-11.3,0.6c-8.1,0.2-14.1,0-20.6-0.3c-7.5-0.3-11.3-0.5-14.4-1.3
		c-5-1.3-8.5-3.1-12-4.8c-4.1-2.1-8.3-4.2-12.8-8.4c-0.8-0.8-0.5-0.6-7-7.9c-5.9-6.7-6.2-6.9-7.8-8.9c-2.3-2.8-4.7-5.8-7-9.9
		c-1.7-3-4-7.5-5.7-13.4l-3.7-10.2l-3.8-8.4c-0.1-4.5-0.3-11.2-0.7-19.4c-0.6-11.6-0.9-11.7-1.3-22.2c-0.4-9.4-0.7-21.3-0.6-26.2
		c0-2.3-0.2-4.7,0-7c0.1-0.7,0.2-1.6-0.1-2.9c-0.3-1.3-0.8-2.2-1.7-3.6c-0.6-0.9-1.3-2.2-2.7-3.6c-0.2-0.2-1.2-1.1-2.6-2.1
		c-1.6-1.1-2.3-1.2-3.3-2.3c-0.7-0.8-1.1-1.5-1.2-1.7c-0.7-1.3-0.8-2.5-0.8-3.1c-0.1-1.4,0.1-2.5,0.4-3.8c0.1-0.7,0.4-1.8,1-3.1
		c0.5-1.3,1.2-2.2,2.4-3.8c2.5-3.3,2.8-3.3,4.2-5.3c0.9-1.3,1.9-2.8,2.7-4.9c0.6-1.5,1-2.7,1-4.3s-0.6-2.7-1.9-5.4
		c-1.5-3-2.6-5-3.2-6.1c-2.2-4.2-3.6-7.4-4-8.3c-1.7-3.9-1.2-3.7-2.6-6.9c-0.5-1.3-2.3-5.3-5.5-9.9c-1.2-1.7-2.2-3-4.2-5.4
		c-3.1-3.8-6.1-7.4-10.3-11.4c-2.2-2.1-4.5-4-9-7.7c-5.5-4.5-6.6-5.1-9.7-7.7c-4.7-4-7.8-7.3-11.2-11.1
		c-19.2-21-28.9-36.8-28.9-36.8c-10.7-17.4-15.9-32.2-17.2-35.8c-4.7-13.6-6.7-24.7-8.3-34c-2.9-17-1.2-16.4-3.5-29.6
		c-2.7-15.4-8.6-35.9-16.3-53.7C5.2,223,2,215.9,0.9,205.9c-0.7-6.8-0.2-12.6,0.3-16.3L1.7,185.9z"/>
	<g>
		<path class="st4" d="M1,190.8c0.1-0.4,0.1-0.8,0.2-1.2l0.5-3.8c2,0.5,3.7,0.7,4.9,0.8"/>
		<path class="st5" d="M9.6,186.9c3.1,0.3,6.1,0.4,9.7,0.3c1.4-0.1,4.1-0.2,7.7-0.8"/>
		<path class="st6" d="M28.4,186.2c2-0.4,4.3-0.9,6.7-1.6c1.3-0.4,4.1-1.2,14.1-5.7c7.3-3.3,11.4-5.1,16.7-7.9
			c4.7-2.5,9.8-5.6,19.8-11.9c10.6-6.6,16-10,22-14.1c7.5-5.1,13.1-9.3,17.2-12.3c9.8-7.3,10.1-8,19.4-15c7.2-5.4,13-9.8,21.1-15
			c8.9-5.7,8.8-4.9,19.8-11.9c6.9-4.4,9.2-6.2,17.2-11c4.5-2.8,8.9-5.3,14.5-7.9c7.3-3.4,10.6-4.1,12.3-4.4c3.4-0.6,6-0.5,11-0.4
			c5.9,0.1,8.9,0,12.8,0.9c1.9,0.4,2.8,0.8,5.7,1.3c1.3,0.3,4,0.7,7.5,1.1c2.1,0.2,4.3,0.4,10.6,0.4c5.2,0.1,8.2,0.1,12.6,0
			c6.9-0.2,10.4-0.2,14.1-0.9c1.5-0.3,1.1-0.2,9.9-2.4c9.1-2.2,9.1-2.1,11.4-2.9c1.3-0.4,4.5-1.6,11-4c6.7-2.5,7.3-2.7,8.1-3.1
			c3.8-1.7,4.9-2.8,10.1-5.7c3.2-1.8,5.7-3.1,7.9-4.2c3.3-1.6,3.7-1.6,6.2-2.8c4.8-2.3,8.1-4.6,10.9-6.6c3.7-2.6,6.4-4.9,8.6-6.8
			c3.3-2.8,3.9-3.6,7.1-6.3c2.2-1.8,3.5-2.8,7.3-5.6c7-5.2,10.5-7.8,12.2-9.2c1.6-1.3,3.7-3,6.1-5.2"/>
		<path class="st4" d="M421.6,4.2c1.2-1.1,2.4-2.2,3.7-3.4l2.9,4.1"/>
		<polyline class="st7" points="430,7.4 430.7,8.4 437.8,17.8 440.8,21.8 		"/>
		<path class="st8" d="M441.8,23l3.6,4.8l5.4,8.6l5.6,14.9l9.2,25.8c1.9,6.4,3.3,11.6,4.3,15.2c1.3,4.7,1.7,6.3,2.8,10.2
			c0.8,2.8,2,7,3.8,12.2c1.7,5.1,3,9,5.1,13.7c2.4,5.5,2.9,5.4,7.7,14.8c3.9,7.8,3.7,8,6.9,14c0.6,1,3.3,6.2,7.4,12.9
			c2.8,4.6,3.8,5.8,8.1,12.6c2.3,3.6,3.3,6.2,6.1,9.7c1.5,1.9,2.7,3,4.8,5.1c6.2,6.2,7.8,8.2,10.6,10.9c6.1,6,17,15.1,29.9,21.6
			c5.2,2.6,10.1,4.5,15.6,5.6"/>
		<path class="st4" d="M580.3,235.8c2,0.3,3.7,0.5,5,0.6l0.7,5"/>
		<line class="st9" x1="586.4" y1="244.3" x2="590.1" y2="260.8"/>
		<path class="st10" d="M590.4,262.3l0.3,1.2l3.8,16.5c3.2,10.1,5.9,18.2,7.9,23.9c1.5,4.4,2.2,6.2,3,8.1c3.4,8.6,6.8,14.7,8.9,18.5
			c7.5,13.5,16.3,25.2,20.5,30.6l15.7,16.8l19.3,21.8l23.4,26.6l12.6,14.3"/>
		<polyline class="st4" points="706.8,441.7 710.1,445.5 707.5,449.8 		"/>
		<polyline class="st11" points="706,452.3 694.4,461.7 692.7,463.4 		"/>
		<path class="st12" d="M691.7,464.5L679.4,477c-1.6,2.6-4.1,6.4-7.1,11.1c-3.1,4.8-4.6,6.9-7.9,11.9
			c-10.3,15.4-10.1,15.6-13.9,20.8c-3.8,5.2-3.4,4.1-11.2,13.9c-10.6,13.3-10.4,14.1-16.8,21.6c-2.4,2.8-6.8,7.3-15.5,16.3
			c-11.2,11.5-14.5,14.7-16,16c-6,5.5-11.3,9.7-15,12.6l-6.3,6"/>
		<polyline class="st4" points="568.4,608.2 564.8,611.6 562.3,607.3 		"/>
		<line class="st13" x1="560.8" y1="604.7" x2="552" y2="589.6"/>
		<path class="st14" d="M551.3,588.3c-3.4-5.5-6.1-10-8-13c-2.8-4.6-4-6.6-5.9-9.7c-4.1-6.6-5.4-7.1-7.3-11.2
			c-1.1-2.5-1.5-3.9-3.1-6.9c-1.8-3.3-2.8-5-4.6-6.1c-3.9-2.4-8.5-0.9-8.8-0.8c-0.8,0.3-1.4,0.6-5,3.5s-6.2,5.3-6.6,5.6
			c-1.5,1.3-4.1,3.7-7.8,6.9L479.8,568l-21.9,12.9l-20.1,12.6l-16.3,9.1c-10,4.3-18.1,7.7-23.9,10.1c-8.3,3.4-12,4.9-20.4,8.5
			c-9.3,4-14.1,6-19.2,8.5c-3.4,1.7-10.3,5.1-18.7,10c-1.3,0.8-1.3,0.8-14.4,8.9c-12.1,7.5-13.9,8.7-16.8,10.4
			c-5.2,3.1-9.6,5.6-13,7.5c-6.9,3.9-10.4,5.9-12,6.7c-2.8,1.4-5.3,2.7-10.2,5.5c-1.3,0.7-3.1,1.7-4.8,3.6"/>
		<path class="st4" d="M267.2,683.5c-1,1.3-1.6,2.5-1.9,3.3l-0.3,1.1l-4.2,0.2c-0.3,0-0.5,0-0.8,0.1"/>
		<path class="st15" d="M256.9,688.4c-1.5,0.1-3.1,0.2-4.9,0.3c-2.4,0.2-6.6,0.4-11.3,0.6c-0.4,0-0.8,0-1.1,0"/>
		<path class="st16" d="M238.1,689.4c-6.8,0.1-12.2-0.1-18-0.4c-7.5-0.3-11.3-0.5-14.4-1.3c-5-1.3-8.5-3.1-12-4.8
			c-4.1-2.1-8.3-4.2-12.8-8.4c-0.8-0.8-0.5-0.6-7-7.9c-5.9-6.7-6.2-6.9-7.8-8.9c-2.3-2.8-4.7-5.8-7-9.9c-1.7-3-4-7.5-5.7-13.4
			l-3.7-10.2l-3.8-8.4c-0.1-4.5-0.3-11.2-0.7-19.4c-0.6-11.6-0.9-11.7-1.3-22.2c-0.4-9.4-0.7-21.3-0.6-26.2c0-2.3-0.2-4.7,0-7
			c0.1-0.7,0.2-1.6-0.1-2.9c-0.3-1.3-0.8-2.2-1.7-3.6c-0.6-0.9-1.3-2.2-2.7-3.6c-0.2-0.2-1.2-1.1-2.6-2.1c-1.6-1.1-2.3-1.2-3.3-2.3
			c-0.7-0.8-1.1-1.5-1.2-1.7c-0.7-1.3-0.8-2.5-0.8-3.1c-0.1-1.4,0.1-2.5,0.4-3.8c0.1-0.7,0.4-1.8,1-3.1c0.5-1.3,1.2-2.2,2.4-3.8
			c2.5-3.3,2.8-3.3,4.2-5.3c0.9-1.3,1.9-2.8,2.7-4.9c0.6-1.5,1-2.7,1-4.3s-0.6-2.7-1.9-5.4c-1.5-3-2.6-5-3.2-6.1
			c-2.2-4.2-3.6-7.4-4-8.3c-1.7-3.9-1.2-3.7-2.6-6.9c-0.5-1.3-2.3-5.3-5.5-9.9c-1.2-1.7-2.2-3-4.2-5.4c-3.1-3.8-6.1-7.4-10.3-11.4
			c-2.2-2.1-4.5-4-9-7.7c-5.5-4.5-6.6-5.1-9.7-7.7c-4.7-4-7.8-7.3-11.2-11.1c-19.2-21-28.9-36.8-28.9-36.8
			c-10.7-17.4-15.9-32.2-17.2-35.8c-4.7-13.6-6.7-24.7-8.3-34c-2.9-17-1.2-16.4-3.5-29.6c-2.7-15.4-8.6-35.9-16.3-53.7
			C5.2,223,2,215.9,0.9,205.9c-0.6-5.4-0.4-10.1,0-13.7"/>
	</g>
</g>
<polyline class="st17" points="273,448 476.6,402 487.5,450.4 284,496 273,448 "/>
<polygon class="st17" points="302.5,402.6 123.7,442.7 116.4,410.3 122.9,409 121.9,404.7 232.7,380.5 267.3,373 243.7,267.3 
	131,269.2 131.2,285.8 51.4,287.3 51.6,280.5 52.1,270.3 44,252.4 128.6,250.5 128,234.2 233.9,231.8 249.3,231.6 255.2,232 
	256.5,239.2 264.9,237.3 256.7,206.3 268.9,195 363,108.9 376,123.2 377.9,121.2 381.4,125.2 379.5,127.1 382.2,130 389.5,138.2 
	462.9,214.6 399.3,272.8 390.4,262.7 422.8,232.7 367,172.3 343.6,187.6 344.3,193.1 311.8,223.2 323.6,276.6 329.8,305.4 
	311.1,309.8 315.6,328.7 324.3,326.7 337.9,385.1 324.3,388.2 325,392.1 301.3,397.4 "/>
<polygon class="st18" points="323.9,325 338.8,388.9 320.2,393.2 301.3,397.4 300.6,393.6 297.5,379.6 307.5,377.5 297.1,330.7 "/>
<polygon class="st18" points="390.4,262.7 399.3,272.8 462.9,214.6 391.4,136.8 381.4,145.5 433.9,202.8 428.1,208.3 434,215.1 
	425.2,223 419,216.4 422.8,232.7 419,236.3 412.2,242.5 "/>
<polygon class="st18" points="44,251.9 128.9,250.1 129.3,268.5 44.4,270.4 "/>
<polygon class="st18" points="51.6,280.5 51.4,287.3 131.2,285.8 131.1,278.2 "/>
<polygon class="st18" points="128,233.7 255,231 256.4,237.7 256.7,251.6 128.3,254.5 "/>
<polygon class="st18" points="245,260 128.9,262.2 128.9,269.5 244.1,267.4 "/>
<polygon class="st18" points="270.2,372.3 121.8,404.2 122.7,409.3 124.3,409 125.4,409.7 271.7,377.8 "/>
<polygon class="st18" points="123.7,442.7 119.1,421.9 263.3,389.9 267.9,410.5 "/>
<polygon class="st19" points="263.3,389.9 278.8,386.5 281.5,398.8 300.8,394.6 301.3,397.4 302.5,402.6 267.8,410.3 267.7,409.7 
	"/>
<g>
	<polygon class="st19" points="67.5,251.5 82.8,251.1 83.1,269.6 68,269.9 	"/>
	<g>
		<line class="st20" x1="75.7" y1="265.5" x2="75.4" y2="251.4"/>
		<line class="st20" x1="68.1" y1="265.7" x2="83.3" y2="265.4"/>
	</g>
</g>
<line class="st20" x1="278.8" y1="386.5" x2="266.1" y2="402.2"/>
<line class="st20" x1="287" y1="401.8" x2="267" y2="406.3"/>
<polygon class="st17" points="249.6,473.4 265.1,470 268.6,485.7 253.2,489.1 "/>
<polygon class="st19" points="305.5,472.9 320,469.8 317.3,456.8 302.9,460.2 "/>
<line class="st20" x1="302.9" y1="460.2" x2="320" y2="469.8"/>
<path class="st19" d="M320.8,551.5"/>
<path class="st19" d="M317.3,536"/>
<path class="st19" d="M325.2,550.6"/>
<path class="st19" d="M315.9,552.6"/>
<line class="st20" x1="291.2" y1="396.7" x2="266.1" y2="402.2"/>
<line class="st20" x1="263.3" y1="389.9" x2="281.5" y2="398.8"/>
<line class="st20" x1="286.1" y1="397.6" x2="287.9" y2="406"/>
<g>
	<polygon class="st19" points="140.5,417.2 155.5,414.1 159.8,434.5 144.9,438 	"/>
	<g>
		<line class="st20" x1="149.2" y1="421.2" x2="152.4" y2="436.1"/>
		<line class="st20" x1="156.5" y1="419.6" x2="141.8" y2="422.9"/>
	</g>
</g>
<path class="st19" d="M433.9,219.2"/>
<path class="st20" d="M444.9,227.6"/>
<path class="st20" d="M448,225"/>
<path class="st20" d="M441.9,230.3"/>
<path class="st20" d="M431.1,222"/>
<path class="st20" d="M433.1,237.6"/>
<path class="st20" d="M440.1,231.3"/>
<path class="st20" d="M424.6,228.5"/>
<path class="st20" d="M431.1,222"/>
<path class="st20" d="M447,238.5"/>
<g>
	<polygon class="st19" points="389.5,138.2 381.4,145.5 373.9,137.2 382.2,130 	"/>
	<polyline class="st20" points="385.7,125.2 385.8,134.2 380.8,138.6 	"/>
	<line class="st20" x1="378.2" y1="135.6" x2="383.4" y2="141.5"/>
</g>
<polygon class="st18" points="279.2,251.9 297.5,332.4 315.6,328.7 311.1,309.8 303.3,311.5 288.9,249.9 "/>
<polygon class="st18" points="330.1,305.4 302.6,311.8 285.3,234.8 294.4,232.6 292.2,221.9 286.5,215.7 367.7,142.4 435,215.3 
	423.5,233.7 367,172.3 347.6,190.4 311.8,223.2 "/>
<polygon class="st18" points="268.9,195 363,108.9 376,123.2 282.4,209 "/>
<g>
	<path class="st20" d="M282.9,356.8"/>
	<path class="st20" d="M275.9,354.2"/>
	<path class="st20" d="M276.8,358.1"/>
	<path class="st20" d="M282,352.8"/>
</g>
<polygon class="st18" points="355.3,429.4 358.8,444.3 432.1,427.7 432.8,432.1 440.5,430.5 447.2,459.6 487.5,450.4 476.6,402 "/>
<circle class="st21" cx="304.4" cy="278.1" r="3.5"/>
<rect x="311.2" y="272.9" class="st22" width="140.6" height="11.7"/>
<text transform="matrix(1 0 0 1 311.1641 282.8662)" class="st23 st24 st25">Ergotherapie</text>
<circle class="st21" cx="316.9" cy="354.7" r="3.5"/>
<rect x="325" y="348.8" class="st22" width="140.6" height="11.7"/>
<text transform="matrix(1 0 0 1 324.9917 358.7911)" class="st23 st24 st25">Ärztliche Abteilung</text>
<g>
	<polygon class="st19" points="265.9,197.6 256.7,206.3 260.2,220.3 273.1,217.4 282.1,209 268.7,195.4 	"/>
	<polyline class="st19" points="273.1,217.4 266.5,206.5 258.2,212 266.5,206.5 274,200.5 	"/>
</g>
<g>
	<circle class="st20" cx="439.4" cy="396.1" r="5.9"/>
</g>
<g>
	<polygon class="st19" points="372.9,476.1 370.7,466.1 350.6,470.5 352.8,480.3 	"/>
	<line class="st20" x1="351.7" y1="475.4" x2="365.5" y2="472.4"/>
	<line class="st20" x1="364.5" y1="467.5" x2="366.6" y2="477.2"/>
</g>
<g>
	<polygon class="st19" points="271.2,241.5 286.1,238.4 288.7,249.8 273.6,253.2 	"/>
	<line class="st20" x1="288.7" y1="249.8" x2="271.2" y2="241.5"/>
	<line class="st20" x1="286.1" y1="238.4" x2="273.6" y2="253.2"/>
</g>
<path class="st20" d="M304.5,501.1"/>
<path class="st20" d="M300.7,502.2"/>
<path class="st20" d="M308.7,537.9"/>
<path class="st20" d="M312.3,536.9"/>
<polygon class="st18" points="398.2,470.4 394.6,455.5 374.3,460.2 377.6,474.9 "/>
<path class="st26" d="M317.3,470.4l3.7,17l-37,8.7l-7.7-32.7c0.4,0,25.9-5.6,25.9-5.6l3.3,15.2L317.3,470.4"/>
<line class="st20" x1="305.5" y1="472.9" x2="317.3" y2="456.8"/>
<line class="st20" x1="289.5" y1="504.7" x2="311.7" y2="605"/>
<g>
	<polyline class="st20" points="323.5,533.5 311.7,536 300.6,553.3 317.7,564.3 329.6,561.9 	"/>
	<line class="st20" x1="300.6" y1="553.3" x2="326.3" y2="547.7"/>
</g>
<polyline class="st20" points="431.7,402.5 442.5,409.5 449,398.4 "/>
<polyline class="st20" points="276.3,463.4 273,448 271.7,448.3 269.2,438.4 431.7,402.5 429.3,390.6 446.3,386.9 449,398.4 
	476.9,392.2 478.8,401.5 476.6,402 487.5,450.4 489.8,449.9 491.9,459.6 315.6,498.7 338.1,599.6 285.5,611.1 260.8,500.3 
	282.7,491.2 "/>
<polygon class="st20" points="432.6,445.6 436.3,444.8 438.8,456.6 435.3,457.5 "/>
<polyline class="st20" points="437.1,457 435.2,448.7 433.5,449.1 437,448.3 "/>
<polyline class="st20" points="309.2,429.4 304.7,409 125.1,448.8 123.7,442.7 "/>
<line class="st20" x1="325" y1="392.1" x2="331.9" y2="424.1"/>
<polygon class="st18" points="245,260 246.4,265.3 262.1,262.2 264,270.1 273.4,268.2 295.4,366.6 288.3,368.2 290,375 271.7,378.6 
	271.7,377.8 270.2,372.3 267.3,373 243.7,267.3 "/>
<polygon class="st20" points="456.9,208.4 444.9,219.3 447.7,222.5 459.7,211.4 "/>
<polyline class="st20" points="458.2,209.9 449.4,218.1 448,216.5 450.8,219.6 "/>
<polyline class="st20" points="390.4,262.7 381,252.7 408.4,227.3 366.7,181.4 319.4,225.2 337.1,303.8 330.1,305.4 "/>
<polyline class="st20" points="399.3,272.8 408.4,282.1 481.4,215.1 401.3,127.6 392.6,118.5 385.7,125.2 363.1,99.8 254.9,199.1 
	256.7,206.3 "/>
<path class="st20" d="M402,128.3l-6.2,5.9c-0.5,0-10,0-10,0"/>
<polyline class="st20" points="320,307.7 323.9,325 331.6,323.3 345.8,387.3 325,392.1 "/>
<polyline class="st20" points="119.1,421.9 116.4,410.3 122.6,409 "/>
<polyline class="st20" points="121.8,404.2 117.8,385.9 255.4,354.7 240,285.8 132.8,288.3 132.9,304.3 50.6,306 50.6,287.3 
	51.4,287.3 "/>
<polyline class="st20" points="131.2,285.5 132.8,285.5 132.8,288.3 "/>
<polyline class="st20" points="51.5,283.7 44.8,283.7 44.4,270.4 "/>
<polyline class="st20" points="44,251.9 44,245.5 128.1,243.8 "/>
<polyline class="st20" points="128,233.7 127.9,227.5 254.3,224.9 254.8,231 "/>
<line class="st20" x1="255.3" y1="232.6" x2="263.2" y2="231"/>
<polygon class="st17" points="413.8,161.3 403.9,170.2 411.1,178 420.9,168.9 "/>
<path class="st20" d="M415.9,169.7c0.1,1.5-1.5,3.3-3.4,3.4c-1.9,0.1-3.4-1.5-3.4-3.4s1.5-3.4,3.4-3.4S415.7,167.8,415.9,169.7z"/>
<line class="st20" x1="119.1" y1="421.9" x2="116.4" y2="410.3"/>
<polyline class="st20" points="284,496 282.5,496.5 284.6,505.8 315.6,498.7 "/>
<circle class="st21" cx="268.7" cy="314" r="3.5"/>
<rect x="121.3" y="307.3" class="st22" width="140.6" height="11.7"/>
<text transform="matrix(1 0 0 1 191.105 317.2294)" class="st23 st24 st25">MTT-Raum</text>
<g>
	<circle class="st21" cx="260.9" cy="279.2" r="3.5"/>
	<rect x="113.5" y="272.4" class="st22" width="140.6" height="28.2"/>
	<text transform="matrix(1 0 0 1 126.4393 282.4129)" class="st23 st24 st25">Ernährungsberatung</text>
</g>
<circle class="st21" cx="188.2" cy="420.5" r="3.5"/>
<rect x="196.3" y="414.6" class="st22" width="140.6" height="11.7"/>
<text transform="matrix(1 0 0 1 196.2987 424.6023)" class="st23 st24 st25">Ärztliche Abteilung</text>
<circle class="st21" cx="237.8" cy="242.5" r="3.5"/>
<rect x="90.4" y="235.7" class="st22" width="140.6" height="11.7"/>
<text transform="matrix(1 0 0 1 155.5076 245.6671)" class="st23 st24 st25">Sozialdienst</text>
<polygon class="st20" points="462.3,293.8 504.6,257.5 615.7,387.8 574.6,423.9 517.1,454.3 493.3,404.1 536.5,381.2 504.8,343.4 
	496.8,350.6 488.3,341.2 496.8,334.1 "/>
</svg>
