<?xml version="1.0" encoding="utf-8"?>
<!-- Generator: Adobe Illustrator 23.0.0, SVG Export Plug-In . SVG Version: 6.00 Build 0)  -->
<svg version="1.1" id="Ebene_1" xmlns="http://www.w3.org/2000/svg" xmlns:xlink="http://www.w3.org/1999/xlink" x="0px" y="0px"
	 viewBox="0 0 710.7 689.9" style="enable-background:new 0 0 710.7 689.9;" xml:space="preserve">
<style type="text/css">
	.st0{fill:#FFFFFF;}
	.st1{opacity:0.75;}
	.st2{fill:#DFDFDF;}
	.st3{fill:none;stroke:#1D1D1B;stroke-width:1.0006;stroke-miterlimit:10;}
	.st4{fill:none;stroke:#1D1D1B;stroke-width:1.0006;stroke-miterlimit:10;stroke-dasharray:2.9876,2.9876,9.9586,2.9876;}
	
		.st5{fill:none;stroke:#1D1D1B;stroke-width:1.0006;stroke-miterlimit:10;stroke-dasharray:9.9593,2.9876,2.9876,2.9876,9.9586,2.9876;}
	.st6{fill:none;stroke:#1D1D1B;stroke-width:1.0006;stroke-miterlimit:10;stroke-dasharray:3.0968,3.0968,10.3228,3.0968;}
	
		.st7{fill:none;stroke:#1D1D1B;stroke-width:1.0006;stroke-miterlimit:10;stroke-dasharray:10.3234,3.0968,3.0968,3.0968,10.3228,3.0968;}
	.st8{fill:none;stroke:#1D1D1B;stroke-width:1.0006;stroke-miterlimit:10;stroke-dasharray:2.9133,2.9133,9.7108,2.9133;}
	
		.st9{fill:none;stroke:#1D1D1B;stroke-width:1.0006;stroke-miterlimit:10;stroke-dasharray:9.7115,2.9133,2.9133,2.9133,9.7108,2.9133;}
	.st10{fill:none;stroke:#1D1D1B;stroke-width:1.0006;stroke-miterlimit:10;stroke-dasharray:2.972,2.972,9.9068,2.972;}
	
		.st11{fill:none;stroke:#1D1D1B;stroke-width:1.0006;stroke-miterlimit:10;stroke-dasharray:9.9074,2.972,2.972,2.972,9.9068,2.972;}
	.st12{fill:none;stroke:#1D1D1B;stroke-width:1.0006;stroke-miterlimit:10;stroke-dasharray:2.9894,2.9894,9.9648,2.9894;}
	
		.st13{fill:none;stroke:#1D1D1B;stroke-width:1.0006;stroke-miterlimit:10;stroke-dasharray:9.9654,2.9894,2.9894,2.9894,9.9648,2.9894;}
	.st14{fill:none;stroke:#1D1D1B;stroke-width:1.0006;stroke-miterlimit:10;stroke-dasharray:2.9841,2.9841,9.9471,2.9841;}
	
		.st15{fill:none;stroke:#1D1D1B;stroke-width:1.0006;stroke-miterlimit:10;stroke-dasharray:9.9478,2.9841,2.9841,2.9841,9.9471,2.9841;}
	.st16{fill:#FFF7CC;}
	.st17{fill:#FFD500;}
	.st18{fill:#FFF7CC;stroke:#878787;stroke-width:0.326;stroke-miterlimit:10;}
	.st19{fill:none;stroke:#878787;stroke-width:0.326;stroke-miterlimit:10;}
	.st20{fill:#FFFFFF;stroke:#9D9D9C;stroke-miterlimit:10;}
	.st21{fill:none;}
	.st22{fill:#575756;}
	.st23{font-family:'ArialMT';}
	.st24{font-size:14px;}
</style>
<path class="st0" d="M1.4,185.9c2.7,0.7,4.9,0.8,6.2,0.9c3.8,0.3,7.1,0.6,11.4,0.4c2.4-0.1,8.4-0.5,15.9-2.6
	c1.3-0.4,4.1-1.2,14.1-5.7c7.3-3.3,11.4-5.1,16.7-7.9c4.7-2.5,9.8-5.6,19.8-11.9c10.6-6.6,16-10,22-14.1c7.5-5.1,13.1-9.3,17.2-12.3
	c9.8-7.3,10.1-8,19.4-15c7.2-5.4,13-9.8,21.1-15c8.9-5.7,8.8-4.9,19.8-11.9c6.9-4.4,9.2-6.2,17.2-11c4.5-2.8,8.9-5.3,14.5-7.9
	c7.3-3.4,10.6-4.1,12.3-4.4c3.4-0.6,6-0.5,11-0.4c5.9,0.1,8.9,0,12.8,0.9c1.9,0.4,2.8,0.8,5.7,1.3c1.3,0.3,4,0.7,7.5,1.1
	c2.1,0.2,4.3,0.4,10.6,0.4c5.2,0.1,8.2,0.1,12.6,0c6.9-0.2,10.4-0.2,14.1-0.9c1.5-0.3,1.1-0.2,9.9-2.4c9.1-2.2,9.1-2.1,11.4-2.9
	c1.3-0.4,4.5-1.6,11-4c6.7-2.5,7.3-2.7,8.1-3.1c3.8-1.7,4.9-2.8,10.1-5.7c3.2-1.8,5.7-3.1,7.9-4.2c3.3-1.6,3.7-1.6,6.2-2.8
	c4.8-2.3,8.1-4.6,10.9-6.6c3.7-2.6,6.4-4.9,8.6-6.8c3.3-2.8,3.9-3.6,7.1-6.3c2.2-1.8,3.5-2.8,7.3-5.6c7-5.2,10.5-7.8,12.2-9.2
	c2.7-2.1,6.5-5.3,10.9-9.6l5.4,7.6l7.1,9.4l7.6,10.1l5.4,8.6l5.6,14.9l9.2,25.8c1.9,6.4,3.3,11.6,4.3,15.2c1.3,4.7,1.7,6.3,2.8,10.2
	c0.8,2.8,2,7,3.8,12.2c1.7,5.1,3,9,5.1,13.7c2.4,5.5,2.9,5.4,7.7,14.8c3.9,7.8,3.7,8,6.9,14c0.6,1,3.3,6.2,7.4,12.9
	c2.8,4.6,3.8,5.8,8.1,12.6c2.3,3.6,3.3,6.2,6.1,9.7c1.5,1.9,2.7,3,4.8,5.1c6.2,6.2,7.8,8.2,10.6,10.9c6.1,6,17,15.1,29.9,21.6
	c5.5,2.8,10.6,4.7,16.7,5.8c2.2,0.4,4.1,0.6,5.4,0.7l1,7.1l4.5,20l3.8,16.5c3.2,10.1,5.9,18.2,7.9,23.9c1.5,4.4,2.2,6.2,3,8.1
	c3.4,8.6,6.8,14.7,8.9,18.5c7.5,13.5,16.3,25.2,20.5,30.6l15.7,16.8l19.3,21.8l23.4,26.6l16.8,19.2l-4.1,6.8l-11.6,9.4l-15,15.4
	c-1.6,2.6-4.1,6.4-7.1,11.1c-3.1,4.8-4.6,6.9-7.9,11.9c-10.3,15.4-10.1,15.6-13.9,20.8c-3.8,5.2-3.4,4.1-11.2,13.9
	c-10.6,13.3-10.4,14.1-16.8,21.6c-2.4,2.8-6.8,7.3-15.5,16.3c-11.2,11.5-14.5,14.7-16,16c-6,5.5-11.3,9.7-15,12.6l-11.1,10.4
	L551.2,589c-3.5-5.7-6.3-10.4-8.3-13.5c-2.8-4.6-4-6.6-5.9-9.7c-4.1-6.6-5.4-7.1-7.3-11.2c-1.1-2.5-1.5-3.9-3.1-6.9
	c-1.8-3.3-2.8-5-4.6-6.1c-3.9-2.4-8.5-0.9-8.8-0.8c-0.8,0.3-1.4,0.6-5,3.5s-6.2,5.3-6.6,5.6c-1.5,1.3-4.1,3.7-7.8,6.9l-14.5,11.6
	l-21.9,12.9l-20.1,12.6L421,603c-10,4.3-18.1,7.7-23.9,10.1c-8.3,3.4-12,4.9-20.4,8.5c-9.3,4-14.1,6-19.2,8.5
	c-3.4,1.7-10.3,5.1-18.7,10c-1.3,0.8-1.3,0.8-14.4,8.9c-12.1,7.5-13.9,8.7-16.8,10.4c-5.2,3.1-9.6,5.6-13,7.5
	c-6.9,3.9-10.4,5.9-12,6.7c-2.8,1.4-5.3,2.7-10.2,5.5c-1.5,0.8-3.7,2.1-5.6,4.5c-1.1,1.3-1.7,2.6-2.1,3.5l-0.3,1.1l-4.2,0.2
	c-2.3,0.2-5.2,0.4-8.7,0.7c-2.4,0.2-6.6,0.4-11.3,0.6c-8.1,0.2-14.1,0-20.6-0.3c-7.5-0.3-11.3-0.5-14.4-1.3c-5-1.3-8.5-3.1-12-4.8
	c-4.1-2.1-8.3-4.2-12.8-8.4c-0.8-0.8-0.5-0.6-7-7.9c-5.9-6.7-6.2-6.9-7.8-8.9c-2.3-2.8-4.7-5.8-7-9.9c-1.7-3-4-7.5-5.7-13.4
	l-3.7-10.2l-3.8-8.4c-0.1-4.5-0.3-11.2-0.7-19.4c-0.6-11.6-0.9-11.7-1.3-22.2c-0.4-9.4-0.7-21.3-0.6-26.2c0-2.3-0.2-4.7,0-7
	c0.1-0.7,0.2-1.6-0.1-2.9c-0.3-1.3-0.8-2.2-1.7-3.6c-0.6-0.9-1.3-2.2-2.7-3.6c-0.2-0.2-1.2-1.1-2.6-2.1c-1.6-1.1-2.3-1.2-3.3-2.3
	c-0.7-0.8-1.1-1.5-1.2-1.7c-0.7-1.3-0.8-2.5-0.8-3.1c-0.1-1.4,0.1-2.5,0.4-3.8c0.1-0.7,0.4-1.8,1-3.1c0.5-1.3,1.2-2.2,2.4-3.8
	c2.5-3.3,2.8-3.3,4.2-5.3c0.9-1.3,1.9-2.8,2.7-4.9c0.6-1.5,1-2.7,1-4.3s-0.6-2.7-1.9-5.4c-1.5-3-2.6-5-3.2-6.1
	c-2.2-4.2-3.6-7.4-4-8.3c-1.7-3.9-1.2-3.7-2.6-6.9c-0.5-1.3-2.3-5.3-5.5-9.9c-1.2-1.7-2.2-3-4.2-5.4c-3.1-3.8-6.1-7.4-10.3-11.4
	c-2.2-2.1-4.5-4-9-7.7c-5.5-4.5-6.6-5.1-9.7-7.7c-4.7-4-7.8-7.3-11.2-11.1c-19.2-21-28.9-36.8-28.9-36.8
	c-10.5-17.7-15.7-32.5-17-36.1c-4.7-13.6-6.7-24.7-8.3-34c-2.9-17-1.2-16.4-3.5-29.6c-2.7-15.4-8.6-35.9-16.3-53.7
	C4.9,223.1,1.7,216,0.6,206c-0.7-6.8-0.2-12.6,0.3-16.3L1.4,185.9z"/>
<g class="st1">
	<path class="st2" d="M1.7,185.9c2.7,0.7,4.9,0.8,6.2,0.9c3.8,0.3,7.1,0.6,11.4,0.4c2.4-0.1,8.4-0.5,15.9-2.6
		c1.3-0.4,4.1-1.2,14.1-5.7c7.3-3.3,11.4-5.1,16.7-7.9c4.7-2.5,9.8-5.6,19.8-11.9c10.6-6.6,16-10,22-14.1
		c7.5-5.1,13.1-9.3,17.2-12.3c9.8-7.3,10.1-8,19.4-15c7.2-5.4,13-9.8,21.1-15c8.9-5.7,8.8-4.9,19.8-11.9c6.9-4.4,9.2-6.2,17.2-11
		c4.5-2.8,8.9-5.3,14.5-7.9c7.3-3.4,10.6-4.1,12.3-4.4c3.4-0.6,6-0.5,11-0.4c5.9,0.1,8.9,0,12.8,0.9c1.9,0.4,2.8,0.8,5.7,1.3
		c1.3,0.3,4,0.7,7.5,1.1c2.1,0.2,4.3,0.4,10.6,0.4c5.2,0.1,8.2,0.1,12.6,0c6.9-0.2,10.4-0.2,14.1-0.9c1.5-0.3,1.1-0.2,9.9-2.4
		c9.1-2.2,9.1-2.1,11.4-2.9c1.3-0.4,4.5-1.6,11-4c6.7-2.5,7.3-2.7,8.1-3.1c3.8-1.7,4.9-2.8,10.1-5.7c3.2-1.8,5.7-3.1,7.9-4.2
		c3.3-1.6,3.7-1.6,6.2-2.8c4.8-2.3,8.1-4.6,10.9-6.6c3.7-2.6,6.4-4.9,8.6-6.8c3.3-2.8,3.9-3.6,7.1-6.3c2.2-1.8,3.5-2.8,7.3-5.6
		c7-5.2,10.5-7.8,12.2-9.2c2.7-2.1,6.5-5.3,10.9-9.6l5.4,7.6l7.1,9.4l7.6,10.1l5.4,8.6l5.6,14.9l9.2,25.8c1.9,6.4,3.3,11.6,4.3,15.2
		c1.3,4.7,1.7,6.3,2.8,10.2c0.8,2.8,2,7,3.8,12.2c1.7,5.1,3,9,5.1,13.7c2.4,5.5,2.9,5.4,7.7,14.8c3.9,7.8,3.7,8,6.9,14
		c0.6,1,3.3,6.2,7.4,12.9c2.8,4.6,3.8,5.8,8.1,12.6c2.3,3.6,3.3,6.2,6.1,9.7c1.5,1.9,2.7,3,4.8,5.1c6.2,6.2,7.8,8.2,10.6,10.9
		c6.1,6,17,15.1,29.9,21.6c5.5,2.8,10.6,4.7,16.7,5.8c2.2,0.4,4.1,0.6,5.4,0.7l1,7.1l4.5,20l3.8,16.5c3.2,10.1,5.9,18.2,7.9,23.9
		c1.5,4.4,2.2,6.2,3,8.1c3.4,8.6,6.8,14.7,8.9,18.5c7.5,13.5,16.3,25.2,20.5,30.6l15.7,16.8l19.3,21.8l23.4,26.6l16.8,19.2l-4.1,6.8
		l-11.6,9.4l-15,15.4c-1.6,2.6-4.1,6.4-7.1,11.1c-3.1,4.8-4.6,6.9-7.9,11.9c-10.3,15.4-10.1,15.6-13.9,20.8
		c-3.8,5.2-3.4,4.1-11.2,13.9c-10.6,13.3-10.4,14.1-16.8,21.6c-2.4,2.8-6.8,7.3-15.5,16.3c-11.2,11.5-14.5,14.7-16,16
		c-6,5.5-11.3,9.7-15,12.6l-11.1,10.4L551.5,589c-3.5-5.7-6.3-10.4-8.3-13.5c-2.8-4.6-4-6.6-5.9-9.7c-4.1-6.6-5.4-7.1-7.3-11.2
		c-1.1-2.5-1.5-3.9-3.1-6.9c-1.8-3.3-2.8-5-4.6-6.1c-3.9-2.4-8.5-0.9-8.8-0.8c-0.8,0.3-1.4,0.6-5,3.5c-3.6,2.9-6.2,5.3-6.6,5.6
		c-1.5,1.3-4.1,3.7-7.8,6.9l-14.5,11.6l-21.7,12.5l-20.1,12.6l-16.3,9.1c-10,4.3-18.1,7.7-23.9,10.1c-8.3,3.4-12,4.9-20.4,8.5
		c-9.3,4-14.1,6-19.2,8.5c-3.4,1.7-10.3,5.1-18.7,10c-1.3,0.8-1.3,0.8-14.4,8.9c-12.1,7.5-13.9,8.7-16.8,10.4
		c-5.2,3.1-9.6,5.6-13,7.5c-6.9,3.9-10.4,5.9-12,6.7c-2.8,1.4-5.3,2.7-10.2,5.5c-1.5,0.8-3.7,2.1-5.6,4.5c-1.1,1.3-1.7,2.6-2.1,3.5
		l-0.3,1.1l-4.2,0.2c-2.3,0.2-5.2,0.4-8.7,0.7c-2.4,0.2-6.6,0.4-11.3,0.6c-8.1,0.2-14.1,0-20.6-0.3c-7.5-0.3-11.3-0.5-14.4-1.3
		c-5-1.3-8.5-3.1-12-4.8c-4.1-2.1-8.3-4.2-12.8-8.4c-0.8-0.8-0.5-0.6-7-7.9c-5.9-6.7-6.2-6.9-7.8-8.9c-2.3-2.8-4.7-5.8-7-9.9
		c-1.7-3-4-7.5-5.7-13.4l-3.7-10.2l-3.8-8.4c-0.1-4.5-0.3-11.2-0.7-19.4c-0.6-11.6-0.9-11.7-1.3-22.2c-0.4-9.4-0.7-21.3-0.6-26.2
		c0-2.3-0.2-4.7,0-7c0.1-0.7,0.2-1.6-0.1-2.9c-0.3-1.3-0.8-2.2-1.7-3.6c-0.6-0.9-1.3-2.2-2.7-3.6c-0.2-0.2-1.2-1.1-2.6-2.1
		c-1.6-1.1-2.3-1.2-3.3-2.3c-0.7-0.8-1.1-1.5-1.2-1.7c-0.7-1.3-0.8-2.5-0.8-3.1c-0.1-1.4,0.1-2.5,0.4-3.8c0.1-0.7,0.4-1.8,1-3.1
		c0.5-1.3,1.2-2.2,2.4-3.8c2.5-3.3,2.8-3.3,4.2-5.3c0.9-1.3,1.9-2.8,2.7-4.9c0.6-1.5,1-2.7,1-4.3s-0.6-2.7-1.9-5.4
		c-1.5-3-2.6-5-3.2-6.1c-2.2-4.2-3.6-7.4-4-8.3c-1.7-3.9-1.2-3.7-2.6-6.9c-0.5-1.3-2.3-5.3-5.5-9.9c-1.2-1.7-2.2-3-4.2-5.4
		c-3.1-3.8-6.1-7.4-10.3-11.4c-2.2-2.1-4.5-4-9-7.7c-5.5-4.5-6.6-5.1-9.7-7.7c-4.7-4-7.8-7.3-11.2-11.1
		c-19.2-21-28.9-36.8-28.9-36.8c-10.7-17.3-15.9-32.1-17.2-35.7c-4.7-13.6-6.7-24.7-8.3-34c-2.9-17-1.2-16.4-3.5-29.6
		c-2.7-15.4-8.6-35.9-16.3-53.7C5.2,223.1,2,216,0.9,206c-0.7-6.8-0.2-12.6,0.3-16.3L1.7,185.9z"/>
	<g>
		<path class="st3" d="M1,190.8c0.1-0.4,0.1-0.8,0.2-1.2l0.5-3.8c2,0.5,3.7,0.7,4.9,0.8"/>
		<path class="st4" d="M9.6,186.9c3.1,0.3,6.1,0.4,9.7,0.3c1.4-0.1,4.1-0.2,7.7-0.8"/>
		<path class="st5" d="M28.4,186.1c2-0.4,4.3-0.9,6.7-1.6c1.3-0.4,4.1-1.2,14.1-5.7c7.3-3.3,11.4-5.1,16.7-7.9
			c4.7-2.5,9.8-5.6,19.8-11.9c10.6-6.6,16-10,22-14.1c7.5-5.1,13.1-9.3,17.2-12.3c9.8-7.3,10.1-8,19.4-15c7.2-5.4,13-9.8,21.1-15
			c8.9-5.7,8.8-4.9,19.8-11.9c6.9-4.4,9.2-6.2,17.2-11c4.5-2.8,8.9-5.3,14.5-7.9c7.3-3.4,10.6-4.1,12.3-4.4c3.4-0.6,6-0.5,11-0.4
			c5.9,0.1,8.9,0,12.8,0.9c1.9,0.4,2.8,0.8,5.7,1.3c1.3,0.3,4,0.7,7.5,1.1c2.1,0.2,4.3,0.4,10.6,0.4c5.2,0.1,8.2,0.1,12.6,0
			c6.9-0.2,10.4-0.2,14.1-0.9c1.5-0.3,1.1-0.2,9.9-2.4c9.1-2.2,9.1-2.1,11.4-2.9c1.3-0.4,4.5-1.6,11-4c6.7-2.5,7.3-2.7,8.1-3.1
			c3.8-1.7,4.9-2.8,10.1-5.7c3.2-1.8,5.7-3.1,7.9-4.2c3.3-1.6,3.7-1.6,6.2-2.8c4.8-2.3,8.1-4.6,10.9-6.6c3.7-2.6,6.4-4.9,8.6-6.8
			c3.3-2.8,3.9-3.6,7.1-6.3c2.2-1.8,3.5-2.8,7.3-5.6c7-5.2,10.5-7.8,12.2-9.2c1.6-1.3,3.7-3,6.1-5.2"/>
		<path class="st3" d="M421.6,4.2c1.2-1.1,2.4-2.2,3.7-3.4l2.9,4.1"/>
		<polyline class="st6" points="430,7.3 430.7,8.3 437.8,17.7 440.8,21.8 		"/>
		<path class="st7" d="M441.8,23l3.6,4.8l5.4,8.6l5.6,14.9l9.2,25.8c1.9,6.4,3.3,11.6,4.3,15.2c1.3,4.7,1.7,6.3,2.8,10.2
			c0.8,2.8,2,7,3.8,12.2c1.7,5.1,3,9,5.1,13.7c2.4,5.5,2.9,5.4,7.7,14.8c3.9,7.8,3.7,8,6.9,14c0.6,1,3.3,6.2,7.4,12.9
			c2.8,4.6,3.8,5.8,8.1,12.6c2.3,3.6,3.3,6.2,6.1,9.7c1.5,1.9,2.7,3,4.8,5.1c6.2,6.2,7.8,8.2,10.6,10.9c6.1,6,17,15.1,29.9,21.6
			c5.2,2.6,10.1,4.5,15.6,5.6"/>
		<path class="st3" d="M580.3,235.8c2,0.3,3.7,0.5,5,0.6l0.7,5"/>
		<line class="st8" x1="586.4" y1="244.2" x2="590.1" y2="260.8"/>
		<path class="st9" d="M590.5,262.2l0.3,1.2l3.8,16.5c3.2,10.1,5.9,18.2,7.9,23.9c1.5,4.4,2.2,6.2,3,8.1c3.4,8.6,6.8,14.7,8.9,18.5
			c7.5,13.5,16.3,25.2,20.5,30.6l15.7,16.8l19.3,21.8l23.4,26.6l12.6,14.3"/>
		<polyline class="st3" points="706.8,441.7 710.1,445.5 707.5,449.7 		"/>
		<polyline class="st10" points="706,452.3 694.4,461.6 692.7,463.4 		"/>
		<path class="st11" d="M691.7,464.5L679.4,477c-1.6,2.6-4.1,6.4-7.1,11.1c-3.1,4.8-4.6,6.9-7.9,11.9
			c-10.3,15.4-10.1,15.6-13.9,20.8c-3.8,5.2-3.4,4.1-11.2,13.9c-10.6,13.3-10.4,14.1-16.8,21.6c-2.4,2.8-6.8,7.3-15.5,16.3
			c-11.2,11.5-14.5,14.7-16,16c-6,5.5-11.3,9.7-15,12.6l-6.3,6"/>
		<polyline class="st3" points="568.5,608.2 564.8,611.6 562.3,607.3 		"/>
		<line class="st12" x1="560.8" y1="604.7" x2="552.1" y2="589.6"/>
		<path class="st13" d="M551.3,588.3c-3.4-5.5-6.1-10-8-13c-2.8-4.6-4-6.6-5.9-9.7c-4.1-6.6-5.4-7.1-7.3-11.2
			c-1.1-2.5-1.5-3.9-3.1-6.9c-1.8-3.3-2.8-5-4.6-6.1c-3.9-2.4-8.5-0.9-8.8-0.8c-0.8,0.3-1.4,0.6-5,3.5c-3.6,2.9-6.2,5.3-6.6,5.6
			c-1.5,1.3-4.1,3.7-7.8,6.9l-14.5,11.6l-21.8,12.7l-20.1,12.6l-16.3,9.1c-10,4.3-18.1,7.7-23.9,10.1c-8.3,3.4-12,4.9-20.4,8.5
			c-9.3,4-14.1,6-19.2,8.5c-3.4,1.7-10.3,5.1-18.7,10c-1.3,0.8-1.3,0.8-14.4,8.9c-12.1,7.5-13.9,8.7-16.8,10.4
			c-5.2,3.1-9.6,5.6-13,7.5c-6.9,3.9-10.4,5.9-12,6.7c-2.8,1.4-5.3,2.7-10.2,5.5c-1.3,0.7-3.1,1.7-4.8,3.6"/>
		<path class="st3" d="M267.2,683.5c-1,1.3-1.6,2.5-1.9,3.3l-0.3,1.1l-4.2,0.2c-0.3,0-0.5,0-0.8,0.1"/>
		<path class="st14" d="M257,688.4c-1.5,0.1-3.1,0.2-4.9,0.3c-2.4,0.2-6.6,0.4-11.3,0.6c-0.4,0-0.8,0-1.1,0"/>
		<path class="st15" d="M238.1,689.4c-6.8,0.1-12.2-0.1-18-0.4c-7.5-0.3-11.3-0.5-14.4-1.3c-5-1.3-8.5-3.1-12-4.8
			c-4.1-2.1-8.3-4.2-12.8-8.4c-0.8-0.8-0.5-0.6-7-7.9c-5.9-6.7-6.2-6.9-7.8-8.9c-2.3-2.8-4.7-5.8-7-9.9c-1.7-3-4-7.5-5.7-13.4
			l-3.7-10.2l-3.8-8.4c-0.1-4.5-0.3-11.2-0.7-19.4c-0.6-11.6-0.9-11.7-1.3-22.2c-0.4-9.4-0.7-21.3-0.6-26.2c0-2.3-0.2-4.7,0-7
			c0.1-0.7,0.2-1.6-0.1-2.9c-0.3-1.3-0.8-2.2-1.7-3.6c-0.6-0.9-1.3-2.2-2.7-3.6c-0.2-0.2-1.2-1.1-2.6-2.1c-1.6-1.1-2.3-1.2-3.3-2.3
			c-0.7-0.8-1.1-1.5-1.2-1.7c-0.7-1.3-0.8-2.5-0.8-3.1c-0.1-1.4,0.1-2.5,0.4-3.8c0.1-0.7,0.4-1.8,1-3.1c0.5-1.3,1.2-2.2,2.4-3.8
			c2.5-3.3,2.8-3.3,4.2-5.3c0.9-1.3,1.9-2.8,2.7-4.9c0.6-1.5,1-2.7,1-4.3s-0.6-2.7-1.9-5.4c-1.5-3-2.6-5-3.2-6.1
			c-2.2-4.2-3.6-7.4-4-8.3c-1.7-3.9-1.2-3.7-2.6-6.9c-0.5-1.3-2.3-5.3-5.5-9.9c-1.2-1.7-2.2-3-4.2-5.4c-3.1-3.8-6.1-7.4-10.3-11.4
			c-2.2-2.1-4.5-4-9-7.7c-5.5-4.5-6.6-5.1-9.7-7.7c-4.7-4-7.8-7.3-11.2-11.1c-19.2-21-28.9-36.8-28.9-36.8
			c-10.7-17.3-15.9-32.1-17.2-35.7c-4.7-13.6-6.7-24.7-8.3-34c-2.9-17-1.2-16.4-3.5-29.6c-2.7-15.4-8.6-35.9-16.3-53.7
			C5.2,223.1,2,216,0.9,206c-0.6-5.4-0.4-10.1,0-13.7"/>
	</g>
</g>
<polygon class="st16" points="428.9,390.4 445.9,386.6 449.2,401.3 475.3,395.7 489.7,459.6 313.6,498.9 335.8,599.3 285.7,610.5 
	261.8,502.4 282.1,493.6 270.7,441.1 310,432.2 304.5,407.9 124.9,447.9 116.5,410.1 122.9,408.8 118.4,388.4 231.2,363.5 
	258,358.1 242.3,285.4 130.7,287.9 130.7,304.5 50.7,306.5 50.2,285.2 44.5,285.2 43.1,248.6 127.8,246.9 127.8,230.6 233.5,228.4 
	236.5,239.7 240.6,238.8 241,241.3 249.9,239.2 249.2,232.9 262.6,229.9 255.7,201.7 264.4,193.7 363.2,102.7 385.7,126.8 
	391.2,121.9 478.4,216.2 406.8,282.4 381.5,255.5 409.7,229.9 358.9,173.6 343.6,187.4 350.1,194.3 317.7,224.7 327.8,274.2 
	327.8,274.2 335.3,305.2 319.1,309.3 322.9,326.7 328.8,325.4 343.1,388.2 323.2,392.4 331,427.3 432.1,405 "/>
<polygon class="st17" points="329,325.5 343.3,388.3 320,393.4 305.9,330.4 "/>
<polygon class="st17" points="405,234.7 381.9,255.6 407.1,282.5 478.8,216.5 398.7,129.8 381.4,145.3 447.6,216.2 439.1,224.3 
	433.9,219 410.9,240.9 "/>
<polygon class="st17" points="43.5,248.7 128.2,247 128.9,271.7 44.1,273.6 "/>
<polygon class="st17" points="50.6,285.4 51.1,306.7 131.2,304.7 131,283.5 "/>
<polygon class="st17" points="127.9,230.7 254.2,228.1 256.4,237.5 256.6,253 128.3,255.5 "/>
<polygon class="st17" points="223,262 138.7,263.6 139.2,287.9 223.7,286 "/>
<polygon class="st17" points="257.9,357.4 231.6,363.1 118.3,388.8 122.8,409.1 262,378.4 "/>
<polygon class="st17" points="125.2,448 119.4,421.6 263.4,389.7 269.2,416.1 "/>
<path class="st18" d="M263.4,389.7l15.5-3.4l2.6,12.3l9.7-2.1c0,0,4.9,2.7,4.9,3.1c0,0.3,2.3,9.7,2.3,9.7l-29.2,6.9l-1.5-6.6
	L263.4,389.7z"/>
<polygon class="st17" points="310.4,432.3 319.7,430.3 323.9,449.2 292.6,456.2 307.8,526 302.7,536.7 271.2,543.7 262.1,502.5 
	282.5,493.8 271.1,441.2 "/>
<polygon class="st17" points="304.4,453.4 305.7,459.3 325.1,454.7 323.9,449.2 "/>
<g>
	<polygon class="st18" points="67.5,248.2 82.7,247.9 83.2,272.9 68.1,273.1 	"/>
	<g>
		<line class="st19" x1="75.7" y1="265.3" x2="75.3" y2="248.1"/>
		<line class="st19" x1="68.1" y1="265.5" x2="83.3" y2="265.2"/>
	</g>
</g>
<line class="st19" x1="278.8" y1="386.3" x2="266.1" y2="402"/>
<line class="st19" x1="283.1" y1="405.9" x2="267.7" y2="409.5"/>
<polygon class="st16" points="249.6,473.2 265.1,469.8 268.6,485.5 253.2,488.9 "/>
<polygon class="st18" points="305.5,472.7 320,469.6 317.3,456.6 302.9,460 "/>
<line class="st19" x1="302.9" y1="460" x2="320" y2="469.6"/>
<line class="st19" x1="317.3" y1="456.6" x2="305.5" y2="472.7"/>
<polygon class="st18" points="321.3,532.2 311.9,534.3 318.2,562.3 327.5,560.6 "/>
<line class="st19" x1="316.7" y1="533.2" x2="321.6" y2="554.9"/>
<line class="st19" x1="316.8" y1="555.9" x2="326.1" y2="553.9"/>
<line class="st19" x1="291.2" y1="396.5" x2="266.1" y2="402"/>
<line class="st19" x1="263.4" y1="389.7" x2="281.5" y2="398.6"/>
<line class="st19" x1="282.2" y1="402" x2="283.9" y2="409.9"/>
<g>
	<polygon class="st18" points="140.5,417 155.5,413.9 161,440.1 146.2,443.5 	"/>
	<g>
		<line class="st19" x1="149.2" y1="421" x2="153.6" y2="441.7"/>
		<line class="st19" x1="156.6" y1="419.4" x2="141.8" y2="422.7"/>
	</g>
</g>
<polygon class="st18" points="424.5,228.2 433.1,237.4 440.1,231.1 450.7,242.2 459.6,234 445.4,218.6 439.1,224.5 433.9,219.2 "/>
<path class="st18" d="M433.9,219"/>
<line class="st19" x1="454.9" y1="238.1" x2="444.9" y2="227.4"/>
<line class="st19" x1="441.9" y1="230.1" x2="448" y2="224.8"/>
<line class="st19" x1="433.1" y1="237.4" x2="431.1" y2="221.8"/>
<line class="st19" x1="424.6" y1="228.3" x2="440.1" y2="231.1"/>
<line class="st19" x1="450.6" y1="242.1" x2="431.1" y2="221.8"/>
<g>
	<polygon class="st18" points="398.7,129.8 381.4,145.3 373.9,136.9 391.4,122 	"/>
	<line class="st19" x1="394.9" y1="125.9" x2="380.8" y2="138.4"/>
	<line class="st19" x1="378.2" y1="135.4" x2="383.4" y2="141.3"/>
</g>
<polygon class="st17" points="289.6,349.2 301.3,346.7 308.1,379.7 296.6,382.2 "/>
<polygon class="st17" points="273.4,252.9 285.5,306.8 301.8,303.3 288.9,249.7 "/>
<polygon class="st17" points="335.5,305.3 311.1,311.5 292,222.1 285.7,215.4 367.6,142.8 425.2,206.6 405.9,225.7 359.1,174.8 
	345.4,187.6 351.1,194.2 317.9,224.8 "/>
<polygon class="st19" points="322.6,311.3 349.8,304.8 352.5,317 325.3,323.6 "/>
<polygon class="st17" points="222.6,262 251.4,261.7 252.7,267.4 258.4,265.9 261.3,278.9 266.1,278.3 283.1,356.7 276.7,358 
	278.6,366.9 274.6,373.3 268.6,374.6 269.2,376.8 261.3,378.4 257.9,357.4 241.7,285.4 223.7,286 "/>
<polygon class="st17" points="266.5,191.8 363.2,102.7 379.5,120.1 282.4,208.8 "/>
<polyline class="st19" points="232.3,363.2 236.9,354.8 209,331.2 218.4,292.7 211.1,286.3 "/>
<line class="st19" x1="209" y1="331.2" x2="250.2" y2="322"/>
<g>
	<polygon class="st18" points="276.8,357.9 283,356.6 282,352.4 275.9,353.9 	"/>
	<line class="st19" x1="275.9" y1="354" x2="283" y2="356.6"/>
	<line class="st19" x1="282" y1="352.6" x2="276.8" y2="357.9"/>
</g>
<polygon class="st17" points="339.8,493.1 336.1,476.9 313.1,481.9 309.4,487.6 311.9,499.5 "/>
<polygon class="st17" points="331.2,427.4 336.6,452.5 389.1,441.4 387.3,433.5 414.1,428 415.7,436.1 439.4,431 443.1,447.4 
	427.2,450.7 425.3,443.2 368.4,456.1 375,485.3 489.9,459.7 475.5,395.8 "/>
<polygon class="st17" points="302.7,536.7 311.9,576.8 330.3,572.7 336,599.4 285.9,610.6 271.2,543.7 "/>
<g>
	<polygon class="st19" points="226.6,563.8 201.4,547.7 172.3,554.4 156.3,579.6 162.6,608.8 187.8,624.8 217.1,618.6 233.3,593.7 	
		"/>
	<line class="st19" x1="172.3" y1="554.4" x2="217.1" y2="618.6"/>
	<line class="st19" x1="201.4" y1="547.7" x2="187.8" y2="624.8"/>
	<line class="st19" x1="226.6" y1="563.8" x2="162.6" y2="608.8"/>
	<line class="st19" x1="156.3" y1="579.6" x2="233.3" y2="593.7"/>
	<line class="st19" x1="218.4" y1="558.4" x2="271.8" y2="546.5"/>
	<line class="st19" x1="227.9" y1="601.5" x2="281.3" y2="589.5"/>
</g>
<circle class="st20" cx="367.4" cy="162.6" r="3.5"/>
<rect x="374.2" y="157.4" class="st21" width="140.6" height="11.7"/>
<text transform="matrix(1 0 0 1 374.1313 167.3649)" class="st22 st23 st24">Lehrküche</text>
<circle class="st20" cx="407.4" cy="257.8" r="3.5"/>
<circle class="st20" cx="254.6" cy="406.2" r="3.5"/>
<rect x="106.6" y="400.2" class="st21" width="140.6" height="11.7"/>
<text transform="matrix(1 0 0 1 211.4471 410.1976)" class="st22 st23 st24">Labor</text>
<circle class="st20" cx="459.8" cy="432.7" r="3.5"/>
<line class="st19" x1="343.2" y1="388.4" x2="350.8" y2="423.2"/>
<polyline class="st18" points="319.7,430.3 314.4,405.9 304.7,408 "/>
<polyline class="st19" points="364.9,181.2 351.1,194.2 355.4,199.4 331.8,221.3 342.6,269.3 328.4,272.6 "/>
<g>
	<polygon class="st18" points="264.7,193.8 255.8,201.8 260.2,220.1 273.1,217.2 282.1,208.8 266.5,192.1 	"/>
	<polyline class="st18" points="273.1,217.2 266.5,206.3 258.2,211.8 266.5,206.3 274,200.3 	"/>
</g>
<circle class="st20" cx="347.8" cy="174.7" r="3.5"/>
<rect x="200.3" y="167.9" class="st21" width="140.6" height="11.7"/>
<text transform="matrix(1 0 0 1 265.4578 177.8858)" class="st22 st23 st24">Psychologie</text>
<polyline class="st19" points="234.9,228.4 228.2,198.3 247.7,194 254.9,225.7 253.7,226.2 254.2,228.1 "/>
<g>
	<polygon class="st18" points="429.3,390.5 446.3,386.7 449.5,401.1 432.4,405.2 	"/>
	<circle class="st19" cx="439.4" cy="395.9" r="5.9"/>
</g>
<g>
	<polygon class="st18" points="375,485.3 370.7,465.9 350.7,470.3 355,489.8 	"/>
	<line class="st19" x1="352.8" y1="480" x2="366.6" y2="477"/>
	<line class="st19" x1="364.5" y1="467.3" x2="368.8" y2="486.6"/>
</g>
<g>
	<polygon class="st18" points="271.2,241.3 286.1,238.2 288.7,249.6 273.6,253 	"/>
	<line class="st19" x1="288.7" y1="249.6" x2="271.2" y2="241.3"/>
	<line class="st19" x1="286.1" y1="238.2" x2="273.6" y2="253"/>
</g>
<polygon class="st19" points="462.3,293.6 504.6,257.3 615.8,387.6 574.6,423.7 517.1,454.1 493.3,403.9 536.5,381 504.8,343.2 
	496.9,350.4 488.3,340.9 496.9,333.9 "/>
<rect x="467.9" y="426.8" class="st21" width="140.6" height="11.7"/>
<text transform="matrix(1 0 0 1 467.9241 436.8183)" class="st22 st23 st24">Therapie</text>
<rect x="414.2" y="252.5" class="st21" width="140.6" height="11.7"/>
<text transform="matrix(1 0 0 1 414.1517 262.518)" class="st22 st23 st24">Entspannungsraum</text>
<circle class="st20" cx="288.5" cy="523.9" r="3.5"/>
<rect x="296.7" y="518" class="st21" width="140.6" height="11.7"/>
<text transform="matrix(1 0 0 1 296.6308 527.9805)" class="st22 st23 st24">Badehaus 1.OG</text>
</svg>
