<?xml version="1.0" encoding="utf-8"?>
<!-- Generator: Adobe Illustrator 23.0.0, SVG Export Plug-In . SVG Version: 6.00 Build 0)  -->
<svg version="1.1" id="Layer_1" xmlns="http://www.w3.org/2000/svg" xmlns:xlink="http://www.w3.org/1999/xlink" x="0px" y="0px"
	 viewBox="0 0 964.7 834.8" style="enable-background:new 0 0 964.7 834.8;" xml:space="preserve">
<style type="text/css">
	.st0{display:none;}
	.st1{display:inline;}
	.st2{fill:#C6C6C6;stroke:#1D1D1B;stroke-width:1.0006;stroke-miterlimit:10;stroke-dasharray:10.0006,3,3,3,10,3;}
	.st3{display:inline;fill:#FFF7CC;}
	.st4{display:inline;fill:#FFD500;}
	.st5{display:inline;fill:#FFF7CC;stroke:#878787;stroke-width:0.326;stroke-miterlimit:10;}
	.st6{display:inline;fill:none;stroke:#878787;stroke-width:0.326;stroke-miterlimit:10;}
	.st7{fill:none;stroke:#878787;stroke-width:0.326;stroke-miterlimit:10;}
	.st8{fill:#FFF7CC;stroke:#878787;stroke-width:0.326;stroke-miterlimit:10;}
	.st9{fill:#FFF7CC;stroke:#878787;stroke-width:0.326;stroke-linecap:round;stroke-linejoin:round;stroke-miterlimit:10;}
	.st10{fill:none;stroke:#878787;stroke-width:0.326;stroke-linecap:round;stroke-linejoin:round;stroke-miterlimit:10;}
	.st11{display:inline;fill:#6A97BC;}
	.st12{display:inline;fill:#FFFFFF;stroke:#9D9D9C;stroke-miterlimit:10;}
	.st13{display:inline;fill:none;}
	.st14{display:inline;fill:#575756;}
	.st15{font-family:'ArialMT';}
	.st16{font-size:14px;}
	.st17{display:inline;fill:#DFDFDF;stroke:#1D1D1B;stroke-width:1.0006;stroke-miterlimit:10;stroke-dasharray:10.0006,3,3,3,10,3;}
	.st18{display:inline;fill:#77AAD4;}
	.st19{display:inline;fill:none;stroke:#FFD500;stroke-width:0.326;stroke-miterlimit:10;}
	.st20{display:inline;fill:#FFD500;stroke:#FFD500;stroke-width:0.326;stroke-miterlimit:10;}
	.st21{fill:none;stroke:#878787;stroke-width:0.2835;stroke-miterlimit:10;}
	.st22{fill:none;stroke:#878787;stroke-width:0.2835;stroke-miterlimit:10;stroke-dasharray:1.8988,1.8988,1.8988,1.8988;}
	
		.st23{fill:none;stroke:#878787;stroke-width:0.2835;stroke-miterlimit:10;stroke-dasharray:1.8988,1.8988,1.8988,1.8988,1.8988,1.8988;}
	.st24{fill:none;stroke:#878787;stroke-width:0.2835;stroke-miterlimit:10;stroke-dasharray:1.5361,1.5361,1.5361,1.5361;}
	.st25{fill:none;stroke:#878787;stroke-width:0.2835;stroke-miterlimit:10;stroke-dasharray:1.8842,1.8842,1.8842,1.8842;}
	
		.st26{fill:none;stroke:#878787;stroke-width:0.2835;stroke-miterlimit:10;stroke-dasharray:1.8842,1.8842,1.8842,1.8842,1.8842,1.8842;}
	.st27{fill:none;stroke:#878787;stroke-width:0.2835;stroke-miterlimit:10;stroke-dasharray:1.5623,1.5623,1.5623,1.5623;}
	.st28{fill:#E30613;}
	.st29{fill:#FFFFFF;stroke:#9D9D9C;stroke-miterlimit:10;}
	.st30{fill:none;stroke:#878787;stroke-width:0.3255;stroke-miterlimit:10;}
	.st31{fill:none;stroke:#878787;stroke-width:0.3255;stroke-miterlimit:10;stroke-dasharray:1.5584,1.5584,1.5584,1.5584;}
	
		.st32{fill:none;stroke:#878787;stroke-width:0.3255;stroke-miterlimit:10;stroke-dasharray:1.5584,1.5584,1.5584,1.5584,1.5584,1.5584;}
	.st33{fill:none;stroke:#878787;stroke-width:0.3255;stroke-miterlimit:10;stroke-dasharray:2.6994,2.6994,2.6994,2.6994;}
	
		.st34{fill:none;stroke:#878787;stroke-width:0.3255;stroke-miterlimit:10;stroke-dasharray:2.6994,2.6994,2.6994,2.6994,2.6994,2.6994;}
	.st35{fill:none;stroke:#878787;stroke-width:0.3255;stroke-miterlimit:10;stroke-dasharray:1.578,1.578,1.578,1.578;}
	.st36{fill:none;stroke:#878787;stroke-width:0.3255;stroke-miterlimit:10;stroke-dasharray:1.578,1.578,1.578,1.578,1.578,1.578;}
	.st37{fill:none;stroke:#878787;stroke-width:0.3255;stroke-miterlimit:10;stroke-dasharray:2.695,2.695,2.695,2.695;}
	.st38{fill:none;stroke:#878787;stroke-width:0.3255;stroke-miterlimit:10;stroke-dasharray:2.695,2.695,2.695,2.695,2.695,2.695;}
	.st39{font-size:25px;}
	.st40{fill:#FFFFFF;}
	
		.st41{display:none;opacity:0.55;fill:none;stroke:#878787;stroke-width:0.326;stroke-miterlimit:10;stroke-dasharray:10.0006,3,3,3,10,3;enable-background:new    ;}
	
		.st42{opacity:0.55;fill:#DFDFDF;stroke:#1D1D1B;stroke-width:1.0006;stroke-miterlimit:10;stroke-dasharray:10.0006,3,3,3,10,3;enable-background:new    ;}
	.st43{fill:#FFF7CC;}
	.st44{fill:#FFD500;}
	.st45{fill:none;stroke:#878787;stroke-width:0.2268;stroke-miterlimit:10;}
	.st46{fill:none;}
	.st47{fill:#575756;}
</style>
<g id="Untergeschoss" class="st0">
	<g id="Grundstück_2_" class="st1">
		<path class="st2" d="M276.1,16.3c-1.9,5.2-3.9,10.5-5.8,15.7l-11.4-3.1c-2.9-0.9-6.8-2-11.4-2.9c-11.6-2.1-20.6-1.5-22.7-1.3
			c-14,1.1-25.3,6-32.4,9.9L179.2,41c-5.7,2.1-10.3,4.2-13.7,5.9c-5.7,2.9-10.4,5.3-15.4,9.9c-3.9,3.6-6.6,7.2-8.3,9.7l-5.3,13
			c-8.6,20.3-17.3,40.5-25.9,60.8c-1,2.9-1.7,5.4-2.1,7.3c-0.7,3-1.3,5.9-1.3,9.7c0,1.9,0.2,3.4,0.3,4.5l2.5,13
			c1.2,9.5,2.3,16.9,3,22c0.5,3.3,0.9,6,1.2,9.9s0.7,8.8,0.2,15c-0.4,5.5-0.7,9.1-2.5,13.4c-2.2,5.2-5.4,8.5-6.9,10.1
			c-0.9,0.9-22.3,22.9-35.2,40.3c-5,6.7-5.3,8.2-13.9,20c-5.5,7.6-10.4,13.8-12.2,16.2c-2,2.6-3.8,4.8-5.1,6.4l-4.1,12.7
			c-3.9,13.4-6.9,21.2-9.1,25.9c-0.8,1.7-2.5,5.4-3.5,10.6c-0.6,3.3-0.6,5.3-0.8,9.7c0,0-0.2,3-1.3,14c-0.5,5.2-1.3,10.6-4,24.1
			c-3.5,18.2-5.4,27.9-8.9,41.6c-2.3,9.1-4.6,16.8-6.4,23v7.1l2.1,22.3l0.8,6.9l6.9,4.3l25.4,11.6l20.1,9.6l1.5,0.7l63.4-5.4
			l28.2-10.9l44.6-3.3l5.6,26.4l19.3,84.9l1.8,7.3l1.3,2.1l16.5,10.6h5.3l79.9-1h12.4l31.9,1.8l42.8,2.5l16,1.8l5.3,1.5l14.5,7.5
			l6.8-7.7l52-63.9l6.6-8.1l11.2-17.8l54.6-69.6l65-78.6l21.6-27.1l19.8-25.3c7-9.9,15.1-24.5,19.2-43.4c0.6-3,2.3-8.2,2.2-15.2
			c0-2.6-0.3-4.4-0.5-6.3c-0.4-3.6-1.4-10.9-4.8-18.3c-1.5-3.2-2.7-4.8-6.3-10.1c-6-8.8-11.7-17.9-17.7-26.8
			c-2.4-3.6-6.1-9.1-10.6-16l-7.4-7.3l-24.3-22.6l-27.4-24.4l-31.9-24.4l-53.7-42l-68-45.4L391.2,43l-37.5-14.9l-39.3-14.7L287.2,3
			l-6.4-1.5c-3.7,0.2-6.8,2.4-7.6,5.4c-0.7,2.6,0.5,4.8,0.8,5.4L276.1,16.3z"/>
	</g>
	<g id="Gebäude_1_">
		<path class="st3" d="M539.6,303.6l21.6-79.4l-26.3,3.3l-0.4,1.2l-8.8-2.5l-0.5,2.2l-8.8-2.4l2.1-7.6l-23.8,8l6.8-25.5l35.9-12
			c0,0,3.1-9.7,2.7-9.7s-74.5,24.9-74.5,24.9l-3.5,12.6l-49,16.5l-14.5,54.2l-38.8,22.2l-43.1-11.8l-22.4-38.6l0.4-1.5l5.8,1.5
			l2.9-11l-5.7-1.6l4-15.3l4.6,1.2l3.7-13.4l2.5,4.3l18.7-10.5l-2.6-4.5l20.7-12l-1.7-24.3l10.2-5.9l1.2-24.9l2.2-45.9l-33.1,19
			l-8.7-14.7l-13.8,7.8L289,78.9l-7.4,9.8c-5.5-4.1-27.5-19.6-58.6-17.2c-36.3,2.9-57.2,28.1-60.7,32.5l-5.1-3.6l-8.8,11.3
			l21.8,17.1L141,167.1l-12.1-8.9L119,171l41.2,32l-5.1,7.3l21.2,16.5l5.6-7.2l35.6,27.6l-3.6,13.8l4,1.5l0.9,4.6L89.9,283.7
			l7.5,57.1l123.5-15.7l-0.8-7.4l18.1-2.2l23.6,40.5l3.9-2l3.6,2.6l-88.4,115l45.6,35.3L312,396.3l-5.8-4.6l11.4-14.4l44.8,12.2
			l1.4-4.2l4.7-0.6l17,128.7l57.1-7.3l-16.2-123.7l-5.8,0.8l-0.6-3.7l43.7-24.9l3.1,5.4l7.3-4l-3.1-5.6l4.5-2.4l85.5,65.9l35.1-45.6
			l-73-56.5l8.5-10.7L539.6,303.6z"/>
		<polygon class="st4" points="496.4,321.3 510.8,302.8 509.8,301.9 523.9,250.2 498.6,243.4 480.8,310.2 495.7,321.9 		"/>
		<polygon class="st4" points="443.6,321.9 457.9,303.7 526.4,356.4 531.6,349.8 502.4,327.2 517.3,307.9 532.1,252.6 543.9,255.6 
			546,248.7 540.5,247.4 546.4,226.1 561.2,224.3 539.6,303.6 531.8,301.7 523.3,312.3 596.3,368.8 561.2,414.4 475.7,348.4 
			458.5,335.1 443.6,323.1 		"/>
		<polygon class="st4" points="525.7,226.3 525.2,228.5 522.4,238.5 493.5,230.6 474.2,301.2 441.5,292.4 455.7,240.1 464.5,242.6 
			472.2,213.7 500.6,204.3 494.7,226.5 518.5,218.5 516.4,226.1 		"/>
		<polygon class="st4" points="462.2,216.9 435.4,315.9 427.5,320.4 425.6,317 398.3,332.5 400.1,336 365.8,355.5 288.3,334.4 
			254.6,275.6 275.5,197.8 310.4,178.1 315.4,186.5 328.6,179.1 329.7,180.7 347.5,170.8 349.4,196.5 328.7,208.5 331.2,213.1 
			312.6,223.5 310.1,219.3 306.4,232.6 301.7,231.5 297.7,246.7 303.4,248.3 300.5,259.3 294.7,257.8 294.3,259.3 316.7,297.9 
			359.8,309.7 398.6,287.5 413.1,233.4 		"/>
		<polygon class="st4" points="451.2,362.3 432.1,328.5 394.5,350.1 409.1,375.3 419.6,369.5 424.1,377.7 		"/>
		<polygon class="st4" points="426.6,382.9 402.2,386.7 418.4,509.7 442.7,506.6 		"/>
		<polygon class="st4" points="432.1,328.5 443.6,321.9 458,333.4 454.4,338.3 463.9,355.1 451.2,362.3 		"/>
		<polyline class="st4" points="409.7,510.8 385.6,513.9 368.6,385.2 363.9,385.8 362.5,390 307.3,374.9 313.7,351.2 367.6,365.9 
			390.4,362.9 409.7,510.8 409.7,510.8 385.6,513.9 		"/>
		<polyline class="st4" points="226.5,507.4 180.9,472.1 269.3,357 265.7,354.4 261.9,356.4 230.8,302.6 252.2,290.8 282.3,342.9 
			300.7,357 285.6,376.7 306.2,392.2 312.1,396.8 226.5,507.4 		"/>
		<polygon class="st4" points="221,325.4 97.5,341.2 90,284 213.3,268.1 214.7,280.1 239.3,276.9 241.3,289.5 216.9,292.7 		"/>
		<polygon class="st4" points="248.3,265.2 218.9,269 218,262.8 214.1,261.3 217.7,247.5 182.2,219.9 176.5,227 155.3,210.5 
			160.4,203.2 119.2,171.2 129.1,158.4 141.2,167.3 170.4,129 148.6,112 157.4,100.6 269.5,187.2 263,212 245.7,207.2 199.8,171.6 
			195.8,177.3 242,212.9 260.9,218.2 		"/>
		<polygon class="st4" points="319.5,99.9 328.2,114.6 312.9,123.3 304.4,108.2 		"/>
		<polygon class="st4" points="359.1,141.5 339.6,108 361.3,95.6 		"/>
		<polygon class="st5" points="522.6,238.4 531.1,240.7 534.4,228.9 525.8,226.5 		"/>
		<polyline class="st5" points="522.6,238.4 534.4,228.9 534.9,227.6 546.4,226.1 540.5,247.4 535.7,246.1 536.8,242.2 531.1,240.7 
			525.8,226.5 		"/>
		<polyline class="st5" points="531.1,240.7 534.4,228.9 534.9,227.6 		"/>
		<path class="st4" d="M97.5,341.2"/>
		<polyline class="st4" points="354.4,168.4 343.2,148.9 359.2,139.8 357.9,166.4 354.4,168.4 		"/>
		<line class="st6" x1="538.3" y1="246.8" x2="541.4" y2="235.8"/>
		<polyline class="st6" points="544.2,234 539.2,232.7 536.8,242.2 		"/>
		<path class="st6" d="M532.7,234.9"/>
		<line class="st6" x1="537.3" y1="240.3" x2="531.7" y2="238.7"/>
		<polyline class="st6" points="534.6,239.6 535.9,234.5 533.2,233.7 538.7,235.2 		"/>
		<line class="st6" x1="543.6" y1="236.5" x2="538.6" y2="235.2"/>
		<polygon class="st5" points="237.9,266.5 239.3,276.9 214.7,280.1 213.3,268.1 218.7,267.4 218.9,269 		"/>
		<polyline class="st6" points="214.1,274.5 230.5,272.5 229.9,267.6 230.5,272.5 231.1,277.9 		"/>
		<path class="st3" d="M475.7,348.4"/>
		<path class="st6" d="M470.7,358.4"/>
		<g class="st1">
			<polygon class="st7" points="457.4,334.2 475.7,348.4 471.1,350.9 474.2,356.5 467,360.4 454.4,338.3 			"/>
			<line class="st7" x1="470.7" y1="358.4" x2="465.6" y2="348.4"/>
			<line class="st7" x1="461.3" y1="350.5" x2="471.6" y2="345.5"/>
		</g>
		<g class="st1">
			<polygon class="st8" points="460.9,321.4 470.9,329.1 463.3,338.8 457.4,334.2 458,333.4 443.6,321.9 450.3,313.4 			"/>
			<polyline class="st7" points="467.4,333.6 451.8,321.4 455.2,317.1 451.8,321.4 			"/>
			<line class="st7" x1="451.8" y1="321.4" x2="448.3" y2="325.6"/>
		</g>
		<g class="st1">
			<g>
				<polyline class="st9" points="300.7,357 290.9,349.5 282.9,360.1 292.5,367.6 300.7,357 282.9,360.1 				"/>
				<polyline class="st9" points="290.9,349.5 275.1,370 265.3,362.3 270.1,355.9 271.5,357 282.3,342.9 290.9,349.5 292.5,367.6 
									"/>
			</g>
			<polyline class="st9" points="276.7,350.2 281,353.4 285.3,356.7 			"/>
			<line class="st10" x1="281" y1="353.4" x2="270.8" y2="366.7"/>
		</g>
		<g class="st1">
			<polygon class="st9" points="450.3,313.4 457.9,303.7 467.7,311.3 460.3,321 			"/>
			<line class="st10" x1="450.3" y1="313.4" x2="467.7" y2="311.3"/>
			<line class="st10" x1="457.9" y1="303.7" x2="460.3" y2="321"/>
		</g>
		<g class="st1">
			<polygon class="st8" points="390.4,362.9 392.2,376 380.1,377.7 378.4,364.5 			"/>
			<polyline class="st8" points="392.2,376 378.4,364.5 367.6,365.9 370,384.8 368.5,385 369.5,391.7 381.7,390.1 378.4,364.5 			
				"/>
			<line class="st7" x1="390.4" y1="362.9" x2="380.1" y2="377.7"/>
			<polyline class="st7" points="376.1,390.8 374,373.9 368.7,374.5 374,373.9 379.6,373.2 			"/>
		</g>
		<g class="st1">
			<polygon class="st8" points="596.3,368.8 581.3,388.2 571.3,380.4 586.3,361.1 			"/>
			<polyline class="st8" points="576.1,384.1 587,370.1 582.2,366.3 587,370.1 592.2,374.2 			"/>
		</g>
		<g class="st1">
			<polygon class="st8" points="442.7,506.4 418.5,509.6 416.9,497 441.1,493.9 			"/>
			<polyline class="st8" points="417.6,503 435.2,500.7 434.5,494.7 435.2,500.7 436,507.3 			"/>
		</g>
		<g class="st1">
			<polygon class="st8" points="200,487 180.8,471.7 188.8,461.8 207.8,477 			"/>
			<polyline class="st8" points="185,466.6 198.8,477.6 202.7,472.8 198.8,477.6 194.7,482.8 			"/>
		</g>
		<g class="st1">
			<polygon class="st8" points="92.8,308.5 89.7,284.2 102.3,282.7 105.3,306.9 			"/>
			<polyline class="st8" points="96.2,283.4 98.5,301 104.5,300.3 98.5,301 91.9,301.8 			"/>
		</g>
		<g class="st1">
			<polygon class="st8" points="239.3,276.9 241.3,289.5 228.3,291.3 226.6,278.5 			"/>
			<line class="st7" x1="241.3" y1="289.5" x2="226.6" y2="278.5"/>
			<line class="st7" x1="228.3" y1="291.3" x2="239.3" y2="276.9"/>
		</g>
		<g class="st1">
			<polygon class="st7" points="347.1,155.7 334.2,163 336.7,167.6 349.7,160.2 			"/>
			<polyline class="st7" points="348.3,157.8 338.4,163.4 337.2,161.3 338.4,163.4 339.8,165.8 			"/>
		</g>
		<g class="st1">
			<polygon class="st8" points="349.7,160.4 354.3,168.3 346.1,173 341.8,164.7 			"/>
			<line class="st7" x1="354.2" y1="168.2" x2="341.9" y2="164.7"/>
			<line class="st7" x1="346.1" y1="173" x2="349.7" y2="160.4"/>
		</g>
		<path class="st11" d="M339.6,108l18.7,32.3L268.1,192l1.3-4.8l-107-82.9c3.6-4.4,25.6-30.5,63.1-32.5
			c29.3-1.5,50.1,12.7,56.1,17.2l7.4-9.8l25,43.3L339.6,108z"/>
		<circle class="st12" cx="235.3" cy="180.4" r="3.5"/>
		<rect x="242.1" y="175.2" class="st13" width="167.6" height="11.7"/>
		<text transform="matrix(1 0 0 1 242.1042 185.2002)" class="st14 st15 st16">Wasch- und Bügelraum</text>
		<circle class="st12" cx="233.2" cy="253.4" r="3.5"/>
		<rect x="240" y="248.2" class="st13" width="167.6" height="11.7"/>
		<text transform="matrix(1 0 0 1 239.9588 258.2139)" class="st14 st15 st16">Inhalation</text>
		<circle class="st12" cx="150.5" cy="305.3" r="3.5"/>
		<rect x="157.3" y="300.1" class="st13" width="167.6" height="11.7"/>
		<text transform="matrix(1 0 0 1 157.2763 310.1271)" class="st14 st15 st16">Reha-Kraftraum</text>
		<circle class="st12" cx="342" cy="371.6" r="3.5"/>
		<rect x="193.4" y="365.9" class="st13" width="140.6" height="11.7"/>
		<text transform="matrix(1 0 0 1 298.2105 375.9203)" class="st14 st15 st16">Labor</text>
		<circle class="st12" cx="433.9" cy="349.4" r="3.5"/>
		<rect x="285.3" y="343.7" class="st13" width="140.6" height="11.7"/>
		<text transform="matrix(1 0 0 1 372.9622 353.7231)" class="st14 st15 st16">Röntgen</text>
		<circle class="st12" cx="419.8" cy="423.9" r="3.5"/>
		<rect x="426.6" y="418.7" class="st13" width="167.6" height="11.7"/>
		<text transform="matrix(1 0 0 1 426.6277 428.6812)" class="st14 st15 st16">Ergotherapie</text>
	</g>
</g>
<g id="Erdgeschoss" class="st0">
	<g id="Grundstück_1_">
		<path class="st17" d="M276.1,15.3c-1.9,5.2-3.9,10.5-5.8,15.7l-11.4-3.1c-2.9-0.9-6.8-2-11.4-2.9c-11.6-2.1-20.6-1.5-22.7-1.3
			c-14,1.1-25.3,6-32.4,9.9L179.2,40c-5.7,2.1-10.3,4.2-13.7,5.9c-5.7,2.9-10.4,5.3-15.4,9.9c-3.9,3.6-6.6,7.2-8.3,9.7l-5.3,13
			c-8.6,20.3-17.3,40.5-25.9,60.8c-1,2.9-1.7,5.4-2.1,7.3c-0.7,3-1.3,5.9-1.3,9.7c0,1.9,0.2,3.4,0.3,4.5l2.5,13
			c1.2,9.5,2.3,16.9,3,22c0.5,3.3,0.9,6,1.2,9.9s0.7,8.8,0.2,15c-0.4,5.5-0.7,9.1-2.5,13.4c-2.2,5.2-5.4,8.5-6.9,10.1
			c-0.9,0.9-22.3,22.9-35.2,40.3c-5,6.7-5.3,8.2-13.9,20c-5.5,7.6-10.4,13.8-12.2,16.2c-2,2.6-3.8,4.8-5.1,6.4l-4.1,12.7
			c-3.9,13.4-6.9,21.2-9.1,25.9c-0.8,1.7-2.5,5.4-3.5,10.6c-0.6,3.3-0.6,5.3-0.8,9.7c0,0-0.2,3-1.3,14c-0.5,5.2-1.3,10.6-4,24.1
			c-3.5,18.2-5.4,27.9-8.9,41.6c-2.3,9.1-4.6,16.8-6.4,23v7.1l2.1,22.3l0.8,6.9l6.9,4.3l25.4,11.6l20.1,9.6l1.5,0.7l63.4-5.4
			l28.2-10.9l44.6-3.3l5.6,26.4l19.3,84.9l1.8,7.3l1.3,2.1l16.5,10.6h5.3l79.9-1h12.4l31.9,1.8l42.8,2.5l16,1.8l5.3,1.5l14.5,7.5
			l6.8-7.7l52-63.9l6.6-8.1l11.2-17.8l54.6-69.6l65-78.6l21.6-27.1l19.8-25.3c7-9.9,15.1-24.5,19.2-43.4c0.6-3,2.3-8.2,2.2-15.2
			c0-2.6-0.3-4.4-0.5-6.3c-0.4-3.6-1.4-10.9-4.8-18.3c-1.5-3.2-2.7-4.8-6.3-10.1c-6-8.8-11.7-17.9-17.7-26.8
			c-2.4-3.6-6.1-9.1-10.6-16l-7.4-7.3l-24.3-22.6l-27.4-24.4l-31.9-24.4l-53.7-42l-68-45.4L391.2,42l-37.5-14.9l-39.3-14.7L287.2,2
			l-6.4-1.5c-3.7,0.2-6.8,2.4-7.6,5.4c-0.7,2.6,0.5,4.8,0.8,5.4L276.1,15.3z"/>
	</g>
	<g id="Gebäude_2_">
		<path class="st3" d="M539.6,302.6l21.6-79.4l-26.3,3.3l-0.4,1.2l-8.8-2.5l-3.1,12.1l-8.9-2.3l4.8-17.6l-23.8,8l6.8-25.5l35.9-12
			c0,0,3.1-9.7,2.7-9.7s-74.5,24.9-74.5,24.9l-3.5,13.3l-26.3,8.9l-3,13.8l-22.5,3.3l-11.8,44l-38.8,22.2l-6.4-1.8l-0.7,2.8l-29.6-8
			l0.6-3l-6.9-1.9l-22.4-38.6l0.4-1.5l3-11.1l4.1-15.5l5,1.4l3.8-13.4l18-10.7l21.3-12l-1.8-24.3l9.7-5.9l1.2-24.9l2.2-45.9
			l-46.8,27.3l-8.7-15.2l-16.6-28.6l-7.4,9.8c-5.5-4.1-27.5-19.6-58.6-17.2c-36.3,2.9-57.2,28.1-60.7,32.5l-5.1-3.6l-8.8,11.3
			l21.8,17.1L141.1,166l0,0l-9.6,13.5l28.8,22.4l21.8,16.6l35.6,27.6l-3.6,13.8l4,1.5l0.9,4.6L90.1,282.6l7.5,57.1L221.1,324
			l-0.8-7.4l18.1-2.2l23.6,40.5l3.9-2l3.6,2.6l-88.4,115l45.6,35.3l85.5-110.6l-5.8-4.6l11.4-14.4l44.8,12.2l1.4-4.2l4.7-0.6
			l17,128.7l57.1-7.3l-16.2-123.7l-5.8,0.8l-0.6-3.7l43.7-24.9l7.3-4.2l4.5-2.4l85.5,65.9l35.1-45.6l-73-56.5l8.5-10.7L539.6,302.6z
			"/>
		<path class="st4" d="M97.5,340.2"/>
		<path class="st6" d="M532.7,233.9"/>
		<path class="st3" d="M475.7,347.4"/>
		<path class="st6" d="M470.7,357.4"/>
		<g class="st1">
			<polygon class="st8" points="596.3,367.8 581.3,387.2 571.3,379.4 586.3,360.1 			"/>
			<polyline class="st8" points="576.1,383.1 587,369.1 582.2,365.3 587,369.1 592.2,373.2 			"/>
		</g>
		<path class="st18" d="M242.1,165l-26.6-20.7l-3.7,4.6l-30.6-23.8l3.6-4.7l-22.3-17.3c3.6-4.4,25.6-30.5,63.1-32.5
			c29.3-1.5,50.1,12.7,56.1,17.2l7.4-9.8l26.1,45.1L242.1,165z"/>
		<polygon class="st4" points="359.8,308.7 364.6,346.3 397.5,327.5 401.8,335.2 436.2,315.4 442.6,291.2 473.5,299.8 472.7,302.7 
			543.9,357.9 538.9,364.6 486,324.3 479.1,333.2 471.6,327.5 463.3,337.8 561.2,413.4 596.3,367.8 523.3,311.3 531.8,300.7 
			539.6,302.6 561.7,222.9 546.4,225.1 541.6,242.4 521.5,237 522,235.5 514.7,233.1 518.5,217.5 494.7,225.5 501.5,200 537.4,188 
			540.1,178.4 465.6,203.2 462.2,215.9 435.9,225.5 432.9,239.3 410.4,242.5 398.6,286.5 		"/>
		<polygon class="st4" points="467.7,310.3 486,324.3 479.2,333.5 471.6,327.5 471.1,328.2 459.9,320.4 467.2,311 467.7,310.3 
			450.3,312.4 		"/>
		<g class="st1">
			<g>
				<polygon class="st8" points="460.9,320.4 470.9,328.1 463.3,337.8 457.4,333.2 458,332.4 443.6,320.9 450.3,312.4 				"/>
				<polyline class="st7" points="467.4,332.6 451.8,320.4 455.2,316.1 451.8,320.4 				"/>
				<line class="st7" x1="451.8" y1="320.4" x2="448.3" y2="324.6"/>
			</g>
			<g>
				<g>
					<polygon class="st9" points="450.3,312.4 457.9,302.7 467.7,310.3 460.3,320 					"/>
				</g>
				<line class="st10" x1="460.3" y1="320" x2="457.9" y2="302.7"/>
				<line class="st7" x1="467.7" y1="310.3" x2="450.3" y2="312.4"/>
			</g>
		</g>
		<polygon class="st4" points="411.1,352 417.5,362.7 421.9,360.4 429.4,373.8 420.2,379.1 420.7,382.8 426.6,382 442.7,505.6 
			418.5,508.7 400.9,372.3 403,370.9 400.9,357.7 		"/>
		<g class="st1">
			<polygon class="st8" points="442.7,505.4 418.5,508.6 416.9,496 441.1,492.9 			"/>
			<polyline class="st8" points="417.6,502 435.2,499.7 434.5,493.7 435.2,499.7 436,506.3 			"/>
		</g>
		<polygon class="st4" points="409.7,509.8 385.6,512.9 369.5,390.7 391.2,388 400.9,463.2 403.4,462.9 		"/>
		<polygon class="st4" points="393.9,387.4 392.4,375 380.3,376.7 381.7,389.1 		"/>
		<polygon class="st4" points="317.7,376.7 306.2,391.2 312.1,395.8 226.5,506.4 207,491.7 250.1,436.2 252.3,437.9 262.9,424.5 
			260.9,422.5 300.7,370.7 318.7,375.5 		"/>
		<polygon class="st4" points="286,375.5 253.7,417.4 251.5,415.8 241.2,428.9 243.4,430.5 208.2,476.3 188.8,460.8 265.3,361.3 
			275.5,368.4 282.9,359.1 292.1,366.3 292.7,366.8 		"/>
		<g class="st1">
			<polygon class="st8" points="200,486 180.8,470.7 188.8,460.8 207.8,476 			"/>
			<polyline class="st8" points="185,465.6 198.8,476.6 202.7,471.8 198.8,476.6 194.7,481.8 			"/>
		</g>
		<polygon class="st4" points="301.2,330.4 313.2,314.9 324.4,317.7 328.5,303.2 323,301.8 323.6,298.8 316.7,296.9 294.3,258.3 
			300.2,236.3 267.1,227.1 255.2,271.2 274.3,304.6 285.6,298.3 273.9,277.9 269.5,280.2 266.5,274.9 270.4,272.3 266.2,264.9 
			273.3,238.6 278.1,239.9 272.8,259.3 295.8,299.8 279.7,309 291.8,330.1 295.1,326 		"/>
		<polygon class="st4" points="238.3,314.9 235.4,308.5 256.3,296.6 282.3,341.9 271.5,356 270.1,354.9 269.3,356 265.7,353.4 
			261.9,355.4 		"/>
		<polygon class="st4" points="221,324.4 218.3,303 171.8,308.9 174.7,330.4 		"/>
		<polygon class="st4" points="102.3,281.7 106.5,315.4 156.8,308.9 152.5,275 		"/>
		<line class="st19" x1="167.5" y1="273" x2="170.2" y2="293.6"/>
		<line class="st19" x1="182.7" y1="271" x2="185.4" y2="291.5"/>
		<line class="st19" x1="198" y1="269" x2="200.7" y2="289.6"/>
		<line class="st19" x1="157.9" y1="316.7" x2="159.9" y2="332.3"/>
		<line class="st19" x1="142.5" y1="318.5" x2="144.6" y2="334.1"/>
		<line class="st19" x1="127.2" y1="320.5" x2="129.2" y2="336.2"/>
		<line class="st19" x1="111.9" y1="322.6" x2="114" y2="338.2"/>
		<polygon class="st20" points="216.1,291.9 214.7,279.1 226.3,277.6 228.1,290.4 		"/>
		<g class="st1">
			<polygon class="st8" points="92.8,307.5 89.7,283.2 102.3,281.7 105.3,305.9 			"/>
			<polyline class="st8" points="96.2,282.4 98.5,300 104.5,299.3 98.5,300 91.9,300.8 			"/>
		</g>
		<g class="st1">
			<g>
				<polyline class="st9" points="300.7,356 290.9,348.5 282.9,359.1 292.5,366.6 300.7,356 282.9,359.1 				"/>
				<polyline class="st9" points="292.5,366.6 290.9,348.5 282.3,341.9 271.5,356 270.1,354.9 265.3,361.3 275.1,369 290.9,348.5 
									"/>
			</g>
			<polyline class="st9" points="276.7,349.2 281,352.4 285.3,355.7 			"/>
			<line class="st10" x1="281" y1="352.4" x2="270.8" y2="365.7"/>
		</g>
		<polygon class="st4" points="248.4,254.5 253.5,236.5 212.3,204.7 210.2,207.6 198.4,198.8 201,195.7 188.9,185.9 195.9,177.4 
			253.9,222.2 257.9,208.4 250.3,202.9 265.9,183.2 215.5,144.3 211.8,149 181.2,125.2 184.7,120.5 157.4,99.6 148.6,111 170.4,128 
			131.6,179.8 217.7,246.5 214.1,260.3 218,261.8 218.9,268 237.9,265.5 241.3,252.6 		"/>
		<polygon class="st4" points="269,220.7 271.3,212.6 309.3,222.5 306.8,231.6 268.7,221.3 		"/>
		<path class="st4" d="M272.8,205.6l2.5-9.2c0,0,58.3-33.8,58.4-33.4c0.1,0.3,5.8,10.4,5.8,10.4l-49.7,28.5l-2,7.8L272.8,205.6z"/>
		<polygon class="st4" points="293.2,211 302.2,213.7 343.6,190.1 338.1,180.5 298.4,203.7 294.4,206.5 		"/>
		<polygon class="st4" points="262,163 276.2,188 350.4,145.4 336.2,120.4 		"/>
		<polygon class="st4" points="331.4,111.7 361.3,94.6 359.1,140.5 350.4,145.4 		"/>
		<g class="st1">
			<polygon class="st7" points="353.6,151.1 341,158.2 343.4,162.7 356.2,155.6 			"/>
			<polyline class="st7" points="354.8,153.2 345,158.7 343.8,156.7 345,158.7 346.3,161.2 			"/>
		</g>
		<g class="st1">
			<polygon class="st8" points="351.1,158.5 355.8,166.5 348.2,171.1 343.4,162.7 			"/>
			<line class="st7" x1="355.6" y1="166.4" x2="343.4" y2="162.7"/>
			<line class="st7" x1="348.2" y1="171.1" x2="351.1" y2="158.5"/>
		</g>
		<polyline class="st6" points="355.8,166.5 357.9,165.4 358.7,148.3 353.6,151.1 		"/>
		<g class="st1">
			<polygon class="st8" points="237.9,265.5 239.3,275.9 214.7,279.1 213.3,267.1 218.7,266.4 218.9,268 			"/>
			<polyline class="st7" points="214.1,273.5 230.5,271.5 229.9,266.6 230.5,271.5 231.1,276.9 			"/>
			<g>
				<polygon class="st8" points="239.3,275.9 241.3,288.5 228.3,290.3 226.6,277.5 				"/>
				<line class="st7" x1="226.6" y1="277.5" x2="241.3" y2="288.5"/>
				<line class="st7" x1="228.3" y1="290.3" x2="239.3" y2="275.9"/>
			</g>
		</g>
		<polygon class="st4" points="256.2,175.9 258,173.6 250.4,160.1 242.1,165 		"/>
		<g class="st1">
			<g>
				<g>
					<polyline class="st21" points="309.4,233 309.7,231.6 311.1,232 					"/>
					<line class="st22" x1="312.9" y1="232.5" x2="319.3" y2="234.3"/>
					<line class="st23" x1="320.3" y1="234.5" x2="330.3" y2="237.3"/>
					<polyline class="st21" points="331.2,237.5 332.6,237.9 332.2,239.3 					"/>
					<line class="st24" x1="331.8" y1="240.8" x2="330.3" y2="245.9"/>
					<polyline class="st21" points="330.1,246.7 329.7,248 328.4,247.7 					"/>
					<line class="st25" x1="326.6" y1="247.2" x2="320.2" y2="245.5"/>
					<line class="st26" x1="319.3" y1="245.2" x2="309.3" y2="242.5"/>
					<polyline class="st21" points="308.4,242.3 307,241.9 307.4,240.5 					"/>
					<line class="st27" x1="307.8" y1="239" x2="309.2" y2="233.8"/>
				</g>
			</g>
			<polygon class="st28" points="309.7,236.9 315.1,236.4 314.1,240.3 			"/>
			<circle class="st29" cx="324" cy="240.9" r="3.5"/>
		</g>
		<g class="st1">
			<g>
				<g>
					<polyline class="st30" points="342.9,254.8 343.2,253.5 344.6,253.8 					"/>
					<line class="st31" x1="346.1" y1="254.2" x2="351.4" y2="255.6"/>
					<line class="st32" x1="352.1" y1="255.8" x2="360.4" y2="258"/>
					<polyline class="st30" points="361.2,258.2 362.5,258.6 362.2,260 					"/>
					<line class="st33" x1="361.5" y1="262.6" x2="359.1" y2="271.7"/>
					<line class="st34" x1="358.7" y1="273" x2="354.9" y2="287.4"/>
					<polyline class="st30" points="354.6,288.7 354.2,290.1 352.9,289.7 					"/>
					<line class="st35" x1="351.3" y1="289.3" x2="346" y2="287.8"/>
					<line class="st36" x1="345.3" y1="287.6" x2="336.9" y2="285.4"/>
					<polyline class="st30" points="336.1,285.2 334.7,284.8 335.1,283.4 					"/>
					<line class="st37" x1="335.8" y1="280.8" x2="338.3" y2="271.7"/>
					<line class="st38" x1="338.6" y1="270.4" x2="342.5" y2="256.1"/>
				</g>
			</g>
			<polygon class="st28" points="344.9,285.6 344.2,278.4 349.4,279.8 			"/>
			<circle class="st29" cx="351.4" cy="262.2" r="3.5"/>
		</g>
		<path class="st17" d="M639,834.1l-67.7-54.2c0,0,335.9-385.1,337.9-381.8c2,3.3,54.8,62.7,54.8,62.7L639,834.1z"/>
		<polygon class="st17" points="785,430.4 822.7,465.6 557.8,771.3 531.7,749.5 		"/>
		<rect x="669.9" y="618.9" class="st13" width="183.2" height="62.3"/>
		<text transform="matrix(1 0 0 1 721.9603 636.8077)" class="st14 st15 st39">Parken</text>
		<polyline class="st6" points="536.4,226.3 548,182.7 537.9,186.4 		"/>
		<g class="st1">
			<polyline class="st8" points="525.8,225.5 531.1,239.7 536.8,241.2 535.7,245.1 540.5,246.4 546.4,225.1 534.9,226.6 
				534.4,227.9 522.6,237.4 			"/>
			<line class="st7" x1="538.3" y1="245.8" x2="541.4" y2="234.8"/>
			<polyline class="st7" points="544.2,233 539.2,231.7 536.8,241.2 			"/>
			<line class="st7" x1="537.3" y1="239.3" x2="531.7" y2="237.7"/>
			<polyline class="st7" points="534.6,238.6 535.9,233.5 533.2,232.7 538.7,234.2 			"/>
			<line class="st7" x1="543.6" y1="235.5" x2="538.6" y2="234.2"/>
			<polygon class="st8" points="522.6,237.4 531.1,239.7 534.4,227.9 525.8,225.5 			"/>
			<line class="st7" x1="534.4" y1="227.9" x2="522.6" y2="237.4"/>
			<line class="st7" x1="525.8" y1="225.5" x2="531.1" y2="239.7"/>
		</g>
		<path class="st6" d="M463.3,211.5l-30.2,10.1l-3.7,14.1l-22.6,2.8L395,283.1l-35.4,20.3l-4.5-1.2l0.8-2.7c-1-1.5-5.3-7.6-13.7-9.9
			c-8.4-2.3-15.2,0.7-16.9,1.5l-0.7,2.7l-4.5-1.1L300,257.3l6.8-25.8"/>
		<path class="st6" d="M285.1,82.7c-5.4-4-30.7-21.7-66.1-17.5c-36.9,4.4-57.7,29.5-61.7,34.5"/>
		<polyline class="st6" points="154.2,115.5 151.2,120 163.3,129.2 128.3,174.8 132.6,178.4 		"/>
		<g class="st1">
			<polygon class="st8" points="390.4,361.9 392.2,375 380.1,376.7 378.4,363.5 			"/>
			<polyline class="st8" points="378.4,363.5 381.7,389.1 369.5,390.7 368.5,384 370,383.8 367.6,364.9 378.4,363.5 392.2,375 			
				"/>
			<line class="st7" x1="380.1" y1="376.7" x2="390.4" y2="361.9"/>
			<polyline class="st7" points="376.1,389.8 374,372.9 368.7,373.5 374,372.9 379.6,372.2 			"/>
		</g>
		<polyline class="st6" points="346.8,308.2 343.2,322.9 341.4,322.4 		"/>
		<line class="st6" x1="337.1" y1="321" x2="332.8" y2="319.8"/>
		<line class="st6" x1="328.8" y1="318.8" x2="324.5" y2="317.7"/>
		<rect x="364.1" y="256.8" class="st13" width="105.3" height="13.1"/>
		<text transform="matrix(1 0 0 1 364.0764 266.7906)" class="st14 st15 st16">Haupteingang</text>
		<rect x="333.4" y="236.5" class="st13" width="93.9" height="13.2"/>
		<text transform="matrix(1 0 0 1 333.3838 246.5755)" class="st14 st15 st16">Nebeneingang</text>
		<circle class="st12" cx="237.1" cy="114.1" r="3.5"/>
		<rect x="245.2" y="108.3" class="st13" width="140.6" height="11.7"/>
		<text transform="matrix(1 0 0 1 245.2054 118.3223)" class="st14 st15 st16">Schwimmbad</text>
		<circle class="st12" cx="169.5" cy="161.2" r="3.5"/>
		<rect x="177.6" y="155.3" class="st13" width="140.6" height="11.7"/>
		<text transform="matrix(1 0 0 1 177.6252 165.3692)" class="st14 st15 st16">Turnhalle</text>
		<circle class="st12" cx="128.8" cy="292.3" r="3.5"/>
		<rect x="136.9" y="286.5" class="st13" width="140.6" height="37"/>
		<text transform="matrix(1 0 0 1 136.9259 296.4949)" class="st14 st15 st16">Krankengymnastik/</text>
		<text transform="matrix(1 0 0 1 136.9259 310.4949)" class="st14 st15 st16">Isokinetik</text>
		<circle class="st12" cx="197.9" cy="316.6" r="3.5"/>
		<rect x="206.1" y="310.8" class="st13" width="140.6" height="35.7"/>
		<text transform="matrix(1 0 0 1 206.0644 320.8015)" class="st14 st15 st16">Vortragsraum</text>
		<circle class="st12" cx="265.8" cy="337.9" r="3.5"/>
		<rect x="118.3" y="331.1" class="st13" width="140.6" height="41"/>
		<text transform="matrix(1 0 0 1 188.1294 341.1646)" class="st14 st15 st16">Anmeldung </text>
		<text transform="matrix(1 0 0 1 201.3294 355.1646)" class="st14 st15 st16">ambulant</text>
		<circle class="st12" cx="309" cy="304.7" r="3.5"/>
		<rect x="317.2" y="298.8" class="st13" width="140.6" height="35.7"/>
		<text transform="matrix(1 0 0 1 317.1742 308.8487)" class="st14 st15 st16">Anmeldung/</text>
		<text transform="matrix(1 0 0 1 317.1742 322.8487)" class="st14 st15 st16">Verwaltung</text>
		<circle class="st12" cx="251.9" cy="452.9" r="3.5"/>
		<rect x="260" y="447.1" class="st13" width="140.6" height="37"/>
		<text transform="matrix(1 0 0 1 260.0389 457.1077)" class="st14 st15 st16">Chefärzte/Oberärzte/</text>
		<text transform="matrix(1 0 0 1 260.0389 471.1077)" class="st14 st15 st16">Oberschwester</text>
		<circle class="st12" cx="421.1" cy="434.4" r="3.5"/>
		<rect x="429.3" y="428.6" class="st13" width="140.6" height="37"/>
		<text transform="matrix(1 0 0 1 429.2812 438.6248)" class="st14 st15 st16">Funktionsdiagnostik</text>
		<circle class="st12" cx="557.5" cy="372.3" r="3.5"/>
		<rect x="565.6" y="366.4" class="st13" width="140.6" height="37"/>
		<text transform="matrix(1 0 0 1 565.632 376.4657)" class="st14 st15 st16">Gesellschaftsraum</text>
		<circle class="st12" cx="523.8" cy="369.5" r="3.5"/>
		<rect x="376.3" y="362.7" class="st13" width="140.6" height="41"/>
		<text transform="matrix(1 0 0 1 456.2168 372.7349)" class="st14 st15 st16">Bibliothek</text>
		<circle class="st12" cx="421.1" cy="291.6" r="3.5"/>
		<rect x="429.2" y="285.7" class="st13" width="140.6" height="35.7"/>
		<text transform="matrix(1 0 0 1 429.2289 295.7556)" class="st14 st15 st16">Speisesaal</text>
		<circle class="st12" cx="436.8" cy="343.8" r="3.5"/>
		<rect x="289.3" y="337.1" class="st13" width="140.6" height="41"/>
		<text transform="matrix(1 0 0 1 373.1693 347.0829)" class="st14 st15 st16">Cafeteria</text>
	</g>
</g>
<g id="_x32_.Obergeschoss">
	<g id="Grundstück">
		<path class="st40" d="M277.1,16.3c-1.9,5.2-3.9,10.5-5.8,15.7l-11.4-3.1c-2.9-0.9-6.8-2-11.4-2.9c-11.6-2.1-20.6-1.5-22.7-1.3
			c-14,1.1-25.3,6-32.4,9.9L180.2,41c-5.7,2.1-10.3,4.2-13.7,5.9c-5.7,2.9-10.4,5.3-15.4,9.9c-3.9,3.6-6.6,7.2-8.3,9.7l-5.3,13
			c-8.6,20.3-17.3,40.5-25.9,60.8c-1,2.9-1.7,5.4-2.1,7.3c-0.7,3-1.3,5.9-1.3,9.7c0,1.9,0.2,3.4,0.3,4.5l2.5,13
			c1.2,9.5,2.3,16.9,3,22c0.5,3.3,0.9,6,1.2,9.9s0.7,8.8,0.2,15c-0.4,5.5-0.7,9.1-2.5,13.4c-2.2,5.2-5.4,8.5-6.9,10.1
			c-0.9,0.9-22.3,22.9-35.2,40.3c-5,6.7-5.3,8.2-13.9,20c-5.5,7.6-10.4,13.8-12.2,16.2c-2,2.6-3.8,4.8-5.1,6.4l-4.1,12.7
			c-3.9,13.4-6.9,21.2-9.1,25.9c-0.8,1.7-2.5,5.4-3.5,10.6c-0.6,3.3-0.6,5.3-0.8,9.7c0,0-0.2,3-1.3,14c-0.5,5.2-1.3,10.6-4,24.1
			c-3.5,18.2-5.4,27.9-8.9,41.6c-2.3,9.1-4.6,16.8-6.4,23v7.1l2.1,22.3l0.8,6.9l6.9,4.3l25.4,11.6l20.1,9.6l1.5,0.7l63.4-5.4
			l28.2-10.9l44.6-3.3l5.6,26.4l19.3,84.9l1.8,7.3l1.3,2.1l16.5,10.6h5.3l79.9-1h12.4l31.9,1.8l42.8,2.5l16,1.8l5.3,1.5l14.5,7.5
			l6.8-7.7l52-63.9l6.6-8.1l11.2-17.8l54.6-69.6l65-78.6l21.6-27.1l19.8-25.3c7-9.9,15.1-24.5,19.2-43.4c0.6-3,2.3-8.2,2.2-15.2
			c0-2.6-0.3-4.4-0.5-6.3c-0.4-3.6-1.4-10.9-4.8-18.3c-1.5-3.2-2.7-4.8-6.3-10.1c-6-8.8-11.7-17.9-17.7-26.8
			c-2.4-3.6-6.1-9.1-10.6-16l-7.4-7.3l-24.3-22.6l-27.4-24.4l-31.9-24.4l-53.7-42l-68-45.4L392.2,43l-37.5-14.9l-39.3-14.7L288.2,3
			l-6.4-1.5c-3.7,0.2-6.8,2.4-7.6,5.4c-0.7,2.6,0.5,4.8,0.8,5.4L277.1,16.3z"/>
		<path class="st41" d="M277.1,16.3c-1.9,5.2-3.9,10.5-5.8,15.7l-11.4-3.1c-2.9-0.9-6.8-2-11.4-2.9c-11.6-2.1-20.6-1.5-22.7-1.3
			c-14,1.1-25.3,6-32.4,9.9L180.2,41c-5.7,2.1-10.3,4.2-13.7,5.9c-5.7,2.9-10.4,5.3-15.4,9.9c-3.9,3.6-6.6,7.2-8.3,9.7l-5.3,13
			c-8.6,20.3-17.3,40.5-25.9,60.8c-1,2.9-1.7,5.4-2.1,7.3c-0.7,3-1.3,5.9-1.3,9.7c0,1.9,0.2,3.4,0.3,4.5l2.5,13
			c1.2,9.5,2.3,16.9,3,22c0.5,3.3,0.9,6,1.2,9.9s0.7,8.8,0.2,15c-0.4,5.5-0.7,9.1-2.5,13.4c-2.2,5.2-5.4,8.5-6.9,10.1
			c-0.9,0.9-22.3,22.9-35.2,40.3c-5,6.7-5.3,8.2-13.9,20c-5.5,7.6-10.4,13.8-12.2,16.2c-2,2.6-3.8,4.8-5.1,6.4l-4.1,12.7
			c-3.9,13.4-6.9,21.2-9.1,25.9c-0.8,1.7-2.5,5.4-3.5,10.6c-0.6,3.3-0.6,5.3-0.8,9.7c0,0-0.2,3-1.3,14c-0.5,5.2-1.3,10.6-4,24.1
			c-3.5,18.2-5.4,27.9-8.9,41.6c-2.3,9.1-4.6,16.8-6.4,23v7.1l2.1,22.3l0.8,6.9l6.9,4.3l25.4,11.6l20.1,9.6l1.5,0.7l63.4-5.4
			l28.2-10.9l44.6-3.3l5.6,26.4l19.3,84.9l1.8,7.3l1.3,2.1l16.5,10.6h5.3l79.9-1h12.4l31.9,1.8l42.8,2.5l16,1.8l5.3,1.5l14.5,7.5
			l6.8-7.7l52-63.9l6.6-8.1l11.2-17.8l54.6-69.6l65-78.6l21.6-27.1l19.8-25.3c7-9.9,15.1-24.5,19.2-43.4c0.6-3,2.3-8.2,2.2-15.2
			c0-2.6-0.3-4.4-0.5-6.3c-0.4-3.6-1.4-10.9-4.8-18.3c-1.5-3.2-2.7-4.8-6.3-10.1c-6-8.8-11.7-17.9-17.7-26.8
			c-2.4-3.6-6.1-9.1-10.6-16l-7.4-7.3l-24.3-22.6l-27.4-24.4l-31.9-24.4l-53.7-42l-68-45.4L392.2,43l-37.5-14.9l-39.3-14.7L288.2,3
			l-6.4-1.5c-3.7,0.2-6.8,2.4-7.6,5.4c-0.7,2.6,0.5,4.8,0.8,5.4L277.1,16.3z"/>
		<path class="st42" d="M277.1,16.3c-1.9,5.2-3.9,10.5-5.8,15.7l-11.4-3.1c-2.9-0.9-6.8-2-11.4-2.9c-11.6-2.1-20.6-1.5-22.7-1.3
			c-14,1.1-25.3,6-32.4,9.9L180.2,41c-5.7,2.1-10.3,4.2-13.7,5.9c-5.7,2.9-10.4,5.3-15.4,9.9c-3.9,3.6-6.6,7.2-8.3,9.7l-5.3,13
			c-8.6,20.3-17.3,40.5-25.9,60.8c-1,2.9-1.7,5.4-2.1,7.3c-0.7,3-1.3,5.9-1.3,9.7c0,1.9,0.2,3.4,0.3,4.5l2.5,13
			c1.2,9.5,2.3,16.9,3,22c0.5,3.3,0.9,6,1.2,9.9s0.7,8.8,0.2,15c-0.4,5.5-0.7,9.1-2.5,13.4c-2.2,5.2-5.4,8.5-6.9,10.1
			c-0.9,0.9-22.3,22.9-35.2,40.3c-5,6.7-5.3,8.2-13.9,20c-5.5,7.6-10.4,13.8-12.2,16.2c-2,2.6-3.8,4.8-5.1,6.4l-4.1,12.7
			c-3.9,13.4-6.9,21.2-9.1,25.9c-0.8,1.7-2.5,5.4-3.5,10.6c-0.6,3.3-0.6,5.3-0.8,9.7c0,0-0.2,3-1.3,14c-0.5,5.2-1.3,10.6-4,24.1
			c-3.5,18.2-5.4,27.9-8.9,41.6c-2.3,9.1-4.6,16.8-6.4,23v7.1l2.1,22.3l0.8,6.9l6.9,4.3l25.4,11.6l20.1,9.6l1.5,0.7l63.4-5.4
			l28.2-10.9l44.6-3.3l5.6,26.4l19.3,84.9l1.8,7.3l1.3,2.1l16.5,10.6h5.3l79.9-1h12.4l31.9,1.8l42.8,2.5l16,1.8l5.3,1.5l14.5,7.5
			l6.8-7.7l52-63.9l6.6-8.1l11.2-17.8l54.6-69.6l65-78.6l21.6-27.1l19.8-25.3c7-9.9,15.1-24.5,19.2-43.4c0.6-3,2.3-8.2,2.2-15.2
			c0-2.6-0.3-4.4-0.5-6.3c-0.4-3.6-1.4-10.9-4.8-18.3c-1.5-3.2-2.7-4.8-6.3-10.1c-6-8.8-11.7-17.9-17.7-26.8
			c-2.4-3.6-6.1-9.1-10.6-16l-7.4-7.3l-24.3-22.6l-27.4-24.4l-31.9-24.4l-53.7-42l-68-45.4L392.2,43l-37.5-14.9l-39.3-14.7L288.2,3
			l-6.4-1.5c-3.7,0.2-6.8,2.4-7.6,5.4c-0.7,2.6,0.5,4.8,0.8,5.4L277.1,16.3z"/>
	</g>
	<g id="Gebäude">
		<polygon class="st43" points="479.7,287.1 494.4,233.1 432.6,241.1 416.5,300.4 364,330.6 349.6,326.7 305.3,314.7 275.2,262.2 
			291.3,202.8 242,164.6 215.7,262.3 219.9,263.5 220.5,268.5 91.6,284.9 98.6,341.9 222.4,325.9 221.2,318.9 240,316.5 263.2,357 
			267.2,354.8 271.1,358 267,362.9 182.2,472.9 227.9,507.7 313.5,397.1 307.5,393.1 319,378.2 364,390.5 365.1,386.1 369.6,385.5 
			386.6,513.9 443.7,506.6 427.6,382.9 421.7,383.7 421.2,379.9 419.1,365.6 459.4,342.3 457.1,338.1 459.3,335.1 465.1,339.5 
			496.1,299.2 		"/>
		<path class="st44" d="M98.5,341.2"/>
		<path class="st7" d="M533.7,234.9"/>
		<path class="st43" d="M476.7,348.4"/>
		<path class="st7" d="M471.7,358.4"/>
		<polygon class="st44" points="468.7,311.3 480,320 472.6,329.6 460.9,321.4 468.2,312 468.7,311.3 451.3,313.4 		"/>
		<polygon class="st44" points="427.6,382.9 443.7,506.6 419.5,509.7 403.6,386.2 		"/>
		<g>
			<polygon class="st8" points="443.7,506.4 419.5,509.6 417.9,497 442.1,493.9 			"/>
			<polyline class="st8" points="418.6,503 436.2,500.7 435.5,494.7 436.2,500.7 437,507.3 			"/>
		</g>
		<polygon class="st44" points="410.7,510.8 386.6,513.9 370.5,391.7 394.9,388.4 		"/>
		<polygon class="st44" points="394.9,388.4 393.4,376 381.3,377.7 382.7,390.1 		"/>
		<polygon class="st44" points="313.2,397.2 227.7,508 208.4,493 251.1,437.2 261.9,423.5 293.7,382.6 		"/>
		<polygon class="st44" points="209.5,477.5 190.4,462.4 267.5,362.4 277.1,369.8 283.9,360.1 293.1,367.3 293.7,367.8 		"/>
		<g>
			<polygon class="st8" points="201.4,487.7 182.4,472.8 190.4,462.4 209.2,477.3 			"/>
			<polyline class="st7" points="186.4,467.4 199.9,477.8 203.7,473.1 199.9,477.8 195.7,483 			"/>
		</g>
		<polygon class="st44" points="240.3,316.2 234.6,306.1 255.4,294.3 283.9,343.7 272.2,358.6 271.6,358.3 270,357 267.2,354.8 
			263.2,357 240,316.5 		"/>
		<polygon class="st44" points="222.6,326 219.5,301.8 95.7,317.7 98.6,341.9 		"/>
		<polygon class="st44" points="103.4,283.3 106.4,307.4 217.3,293.2 229.3,291.8 228,280.5 216,282 214.4,268.9 		"/>
		<g>
			<polygon class="st8" points="94.7,308.9 91.8,285.1 103.7,283.5 106.9,307.3 			"/>
			<polyline class="st7" points="97.7,284.5 99.9,301.1 106,300.3 100,301.1 93.9,301.9 			"/>
		</g>
		<g>
			<g>
				<polyline class="st9" points="301.7,357 292.3,350.2 284.4,360.5 293.5,367.6 301.7,357 284.4,360.5 				"/>
				<polyline class="st9" points="293.5,367.6 292.3,350.2 283.9,343.7 272.2,358.6 271.1,358 267.7,362.4 277.1,369.8 292.3,350.2 
									"/>
			</g>
			<polyline class="st9" points="279,350 283.2,353.2 287.5,356.5 			"/>
			<line class="st10" x1="282.6" y1="352.9" x2="272.5" y2="366.1"/>
		</g>
		<path class="st7" d="M524.8,312.4l8.3-10.7l8.1,2.1l21.3-79.5l-24.6,3.5l11.9-43.4l-85.4,28.2l-30.3,10l-3.7,14.1l-22.6,2.8
			L396,284.1l-35.4,20.3l-4.5-1.2l0.8-2.7c-1-1.5-5.3-7.6-13.7-9.9c-8.4-2.3-15.2,0.7-16.9,1.5l-0.7,2.7l-4.5-1.1L301,258.3
			l6.8-25.8l3.7-13l39.9-22.6l-2.3-24.4l10.2-5.8l3.6-70.7L320,120.6l-26.1-45l-6.6,8.9l-1.2-0.8c-5.4-4-30.7-21.7-66.1-17.5
			c-36.9,4.4-57.7,29.5-61.7,34.5l-9,11.6l5.8,4.3l-3,4.5l12.1,9.2l-35,45.6l4.4,3.6l-1.2,1.9l86.9,66.6"/>
		<polygon class="st44" points="307.7,374.5 314.1,351.4 361.2,364.2 361.6,367.1 366.6,366.5 366.8,365.6 368.4,365.9 371.3,385.3 
			365.1,386.1 364,390.5 319,378.2 319,377.6 		"/>
		<g>
			<polygon class="st8" points="391.4,362.9 393.2,376 381.1,377.7 379.4,364.5 			"/>
			<polyline class="st8" points="379.4,364.5 382.7,390.1 370.5,391.7 369.5,385 371,384.8 368.6,365.9 379.4,364.5 393.2,376 			
				"/>
			<line class="st7" x1="381.1" y1="377.7" x2="391.4" y2="362.9"/>
			<polyline class="st7" points="377.1,390.8 375,373.9 369.7,374.5 375,373.9 380.6,373.2 			"/>
		</g>
		<polygon class="st44" points="395.9,350.5 440.5,324.9 445,322.5 460.1,333.8 457.1,338.1 459.4,342.3 418.4,365.8 417.9,365.6 
			407.8,371.3 		"/>
		<polygon class="st44" points="494.4,233.1 479.8,286.8 479.3,287.3 476.2,298.3 452.8,292.1 468.2,236.6 		"/>
		<polygon class="st44" points="458.9,237.7 439.9,307.6 436.7,306.9 428,318.5 429.4,321.4 375.5,352.3 373.7,349.5 359.2,351.4 
			358.3,354.7 298.3,338.3 298.9,335 287.4,326 284.6,327.7 253.5,273.7 256.3,271.8 255.6,265.2 248.9,266.1 270.4,186.6 
			291.3,202.8 275.2,262.2 305.3,314.7 364,330.6 416.5,300.4 432.6,241.1 		"/>
		<polygon class="st44" points="242,164.6 262.7,180.7 239.6,266.5 220.7,268.9 219.9,263.5 215.7,262.3 		"/>
		<path class="st7" d="M469.4,352.6c-2,1.3-48.3,27.3-48.3,27.3"/>
		<polyline class="st7" points="496.1,299.2 500.3,293.9 597.3,368.7 562.4,414.3 465.1,339.5 		"/>
		<polyline class="st45" points="356.1,168.6 351.3,160.2 343,165 347.9,173.5 349.2,172.5 		"/>
		<path class="st45" d="M320.2,120.7l-69.7,39.5c-0.6-1.2-8.1-16.9-18.1-17.1c-1.5,0-3.2,0.3-3.3,0.3c-7.2,1.5-11.2,7.4-12.6,9.6
			l-44.6,58.3"/>
		<polyline class="st45" points="158.4,100.6 180.8,118.2 133.6,179.4 		"/>
		<line class="st45" x1="171.9" y1="129.8" x2="155.2" y2="116.5"/>
		<path class="st45" d="M164.6,105.5c4.6-5.7,21.2-25.1,50.4-30.9c36.1-7.2,63.5,11.9,68,15.2l4.3-5.3"/>
		<line class="st45" x1="290.9" y1="79.7" x2="315.8" y2="123.1"/>
		<line class="st45" x1="215.7" y1="154" x2="176.2" y2="123.8"/>
		<polyline class="st7" points="233.7,195.5 227.2,193.8 225.2,201.2 223.1,208.8 229.5,210.4 		"/>
		<line class="st7" x1="231.5" y1="203" x2="225.2" y2="201.2"/>
		<polyline class="st7" points="289.2,210.6 295.7,212.4 291.5,227.5 285.1,225.7 		"/>
		<line class="st7" x1="293.6" y1="219.9" x2="287.2" y2="218.2"/>
		<polyline class="st7" points="281.1,240.2 287.6,242.1 283.6,257 277.1,255.3 		"/>
		<line class="st7" x1="285.6" y1="249.5" x2="279.2" y2="247.7"/>
		<polyline class="st7" points="278.7,268.4 284.5,265.1 292.4,278.8 286.6,282 		"/>
		<line class="st7" x1="288.3" y1="271.7" x2="282.5" y2="275.1"/>
		<polyline class="st7" points="294,295 299.9,291.7 307.6,305.1 301.8,308.5 		"/>
		<line class="st7" x1="303.7" y1="298.4" x2="297.9" y2="301.7"/>
		<polyline class="st7" points="312.2,316.5 313.9,310.2 329.1,314.2 327.3,320.7 		"/>
		<line class="st7" x1="321.6" y1="312.2" x2="319.8" y2="318.6"/>
		<polyline class="st7" points="341.9,324.6 343.6,318.2 358.8,322.5 357.1,328.7 		"/>
		<line class="st7" x1="351.2" y1="320.3" x2="349.5" y2="326.7"/>
		<path class="st7" d="M370.1,327c0-0.1-3.3-5.7-3.3-5.7l13.5-7.7l3.3,5.7"/>
		<line class="st7" x1="373.4" y1="317.4" x2="376.7" y2="323.2"/>
		<polyline class="st7" points="396.7,311.8 393.3,306 406.9,298.3 410.2,303.9 		"/>
		<line class="st7" x1="400.1" y1="302.2" x2="403.4" y2="307.9"/>
		<polyline class="st7" points="418.3,293.6 411.8,291.9 415.9,276.8 422.3,278.5 		"/>
		<line class="st7" x1="413.9" y1="284.2" x2="420.4" y2="286.1"/>
		<polyline class="st7" points="426.3,264 419.9,262.3 424,247.3 430.4,248.9 		"/>
		<line class="st7" x1="422" y1="254.6" x2="428.3" y2="256.4"/>
		<polyline class="st45" points="413.6,238.7 415.1,233.5 432.8,227.6 		"/>
		<polyline class="st7" points="492.7,239.4 499,241.2 495,256.4 488.6,254.6 		"/>
		<polyline class="st7" points="486,264 492.4,265.7 488.3,281 481.8,279.1 		"/>
		<line class="st7" x1="490.4" y1="273.3" x2="484" y2="271.5"/>
		<polyline class="st7" points="504.8,297.4 509.7,291.1 523.3,301.7 518.5,307.9 		"/>
		<polyline class="st7" points="529.1,316 534,309.9 547.6,320.4 542.9,326.6 		"/>
		<polyline class="st7" points="553.5,334.7 558.3,328.7 572.1,339.3 567.3,345.4 		"/>
		<polyline class="st7" points="577.8,353.6 582.6,347.5 596.3,358 591.5,364.2 		"/>
		<polyline class="st7" points="556.3,409.7 551.6,415.9 537.7,405.5 542.6,399.3 		"/>
		<polyline class="st7" points="532,391 527.2,397.2 513.5,386.5 518.3,380.5 		"/>
		<polyline class="st7" points="507.6,372.2 503,378.4 489.1,367.9 494.1,361.7 		"/>
		<polyline class="st7" points="483.3,353.4 478.6,359.6 464.8,349.1 469.5,343 		"/>
		<polyline class="st7" points="432.7,422.1 439.4,421.3 441.4,436.9 434.8,437.8 		"/>
		<line class="st7" x1="440.4" y1="429" x2="433.9" y2="430"/>
		<polyline class="st7" points="436.6,452.6 443.3,451.8 445.4,467.2 438.7,468.1 		"/>
		<line class="st7" x1="444.3" y1="459.4" x2="437.7" y2="460.4"/>
		<polyline class="st7" points="440.5,483 447.2,482.2 449.2,497.7 442.8,498.6 		"/>
		<polyline class="st7" points="383.5,490.4 376.8,491.3 378.8,506.6 385.3,505.8 		"/>
		<line class="st7" x1="377.8" y1="499" x2="384.3" y2="498.1"/>
		<polyline class="st7" points="379.5,459.9 372.9,460.8 374.8,476.2 381.5,475.4 		"/>
		<line class="st7" x1="373.9" y1="468.6" x2="380.4" y2="467.6"/>
		<polyline class="st7" points="375.5,429.6 368.9,430.4 371,445.8 377.6,445.1 		"/>
		<line class="st7" x1="370" y1="438.1" x2="376.5" y2="437.2"/>
		<polyline class="st7" points="371.5,399 365.1,399.9 367.1,415.4 373.5,414.6 		"/>
		<path class="st7" d="M366.1,407.8"/>
		<line class="st7" x1="366.1" y1="407.6" x2="372.6" y2="406.8"/>
		<polyline class="st7" points="307.7,404.6 313,408.7 302.1,422.6 296.8,418.7 		"/>
		<line class="st7" x1="307.6" y1="415.6" x2="302.2" y2="411.6"/>
		<polyline class="st7" points="286.4,432 291.8,436.1 281,450 275.7,445.9 		"/>
		<line class="st7" x1="286.4" y1="443" x2="281" y2="438.9"/>
		<polyline class="st7" points="265.3,459.4 270.6,463.4 259.9,477.3 254.6,473.2 		"/>
		<line class="st7" x1="265.3" y1="470.3" x2="259.9" y2="466.3"/>
		<polyline class="st7" points="244.2,486.6 249.5,490.7 238.9,504.6 233.6,500.5 		"/>
		<line class="st7" x1="244.2" y1="497.6" x2="238.8" y2="493.6"/>
		<polyline class="st7" points="187.9,465.1 182.7,461.2 193.3,447.4 198.6,451.4 		"/>
		<polyline class="st7" points="208.9,437.9 203.7,433.9 214.4,420 219.7,424.1 		"/>
		<line class="st7" x1="209.2" y1="427" x2="214.3" y2="430.9"/>
		<polyline class="st7" points="230.2,410.4 224.8,406.5 235.6,392.7 240.8,396.6 		"/>
		<line class="st7" x1="230.2" y1="399.5" x2="235.4" y2="403.6"/>
		<polyline class="st7" points="251.2,383.2 246,379.1 256.6,365.3 261.9,369.4 		"/>
		<line class="st7" x1="251.3" y1="372.2" x2="256.5" y2="376.3"/>
		<path class="st7" d="M214.1,327c0.1,0.2,0.9,6.5,0.9,6.5l-15.4,2.1l-0.9-6.5"/>
		<line class="st7" x1="207.2" y1="334.6" x2="206.3" y2="328.1"/>
		<polyline class="st7" points="183.8,331.4 184.5,337.7 169,339.8 168.1,333 		"/>
		<line class="st7" x1="176.8" y1="338.7" x2="175.9" y2="332.1"/>
		<path class="st7" d="M153.2,334.9c0.2,0.3,0.9,6.7,0.9,6.7l-15.4,1.9l-1-6.7"/>
		<line class="st7" x1="146.3" y1="342.6" x2="145.4" y2="336.1"/>
		<polyline class="st7" points="122.8,338.9 123.6,345.3 108.2,347.2 107.3,340.7 		"/>
		<line class="st7" x1="115.9" y1="346.3" x2="115" y2="339.8"/>
		<polyline class="st7" points="100,283.5 99,277.1 114.6,275.2 115.4,281.6 		"/>
		<polyline class="st7" points="130.4,279.6 129.6,273.2 145.1,271.2 145.9,277.7 		"/>
		<line class="st7" x1="137.2" y1="272.2" x2="138.1" y2="278.7"/>
		<polyline class="st7" points="160.9,275.9 160,269.2 175.6,267.3 176.3,273.7 		"/>
		<line class="st7" x1="167.7" y1="268.3" x2="168.6" y2="274.7"/>
		<polyline class="st7" points="191.2,271.8 190.5,265.3 205.9,263.5 206.8,269.8 		"/>
		<line class="st7" x1="198.2" y1="264.4" x2="199.1" y2="270.8"/>
		<g>
			<circle class="st8" cx="469.7" cy="231.6" r="4.2"/>
		</g>
		<polygon class="st8" points="463.4,237.1 462.6,232.3 469.7,231.6 470.3,236.1 		"/>
		<g>
			<circle class="st8" cx="261.3" cy="173.7" r="4.2"/>
		</g>
		<polygon class="st8" points="266.7,183.7 269.8,180 261.3,173.7 258.5,177.3 		"/>
		<g>
			<polyline class="st7" points="428.7,391.7 435.4,390.9 437.5,406.4 430.8,407.2 			"/>
			<line class="st7" x1="436.5" y1="398.5" x2="429.9" y2="399.5"/>
		</g>
		<circle class="st29" cx="258.3" cy="325.4" r="3.5"/>
		<rect x="266.4" y="319.6" class="st46" width="175" height="33.5"/>
		<text transform="matrix(1 0 0 1 266.4366 329.6203)" class="st47 st15 st16">Schwestern-Zentralstation</text>
		<circle class="st29" cx="338.5" cy="371.7" r="3.5"/>
		<rect x="346.6" y="365.8" class="st46" width="175" height="33.5"/>
		<text transform="matrix(1 0 0 1 346.6094 375.8505)" class="st47 st15 st16">Schwestern-Zentralstation</text>
		<g>
			<polygon class="st8" points="239.6,266.5 241.1,278.8 216,282 214.4,269 220.5,268.5 220.5,268.9 			"/>
			<polyline class="st7" points="215.4,275.8 231.6,273.8 230.9,267.6 231.5,272.5 232.3,279.8 			"/>
			<g>
				<polygon class="st8" points="241.1,278.8 242.5,290 229.3,291.6 227.9,280.5 				"/>
				<line class="st7" x1="228" y1="280.6" x2="242.5" y2="290"/>
				<line class="st7" x1="229.3" y1="291.6" x2="241" y2="278.9"/>
			</g>
		</g>
		<g>
			<g>
				<polygon class="st8" points="461.9,321.4 472.6,329.6 465.1,339.5 458.4,334.2 459,333.4 444.6,321.9 451.3,313.4 				"/>
				<polyline class="st7" points="469.1,334.1 452.8,321.4 456.2,317.1 452.8,321.4 				"/>
				<line class="st7" x1="452.8" y1="321.4" x2="449.3" y2="325.6"/>
			</g>
			<g>
				<g>
					<polygon class="st9" points="451.3,313.4 458.9,303.7 468.7,311.3 461.3,321 					"/>
				</g>
				<line class="st10" x1="461.3" y1="321" x2="458.9" y2="303.7"/>
				<line class="st7" x1="468.7" y1="311.3" x2="451.3" y2="313.4"/>
			</g>
		</g>
	</g>
</g>
</svg>
