<?xml version="1.0" encoding="utf-8"?>
<!-- Generator: Adobe Illustrator 23.0.0, SVG Export Plug-In . SVG Version: 6.00 Build 0)  -->
<svg version="1.1" id="Untergeschoss" xmlns="http://www.w3.org/2000/svg" xmlns:xlink="http://www.w3.org/1999/xlink" x="0px"
	 y="0px" viewBox="0 0 975 989.3" style="enable-background:new 0 0 975 989.3;" xml:space="preserve">
<style type="text/css">
	.st0{fill:#878787;}
	.st1{fill:none;stroke:#878787;stroke-miterlimit:10;}
	.st2{fill:#C6C6C6;stroke:#1D1D1B;stroke-miterlimit:10;stroke-dasharray:10,3,3,3,10,3;}
	.st3{fill:#FFF7CC;}
	.st4{fill:#FFD500;}
	.st5{fill:#575756;}
	.st6{font-family:'ArialMT';}
	.st7{font-size:25px;}
	.st8{fill:#FFF7CC;stroke:#878787;stroke-width:0.5;stroke-miterlimit:10;}
	.st9{fill:none;stroke:#878787;stroke-width:0.5;stroke-miterlimit:10;}
	.st10{fill:none;stroke:#878787;stroke-width:0.33;stroke-miterlimit:10;}
	.st11{fill:none;stroke:#000000;stroke-width:0.2;stroke-miterlimit:10;stroke-dasharray:3,3,3,3,3,3;}
	.st12{fill:#FFFFFF;stroke:#9D9D9C;stroke-miterlimit:10;}
	.st13{font-size:14px;}
</style>
<symbol  id="Pfeil_7" viewBox="-18.6 -10.3 37.1 20.6">
	<polygon class="st0" points="-10.3,6.1 -18.6,10.3 -12.1,3.7 -11.6,4.4 8.5,-10.3 9.2,-9.4 -10.9,5.3 	"/>
	<line class="st1" x1="8.5" y1="-9.4" x2="18.2" y2="3.2"/>
</symbol>
<title>WZK_Bad_Füssing_200227_UG</title>
<path class="st2" d="M405.7,988.5c0,0,23.9-28.9,29.9-36.2l35.9-31.3l41.6-38.2c0,0,80.5-52.5,82.1-54.2s23-15,23-15l107.4-46.9
	l25.9-12.3c0,0,97.7-59.8,104.7-66.5s79.5-73.2,79.5-73.2l20.3-19l18.2-30.6l-199.9-267l-150.1-200c0,0-7.5-8.9,2.7-20L563.1,0.7
	L0,418.9l134.3,199.2l119.1,180.2L405.7,988.5z"/>
<polyline class="st3" points="672.6,498.8 779.4,477.4 699.5,368.6 686.5,378.1 633.9,306.5 604.5,328.1 596.3,334.2 579.8,311.7 
	447.4,409.1 367.2,300.2 493.1,207.9 423.3,112.4 359.4,159.1 360,160 297.8,205.5 203.3,274.6 183,271.3 180.1,289.5 199.2,292.4 
	214.2,313.2 132.1,373.4 150.3,398 143.4,403 228.6,519.7 235.7,514.3 253.6,539.4 424.1,413.9 432.1,425.1 458.2,461 439.5,474.6 
	442.7,479.1 310.1,576.2 330.2,603.6 341.7,619.8 341.6,619.9 323.8,632.8 318.7,625.8 242.2,682 267.4,716.4 274.3,725.2 
	299.9,759.3 414,675.7 388.7,641.2 388.2,641.6 376.4,625.9 433.4,583.9 451.1,571 488.5,543.7 536.7,609.5 "/>
<polygon class="st4" points="273.9,725.5 299.2,760 414,675.7 388.6,641.2 "/>
<polygon class="st4" points="337.3,612 242.2,682 267.4,716.4 362.7,646.6 "/>
<polyline class="st4" points="430.9,543.5 523.9,475.5 517.5,466.5 499,480 474,445.5 512.3,417.1 548.8,390.5 606.1,348.9 
	660.4,420.9 621,449.7 "/>
<polyline class="st4" points="660.4,420.9 663.8,425.5 685.1,454.6 732.5,420 723.7,408.4 684.8,436.9 670.9,417 712.6,386.2 
	779.4,477.4 720.6,520.5 757.1,570.7 674.4,630.3 625.2,562.5 619.2,567 610.8,555 594.9,566.7 596.3,568.6 538.2,611.3 
	536.8,609.4 536.7,609.5 488.5,543.7 376.4,625.9 356,598.3 430.9,543.5 "/>
<polygon class="st4" points="689.3,381.8 633.9,306.5 605.5,327.5 660.5,403.1 "/>
<path class="st4" d="M430.9,543.5"/>
<polygon class="st4" points="310.1,576.2 330.2,603.6 462.8,506.5 442.7,479.1 "/>
<polygon class="st4" points="447.1,409.3 579.8,311.7 592,328.2 572.2,342.8 580.3,353.7 467,436.8 "/>
<polyline class="st4" points="322.9,318.4 335.1,335.2 357.3,319.4 345.1,302.5 "/>
<polygon class="st4" points="310.1,298.5 329.1,284.9 297.4,241.1 288,239.8 205.3,300.9 214.2,313.2 270.7,270.8 288.1,295.1 
	300.7,285.8 "/>
<polygon class="st4" points="297.8,205.1 326.3,243.9 388.9,197.9 394.6,205.4 331.7,251.4 367.2,299.9 493.1,207.6 423.3,112.1 "/>
<polygon class="st2" points="132.1,373.4 150.3,398 143.4,403 228.6,519.7 235.7,514.3 253.6,539.4 424.1,413.9 383.3,358.7 
	363,373.7 322.9,318.4 343.1,304 329.1,284.9 310.1,298.5 300.7,285.8 288.1,295.1 270.7,270.8 "/>
<text transform="matrix(1 0 0 1 265.74 408.73)" class="st5 st6 st7">P</text>
<polygon class="st8" points="347.1,605 337.3,612 362.7,646.6 371.4,640.1 366.6,633.8 364.5,635.3 348.8,614.1 352,611.7 "/>
<polygon class="st8" points="369.2,641.7 362.7,646.6 358,640.2 364.5,635.3 "/>
<path class="st9" d="M348.8,614.1"/>
<polyline class="st9" points="343.9,607.3 348.8,614.1 342.3,618.8 "/>
<polygon class="st8" points="462.8,506.5 481.6,492.6 474.5,483.2 464.1,490.8 454.5,477.5 464.8,470 458.3,460.9 439.5,474.6 "/>
<line class="st9" x1="464.8" y1="470" x2="474.5" y2="483.2"/>
<line class="st10" x1="454.5" y1="477.7" x2="474.6" y2="483.2"/>
<line class="st10" x1="464.9" y1="470.2" x2="464.2" y2="490.7"/>
<polyline class="st9" points="446.1,483.7 454.5,477.5 448.1,468.3 "/>
<polyline class="st8" points="471.1,500.4 464.1,490.8 455.7,496.9 "/>
<polygon class="st8" points="348.3,349.8 368.1,335.4 377.7,349.1 357.9,363.3 "/>
<polyline class="st8" points="373,342.4 358.8,352.9 363.4,359.1 357.6,351.2 353.7,345.8 "/>
<polygon class="st8" points="344.7,335.8 350.8,344 365.9,333 359.8,324.7 "/>
<line class="st10" x1="344.7" y1="335.8" x2="365.9" y2="333"/>
<line class="st10" x1="359.8" y1="324.7" x2="350.8" y2="344"/>
<polygon class="st8" points="382.5,633.7 390.2,628.2 412.3,658 404.4,663.7 "/>
<line class="st9" x1="388.2" y1="641.6" x2="395.9" y2="635.9"/>
<polygon class="st8" points="642.8,318.6 653.9,310.6 665.1,326.4 654.2,334.2 "/>
<polyline class="st8" points="649.5,327.8 654.5,324.3 659,330.5 "/>
<line class="st9" x1="654.5" y1="324.3" x2="660.4" y2="320"/>
<polygon class="st8" points="591.1,327.2 596.3,334.2 621.4,315.7 616.4,308.6 "/>
<path class="st8" d="M600.3,320.3"/>
<path class="st8" d="M605.5,327.5"/>
<line class="st9" x1="605.5" y1="327.5" x2="600.3" y2="320.3"/>
<polygon class="st8" points="274.3,725.2 260,706 252.4,711.5 266.5,730.7 "/>
<polygon class="st8" points="693.6,400.4 685.3,406.5 696.1,421.6 704.5,415.6 "/>
<line class="st10" x1="693.6" y1="400.4" x2="696.1" y2="421.6"/>
<line class="st10" x1="704.5" y1="415.6" x2="685.3" y2="406.5"/>
<polygon class="st8" points="457.2,219.3 462.4,226.3 487.5,207.8 482.4,200.7 "/>
<line class="st9" x1="471.5" y1="219.6" x2="466.4" y2="212.4"/>
<polyline class="st8" points="677.8,411.9 688.2,426.1 694.5,421.5 686.6,427.3 681.2,431.2 "/>
<polygon class="st8" points="685.2,436.7 670.8,416.8 677.9,411.8 684.5,407.2 698.7,427 692,431.8 "/>
<polyline class="st9" points="677.9,411.8 688.2,426.1 688,426.3 681.2,431.2 694.5,421.5 "/>
<polygon class="st8" points="642.8,318.6 653.9,310.6 665.1,326.4 654.2,334.2 "/>
<polyline class="st8" points="649.5,327.8 654.5,324.3 659,330.5 "/>
<line class="st9" x1="654.5" y1="324.3" x2="660.4" y2="320"/>
<polygon class="st8" points="477.6,450.3 482.5,457 490.2,451.3 485.3,444.6 "/>
<line class="st10" x1="485.3" y1="444.6" x2="482.5" y2="457"/>
<line class="st10" x1="477.6" y1="450.3" x2="490.2" y2="451.3"/>
<polygon class="st8" points="484.6,459.8 489.5,466.5 497.1,460.9 492.2,454.2 "/>
<line class="st10" x1="492.2" y1="454.2" x2="489.5" y2="466.5"/>
<line class="st10" x1="484.6" y1="459.8" x2="497.1" y2="460.9"/>
<polygon class="st8" points="491.4,469.4 497.5,477.6 512.5,466.6 506.5,458.3 "/>
<line class="st10" x1="491.4" y1="469.4" x2="512.5" y2="466.6"/>
<line class="st10" x1="506.4" y1="458.3" x2="497.5" y2="477.6"/>
<path class="st11" d="M388.9,198.3l-19.2-26.4l10-7.1c0,0,28.9,27.9,44.1,60.5l-9.7,7.1L388.9,198.3z"/>
<polyline class="st10" points="337.3,612 318.7,625.8 242.2,682 267.4,716.4 274.3,725.2 299.9,759.3 414,675.7 388.7,641.2 
	388.2,641.6 376.4,625.9 433.4,583.9 451.1,571 488.5,543.7 536.7,609.5 545.3,621.1 619.2,567 672.9,639.5 765.8,572.2 
	725.3,517.1 779.4,477.4 699.5,368.6 686.5,378.1 633.9,306.5 604.5,328.1 596.3,334.2 579.8,311.7 447.4,409.1 367.2,300.2 
	493.1,207.9 423.3,112.4 359.4,159.1 360,160 297.8,205.5 203.3,274.6 183,271.3 180.1,289.5 199.2,292.4 214.2,313.2 132.1,373.4 
	150.3,398 143.4,403 228.6,519.7 235.7,514.3 253.6,539.4 424.1,413.9 432.1,425.1 458.2,461 439.5,474.6 442.7,479.1 310.1,576.2 
	330.2,603.6 336.5,612.5 "/>
<polyline class="st8" points="386.9,211.5 394,206.3 406.4,223.2 391.9,234 383.9,239.9 371.3,222.7 378.6,217.5 "/>
<polygon class="st8" points="378.6,217.5 386.9,211.5 394.3,221.6 386,227.5 "/>
<line class="st9" x1="385.2" y1="226.5" x2="378" y2="231.8"/>
<line class="st9" x1="387.9" y1="226.1" x2="393" y2="233.2"/>
<polygon class="st8" points="394.3,221.6 401.4,216.4 406.4,223.2 397.5,229.7 392.5,222.8 "/>
<line class="st9" x1="390.6" y1="229.6" x2="395.1" y2="226.3"/>
<circle class="st12" cx="425.3" cy="177.7" r="3.5"/>
<text transform="matrix(1 0 0 1 433.45 181.87)" class="st5 st6 st13">T1 GGS (KG-Gerätetraining)</text>
<circle class="st12" cx="363.2" cy="253.1" r="3.5"/>
<text transform="matrix(1 0 0 1 371.37 257.25)" class="st5 st6 st13">W</text>
<text transform="matrix(1 0 0 1 384.06 257.25)" class="st5 st6 st13">asch- und Bügelraum</text>
<circle class="st12" cx="175" cy="279" r="3.5"/>
<text transform="matrix(1 0 0 1 8.28 283.15)" class="st5 st6 st13">Station 34/ Europatherme</text>
<circle class="st12" cx="273.2" cy="428.2" r="3.5"/>
<text transform="matrix(1 0 0 1 281.36 432.39)" class="st5 st6 st13">T</text>
<text transform="matrix(1 0 0 1 289.39 432.39)" class="st5 st6 st13">iefgarage</text>
<circle class="st12" cx="405.7" cy="553.3" r="3.5"/>
<text transform="matrix(1 0 0 1 413.83 557.42)" class="st5 st6 st13">T2</text>
<circle class="st12" cx="458.9" cy="546.2" r="3.5"/>
<text transform="matrix(1 0 0 1 467.03 550.33)" class="st5 st6 st13">Gruppengymnastik</text>
<circle class="st12" cx="417.6" cy="574.8" r="3.5"/>
<text transform="matrix(1 0 0 1 425.8 578.93)" class="st5 st6 st13">Kleingruppe</text>
<circle class="st12" cx="385.7" cy="597.4" r="3.5"/>
<text transform="matrix(1 0 0 1 393.87 601.54)" class="st5 st6 st13">Besinnungsraum</text>
<circle class="st12" cx="351.1" cy="565.7" r="3.5"/>
<text transform="matrix(1 0 0 1 260.22 569.84)" class="st5 st6 st13">MBOR-Raum</text>
<circle class="st12" cx="381.7" cy="545" r="3.5"/>
<text transform="matrix(1 0 0 1 299.48 549.22)" class="st5 st6 st13">PMR-Raum</text>
<use xlink:href="#Pfeil_7"  width="37.1" height="20.6" x="-18.6" y="-10.3" transform="matrix(1.0001 0 0 1.0001 287.44 231.105)" style="overflow:visible;"/>
</svg>
