<svg xmlns="http://www.w3.org/2000/svg" viewBox="0 0 708.66 757.33"><defs><style>.cls-1{fill:#dfdfdf;}.cls-10,.cls-11,.cls-12,.cls-13,.cls-14,.cls-2,.cls-27,.cls-3,.cls-4,.cls-5,.cls-6,.cls-7,.cls-8,.cls-9{fill:none;}.cls-10,.cls-11,.cls-12,.cls-13,.cls-14,.cls-2,.cls-3,.cls-4,.cls-5,.cls-6,.cls-7,.cls-8,.cls-9{stroke:#1d1d1b;}.cls-10,.cls-11,.cls-12,.cls-13,.cls-14,.cls-2,.cls-22,.cls-27,.cls-3,.cls-4,.cls-5,.cls-6,.cls-7,.cls-8,.cls-9{stroke-miterlimit:10;}.cls-3{stroke-dasharray:3.01 3.01 10.04 3.01;}.cls-4{stroke-dasharray:10.04 3.01 3.01 3.01 10.04 3.01;}.cls-5{stroke-dasharray:3.15 3.15 10.5 3.15;}.cls-6{stroke-dasharray:10.5 3.15 3.15 3.15 10.5 3.15;}.cls-7{stroke-dasharray:1.46 1.46 4.87 1.46;}.cls-8{stroke-dasharray:3.06 3.06 10.21 3.06;}.cls-9{stroke-dasharray:10.21 3.06 3.06 3.06 10.21 3.06;}.cls-10{stroke-dasharray:3 3 10.01 3;}.cls-11{stroke-dasharray:10.01 3 3 3 10.01 3;}.cls-12{stroke-dasharray:0.84 0.84 2.79 0.84;}.cls-13{stroke-dasharray:3.05 3.05 10.16 3.05;}.cls-14{stroke-dasharray:10.16 3.05 3.05 3.05 10.16 3.05;}.cls-15{fill:#ffd500;}.cls-16{fill:#fff7cc;}.cls-17{fill:#77aad4;}.cls-18{fill:#878787;}.cls-19,.cls-22{fill:#fff;}.cls-20{fill:#e30613;}.cls-21{font-size:25px;}.cls-21,.cls-23{fill:#575756;font-family:ArialMT, Arial;}.cls-22{stroke:#9d9d9c;}.cls-23{font-size:14px;}.cls-24{letter-spacing:-0.06em;}.cls-25{letter-spacing:-0.11em;}.cls-26{letter-spacing:-0.04em;}.cls-27{stroke:#dadada;stroke-width:0.5px;}</style></defs><title>map_saulgau_svg</title><g id="Ebene_1" data-name="Ebene 1"><g id="Grundstück"><path class="cls-1" d="M254.17,733.33l-100-136,14.62-441.16L345.45,35.5l48.67-24,11.33,17.33s17.33-10.67,37.33,20.67,131.33,192,131.33,192l6,13.33L468.79,449.5l10,12.67-71.33,124-39.33,52-52.67,54.67Z"/><polyline class="cls-2" points="258.34 730.58 254.17 733.33 251.21 729.3"/><line class="cls-3" x1="249.42" y1="726.88" x2="239.02" y2="712.73"/><polyline class="cls-4" points="238.13 711.51 154.17 597.33 168.57 162.67"/><polyline class="cls-2" points="168.62 161.16 168.79 156.17 172.91 153.35"/><line class="cls-5" x1="175.51" y1="151.57" x2="190.68" y2="141.21"/><polyline class="cls-6" points="191.98 140.32 345.45 35.5 388.22 14.41"/><polyline class="cls-2" points="389.63 13.71 394.12 11.5 396.86 15.69"/><line class="cls-7" x1="397.65" y1="16.91" x2="402.32" y2="24.04"/><path class="cls-2" d="M402.72,24.65l2.74,4.18a13.81,13.81,0,0,1,4.71-1.53"/><path class="cls-8" d="M413.23,27.08c4.19,0,9.81,1.49,16.21,6.7"/><path class="cls-9" d="M430.61,34.77A67.89,67.89,0,0,1,442.79,49.5c20,31.33,131.33,192,131.33,192l3.31,7.36"/><polyline class="cls-2" points="578.07 250.27 580.12 254.83 577.64 259.17"/><line class="cls-10" x1="576.15" y1="261.78" x2="567.45" y2="276.99"/><line class="cls-11" x1="566.7" y1="278.29" x2="472.01" y2="443.86"/><polyline class="cls-2" points="471.27 445.16 468.79 449.5 471.88 453.42"/><line class="cls-12" x1="472.4" y1="454.08" x2="475.43" y2="457.91"/><polyline class="cls-2" points="475.69 458.24 478.79 462.17 476.29 466.5"/><line class="cls-13" x1="474.77" y1="469.14" x2="465.9" y2="484.56"/><polyline class="cls-14" points="465.14 485.88 407.45 586.17 368.12 638.17 315.45 692.83 259.61 729.74"/></g></g><g id="Ebene_2" data-name="Ebene 2"><path class="cls-15" d="M437.9,276.22l-.06.69-.38,4.74-27.74-2.23.39-4.91-5.89-.47-.39,4.91-28.06-2.25h0l.43-5.34-6.65-.53-8.72-.7-3.26,44.16,3.35.26-.83,10.33L349.67,324l.25-3.16-47.05-3.77-.25,3.44-8-.67-1.4-2.37,6-5-6-7.17-6.17,4.83-1.65-2.51.54-7.15,3.27.2.57-7.41-36.68-2.93-32.72-2.66-4.71,58.89,3.71.34-.33,4.28-31.5-2.67-6,76.17,2.81.25h0l-.74,9.27-2.94-.24-6.21,79.3,4.23.37,11.88,1-.36,4.43,24.09,2,6.78-83.72v0l-1.43-.11.74-9.27,1.42.11,0-.21,5.12-64,12,1-.44,5.48L302.34,375l.41-5.08,12,1-6.83,84.88,1.16.1a.14.14,0,0,1,.13.15l-.7,8.61a.14.14,0,0,1-.15.13l-1.16-.09-4.75,58.55,4.44.36-8.24,102.73,44.42,3.46,6.76-84.2-8.81-.65,1.38-17.15,4.8-59.87-2.42-.19.74-9.24h0l2.42.19,2.65-33.08,21.95,1.67a2.12,2.12,0,0,0,0,.47A4.28,4.28,0,0,0,374,431a4.55,4.55,0,0,0,7.49-2.85l23.24,1.71.31-4.4c.22,0,.44,0,.66,0a18,18,0,0,0,1.94-35.88l1.68-23L424,367.83l-.28,3.47L432,372l.28-3.47,13.77,1.1,7.23-92.14Z"/><rect class="cls-16" x="181.12" y="426.38" width="40.43" height="9.3" transform="translate(35.11 -14.72) rotate(4.59)"/><rect class="cls-16" x="306.06" y="525" width="35.74" height="18.55" transform="translate(43.76 -24.19) rotate(4.59)"/><rect class="cls-16" x="307.49" y="457.02" width="40.13" height="9.3" transform="translate(37.96 -24.71) rotate(4.59)"/><rect class="cls-16" x="291.16" y="335.87" width="66.95" height="23.89" transform="translate(28.85 -24.84) rotate(4.59)"/><rect class="cls-16" x="348.12" y="324.41" width="10.45" height="37.63" transform="translate(28.58 -27.16) rotate(4.59)"/><rect class="cls-16" x="303.82" y="344.46" width="16.8" height="26.2" transform="translate(29.59 -23.82) rotate(4.59)"/><rect class="cls-16" x="312.33" y="344.8" width="4.84" height="111.54" transform="matrix(1, 0.08, -0.08, 1, 33.04, -23.89)"/><rect class="cls-16" x="322.62" y="460.18" width="4.84" height="83.34" transform="translate(41.17 -24.38) rotate(4.59)"/><rect class="cls-16" x="321.92" y="543.6" width="4.84" height="84.51" transform="translate(47.88 -24.06) rotate(4.59)"/><polygon class="cls-16" points="238.97 364.83 226.99 363.87 227.27 360.38 204.96 358.7 205.92 350.16 219.07 351.21 219.41 346.95 240.31 348.64 238.97 364.83"/><rect class="cls-16" x="202.24" y="350.16" width="5.01" height="76.62" transform="translate(31.72 -15.13) rotate(4.59)"/><polygon class="cls-16" points="294.65 319.89 293.25 317.52 299.25 312.52 293.25 305.35 287.08 310.19 285.44 307.67 285.97 300.52 289.25 300.73 289.82 293.32 237.27 289.11 232.2 352.29 299.59 357.69 302.56 320.56 294.65 319.89"/><path class="cls-17" d="M347.92,458.64l2.65-33.06,21.95,1.67a2.11,2.11,0,0,0,0,.47A4.28,4.28,0,0,0,374,431a4.55,4.55,0,0,0,7.49-2.85l23.24,1.71.31-4.4c.22,0,.44,0,.66,0a18,18,0,0,0,1.94-35.88l1.68-23-88.86-7.13-7.73,96.33"/><polygon class="cls-18" points="289.81 293.32 293.91 239.9 298.91 237.9 256.24 175.56 320.07 132.06 296.07 96.23 252.57 126.23 257.41 133.4 236.41 147.4 231.57 140.06 207.74 157.06 212.41 163.56 199.24 172.4 252.41 249.73 249.57 286.23 253.41 286.56 253.13 290.39 289.81 293.32"/><circle class="cls-19" cx="327.13" cy="284.41" r="15.83"/><polygon class="cls-20" points="298.94 306.8 301.96 300.27 305.94 305.15 298.94 306.8"/><text class="cls-21" transform="translate(378.62 193.41)">Parken</text><circle class="cls-22" cx="440.41" cy="339.29" r="3.5"/><text class="cls-23" transform="translate(447.35 343.64)">Schlingentische/Physiotherapie</text><text class="cls-23" transform="translate(302 289.16)">Eingang</text><circle class="cls-22" cx="250.76" cy="205.36" r="3.5"/><text class="cls-23" transform="translate(257.7 209.72)"><tspan class="cls-24">V</tspan><tspan x="8.57" y="0">erwaltung</tspan></text><text class="cls-23" transform="matrix(0.56, 0.83, -0.83, 0.56, 457.05, 104.03)">Zufahrtsstraße</text><circle class="cls-22" cx="325.17" cy="327.43" r="3.5"/><text class="cls-23" transform="translate(333.05 332.88)"><tspan class="cls-25">T</tspan><tspan x="7" y="0">erminplanung</tspan></text><circle class="cls-22" cx="274.11" cy="300.08" r="3.5"/><text class="cls-23" transform="translate(203.06 304.44)">Rezeption</text><circle class="cls-22" cx="226.68" cy="313.75" r="3.5"/><text class="cls-23" transform="translate(153.3 318.11)">Ruheraum</text><circle class="cls-22" cx="225.38" cy="333.82" r="3.5"/><text class="cls-23" transform="translate(152.79 338.18)">TV/Klavier</text><circle class="cls-22" cx="195.03" cy="370.17" r="3.5"/><text class="cls-23" transform="translate(55.26 374.52)"><tspan class="cls-26">W</tspan><tspan x="12.69" y="0">asch- &amp; Bügelraum</tspan></text><circle class="cls-22" cx="192.13" cy="406.5" r="3.5"/><text class="cls-23" transform="translate(148.34 410.86)">Frisör</text><circle class="cls-22" cx="314.01" cy="496.16" r="3.5"/><text class="cls-23" transform="translate(223.26 500.51)"><tspan class="cls-26">W</tspan><tspan x="12.69" y="0">artebereich </tspan><tspan x="25.93" y="12.8">Massage</tspan></text><circle class="cls-22" cx="311.82" cy="586.8" r="3.5"/><text class="cls-23" transform="translate(211.19 591.16)">Physiotherapie</text><circle class="cls-22" cx="324.15" cy="534.8" r="3.5"/><text class="cls-23" transform="translate(189.8 539.16)"><tspan class="cls-26">W</tspan><tspan x="12.69" y="0">artebereich</tspan><tspan class="cls-24" x="82.74" y="0"> </tspan><tspan x="85.85" y="0">Anbau</tspan></text><circle class="cls-22" cx="359.89" cy="401.39" r="3.5"/><text class="cls-23" transform="translate(366.83 407.45)">Bewegungsbad</text><circle class="cls-22" cx="332.22" cy="427.7" r="3.5"/><text class="cls-23" transform="translate(339.16 432.06)">Fango/Stangenbad</text><circle class="cls-22" cx="331.3" cy="445.37" r="3.5"/><text class="cls-23" transform="translate(338.24 449.73)">Güsse</text><circle class="cls-22" cx="198.22" cy="476.04" r="3.5"/><text class="cls-23" transform="translate(205.16 480.39)"><tspan class="cls-26">T</tspan><tspan x="8.03" y="0">rainingsraum</tspan></text><circle class="cls-22" cx="217.22" cy="376.04" r="3.5"/><text class="cls-23" transform="translate(224.16 384.36)">Bastelraum</text><circle class="cls-22" cx="215.14" cy="409.12" r="3.5"/><text class="cls-23" transform="translate(222.08 413.48)">Fußpflege</text><text class="cls-23" transform="translate(325.99 364.34)"><tspan class="cls-26">W</tspan><tspan x="12.69" y="0">artebereich</tspan><tspan class="cls-26" x="0" y="14.8">T</tspan><tspan x="8.03" y="14.8">urnhalle</tspan></text><circle class="cls-22" cx="269.49" cy="364.24" r="3.5"/><text class="cls-23" transform="translate(243.93 358.76)">Cafeteria</text><circle class="cls-22" cx="336.89" cy="497.63" r="3.5"/><text class="cls-23" transform="translate(343.83 501.99)">Elektrotherapie<tspan class="cls-26" x="0" y="16.8">L</tspan><tspan x="7.27" y="16.8">ymphdrainage</tspan></text><circle class="cls-22" cx="337.32" cy="588.68" r="3.5"/><text class="cls-23" transform="translate(344.26 593.04)">Ergotherapie</text><rect class="cls-18" x="185.16" y="202.61" width="26" height="13.67" transform="translate(258.27 -72.55) rotate(55.45)"/><rect class="cls-18" x="206.7" y="224.22" width="10.17" height="9.47" transform="translate(280.24 -75.33) rotate(55.45)"/><rect class="cls-18" x="214.86" y="236.22" width="10.17" height="9.47" transform="translate(293.65 -76.86) rotate(55.45)"/><circle class="cls-22" cx="197.78" cy="209.25" r="3.5"/><text class="cls-23" transform="translate(53.57 213.61)">Konferenzraum E 109</text><circle class="cls-22" cx="219.94" cy="241.07" r="3.5"/><text class="cls-23" transform="translate(138.44 253.93)">Sozialdienst</text><line class="cls-27" x1="437.2" y1="281.64" x2="432.48" y2="368.51"/><line class="cls-27" x1="376" y1="276.7" x2="373" y2="315.01"/><circle class="cls-22" cx="370.89" cy="349.6" r="3.5"/><text class="cls-23" transform="translate(430.95 363.11)">Röntgen</text><circle class="cls-22" cx="367.29" cy="293.37" r="3.5"/><text class="cls-23" transform="translate(374.23 297.73)">Physiotherapie</text><line class="cls-27" x1="373.22" y1="315.25" x2="357.57" y2="314.05"/><line class="cls-27" x1="202.22" y1="388.61" x2="184.54" y2="387.28"/><line class="cls-27" x1="224.97" y1="390.42" x2="207.29" y2="389.09"/><circle class="cls-22" cx="425.78" cy="358.41" r="3.5"/></g></svg>
