<?xml version="1.0" encoding="utf-8"?>
<!-- Generator: Adobe Illustrator 23.0.0, SVG Export Plug-In . SVG Version: 6.00 Build 0)  -->
<svg version="1.1" id="Ebene_1" xmlns="http://www.w3.org/2000/svg" xmlns:xlink="http://www.w3.org/1999/xlink" x="0px" y="0px"
	 viewBox="0 0 710.7 689.9" style="enable-background:new 0 0 710.7 689.9;" xml:space="preserve">
<style type="text/css">
	.st0{fill:none;}
	.st1{fill:none;stroke:#1D1D1B;stroke-width:0.3;stroke-linejoin:round;}
	.st2{fill:#FFFFFF;}
	.st3{fill:#DFDFDF;}
	.st4{fill:none;stroke:#1D1D1B;stroke-width:1.0006;stroke-miterlimit:10;}
	.st5{fill:none;stroke:#1D1D1B;stroke-width:1.0006;stroke-miterlimit:10;stroke-dasharray:2.9876,2.9876,9.9586,2.9876;}

		.st6{fill:none;stroke:#1D1D1B;stroke-width:1.0006;stroke-miterlimit:10;stroke-dasharray:9.9593,2.9876,2.9876,2.9876,9.9586,2.9876;}
	.st7{fill:none;stroke:#1D1D1B;stroke-width:1.0006;stroke-miterlimit:10;stroke-dasharray:3.0968,3.0968,10.3228,3.0968;}

		.st8{fill:none;stroke:#1D1D1B;stroke-width:1.0006;stroke-miterlimit:10;stroke-dasharray:10.3234,3.0968,3.0968,3.0968,10.3228,3.0968;}
	.st9{fill:none;stroke:#1D1D1B;stroke-width:1.0006;stroke-miterlimit:10;stroke-dasharray:2.9133,2.9133,9.7108,2.9133;}

		.st10{fill:none;stroke:#1D1D1B;stroke-width:1.0006;stroke-miterlimit:10;stroke-dasharray:9.7115,2.9133,2.9133,2.9133,9.7108,2.9133;}
	.st11{fill:none;stroke:#1D1D1B;stroke-width:1.0006;stroke-miterlimit:10;stroke-dasharray:2.972,2.972,9.9068,2.972;}

		.st12{fill:none;stroke:#1D1D1B;stroke-width:1.0006;stroke-miterlimit:10;stroke-dasharray:9.9074,2.972,2.972,2.972,9.9068,2.972;}
	.st13{fill:none;stroke:#1D1D1B;stroke-width:1.0006;stroke-miterlimit:10;stroke-dasharray:2.9894,2.9894,9.9648,2.9894;}

		.st14{fill:none;stroke:#1D1D1B;stroke-width:1.0006;stroke-miterlimit:10;stroke-dasharray:9.9654,2.9894,2.9894,2.9894,9.9648,2.9894;}
	.st15{fill:none;stroke:#1D1D1B;stroke-width:1.0006;stroke-miterlimit:10;stroke-dasharray:2.9841,2.9841,9.9471,2.9841;}

		.st16{fill:none;stroke:#1D1D1B;stroke-width:1.0006;stroke-miterlimit:10;stroke-dasharray:9.9478,2.9841,2.9841,2.9841,9.9471,2.9841;}
	.st17{fill:#F1F1F1;}
	.st18{fill:#FFF7CC;}
	.st19{fill:#878787;}
	.st20{fill:#FFD500;}
	.st21{fill:#FFF7CC;stroke:#878787;stroke-width:0.326;stroke-miterlimit:10;}
	.st22{fill:none;stroke:#878787;stroke-width:0.2835;stroke-miterlimit:10;}
	.st23{fill:none;stroke:#878787;stroke-width:0.2835;stroke-miterlimit:10;stroke-dasharray:2.3064,2.3064,2.3064,2.3064;}

		.st24{fill:none;stroke:#878787;stroke-width:0.2835;stroke-miterlimit:10;stroke-dasharray:2.3064,2.3064,2.3064,2.3064,2.3064,2.3064;}
	.st25{fill:none;stroke:#878787;stroke-width:0.2835;stroke-miterlimit:10;stroke-dasharray:1.9336,1.9336,1.9336,1.9336;}
	.st26{fill:none;stroke:#878787;stroke-width:0.2835;stroke-miterlimit:10;stroke-dasharray:2.2891,2.2891,2.2891,2.2891;}

		.st27{fill:none;stroke:#878787;stroke-width:0.2835;stroke-miterlimit:10;stroke-dasharray:2.2891,2.2891,2.2891,2.2891,2.2891,2.2891;}
	.st28{fill:none;stroke:#878787;stroke-width:0.2835;stroke-miterlimit:10;stroke-dasharray:1.9647,1.9647,1.9647,1.9647;}
	.st29{fill:none;stroke:#878787;stroke-width:0.3255;stroke-miterlimit:10;}
	.st30{fill:none;stroke:#878787;stroke-width:0.3255;stroke-miterlimit:10;stroke-dasharray:1.5584,1.5584,1.5584,1.5584;}

		.st31{fill:none;stroke:#878787;stroke-width:0.3255;stroke-miterlimit:10;stroke-dasharray:1.5584,1.5584,1.5584,1.5584,1.5584,1.5584;}
	.st32{fill:none;stroke:#878787;stroke-width:0.3255;stroke-miterlimit:10;stroke-dasharray:2.6994,2.6994,2.6994,2.6994;}

		.st33{fill:none;stroke:#878787;stroke-width:0.3255;stroke-miterlimit:10;stroke-dasharray:2.6994,2.6994,2.6994,2.6994,2.6994,2.6994;}
	.st34{fill:none;stroke:#878787;stroke-width:0.3255;stroke-miterlimit:10;stroke-dasharray:1.578,1.578,1.578,1.578;}
	.st35{fill:none;stroke:#878787;stroke-width:0.3255;stroke-miterlimit:10;stroke-dasharray:1.578,1.578,1.578,1.578,1.578,1.578;}
	.st36{fill:none;stroke:#878787;stroke-width:0.3255;stroke-miterlimit:10;stroke-dasharray:2.695,2.695,2.695,2.695;}
	.st37{fill:none;stroke:#878787;stroke-width:0.3255;stroke-miterlimit:10;stroke-dasharray:2.695,2.695,2.695,2.695,2.695,2.695;}
	.st38{fill:#77AAD4;}
	.st39{fill:#E30613;}
	.st40{fill:#FFFFFF;stroke:#9D9D9C;stroke-miterlimit:10;}
	.st41{fill:#575756;}
	.st42{font-family:'ArialMT';}
	.st43{font-size:14px;}
	.st44{opacity:0.25;fill:url(#SVGID_2_);enable-background:new    ;}
	.st45{font-size:25px;}
	.st46{fill:none;stroke:#878787;stroke-width:0.326;stroke-miterlimit:10;}
</style>
<pattern  x="-55.7" y="737.9" width="72" height="72" patternUnits="userSpaceOnUse" id="SVGID_1_" viewBox="79.6 -151.6 72 72" style="overflow:visible;">
	<g>
		<rect x="79.6" y="-151.6" class="st0" width="72" height="72"/>
		<g>
			<rect x="79.6" y="-151.6" class="st0" width="72" height="72"/>
			<g>
				<line class="st1" x1="144.1" y1="-162.1" x2="162.1" y2="-144.1"/>
				<line class="st1" x1="144.1" y1="-168.1" x2="168.1" y2="-144.1"/>
				<line class="st1" x1="144.1" y1="-174.1" x2="174.1" y2="-144.1"/>
				<line class="st1" x1="144.1" y1="-180.1" x2="180.1" y2="-144.1"/>
				<line class="st1" x1="144.1" y1="-186.1" x2="186.1" y2="-144.1"/>
				<line class="st1" x1="144.1" y1="-192.1" x2="192.1" y2="-144.1"/>
				<line class="st1" x1="144.1" y1="-198.1" x2="198.1" y2="-144.1"/>
				<line class="st1" x1="144.1" y1="-204.1" x2="204.1" y2="-144.1"/>
				<line class="st1" x1="144.1" y1="-210.1" x2="210.1" y2="-144.1"/>
				<line class="st1" x1="144.1" y1="-216.1" x2="216.1" y2="-144.1"/>
				<line class="st1" x1="144.1" y1="-222.1" x2="222.1" y2="-144.1"/>
				<line class="st1" x1="144.1" y1="-228.1" x2="228.1" y2="-144.1"/>
				<line class="st1" x1="150.1" y1="-228.1" x2="228.1" y2="-150.1"/>
			</g>
			<g>
				<line class="st1" x1="72.1" y1="-162.1" x2="90.1" y2="-144.1"/>
				<line class="st1" x1="72.1" y1="-168.1" x2="96.1" y2="-144.1"/>
				<line class="st1" x1="72.1" y1="-174.1" x2="102.1" y2="-144.1"/>
				<line class="st1" x1="72.1" y1="-180.1" x2="108.1" y2="-144.1"/>
				<line class="st1" x1="72.1" y1="-186.1" x2="114.1" y2="-144.1"/>
				<line class="st1" x1="72.1" y1="-192.1" x2="120.1" y2="-144.1"/>
				<line class="st1" x1="72.1" y1="-198.1" x2="126.1" y2="-144.1"/>
				<line class="st1" x1="72.1" y1="-204.1" x2="132.1" y2="-144.1"/>
				<line class="st1" x1="72.1" y1="-210.1" x2="138.1" y2="-144.1"/>
				<line class="st1" x1="72.1" y1="-216.1" x2="144.1" y2="-144.1"/>
				<line class="st1" x1="72.1" y1="-222.1" x2="150.1" y2="-144.1"/>
				<line class="st1" x1="72.1" y1="-228.1" x2="156.1" y2="-144.1"/>
				<line class="st1" x1="78.1" y1="-228.1" x2="156.1" y2="-150.1"/>
			</g>
			<g>
				<line class="st1" x1="0.1" y1="-228.1" x2="84.1" y2="-144.1"/>
				<line class="st1" x1="6.1" y1="-228.1" x2="84.1" y2="-150.1"/>
			</g>
			<g>
				<line class="st1" x1="144.1" y1="-90.1" x2="162.1" y2="-72.1"/>
				<line class="st1" x1="144.1" y1="-96.1" x2="168.1" y2="-72.1"/>
				<line class="st1" x1="144.1" y1="-102.1" x2="174.1" y2="-72.1"/>
				<line class="st1" x1="144.1" y1="-108.1" x2="180.1" y2="-72.1"/>
				<line class="st1" x1="144.1" y1="-114.1" x2="186.1" y2="-72.1"/>
				<line class="st1" x1="144.1" y1="-120.1" x2="192.1" y2="-72.1"/>
				<line class="st1" x1="144.1" y1="-126.1" x2="198.1" y2="-72.1"/>
				<line class="st1" x1="144.1" y1="-132.1" x2="204.1" y2="-72.1"/>
				<line class="st1" x1="144.1" y1="-138.1" x2="210.1" y2="-72.1"/>
				<line class="st1" x1="144.1" y1="-144.1" x2="216.1" y2="-72.1"/>
				<line class="st1" x1="144.1" y1="-150.1" x2="222.1" y2="-72.1"/>
				<line class="st1" x1="144.1" y1="-156.1" x2="228.1" y2="-72.1"/>
				<line class="st1" x1="150.1" y1="-156.1" x2="228.1" y2="-78.1"/>
			</g>
			<g>
				<line class="st1" x1="72.1" y1="-90.1" x2="90.1" y2="-72.1"/>
				<line class="st1" x1="72.1" y1="-96.1" x2="96.1" y2="-72.1"/>
				<line class="st1" x1="72.1" y1="-102.1" x2="102.1" y2="-72.1"/>
				<line class="st1" x1="72.1" y1="-108.1" x2="108.1" y2="-72.1"/>
				<line class="st1" x1="72.1" y1="-114.1" x2="114.1" y2="-72.1"/>
				<line class="st1" x1="72.1" y1="-120.1" x2="120.1" y2="-72.1"/>
				<line class="st1" x1="72.1" y1="-126.1" x2="126.1" y2="-72.1"/>
				<line class="st1" x1="72.1" y1="-132.1" x2="132.1" y2="-72.1"/>
				<line class="st1" x1="72.1" y1="-138.1" x2="138.1" y2="-72.1"/>
				<line class="st1" x1="72.1" y1="-144.1" x2="144.1" y2="-72.1"/>
				<line class="st1" x1="72.1" y1="-150.1" x2="150.1" y2="-72.1"/>
				<line class="st1" x1="72.1" y1="-156.1" x2="156.1" y2="-72.1"/>
				<line class="st1" x1="78.1" y1="-156.1" x2="156.1" y2="-78.1"/>
				<line class="st1" x1="84.1" y1="-156.1" x2="156.1" y2="-84.1"/>
				<line class="st1" x1="90.1" y1="-156.1" x2="156.1" y2="-90.1"/>
				<line class="st1" x1="96.1" y1="-156.1" x2="156.1" y2="-96.1"/>
				<line class="st1" x1="102.1" y1="-156.1" x2="156.1" y2="-102.1"/>
				<line class="st1" x1="108.1" y1="-156.1" x2="156.1" y2="-108.1"/>
				<line class="st1" x1="114.1" y1="-156.1" x2="156.1" y2="-114.1"/>
				<line class="st1" x1="120.1" y1="-156.1" x2="156.1" y2="-120.1"/>
				<line class="st1" x1="126.1" y1="-156.1" x2="156.1" y2="-126.1"/>
				<line class="st1" x1="132.1" y1="-156.1" x2="156.1" y2="-132.1"/>
				<line class="st1" x1="138.1" y1="-156.1" x2="156.1" y2="-138.1"/>
				<line class="st1" x1="144.1" y1="-156.1" x2="156.1" y2="-144.1"/>
			</g>
			<g>
				<line class="st1" x1="0.1" y1="-156.1" x2="84.1" y2="-72.1"/>
				<line class="st1" x1="6.1" y1="-156.1" x2="84.1" y2="-78.1"/>
				<line class="st1" x1="12.1" y1="-156.1" x2="84.1" y2="-84.1"/>
				<line class="st1" x1="18.1" y1="-156.1" x2="84.1" y2="-90.1"/>
				<line class="st1" x1="24.1" y1="-156.1" x2="84.1" y2="-96.1"/>
				<line class="st1" x1="30.1" y1="-156.1" x2="84.1" y2="-102.1"/>
				<line class="st1" x1="36.1" y1="-156.1" x2="84.1" y2="-108.1"/>
				<line class="st1" x1="42.1" y1="-156.1" x2="84.1" y2="-114.1"/>
				<line class="st1" x1="48.1" y1="-156.1" x2="84.1" y2="-120.1"/>
				<line class="st1" x1="54.1" y1="-156.1" x2="84.1" y2="-126.1"/>
				<line class="st1" x1="60.1" y1="-156.1" x2="84.1" y2="-132.1"/>
				<line class="st1" x1="66.1" y1="-156.1" x2="84.1" y2="-138.1"/>
				<line class="st1" x1="72.1" y1="-156.1" x2="84.1" y2="-144.1"/>
			</g>
			<g>
				<line class="st1" x1="144.1" y1="-84.1" x2="228.1" y2="-0.1"/>
				<line class="st1" x1="150.1" y1="-84.1" x2="228.1" y2="-6.1"/>
			</g>
			<g>
				<line class="st1" x1="72.1" y1="-84.1" x2="156.1" y2="-0.1"/>
				<line class="st1" x1="78.1" y1="-84.1" x2="156.1" y2="-6.1"/>
				<line class="st1" x1="84.1" y1="-84.1" x2="156.1" y2="-12.1"/>
				<line class="st1" x1="90.1" y1="-84.1" x2="156.1" y2="-18.1"/>
				<line class="st1" x1="96.1" y1="-84.1" x2="156.1" y2="-24.1"/>
				<line class="st1" x1="102.1" y1="-84.1" x2="156.1" y2="-30.1"/>
				<line class="st1" x1="108.1" y1="-84.1" x2="156.1" y2="-36.1"/>
				<line class="st1" x1="114.1" y1="-84.1" x2="156.1" y2="-42.1"/>
				<line class="st1" x1="120.1" y1="-84.1" x2="156.1" y2="-48.1"/>
				<line class="st1" x1="126.1" y1="-84.1" x2="156.1" y2="-54.1"/>
				<line class="st1" x1="132.1" y1="-84.1" x2="156.1" y2="-60.1"/>
				<line class="st1" x1="138.1" y1="-84.1" x2="156.1" y2="-66.1"/>
				<line class="st1" x1="144.1" y1="-84.1" x2="156.1" y2="-72.1"/>
			</g>
			<g>
				<line class="st1" x1="0.1" y1="-84.1" x2="84.1" y2="-0.1"/>
				<line class="st1" x1="6.1" y1="-84.1" x2="84.1" y2="-6.1"/>
				<line class="st1" x1="12.1" y1="-84.1" x2="84.1" y2="-12.1"/>
				<line class="st1" x1="18.1" y1="-84.1" x2="84.1" y2="-18.1"/>
				<line class="st1" x1="24.1" y1="-84.1" x2="84.1" y2="-24.1"/>
				<line class="st1" x1="30.1" y1="-84.1" x2="84.1" y2="-30.1"/>
				<line class="st1" x1="36.1" y1="-84.1" x2="84.1" y2="-36.1"/>
				<line class="st1" x1="42.1" y1="-84.1" x2="84.1" y2="-42.1"/>
				<line class="st1" x1="48.1" y1="-84.1" x2="84.1" y2="-48.1"/>
				<line class="st1" x1="54.1" y1="-84.1" x2="84.1" y2="-54.1"/>
				<line class="st1" x1="60.1" y1="-84.1" x2="84.1" y2="-60.1"/>
				<line class="st1" x1="66.1" y1="-84.1" x2="84.1" y2="-66.1"/>
				<line class="st1" x1="72.1" y1="-84.1" x2="84.1" y2="-72.1"/>
			</g>
		</g>
	</g>
</pattern>
<g>
	<path class="st2" d="M1.7,185.9c2.7,0.7,4.9,0.8,6.2,0.9c3.8,0.3,7.1,0.6,11.4,0.4c2.4-0.1,8.4-0.5,15.9-2.6
		c1.3-0.4,4.1-1.2,14.1-5.7c7.3-3.3,11.4-5.1,16.7-7.9c4.7-2.5,9.8-5.6,19.8-11.9c10.6-6.6,16-10,22-14.1
		c7.5-5.1,13.1-9.3,17.2-12.3c9.8-7.3,10.1-8,19.4-15c7.2-5.4,13-9.8,21.1-15c8.9-5.7,8.8-4.9,19.8-11.9c6.9-4.4,9.2-6.2,17.2-11
		c4.5-2.8,8.9-5.3,14.5-7.9c7.3-3.4,10.6-4.1,12.3-4.4c3.4-0.6,6-0.5,11-0.4c5.9,0.1,8.9,0,12.8,0.9c1.9,0.4,2.8,0.8,5.7,1.3
		c1.3,0.3,4,0.7,7.5,1.1c2.1,0.2,4.3,0.4,10.6,0.4c5.2,0.1,8.2,0.1,12.6,0c6.9-0.2,10.4-0.2,14.1-0.9c1.5-0.3,1.1-0.2,9.9-2.4
		c9.1-2.2,9.1-2.1,11.4-2.9c1.3-0.4,4.5-1.6,11-4c6.7-2.5,7.3-2.7,8.1-3.1c3.8-1.7,4.9-2.8,10.1-5.7c3.2-1.8,5.7-3.1,7.9-4.2
		c3.3-1.6,3.7-1.6,6.2-2.8c4.8-2.3,8.1-4.6,10.9-6.6c3.7-2.6,6.4-4.9,8.6-6.8c3.3-2.8,3.9-3.6,7.1-6.3c2.2-1.8,3.5-2.8,7.3-5.6
		c7-5.2,10.5-7.8,12.2-9.2c2.7-2.1,6.5-5.3,10.9-9.6l5.4,7.6l7.1,9.4l7.6,10.1l5.4,8.6l5.6,14.9l9.2,25.8c1.9,6.4,3.3,11.6,4.3,15.2
		c1.3,4.7,1.7,6.3,2.8,10.2c0.8,2.8,2,7,3.8,12.2c1.7,5.1,3,9,5.1,13.7c2.4,5.5,2.9,5.4,7.7,14.8c3.9,7.8,3.7,8,6.9,14
		c0.6,1,3.3,6.2,7.4,12.9c2.8,4.6,3.8,5.8,8.1,12.6c2.3,3.6,3.3,6.2,6.1,9.7c1.5,1.9,2.7,3,4.8,5.1c6.2,6.2,7.8,8.2,10.6,10.9
		c6.1,6,17,15.1,29.9,21.6c5.5,2.8,10.6,4.7,16.7,5.8c2.2,0.4,4.1,0.6,5.4,0.7l1,7.1l4.5,20l3.8,16.5c3.2,10.1,5.9,18.2,7.9,23.9
		c1.5,4.4,2.2,6.2,3,8.1c3.4,8.6,6.8,14.7,8.9,18.5c7.5,13.5,16.3,25.2,20.5,30.6l15.7,16.8l19.3,21.8l23.4,26.6l16.8,19.2l-4.1,6.8
		l-11.6,9.4l-15,15.4c-1.6,2.6-4.1,6.4-7.1,11.1c-3.1,4.8-4.6,6.9-7.9,11.9c-10.3,15.4-10.1,15.6-13.9,20.8
		c-3.8,5.2-3.4,4.1-11.2,13.9c-10.6,13.3-10.4,14.1-16.8,21.6c-2.4,2.8-6.8,7.3-15.5,16.3c-11.2,11.5-14.5,14.7-16,16
		c-6,5.5-11.3,9.7-15,12.6l-11.1,10.4L551.5,589c-3.5-5.7-6.3-10.4-8.3-13.5c-2.8-4.6-4-6.6-5.9-9.7c-4.1-6.6-5.4-7.1-7.3-11.2
		c-1.1-2.5-1.5-3.9-3.1-6.9c-1.8-3.3-2.8-5-4.6-6.1c-3.9-2.4-8.5-0.9-8.8-0.8c-0.8,0.3-1.4,0.6-5,3.5c-3.6,2.9-6.2,5.3-6.6,5.6
		c-1.5,1.3-4.1,3.7-7.8,6.9l-14.5,11.6l-21.9,12.9l-20.1,12.6l-16.3,9.1c-10,4.3-18.1,7.7-23.9,10.1c-8.3,3.4-12,4.9-20.4,8.5
		c-9.3,4-14.1,6-19.2,8.5c-3.4,1.7-10.3,5.1-18.7,10c-1.3,0.8-1.3,0.8-14.4,8.9c-12.1,7.5-13.9,8.7-16.8,10.4
		c-5.2,3.1-9.6,5.6-13,7.5c-6.9,3.9-10.4,5.9-12,6.7c-2.8,1.4-5.3,2.7-10.2,5.5c-1.5,0.8-3.7,2.1-5.6,4.5c-1.1,1.3-1.7,2.6-2.1,3.5
		l-0.3,1.1l-4.2,0.2c-2.3,0.2-5.2,0.4-8.7,0.7c-2.4,0.2-6.6,0.4-11.3,0.6c-8.1,0.2-14.1,0-20.6-0.3c-7.5-0.3-11.3-0.5-14.4-1.3
		c-5-1.3-8.5-3.1-12-4.8c-4.1-2.1-8.3-4.2-12.8-8.4c-0.8-0.8-0.5-0.6-7-7.9c-5.9-6.7-6.2-6.9-7.8-8.9c-2.3-2.8-4.7-5.8-7-9.9
		c-1.7-3-4-7.5-5.7-13.4l-3.7-10.2l-3.8-8.4c-0.1-4.5-0.3-11.2-0.7-19.4c-0.6-11.6-0.9-11.7-1.3-22.2c-0.4-9.4-0.7-21.3-0.6-26.2
		c0-2.3-0.2-4.7,0-7c0.1-0.7,0.2-1.6-0.1-2.9c-0.3-1.3-0.8-2.2-1.7-3.6c-0.6-0.9-1.3-2.2-2.7-3.6c-0.2-0.2-1.2-1.1-2.6-2.1
		c-1.6-1.1-2.3-1.2-3.3-2.3c-0.7-0.8-1.1-1.5-1.2-1.7c-0.7-1.3-0.8-2.5-0.8-3.1c-0.1-1.4,0.1-2.5,0.4-3.8c0.1-0.7,0.4-1.8,1-3.1
		c0.5-1.3,1.2-2.2,2.4-3.8c2.5-3.3,2.8-3.3,4.2-5.3c0.9-1.3,1.9-2.8,2.7-4.9c0.6-1.5,1-2.7,1-4.3s-0.6-2.7-1.9-5.4
		c-1.5-3-2.6-5-3.2-6.1c-2.2-4.2-3.6-7.4-4-8.3c-1.7-3.9-1.2-3.7-2.6-6.9c-0.5-1.3-2.3-5.3-5.5-9.9c-1.2-1.7-2.2-3-4.2-5.4
		c-3.1-3.8-6.1-7.4-10.3-11.4c-2.2-2.1-4.5-4-9-7.7c-5.5-4.5-6.6-5.1-9.7-7.7c-4.7-4-7.8-7.3-11.2-11.1
		c-19.2-21-28.9-36.8-28.9-36.8C41.2,362.8,36,348,34.7,344.4c-4.7-13.6-6.7-24.7-8.3-34c-2.9-17-1.2-16.4-3.5-29.6
		c-2.7-15.4-8.6-35.9-16.3-53.7c-1.6-3.7-4.8-10.8-5.9-20.8C0,199.5,0.5,193.7,1,190L1.7,185.9z"/>
	<g>
		<path class="st3" d="M1.7,185.9c2.7,0.7,4.9,0.8,6.2,0.9c3.8,0.3,7.1,0.6,11.4,0.4c2.4-0.1,8.4-0.5,15.9-2.6
			c1.3-0.4,4.1-1.2,14.1-5.7c7.3-3.3,11.4-5.1,16.7-7.9c4.7-2.5,9.8-5.6,19.8-11.9c10.6-6.6,16-10,22-14.1
			c7.5-5.1,13.1-9.3,17.2-12.3c9.8-7.3,10.1-8,19.4-15c7.2-5.4,13-9.8,21.1-15c8.9-5.7,8.8-4.9,19.8-11.9c6.9-4.4,9.2-6.2,17.2-11
			c4.5-2.8,8.9-5.3,14.5-7.9c7.3-3.4,10.6-4.1,12.3-4.4c3.4-0.6,6-0.5,11-0.4c5.9,0.1,8.9,0,12.8,0.9c1.9,0.4,2.8,0.8,5.7,1.3
			c1.3,0.3,4,0.7,7.5,1.1c2.1,0.2,4.3,0.4,10.6,0.4c5.2,0.1,8.2,0.1,12.6,0c6.9-0.2,10.4-0.2,14.1-0.9c1.5-0.3,1.1-0.2,9.9-2.4
			c9.1-2.2,9.1-2.1,11.4-2.9c1.3-0.4,4.5-1.6,11-4c6.7-2.5,7.3-2.7,8.1-3.1c3.8-1.7,4.9-2.8,10.1-5.7c3.2-1.8,5.7-3.1,7.9-4.2
			c3.3-1.6,3.7-1.6,6.2-2.8c4.8-2.3,8.1-4.6,10.9-6.6c3.7-2.6,6.4-4.9,8.6-6.8c3.3-2.8,3.9-3.6,7.1-6.3c2.2-1.8,3.5-2.8,7.3-5.6
			c7-5.2,10.5-7.8,12.2-9.2c2.7-2.1,6.5-5.3,10.9-9.6l5.4,7.6l7.1,9.4l7.6,10.1l5.4,8.6l5.6,14.9l9.2,25.8
			c1.9,6.4,3.3,11.6,4.3,15.2c1.3,4.7,1.7,6.3,2.8,10.2c0.8,2.8,2,7,3.8,12.2c1.7,5.1,3,9,5.1,13.7c2.4,5.5,2.9,5.4,7.7,14.8
			c3.9,7.8,3.7,8,6.9,14c0.6,1,3.3,6.2,7.4,12.9c2.8,4.6,3.8,5.8,8.1,12.6c2.3,3.6,3.3,6.2,6.1,9.7c1.5,1.9,2.7,3,4.8,5.1
			c6.2,6.2,7.8,8.2,10.6,10.9c6.1,6,17,15.1,29.9,21.6c5.5,2.8,10.6,4.7,16.7,5.8c2.2,0.4,4.1,0.6,5.4,0.7l1,7.1l4.5,20l3.8,16.5
			c3.2,10.1,5.9,18.2,7.9,23.9c1.5,4.4,2.2,6.2,3,8.1c3.4,8.6,6.8,14.7,8.9,18.5c7.5,13.5,16.3,25.2,20.5,30.6l15.7,16.8l19.3,21.8
			l23.4,26.6l16.8,19.2l-4.1,6.8l-11.6,9.4l-15,15.4c-1.6,2.6-4.1,6.4-7.1,11.1c-3.1,4.8-4.6,6.9-7.9,11.9
			c-10.3,15.4-10.1,15.6-13.9,20.8c-3.8,5.2-3.4,4.1-11.2,13.9c-10.6,13.3-10.4,14.1-16.8,21.6c-2.4,2.8-6.8,7.3-15.5,16.3
			c-11.2,11.5-14.5,14.7-16,16c-6,5.5-11.3,9.7-15,12.6l-11.1,10.4L551.5,589c-3.5-5.7-6.3-10.4-8.3-13.5c-2.8-4.6-4-6.6-5.9-9.7
			c-4.1-6.6-5.4-7.1-7.3-11.2c-1.1-2.5-1.5-3.9-3.1-6.9c-1.8-3.3-2.8-5-4.6-6.1c-3.9-2.4-8.5-0.9-8.8-0.8c-0.8,0.3-1.4,0.6-5,3.5
			c-3.6,2.9-6.2,5.3-6.6,5.6c-1.5,1.3-4.1,3.7-7.8,6.9l-14.5,11.6l-21.9,12.9l-20.1,12.6l-16.3,9.1c-10,4.3-18.1,7.7-23.9,10.1
			c-8.3,3.4-12,4.9-20.4,8.5c-9.3,4-14.1,6-19.2,8.5c-3.4,1.7-10.3,5.1-18.7,10c-1.3,0.8-1.3,0.8-14.4,8.9
			c-12.1,7.5-13.9,8.7-16.8,10.4c-5.2,3.1-9.6,5.6-13,7.5c-6.9,3.9-10.4,5.9-12,6.7c-2.8,1.4-5.3,2.7-10.2,5.5
			c-1.5,0.8-3.7,2.1-5.6,4.5c-1.1,1.3-1.7,2.6-2.1,3.5l-0.3,1.1l-4.2,0.2c-2.3,0.2-5.2,0.4-8.7,0.7c-2.4,0.2-6.6,0.4-11.3,0.6
			c-8.1,0.2-14.1,0-20.6-0.3c-7.5-0.3-11.3-0.5-14.4-1.3c-5-1.3-8.5-3.1-12-4.8c-4.1-2.1-8.3-4.2-12.8-8.4c-0.8-0.8-0.5-0.6-7-7.9
			c-5.9-6.7-6.2-6.9-7.8-8.9c-2.3-2.8-4.7-5.8-7-9.9c-1.7-3-4-7.5-5.7-13.4l-3.7-10.2l-3.8-8.4c-0.1-4.5-0.3-11.2-0.7-19.4
			c-0.6-11.6-0.9-11.7-1.3-22.2c-0.4-9.4-0.7-21.3-0.6-26.2c0-2.3-0.2-4.7,0-7c0.1-0.7,0.2-1.6-0.1-2.9c-0.3-1.3-0.8-2.2-1.7-3.6
			c-0.6-0.9-1.3-2.2-2.7-3.6c-0.2-0.2-1.2-1.1-2.6-2.1c-1.6-1.1-2.3-1.2-3.3-2.3c-0.7-0.8-1.1-1.5-1.2-1.7c-0.7-1.3-0.8-2.5-0.8-3.1
			c-0.1-1.4,0.1-2.5,0.4-3.8c0.1-0.7,0.4-1.8,1-3.1c0.5-1.3,1.2-2.2,2.4-3.8c2.5-3.3,2.8-3.3,4.2-5.3c0.9-1.3,1.9-2.8,2.7-4.9
			c0.6-1.5,1-2.7,1-4.3s-0.6-2.7-1.9-5.4c-1.5-3-2.6-5-3.2-6.1c-2.2-4.2-3.6-7.4-4-8.3c-1.7-3.9-1.2-3.7-2.6-6.9
			c-0.5-1.3-2.3-5.3-5.5-9.9c-1.2-1.7-2.2-3-4.2-5.4c-3.1-3.8-6.1-7.4-10.3-11.4c-2.2-2.1-4.5-4-9-7.7c-5.5-4.5-6.6-5.1-9.7-7.7
			c-4.7-4-7.8-7.3-11.2-11.1c-19.2-21-28.9-36.8-28.9-36.8C41.2,362.8,36,348,34.7,344.4c-4.7-13.6-6.7-24.7-8.3-34
			c-2.9-17-1.2-16.4-3.5-29.6c-2.7-15.4-8.6-35.9-16.3-53.7c-1.6-3.7-4.8-10.8-5.9-20.8C0,199.5,0.5,193.7,1,190L1.7,185.9z"/>
		<g>
			<path class="st4" d="M1,190.9c0.1-0.4,0.1-0.8,0.2-1.2l0.5-3.8c2,0.5,3.7,0.7,4.9,0.8"/>
			<path class="st5" d="M9.6,186.9c3.1,0.3,6.1,0.4,9.7,0.3c1.4-0.1,4.1-0.2,7.7-0.8"/>
			<path class="st6" d="M28.4,186.2c2-0.4,4.3-0.9,6.7-1.6c1.3-0.4,4.1-1.2,14.1-5.7c7.3-3.3,11.4-5.1,16.7-7.9
				c4.7-2.5,9.8-5.6,19.8-11.9c10.6-6.6,16-10,22-14.1c7.5-5.1,13.1-9.3,17.2-12.3c9.8-7.3,10.1-8,19.4-15c7.2-5.4,13-9.8,21.1-15
				c8.9-5.7,8.8-4.9,19.8-11.9c6.9-4.4,9.2-6.2,17.2-11c4.5-2.8,8.9-5.3,14.5-7.9c7.3-3.4,10.6-4.1,12.3-4.4c3.4-0.6,6-0.5,11-0.4
				c5.9,0.1,8.9,0,12.8,0.9c1.9,0.4,2.8,0.8,5.7,1.3c1.3,0.3,4,0.7,7.5,1.1c2.1,0.2,4.3,0.4,10.6,0.4c5.2,0.1,8.2,0.1,12.6,0
				c6.9-0.2,10.4-0.2,14.1-0.9c1.5-0.3,1.1-0.2,9.9-2.4c9.1-2.2,9.1-2.1,11.4-2.9c1.3-0.4,4.5-1.6,11-4c6.7-2.5,7.3-2.7,8.1-3.1
				c3.8-1.7,4.9-2.8,10.1-5.7c3.2-1.8,5.7-3.1,7.9-4.2c3.3-1.6,3.7-1.6,6.2-2.8c4.8-2.3,8.1-4.6,10.9-6.6c3.7-2.6,6.4-4.9,8.6-6.8
				c3.3-2.8,3.9-3.6,7.1-6.3c2.2-1.8,3.5-2.8,7.3-5.6c7-5.2,10.5-7.8,12.2-9.2c1.6-1.3,3.7-3,6.1-5.2"/>
			<path class="st4" d="M421.6,4.2c1.2-1.1,2.4-2.2,3.7-3.4l2.9,4.1"/>
			<polyline class="st7" points="430,7.4 430.7,8.4 437.8,17.8 440.8,21.8 			"/>
			<path class="st8" d="M441.8,23l3.6,4.8l5.4,8.6l5.6,14.9l9.2,25.8c1.9,6.4,3.3,11.6,4.3,15.2c1.3,4.7,1.7,6.3,2.8,10.2
				c0.8,2.8,2,7,3.8,12.2c1.7,5.1,3,9,5.1,13.7c2.4,5.5,2.9,5.4,7.7,14.8c3.9,7.8,3.7,8,6.9,14c0.6,1,3.3,6.2,7.4,12.9
				c2.8,4.6,3.8,5.8,8.1,12.6c2.3,3.6,3.3,6.2,6.1,9.7c1.5,1.9,2.7,3,4.8,5.1c6.2,6.2,7.8,8.2,10.6,10.9c6.1,6,17,15.1,29.9,21.6
				c5.2,2.6,10.1,4.5,15.6,5.6"/>
			<path class="st4" d="M580.3,235.8c2,0.3,3.7,0.5,5,0.6l0.7,5"/>
			<line class="st9" x1="586.4" y1="244.3" x2="590.1" y2="260.8"/>
			<path class="st10" d="M590.4,262.3l0.3,1.2l3.8,16.5c3.2,10.1,5.9,18.2,7.9,23.9c1.5,4.4,2.2,6.2,3,8.1
				c3.4,8.6,6.8,14.7,8.9,18.5c7.5,13.5,16.3,25.2,20.5,30.6l15.7,16.8l19.3,21.8l23.4,26.6l12.6,14.3"/>
			<polyline class="st4" points="706.8,441.7 710.1,445.5 707.5,449.8 			"/>
			<polyline class="st11" points="706,452.3 694.4,461.7 692.7,463.4 			"/>
			<path class="st12" d="M691.7,464.5L679.4,477c-1.6,2.6-4.1,6.4-7.1,11.1c-3.1,4.8-4.6,6.9-7.9,11.9
				c-10.3,15.4-10.1,15.6-13.9,20.8c-3.8,5.2-3.4,4.1-11.2,13.9c-10.6,13.3-10.4,14.1-16.8,21.6c-2.4,2.8-6.8,7.3-15.5,16.3
				c-11.2,11.5-14.5,14.7-16,16c-6,5.5-11.3,9.7-15,12.6l-6.3,6"/>
			<polyline class="st4" points="568.4,608.2 564.8,611.6 562.3,607.3 			"/>
			<line class="st13" x1="560.8" y1="604.7" x2="552" y2="589.6"/>
			<path class="st14" d="M551.3,588.3c-3.4-5.5-6.1-10-8-13c-2.8-4.6-4-6.6-5.9-9.7c-4.1-6.6-5.4-7.1-7.3-11.2
				c-1.1-2.5-1.5-3.9-3.1-6.9c-1.8-3.3-2.8-5-4.6-6.1c-3.9-2.4-8.5-0.9-8.8-0.8c-0.8,0.3-1.4,0.6-5,3.5c-3.6,2.9-6.2,5.3-6.6,5.6
				c-1.5,1.3-4.1,3.7-7.8,6.9l-14.5,11.6l-21.9,12.9l-20.1,12.6l-16.3,9.1c-10,4.3-18.1,7.7-23.9,10.1c-8.3,3.4-12,4.9-20.4,8.5
				c-9.3,4-14.1,6-19.2,8.5c-3.4,1.7-10.3,5.1-18.7,10c-1.3,0.8-1.3,0.8-14.4,8.9c-12.1,7.5-13.9,8.7-16.8,10.4
				c-5.2,3.1-9.6,5.6-13,7.5c-6.9,3.9-10.4,5.9-12,6.7c-2.8,1.4-5.3,2.7-10.2,5.5c-1.3,0.7-3.1,1.7-4.8,3.6"/>
			<path class="st4" d="M267.2,683.5c-1,1.3-1.6,2.5-1.9,3.3l-0.3,1.1l-4.2,0.2c-0.3,0-0.5,0-0.8,0.1"/>
			<path class="st15" d="M256.9,688.4c-1.5,0.1-3.1,0.2-4.9,0.3c-2.4,0.2-6.6,0.4-11.3,0.6c-0.4,0-0.8,0-1.1,0"/>
			<path class="st16" d="M238.1,689.4c-6.8,0.1-12.2-0.1-18-0.4c-7.5-0.3-11.3-0.5-14.4-1.3c-5-1.3-8.5-3.1-12-4.8
				c-4.1-2.1-8.3-4.2-12.8-8.4c-0.8-0.8-0.5-0.6-7-7.9c-5.9-6.7-6.2-6.9-7.8-8.9c-2.3-2.8-4.7-5.8-7-9.9c-1.7-3-4-7.5-5.7-13.4
				l-3.7-10.2l-3.8-8.4c-0.1-4.5-0.3-11.2-0.7-19.4c-0.6-11.6-0.9-11.7-1.3-22.2c-0.4-9.4-0.7-21.3-0.6-26.2c0-2.3-0.2-4.7,0-7
				c0.1-0.7,0.2-1.6-0.1-2.9c-0.3-1.3-0.8-2.2-1.7-3.6c-0.6-0.9-1.3-2.2-2.7-3.6c-0.2-0.2-1.2-1.1-2.6-2.1c-1.6-1.1-2.3-1.2-3.3-2.3
				c-0.7-0.8-1.1-1.5-1.2-1.7c-0.7-1.3-0.8-2.5-0.8-3.1c-0.1-1.4,0.1-2.5,0.4-3.8c0.1-0.7,0.4-1.8,1-3.1c0.5-1.3,1.2-2.2,2.4-3.8
				c2.5-3.3,2.8-3.3,4.2-5.3c0.9-1.3,1.9-2.8,2.7-4.9c0.6-1.5,1-2.7,1-4.3s-0.6-2.7-1.9-5.4c-1.5-3-2.6-5-3.2-6.1
				c-2.2-4.2-3.6-7.4-4-8.3c-1.7-3.9-1.2-3.7-2.6-6.9c-0.5-1.3-2.3-5.3-5.5-9.9c-1.2-1.7-2.2-3-4.2-5.4c-3.1-3.8-6.1-7.4-10.3-11.4
				c-2.2-2.1-4.5-4-9-7.7c-5.5-4.5-6.6-5.1-9.7-7.7c-4.7-4-7.8-7.3-11.2-11.1c-19.2-21-28.9-36.8-28.9-36.8
				c-10.7-17.4-15.9-32.2-17.2-35.8c-4.7-13.6-6.7-24.7-8.3-34c-2.9-17-1.2-16.4-3.5-29.6c-2.7-15.4-8.6-35.9-16.3-53.7
				C5.2,223,2,215.9,0.9,205.9c-0.6-5.4-0.4-10.1,0-13.7"/>
		</g>
	</g>
	<polygon class="st17" points="462.6,293.6 504.8,257.3 616,387.7 574.9,423.8 517.4,454.2 493.6,404 536.8,381.1 505.1,343.2
		497.1,350.5 488.6,341 497.1,333.9 	"/>
	<polygon class="st18" points="429.4,390.5 446.4,386.7 449.7,401.4 475.8,395.8 490.1,459.7 314.1,499 336.2,599.4 286.2,610.7
		262.3,502.5 282.6,493.8 271.2,441.2 310.5,432.3 305,408 125.4,448 116.9,410.2 123.4,408.9 118.9,388.6 231.7,363.6 237.7,355
		233.5,337.5 227.4,338.9 221.5,314.1 224.3,313.3 219.5,292.6 212.6,286.2 131.1,288 131.1,304.7 51.2,306.7 50.7,285.3
		44.9,285.3 43.6,248.7 128.3,247 128.3,230.7 234,228.5 237,239.8 241.1,238.9 241.5,241.4 250.4,239.3 249.7,237.1 264.1,234.2
		256.1,201.8 264.9,193.9 357.7,108.7 379.8,132.4 391.7,122 478.9,216.3 407.3,282.5 382,255.6 410.2,230 366.1,182.3 351.6,195.5
		356.4,200.6 332.4,222.9 343.2,270.7 328.3,274.3 335.7,305.3 319.6,309.5 323.4,326.8 329.3,325.5 350.8,423.2 432.6,405.2 	"/>
	<polygon class="st19" points="329.3,325.5 353.1,422.8 331.1,428.2 306.2,330.5 	"/>
	<polygon class="st19" points="405.3,234.7 382.1,255.7 407.4,282.6 479.1,216.5 410.1,141.4 392.4,157.9 447.9,216.2 439.4,224.3
		434.2,219 411.2,241 	"/>
	<polygon class="st19" points="405.6,224.9 425.5,206.7 367.8,143.9 347.2,163.2 365.3,183.4 366.5,182.4 	"/>
	<polygon class="st20" points="374.2,126.3 357.6,108.4 267,192.2 282.7,208.9 277.2,214 283.4,220.4 272.2,231.3 274,240.6
		271.2,241.2 273.7,252.9 262.1,256.1 272.4,302 279.3,300.3 280,303.5 291.5,301 290.7,297.9 298.5,296.2 302.8,313.7 335.9,305.4
		328.7,274.4 343.3,270.7 332.6,223.2 356.6,200.7 351.8,195.6 365.5,183.5 347.3,163.4 356.4,154.7 349.8,147.6 	"/>
	<polygon class="st20" points="222.8,262.1 254,261.6 256.7,272.5 253.2,274.4 255.4,283.9 252.7,285.7 255.2,296.6 265.4,312.8
		266.4,318.5 269.2,318 270.1,323.2 273,322.5 274.5,328.6 277.8,328.1 282.8,350.1 278.3,350.9 284.4,377.3 262.3,381.6
		257.1,357.8 236.5,362.5 232.1,363.5 237.2,354.9 233.6,337.7 226.8,339 221.4,314.1 224.4,313.3 219.7,292.8 212.7,286.2
		217.9,286 223.5,286 	"/>
	<polygon class="st20" points="43.8,248.7 128.5,247.1 129.2,271.7 44.3,273.6 	"/>
	<polygon class="st20" points="50.9,285.4 51.4,306.7 131.5,304.7 131.3,283.5 	"/>
	<polygon class="st20" points="128.2,230.7 223.3,228.8 223.9,253.7 128.6,255.6 	"/>
	<polygon class="st20" points="223.3,262.1 138.9,263.6 139.5,287.9 224,286 	"/>
	<polygon class="st20" points="257.1,357.5 231.9,363.2 118.6,388.9 123,409.2 261.6,378.4 	"/>
	<polygon class="st20" points="125.5,448.1 119.6,421.7 263.6,389.8 269.5,416.2 	"/>
	<path class="st21" d="M263.6,389.8l15.5-3.4l2.6,12.3l9.7-2.1c0,0,4.9,2.7,4.9,3.1c0,0.3,2.3,9.7,2.3,9.7l-29.2,6.9l-1.5-6.6
		L263.6,389.8z"/>
	<polygon class="st20" points="310.6,432.4 320,430.4 324.2,449.2 292.9,456.2 308.1,526 303,536.7 271.5,543.7 262.4,502.5
		282.7,493.8 271.3,441.3 	"/>
	<polygon class="st20" points="301.9,454.1 306.1,472.7 320.3,469.6 316,450.6 	"/>
	<polygon class="st20" points="335.7,494.2 331.4,474.7 371,466 375.3,485.4 	"/>
	<polygon class="st20" points="432.7,405.2 449.2,401.3 475.9,395.6 490.3,459.8 447.2,469.5 	"/>
	<g>
		<g>
			<polyline class="st22" points="323.2,312.5 322.9,311.2 324.2,310.8 			"/>
			<line class="st23" x1="326.5" y1="310.3" x2="334.4" y2="308.6"/>
			<line class="st24" x1="335.5" y1="308.3" x2="347.9" y2="305.5"/>
			<polyline class="st22" points="349,305.3 350.4,305 350.7,306.4 			"/>
			<line class="st25" x1="351.1" y1="308.3" x2="352.5" y2="314.9"/>
			<polyline class="st22" points="352.7,315.8 353,317.2 351.6,317.5 			"/>
			<line class="st26" x1="349.4" y1="318" x2="341.6" y2="319.8"/>
			<line class="st27" x1="340.5" y1="320.1" x2="328.2" y2="322.9"/>
			<polyline class="st22" points="327.1,323.2 325.7,323.5 325.4,322.1 			"/>
			<line class="st28" x1="325" y1="320.2" x2="323.4" y2="313.5"/>
		</g>
	</g>
	<g>
		<g>
			<polyline class="st29" points="231.8,203.8 231.5,202.4 232.9,202.1 			"/>
			<line class="st30" x1="234.4" y1="201.7" x2="239.7" y2="200.5"/>
			<line class="st31" x1="240.5" y1="200.4" x2="248.8" y2="198.5"/>
			<polyline class="st29" points="249.6,198.3 251,198 251.3,199.4 			"/>
			<line class="st32" x1="251.9" y1="202" x2="254" y2="211.2"/>
			<line class="st33" x1="254.3" y1="212.5" x2="257.6" y2="227"/>
			<polyline class="st29" points="257.9,228.3 258.2,229.7 256.9,230 			"/>
			<line class="st34" x1="255.3" y1="230.3" x2="249.9" y2="231.5"/>
			<line class="st35" x1="249.2" y1="231.7" x2="240.7" y2="233.6"/>
			<polyline class="st29" points="239.9,233.8 238.5,234.1 238.2,232.7 			"/>
			<line class="st36" x1="237.6" y1="230.1" x2="235.6" y2="220.9"/>
			<line class="st37" x1="235.3" y1="219.5" x2="232.1" y2="205.1"/>
		</g>
	</g>
	<polygon class="st38" points="175.7,560.5 200.8,555.1 211.9,561.3 272.3,547.8 271.5,543.7 303,536.7 308.8,563.2 292.6,566.8
		290.8,559.7 276,563 279.3,577.7 329.1,566.9 336.4,599.5 286.4,610.7 282.1,590.9 221.8,604.3 214.4,615.2 189.4,620.8
		167.5,607.1 161.9,582 	"/>
	<circle class="st2" cx="234.2" cy="173.1" r="15.8"/>
	<polygon class="st39" points="247.9,230.1 244,224 249.2,222.9 	"/>
	<polygon class="st39" points="326.1,317 332.1,313 333.3,318.3 	"/>
	<circle class="st40" cx="303.3" cy="232.4" r="3.5"/>
	<rect x="310.1" y="227.2" class="st0" width="140.6" height="11.7"/>
	<text transform="matrix(1 0 0 1 310.1183 237.1649)" class="st41 st42 st43">Speisesaal</text>
	<rect x="353.4" y="305.7" class="st0" width="60.2" height="11.7"/>
	<text transform="matrix(1 0 0 1 353.3531 315.6398)" class="st41 st42 st43">Eingang</text>
	<circle class="st40" cx="346" cy="312.4" r="3.5"/>
	<rect x="184.7" y="199" class="st0" width="60.2" height="11.7"/>
	<text transform="matrix(1 0 0 1 184.7019 208.9521)" class="st41 st42 st43">Eingang</text>
	<circle class="st40" cx="242.8" cy="206.3" r="3.5"/>
	<circle class="st40" cx="320.5" cy="338.7" r="3.5"/>
	<rect x="327.3" y="333.5" class="st0" width="140.6" height="11.7"/>
	<text transform="matrix(1 0 0 1 327.3038 343.4451)" class="st41 st42 st43">Empfang</text>
	<circle class="st40" cx="459.9" cy="430.1" r="3.5"/>
	<rect x="311.3" y="424.4" class="st0" width="140.6" height="11.7"/>
	<text transform="matrix(1 0 0 1 360.0882 434.364)" class="st41 st42 st43">Gymnastiksaal</text>
	<circle class="st40" cx="194.1" cy="588.1" r="3.5"/>
	<rect x="200.9" y="582" class="st0" width="140.6" height="11.7"/>
	<text transform="matrix(1 0 0 1 200.8592 591.9675)" class="st41 st42 st43">Bewegungsbad</text>
	<circle class="st40" cx="306.3" cy="588.8" r="3.5"/>
	<rect x="313.1" y="583.7" class="st0" width="140.6" height="11.7"/>
	<text transform="matrix(1 0 0 1 313.0326 593.639)" class="st41 st42 st43">Badehaus</text>
	<circle class="st40" cx="410.2" cy="257.5" r="3.5"/>
	<rect x="417" y="252.3" class="st0" width="140.6" height="11.7"/>
	<text transform="matrix(1 0 0 1 416.9833 262.2718)" class="st41 st42 st43">Konferenzraum</text>
	<circle class="st40" cx="247.5" cy="324" r="3.5"/>
	<rect x="98.9" y="318.3" class="st0" width="140.6" height="11.7"/>
	<text transform="matrix(1 0 0 1 182.7029 328.3182)" class="st41 st42 st43">Cafeteria</text>
	<circle class="st40" cx="285.8" cy="518.2" r="3.5"/>
	<rect x="137.1" y="512.6" class="st0" width="140.6" height="11.7"/>
	<text transform="matrix(1 0 0 1 212.3641 522.5447)" class="st41 st42 st43">Ruheraum</text>
	<circle class="st40" cx="345.5" cy="454.2" r="3.5"/>
	<rect x="352.3" y="449" class="st0" width="140.6" height="11.7"/>
	<text transform="matrix(1 0 0 1 352.2667 458.9771)" class="st41 st42 st43">Säulenhalle</text>

		<rect x="302.5" y="331.9" transform="matrix(0.9675 -0.253 0.253 0.9675 -76.3515 88.0387)" class="st20" width="3.3" height="18.1"/>
	<pattern  id="SVGID_2_" xlink:href="#SVGID_1_" patternTransform="matrix(1 0 0 -1 -527.7965 -16455.0742)">
	</pattern>
	<polygon class="st44" points="462.6,293.6 504.8,257.3 616,387.7 574.9,423.8 517.4,454.2 493.6,404 536.8,381.1 505.1,343.2
		497.1,350.5 488.6,341 497.1,333.9 	"/>
	<rect x="143.8" y="113" class="st0" width="183.2" height="62.3"/>
	<text transform="matrix(1 0 0 1 195.835 130.8957)" class="st41 st42 st45">Parken</text>
	<g>
		<polygon class="st21" points="67.7,248.2 83,248 83.5,272.9 68.4,273.1 		"/>
		<g>
			<line class="st46" x1="76" y1="265.4" x2="75.6" y2="248.1"/>
			<line class="st46" x1="68.4" y1="265.5" x2="83.6" y2="265.2"/>
		</g>
	</g>
	<line class="st46" x1="279.1" y1="386.4" x2="266.4" y2="402"/>
	<line class="st46" x1="283.4" y1="405.9" x2="268" y2="409.5"/>
	<polygon class="st18" points="249.9,473.2 265.4,469.8 268.9,485.5 253.5,488.9 	"/>
	<polygon class="st21" points="305.8,472.7 320.3,469.6 317.6,456.6 303.2,460 	"/>
	<line class="st46" x1="303.2" y1="460" x2="320.3" y2="469.6"/>
	<line class="st46" x1="317.6" y1="456.6" x2="305.8" y2="472.7"/>
	<g>
		<polygon class="st21" points="271.2,241.2 286.5,238 289.2,249.7 273.7,253.2 		"/>
		<line class="st46" x1="271.2" y1="241.2" x2="289.2" y2="249.7"/>
		<line class="st46" x1="273.7" y1="252.9" x2="286.5" y2="238"/>
	</g>
	<polygon class="st21" points="265.3,193.8 256.3,201.8 260.8,220.1 273.7,217.2 282.7,208.9 267,192.2 	"/>
	<polygon class="st21" points="321.6,532.3 312.1,534.3 318.5,562.3 327.7,560.6 	"/>
	<line class="st46" x1="317" y1="533.3" x2="321.9" y2="555"/>
	<line class="st46" x1="317.1" y1="556" x2="326.4" y2="554"/>
	<polygon class="st21" points="375.3,485.4 371,466 350.9,470.3 355.3,489.8 	"/>
	<line class="st46" x1="353.1" y1="480.1" x2="366.9" y2="477.1"/>
	<line class="st46" x1="364.8" y1="467.3" x2="369.1" y2="486.6"/>
	<polygon class="st21" points="429.5,390.5 446.6,386.7 449.8,401.2 432.7,405.2 	"/>
	<circle class="st46" cx="439.7" cy="396" r="5.9"/>
	<polyline class="st21" points="273.7,217.2 267,206.3 258.8,211.8 267,206.3 274.6,200.3 	"/>
	<g>
		<polygon class="st21" points="350.7,146.7 340.4,135.5 345.6,131 348.3,134 354.5,128.2 362.3,136.6 		"/>
		<line class="st46" x1="362.3" y1="136.6" x2="348.3" y2="134"/>
	</g>
	<line class="st46" x1="348.3" y1="134" x2="343" y2="138.4"/>
	<line class="st46" x1="345.6" y1="136.2" x2="353.2" y2="144.5"/>
	<line class="st46" x1="345.6" y1="131" x2="355.8" y2="142.3"/>
	<line class="st46" x1="354.5" y1="128.2" x2="355.8" y2="142.3"/>
	<line class="st46" x1="291.5" y1="396.5" x2="266.4" y2="402"/>
	<line class="st46" x1="263.6" y1="389.8" x2="281.7" y2="398.7"/>
	<line class="st46" x1="282.4" y1="402" x2="284.2" y2="409.9"/>
	<g>
		<polygon class="st21" points="140.8,417.1 155.8,413.9 161.3,440.1 146.5,443.5 		"/>
		<g>
			<line class="st46" x1="149.4" y1="421.1" x2="153.9" y2="441.8"/>
			<line class="st46" x1="156.8" y1="419.5" x2="142.1" y2="422.7"/>
		</g>
	</g>
	<polygon class="st21" points="424.8,228.3 433.3,237.4 440.4,231.1 451,242.2 459.9,234.1 445.6,218.7 439.4,224.5 434.1,219.2
		"/>
	<path class="st21" d="M434.2,219"/>
	<line class="st46" x1="455.2" y1="238.1" x2="445.2" y2="227.5"/>
	<line class="st46" x1="442.1" y1="230.1" x2="448.3" y2="224.8"/>
	<line class="st46" x1="433.3" y1="237.4" x2="431.4" y2="221.8"/>
	<line class="st46" x1="424.9" y1="228.3" x2="440.4" y2="231.1"/>
	<line class="st46" x1="450.9" y1="242.2" x2="431.4" y2="221.8"/>
	<g>
		<polygon class="st21" points="398.9,129.8 381.6,145.4 374.2,137 391.7,122 		"/>
		<line class="st46" x1="395.2" y1="126" x2="381.1" y2="138.4"/>
		<line class="st46" x1="378.5" y1="135.5" x2="383.7" y2="141.3"/>
	</g>
</g>
</svg>
