<?xml version="1.0" encoding="utf-8"?>
<!-- Generator: Adobe Illustrator 23.0.0, SVG Export Plug-In . SVG Version: 6.00 Build 0)  -->
<svg version="1.1" id="Ebene_1" xmlns="http://www.w3.org/2000/svg" xmlns:xlink="http://www.w3.org/1999/xlink" x="0px" y="0px"
	 viewBox="0 0 710.8 689.9" style="enable-background:new 0 0 710.8 689.9;" xml:space="preserve">
<style type="text/css">
	.st0{fill:none;stroke:#878787;stroke-width:0.326;stroke-miterlimit:10;}
	.st1{fill:#FFFFFF;}
	.st2{opacity:0.55;}
	.st3{fill:#DFDFDF;}
	.st4{fill:none;stroke:#1D1D1B;stroke-width:1.0006;stroke-miterlimit:10;}
	.st5{fill:none;stroke:#1D1D1B;stroke-width:1.0006;stroke-miterlimit:10;stroke-dasharray:2.9876,2.9876,9.9586,2.9876;}
	
		.st6{fill:none;stroke:#1D1D1B;stroke-width:1.0006;stroke-miterlimit:10;stroke-dasharray:9.9593,2.9876,2.9876,2.9876,9.9586,2.9876;}
	.st7{fill:none;stroke:#1D1D1B;stroke-width:1.0006;stroke-miterlimit:10;stroke-dasharray:3.0968,3.0968,10.3228,3.0968;}
	
		.st8{fill:none;stroke:#1D1D1B;stroke-width:1.0006;stroke-miterlimit:10;stroke-dasharray:10.3234,3.0968,3.0968,3.0968,10.3228,3.0968;}
	.st9{fill:none;stroke:#1D1D1B;stroke-width:1.0006;stroke-miterlimit:10;stroke-dasharray:2.9133,2.9133,9.7108,2.9133;}
	
		.st10{fill:none;stroke:#1D1D1B;stroke-width:1.0006;stroke-miterlimit:10;stroke-dasharray:9.7115,2.9133,2.9133,2.9133,9.7108,2.9133;}
	.st11{fill:none;stroke:#1D1D1B;stroke-width:1.0006;stroke-miterlimit:10;stroke-dasharray:2.972,2.972,9.9068,2.972;}
	
		.st12{fill:none;stroke:#1D1D1B;stroke-width:1.0006;stroke-miterlimit:10;stroke-dasharray:9.9074,2.972,2.972,2.972,9.9068,2.972;}
	.st13{fill:none;stroke:#1D1D1B;stroke-width:1.0006;stroke-miterlimit:10;stroke-dasharray:2.9894,2.9894,9.9648,2.9894;}
	
		.st14{fill:none;stroke:#1D1D1B;stroke-width:1.0006;stroke-miterlimit:10;stroke-dasharray:9.9654,2.9894,2.9894,2.9894,9.9648,2.9894;}
	.st15{fill:none;stroke:#1D1D1B;stroke-width:1.0006;stroke-miterlimit:10;stroke-dasharray:2.9841,2.9841,9.9471,2.9841;}
	
		.st16{fill:none;stroke:#1D1D1B;stroke-width:1.0006;stroke-miterlimit:10;stroke-dasharray:9.9478,2.9841,2.9841,2.9841,9.9471,2.9841;}
	.st17{fill:#FFF7CC;}
	.st18{fill:#FFD500;}
	.st19{fill:#FFF7CC;stroke:#878787;stroke-width:0.326;stroke-miterlimit:10;}
	.st20{fill:none;stroke:#878787;stroke-width:0.2268;stroke-miterlimit:10;}
	.st21{fill:#FFFFFF;stroke:#9D9D9C;stroke-miterlimit:10;}
	.st22{fill:none;}
	.st23{fill:#575756;}
	.st24{font-family:'ArialMT';}
	.st25{font-size:14px;}
</style>
<polyline class="st0" points="272,498.5 271.4,496.1 260.9,501.2 285.2,610.6 296.5,608 "/>
<path class="st1" d="M1.4,186.1c2.7,0.7,4.9,0.8,6.2,0.9c3.8,0.3,7.1,0.6,11.4,0.4c2.4-0.1,8.4-0.5,15.9-2.6
	c1.3-0.4,4.1-1.2,14.1-5.7c7.3-3.3,11.4-5.1,16.7-7.9c4.7-2.5,9.8-5.6,19.8-11.9c10.6-6.6,16-10,22-14.1c7.5-5.1,13.1-9.3,17.2-12.3
	c9.8-7.3,10.1-8,19.4-15c7.2-5.4,13-9.8,21.1-15C174.1,97.2,174,98,185,91c6.9-4.4,9.2-6.2,17.2-11c4.5-2.8,8.9-5.3,14.5-7.9
	c7.3-3.4,10.6-4.1,12.3-4.4c3.4-0.6,6-0.5,11-0.4c5.9,0.1,8.9,0,12.8,0.9c1.9,0.4,2.8,0.8,5.7,1.3c1.3,0.3,4,0.7,7.5,1.1
	c2.1,0.2,4.3,0.4,10.6,0.4c5.2,0.1,8.2,0.1,12.6,0c6.9-0.2,10.4-0.2,14.1-0.9c1.5-0.3,1.1-0.2,9.9-2.4c9.1-2.2,9.1-2.1,11.4-2.9
	c1.3-0.4,4.5-1.6,11-4c6.7-2.5,7.3-2.7,8.1-3.1c3.8-1.7,4.9-2.8,10.1-5.7c3.2-1.8,5.7-3.1,7.9-4.2c3.3-1.6,3.7-1.6,6.2-2.8
	c4.8-2.3,8.1-4.6,10.9-6.6c3.7-2.6,6.4-4.9,8.6-6.8c3.3-2.8,3.9-3.6,7.1-6.3c2.2-1.8,3.5-2.8,7.3-5.6c7-5.2,10.5-7.8,12.2-9.2
	c2.7-2.1,6.5-5.3,10.9-9.6l5.4,7.6l7.1,9.4L445,28l5.4,8.6l5.6,14.9l9.2,25.8c1.9,6.4,3.3,11.6,4.3,15.2c1.3,4.7,1.7,6.3,2.8,10.2
	c0.8,2.8,2,7,3.8,12.2c1.7,5.1,3,9,5.1,13.7c2.4,5.5,2.9,5.4,7.7,14.8c3.9,7.8,3.7,8,6.9,14c0.6,1,3.3,6.2,7.4,12.9
	c2.8,4.6,3.8,5.8,8.1,12.6c2.3,3.6,3.3,6.2,6.1,9.7c1.5,1.9,2.7,3,4.8,5.1c6.2,6.2,7.8,8.2,10.6,10.9c6.1,6,17,15.1,29.9,21.6
	c5.5,2.8,10.6,4.7,16.7,5.8c2.2,0.4,4.1,0.6,5.4,0.7l1,7.1l4.5,20l3.8,16.5c3.2,10.1,5.9,18.2,7.9,23.9c1.5,4.4,2.2,6.2,3,8.1
	c3.4,8.6,6.8,14.7,8.9,18.5c7.5,13.5,16.3,25.2,20.5,30.6l15.7,16.8l19.3,21.8l23.4,26.6l16.8,19.2l-4.1,6.8l-11.6,9.4l-15,15.4
	c-1.6,2.6-4.1,6.4-7.1,11.1c-3.1,4.8-4.6,6.9-7.9,11.9c-10.3,15.4-10.1,15.6-13.9,20.8c-3.8,5.2-3.4,4.1-11.2,13.9
	c-10.6,13.3-10.4,14.1-16.8,21.6c-2.4,2.8-6.8,7.3-15.5,16.3c-11.2,11.5-14.5,14.7-16,16c-6,5.5-11.3,9.7-15,12.6L564.4,612
	l-13.1-23c-3.5-5.7-6.3-10.4-8.3-13.5c-2.8-4.6-4-6.6-5.9-9.7c-4.1-6.6-5.4-7.1-7.3-11.2c-1.1-2.5-1.5-3.9-3.1-6.9
	c-1.8-3.3-2.8-5-4.6-6.1c-3.9-2.4-8.5-0.9-8.8-0.8c-0.8,0.3-1.4,0.6-5,3.5s-6.2,5.3-6.6,5.6c-1.5,1.3-4.1,3.7-7.8,6.9l-14.5,11.6
	l-21.9,12.9l-20.1,12.6l-16.3,9.1c-10,4.3-18.1,7.7-23.9,10.1c-8.3,3.4-12,4.9-20.4,8.5c-9.3,4-14.1,6-19.2,8.5
	c-3.4,1.7-10.3,5.1-18.7,10c-1.3,0.8-1.3,0.8-14.4,8.9c-12.1,7.5-13.9,8.7-16.8,10.4c-5.2,3.1-9.6,5.6-13,7.5
	c-6.9,3.9-10.4,5.9-12,6.7c-2.8,1.4-5.3,2.7-10.2,5.5c-1.5,0.8-3.7,2.1-5.6,4.5c-1.1,1.3-1.7,2.6-2.1,3.5l-0.3,1.1l-4.2,0.2
	c-2.3,0.2-5.2,0.4-8.7,0.7c-2.4,0.2-6.6,0.4-11.3,0.6c-8.1,0.2-14.1,0-20.6-0.3c-7.5-0.3-11.3-0.5-14.4-1.3c-5-1.3-8.5-3.1-12-4.8
	c-4.1-2.1-8.3-4.2-12.8-8.4c-0.8-0.8-0.5-0.6-7-7.9c-5.9-6.7-6.2-6.9-7.8-8.9c-2.3-2.8-4.7-5.8-7-9.9c-1.7-3-4-7.5-5.7-13.4
	l-3.7-10.2l-3.8-8.4c-0.1-4.5-0.3-11.2-0.7-19.4c-0.6-11.6-0.9-11.7-1.3-22.2c-0.4-9.4-0.7-21.3-0.6-26.2c0-2.3-0.2-4.7,0-7
	c0.1-0.7,0.2-1.6-0.1-2.9c-0.3-1.3-0.8-2.2-1.7-3.6c-0.6-0.9-1.3-2.2-2.7-3.6c-0.2-0.2-1.2-1.1-2.6-2.1c-1.6-1.1-2.3-1.2-3.3-2.3
	c-0.7-0.8-1.1-1.5-1.2-1.7c-0.7-1.3-0.8-2.5-0.8-3.1c-0.1-1.4,0.1-2.5,0.4-3.8c0.1-0.7,0.4-1.8,1-3.1c0.5-1.3,1.2-2.2,2.4-3.8
	c2.5-3.3,2.8-3.3,4.2-5.3c0.9-1.3,1.9-2.8,2.7-4.9c0.6-1.5,1-2.7,1-4.3s-0.6-2.7-1.9-5.4c-1.5-3-2.6-5-3.2-6.1
	c-2.2-4.2-3.6-7.4-4-8.3c-1.7-3.9-1.2-3.7-2.6-6.9c-0.5-1.3-2.3-5.3-5.5-9.9c-1.2-1.7-2.2-3-4.2-5.4c-3.1-3.8-6.1-7.4-10.3-11.4
	c-2.2-2.1-4.5-4-9-7.7c-5.5-4.5-6.6-5.1-9.7-7.7c-4.7-4-7.8-7.3-11.2-11.1c-19.2-21-28.9-36.8-28.9-36.8
	C41,362.8,35.8,348,34.5,344.4c-4.7-13.6-6.7-24.7-8.3-34c-2.9-17-1.2-16.4-3.5-29.6c-2.7-15.4-8.6-35.9-16.3-53.7
	c-1.6-3.7-4.8-10.8-5.9-20.8c-0.7-6.8-0.2-12.6,0.3-16.3L1.4,186.1z"/>
<g class="st2">
	<path class="st3" d="M1.7,185.9c2.7,0.7,4.9,0.8,6.2,0.9c3.8,0.3,7.1,0.6,11.4,0.4c2.4-0.1,8.4-0.5,15.9-2.6
		c1.3-0.4,4.1-1.2,14.1-5.7c7.3-3.3,11.4-5.1,16.7-7.9c4.7-2.5,9.8-5.6,19.8-11.9c10.6-6.6,16-10,22-14.1
		c7.5-5.1,13.1-9.3,17.2-12.3c9.8-7.3,10.1-8,19.4-15c7.2-5.4,13-9.8,21.1-15c8.9-5.7,8.8-4.9,19.8-11.9c6.9-4.4,9.2-6.2,17.2-11
		c4.5-2.8,8.9-5.3,14.5-7.9c7.3-3.4,10.6-4.1,12.3-4.4c3.4-0.6,6-0.5,11-0.4c5.9,0.1,8.9,0,12.8,0.9c1.9,0.4,2.8,0.8,5.7,1.3
		c1.3,0.3,4,0.7,7.5,1.1c2.1,0.2,4.3,0.4,10.6,0.4c5.2,0.1,8.2,0.1,12.6,0c6.9-0.2,10.4-0.2,14.1-0.9c1.5-0.3,1.1-0.2,9.9-2.4
		c9.1-2.2,9.1-2.1,11.4-2.9c1.3-0.4,4.5-1.6,11-4c6.7-2.5,7.3-2.7,8.1-3.1c3.8-1.7,4.9-2.8,10.1-5.7c3.2-1.8,5.7-3.1,7.9-4.2
		c3.3-1.6,3.7-1.6,6.2-2.8c4.8-2.3,8.1-4.6,10.9-6.6c3.7-2.6,6.4-4.9,8.6-6.8c3.3-2.8,3.9-3.6,7.1-6.3c2.2-1.8,3.5-2.8,7.3-5.6
		c7-5.2,10.5-7.8,12.2-9.2c2.7-2.1,6.5-5.3,10.9-9.6l5.4,7.6l7.1,9.4l7.6,10.1l5.4,8.6l5.6,14.9l9.2,25.8c1.9,6.4,3.3,11.6,4.3,15.2
		c1.3,4.7,1.7,6.3,2.8,10.2c0.8,2.8,2,7,3.8,12.2c1.7,5.1,3,9,5.1,13.7c2.4,5.5,2.9,5.4,7.7,14.8c3.9,7.8,3.7,8,6.9,14
		c0.6,1,3.3,6.2,7.4,12.9c2.8,4.6,3.8,5.8,8.1,12.6c2.3,3.6,3.3,6.2,6.1,9.7c1.5,1.9,2.7,3,4.8,5.1c6.2,6.2,7.8,8.2,10.6,10.9
		c6.1,6,17,15.1,29.9,21.6c5.5,2.8,10.6,4.7,16.7,5.8c2.2,0.4,4.1,0.6,5.4,0.7l1,7.1l4.5,20l3.8,16.5c3.2,10.1,5.9,18.2,7.9,23.9
		c1.5,4.4,2.2,6.2,3,8.1c3.4,8.6,6.8,14.7,8.9,18.5c7.5,13.5,16.3,25.2,20.5,30.6l15.7,16.8l19.3,21.8l23.4,26.6l16.8,19.2l-4.1,6.8
		l-11.6,9.4l-15,15.4c-1.6,2.6-4.1,6.4-7.1,11.1c-3.1,4.8-4.6,6.9-7.9,11.9c-10.3,15.4-10.1,15.6-13.9,20.8
		c-3.8,5.2-3.4,4.1-11.2,13.9c-10.6,13.3-10.4,14.1-16.8,21.6c-2.4,2.8-6.8,7.3-15.5,16.3c-11.2,11.5-14.5,14.7-16,16
		c-6,5.5-11.3,9.7-15,12.6l-11.1,10.4L551.5,589c-3.5-5.7-6.3-10.4-8.3-13.5c-2.8-4.6-4-6.6-5.9-9.7c-4.1-6.6-5.4-7.1-7.3-11.2
		c-1.1-2.5-1.5-3.9-3.1-6.9c-1.8-3.3-2.8-5-4.6-6.1c-3.9-2.4-8.5-0.9-8.8-0.8c-0.8,0.3-1.4,0.6-5,3.5s-6.2,5.3-6.6,5.6
		c-1.5,1.3-4.1,3.7-7.8,6.9l-14.5,11.6L458,580.9l-20.1,12.6l-16.3,9.1c-10,4.3-18.1,7.7-23.9,10.1c-8.3,3.4-12,4.9-20.4,8.5
		c-9.3,4-14.1,6-19.2,8.5c-3.4,1.7-10.3,5.1-18.7,10c-1.3,0.8-1.3,0.8-14.4,8.9c-12.1,7.5-13.9,8.7-16.8,10.4
		c-5.2,3.1-9.6,5.6-13,7.5c-6.9,3.9-10.4,5.9-12,6.7c-2.8,1.4-5.3,2.7-10.2,5.5c-1.5,0.8-3.7,2.1-5.6,4.5c-1.1,1.3-1.7,2.6-2.1,3.5
		l-0.3,1.1l-4.2,0.2c-2.3,0.2-5.2,0.4-8.7,0.7c-2.4,0.2-6.6,0.4-11.3,0.6c-8.1,0.2-14.1,0-20.6-0.3c-7.5-0.3-11.3-0.5-14.4-1.3
		c-5-1.3-8.5-3.1-12-4.8c-4.1-2.1-8.3-4.2-12.8-8.4c-0.8-0.8-0.5-0.6-7-7.9c-5.9-6.7-6.2-6.9-7.8-8.9c-2.3-2.8-4.7-5.8-7-9.9
		c-1.7-3-4-7.5-5.7-13.4l-3.7-10.2l-3.8-8.4c-0.1-4.5-0.3-11.2-0.7-19.4c-0.6-11.6-0.9-11.7-1.3-22.2c-0.4-9.4-0.7-21.3-0.6-26.2
		c0-2.3-0.2-4.7,0-7c0.1-0.7,0.2-1.6-0.1-2.9c-0.3-1.3-0.8-2.2-1.7-3.6c-0.6-0.9-1.3-2.2-2.7-3.6c-0.2-0.2-1.2-1.1-2.6-2.1
		c-1.6-1.1-2.3-1.2-3.3-2.3c-0.7-0.8-1.1-1.5-1.2-1.7c-0.7-1.3-0.8-2.5-0.8-3.1c-0.1-1.4,0.1-2.5,0.4-3.8c0.1-0.7,0.4-1.8,1-3.1
		c0.5-1.3,1.2-2.2,2.4-3.8c2.5-3.3,2.8-3.3,4.2-5.3c0.9-1.3,1.9-2.8,2.7-4.9c0.6-1.5,1-2.7,1-4.3s-0.6-2.7-1.9-5.4
		c-1.5-3-2.6-5-3.2-6.1c-2.2-4.2-3.6-7.4-4-8.3c-1.7-3.9-1.2-3.7-2.6-6.9c-0.5-1.3-2.3-5.3-5.5-9.9c-1.2-1.7-2.2-3-4.2-5.4
		c-3.1-3.8-6.1-7.4-10.3-11.4c-2.2-2.1-4.5-4-9-7.7c-5.5-4.5-6.6-5.1-9.7-7.7c-4.7-4-7.8-7.3-11.2-11.1
		c-19.2-21-28.9-36.8-28.9-36.8C41.5,362.4,36.3,347.6,35,344c-4.7-13.6-6.7-24.7-8.3-34c-2.9-17-1.2-16.4-3.5-29.6
		c-2.7-15.4-8.6-35.9-16.3-53.7C5.3,223,2.1,215.9,1,205.9c-0.7-6.8-0.2-12.6,0.3-16.3L1.7,185.9z"/>
	<g>
		<path class="st4" d="M1.1,190.9c0.1-0.4,0.1-0.8,0.2-1.2l0.5-3.8c2,0.5,3.7,0.7,4.9,0.8"/>
		<path class="st5" d="M9.7,187c3.1,0.3,6.1,0.4,9.7,0.3c1.4-0.1,4.1-0.2,7.7-0.8"/>
		<path class="st6" d="M28.5,186.2c2-0.4,4.3-0.9,6.7-1.6c1.3-0.4,4.1-1.2,14.1-5.7c7.3-3.3,11.4-5.1,16.7-7.9
			c4.7-2.5,9.8-5.6,19.8-11.9c10.6-6.6,16-10,22-14.1c7.5-5.1,13.1-9.3,17.2-12.3c9.8-7.3,10.1-8,19.4-15c7.2-5.4,13-9.8,21.1-15
			c8.9-5.7,8.8-4.9,19.8-11.9c6.9-4.4,9.2-6.2,17.2-11c4.5-2.8,8.9-5.3,14.5-7.9c7.3-3.4,10.6-4.1,12.3-4.4c3.4-0.6,6-0.5,11-0.4
			c5.9,0.1,8.9,0,12.8,0.9c1.9,0.4,2.8,0.8,5.7,1.3c1.3,0.3,4,0.7,7.5,1.1c2.1,0.2,4.3,0.4,10.6,0.4c5.2,0.1,8.2,0.1,12.6,0
			c6.9-0.2,10.4-0.2,14.1-0.9c1.5-0.3,1.1-0.2,9.9-2.4c9.1-2.2,9.1-2.1,11.4-2.9c1.3-0.4,4.5-1.6,11-4c6.7-2.5,7.3-2.7,8.1-3.1
			c3.8-1.7,4.9-2.8,10.1-5.7c3.2-1.8,5.7-3.1,7.9-4.2c3.3-1.6,3.7-1.6,6.2-2.8c4.8-2.3,8.1-4.6,10.9-6.6c3.7-2.6,6.4-4.9,8.6-6.8
			c3.3-2.8,3.9-3.6,7.1-6.3c2.2-1.8,3.5-2.8,7.3-5.6c7-5.2,10.5-7.8,12.2-9.2c1.6-1.3,3.7-3,6.1-5.2"/>
		<path class="st4" d="M421.7,4.2c1.2-1.1,2.4-2.2,3.7-3.4l2.9,4.1"/>
		<polyline class="st7" points="430,7.4 430.8,8.4 437.9,17.8 440.9,21.8 		"/>
		<path class="st8" d="M441.8,23.1l3.6,4.8l5.4,8.6l5.6,14.9l9.2,25.8c1.9,6.4,3.3,11.6,4.3,15.2c1.3,4.7,1.7,6.3,2.8,10.2
			c0.8,2.8,2,7,3.8,12.2c1.7,5.1,3,9,5.1,13.7c2.4,5.5,2.9,5.4,7.7,14.8c3.9,7.8,3.7,8,6.9,14c0.6,1,3.3,6.2,7.4,12.9
			c2.8,4.6,3.8,5.8,8.1,12.6c2.3,3.6,3.3,6.2,6.1,9.7c1.5,1.9,2.7,3,4.8,5.1c6.2,6.2,7.8,8.2,10.6,10.9c6.1,6,17,15.1,29.9,21.6
			c5.2,2.6,10.1,4.5,15.6,5.6"/>
		<path class="st4" d="M580.4,235.9c2,0.3,3.7,0.5,5,0.6l0.7,5"/>
		<line class="st9" x1="586.5" y1="244.3" x2="590.2" y2="260.9"/>
		<path class="st10" d="M590.5,262.3l0.3,1.2l3.8,16.5c3.2,10.1,5.9,18.2,7.9,23.9c1.5,4.4,2.2,6.2,3,8.1c3.4,8.6,6.8,14.7,8.9,18.5
			c7.5,13.5,16.3,25.2,20.5,30.6l15.7,16.8l19.3,21.8l23.4,26.6l12.6,14.3"/>
		<polyline class="st4" points="706.9,441.8 710.2,445.5 707.6,449.8 		"/>
		<polyline class="st11" points="706,452.3 694.5,461.7 692.8,463.5 		"/>
		<path class="st12" d="M691.7,464.5L679.4,477c-1.6,2.6-4.1,6.4-7.1,11.1c-3.1,4.8-4.6,6.9-7.9,11.9
			c-10.3,15.4-10.1,15.6-13.9,20.8c-3.8,5.2-3.4,4.1-11.2,13.9c-10.6,13.3-10.4,14.1-16.8,21.6c-2.4,2.8-6.8,7.3-15.5,16.3
			c-11.2,11.5-14.5,14.7-16,16c-6,5.5-11.3,9.7-15,12.6l-6.3,6"/>
		<polyline class="st4" points="568.5,608.2 564.9,611.6 562.4,607.3 		"/>
		<line class="st13" x1="560.9" y1="604.7" x2="552.1" y2="589.6"/>
		<path class="st14" d="M551.3,588.4c-3.4-5.5-6.1-10-8-13c-2.8-4.6-4-6.6-5.9-9.7c-4.1-6.6-5.4-7.1-7.3-11.2
			c-1.1-2.5-1.5-3.9-3.1-6.9c-1.8-3.3-2.8-5-4.6-6.1c-3.9-2.4-8.5-0.9-8.8-0.8c-0.8,0.3-1.4,0.6-5,3.5s-6.2,5.3-6.6,5.6
			c-1.5,1.3-4.1,3.7-7.8,6.9l-14.5,11.6L458,580.9l-20.1,12.6l-16.3,9.1c-10,4.3-18.1,7.7-23.9,10.1c-8.3,3.4-12,4.9-20.4,8.5
			c-9.3,4-14.1,6-19.2,8.5c-3.4,1.7-10.3,5.1-18.7,10c-1.3,0.8-1.3,0.8-14.4,8.9c-12.1,7.5-13.9,8.7-16.8,10.4
			c-5.2,3.1-9.6,5.6-13,7.5c-6.9,3.9-10.4,5.9-12,6.7c-2.8,1.4-5.3,2.7-10.2,5.5c-1.3,0.7-3.1,1.7-4.8,3.6"/>
		<path class="st4" d="M267.2,683.5c-1,1.3-1.6,2.5-1.9,3.3l-0.3,1.1l-4.2,0.2c-0.3,0-0.5,0-0.8,0.1"/>
		<path class="st15" d="M257,688.5c-1.5,0.1-3.1,0.2-4.9,0.3c-2.4,0.2-6.6,0.4-11.3,0.6c-0.4,0-0.8,0-1.1,0"/>
		<path class="st16" d="M238.1,689.4c-6.8,0.1-12.2-0.1-18-0.4c-7.5-0.3-11.3-0.5-14.4-1.3c-5-1.3-8.5-3.1-12-4.8
			c-4.1-2.1-8.3-4.2-12.8-8.4c-0.8-0.8-0.5-0.6-7-7.9c-5.9-6.7-6.2-6.9-7.8-8.9c-2.3-2.8-4.7-5.8-7-9.9c-1.7-3-4-7.5-5.7-13.4
			l-3.7-10.2l-3.8-8.4c-0.1-4.5-0.3-11.2-0.7-19.4c-0.6-11.6-0.9-11.7-1.3-22.2c-0.4-9.4-0.7-21.3-0.6-26.2c0-2.3-0.2-4.7,0-7
			c0.1-0.7,0.2-1.6-0.1-2.9c-0.3-1.3-0.8-2.2-1.7-3.6c-0.6-0.9-1.3-2.2-2.7-3.6c-0.2-0.2-1.2-1.1-2.6-2.1c-1.6-1.1-2.3-1.2-3.3-2.3
			c-0.7-0.8-1.1-1.5-1.2-1.7c-0.7-1.3-0.8-2.5-0.8-3.1c-0.1-1.4,0.1-2.5,0.4-3.8c0.1-0.7,0.4-1.8,1-3.1c0.5-1.3,1.2-2.2,2.4-3.8
			c2.5-3.3,2.8-3.3,4.2-5.3c0.9-1.3,1.9-2.8,2.7-4.9c0.6-1.5,1-2.7,1-4.3s-0.6-2.7-1.9-5.4c-1.5-3-2.6-5-3.2-6.1
			c-2.2-4.2-3.6-7.4-4-8.3c-1.7-3.9-1.2-3.7-2.6-6.9c-0.5-1.3-2.3-5.3-5.5-9.9c-1.2-1.7-2.2-3-4.2-5.4c-3.1-3.8-6.1-7.4-10.3-11.4
			c-2.2-2.1-4.5-4-9-7.7c-5.5-4.5-6.6-5.1-9.7-7.7c-4.7-4-7.8-7.3-11.2-11.1c-19.2-21-28.9-36.8-28.9-36.8
			c-10.7-17.4-15.9-32.2-17.2-35.8c-4.7-13.6-6.7-24.7-8.3-34c-2.9-17-1.2-16.4-3.5-29.6c-2.7-15.4-8.6-35.9-16.3-53.7
			C5.2,223,2,215.9,0.9,205.9c-0.6-5.4-0.4-10.1,0-13.7"/>
	</g>
</g>
<polygon class="st17" points="428.9,390.6 445.9,386.8 449.3,401.5 475.3,395.9 489.7,459.8 304.6,501.2 312.5,537 321.8,534.8 
	327.7,561.9 318.5,563.9 326.9,601.6 296.8,608.3 272.3,498.1 282.1,493.9 270.7,441.3 310,432.4 304.6,408.2 124.9,448.1 
	116.5,410.3 122.9,409 119,392.1 231.3,367.2 258.6,361 242.2,279.7 131.2,282.2 131.1,298 51.2,299.4 51,285.5 44.5,285.5 
	43.2,248.8 127.9,247.1 127.9,230.8 233.6,228.7 236.6,239.9 240.7,239.1 241,241.5 249.9,239.4 249.3,233.1 262.6,230.2 
	255.7,201.9 264.5,194 363.3,102.9 385.8,127 389,124.2 472.9,214.9 403.4,278.8 384.7,258.6 412.2,232.8 359,173.9 343.7,187.6 
	350.2,194.6 317.7,225 327.9,274.4 327.9,274.4 335.3,305.4 319.1,309.6 322.9,326.9 328.9,325.6 343.1,388.4 323.3,392.7 
	331,427.5 432.1,405.3 "/>
<polygon class="st18" points="329.1,325.7 343.3,388.5 320.1,393.6 306,330.7 "/>
<polygon class="st18" points="407.6,237.4 384.7,258.6 403.4,278.8 472.9,214.9 396.5,132 381.4,145.6 447.6,216.4 439.2,224.5 
	433.9,219.2 411,241.2 "/>
<polygon class="st18" points="43.6,248.9 128.3,247.3 129,271.9 44.1,273.8 "/>
<polygon class="st18" points="50.7,285.6 51,300 131.2,298.3 131.1,283.7 "/>
<polygon class="st18" points="128,230.9 254.3,228.4 256.4,237.7 260.1,253.2 128.4,255.7 "/>
<polygon class="st18" points="223.1,262.3 138.7,263.8 139.1,282 223,280.1 "/>
<polygon class="st18" points="259.1,360.9 119,392.1 122.8,409.4 263.1,378.4 "/>
<polygon class="st18" points="125.3,448.2 119.4,421.9 263.4,390 269.2,416.4 "/>
<path class="st19" d="M263.4,390l15.5-3.4l2.6,12.3l9.7-2.1c0,0,4.9,2.7,4.9,3.1c0,0.3,2.3,9.7,2.3,9.7l-29.2,6.9l-1.5-6.6
	L263.4,390z"/>
<polygon class="st18" points="310.4,432.6 319.7,430.6 324,449.4 294.6,456 301.4,487.3 299.3,491.8 288.7,494.3 289.8,499.1 
	291.8,498.7 293.5,502.3 295.4,511.2 300.9,536.3 304.3,535.6 309.1,556.4 304.1,557.4 307.5,572.6 289.6,576.6 272,498.5 
	282.5,494 271.1,441.5 "/>
<g>
	<polygon class="st19" points="67.5,248.4 82.8,248.2 83.3,273.1 68.2,273.3 	"/>
	<g>
		<line class="st0" x1="75.7" y1="265.6" x2="75.4" y2="248.3"/>
		<line class="st0" x1="68.2" y1="265.7" x2="83.3" y2="265.4"/>
	</g>
</g>
<line class="st0" x1="278.9" y1="386.6" x2="266.1" y2="402.2"/>
<line class="st0" x1="283.2" y1="406.1" x2="267.8" y2="409.7"/>
<polygon class="st17" points="249.6,473.4 265.2,470 268.7,485.7 253.3,489.1 "/>
<polygon class="st19" points="305.6,472.9 320.1,469.8 317.4,456.8 303,460.2 "/>
<line class="st0" x1="303" y1="460.2" x2="320.1" y2="469.8"/>
<line class="st0" x1="317.4" y1="456.8" x2="305.6" y2="472.9"/>
<path class="st19" d="M321.8,534.8l-9.4,2.1l4.7,20.5l9.3-1.9C318.7,520.1,323.5,542.9,321.8,534.8z"/>
<line class="st0" x1="317.3" y1="536" x2="320.8" y2="551.5"/>
<line class="st0" x1="316" y1="552.6" x2="325.2" y2="550.6"/>
<line class="st0" x1="291.3" y1="396.7" x2="266.1" y2="402.2"/>
<line class="st0" x1="263.4" y1="390" x2="281.5" y2="398.9"/>
<line class="st0" x1="282.2" y1="402.2" x2="283.9" y2="410.1"/>
<g>
	<polygon class="st19" points="140.6,417.3 155.5,414.1 161.1,440.3 146.2,443.7 	"/>
	<g>
		<line class="st0" x1="149.2" y1="421.3" x2="153.7" y2="441.9"/>
		<line class="st0" x1="156.6" y1="419.7" x2="141.8" y2="422.9"/>
	</g>
</g>
<polygon class="st19" points="424.5,228.4 433.1,237.6 440.1,231.3 447.1,238.5 456,230.3 445.4,218.9 439.2,224.7 433.9,219.4 "/>
<path class="st19" d="M433.9,219.2"/>
<line class="st0" x1="451.4" y1="234.5" x2="445" y2="227.6"/>
<line class="st0" x1="441.9" y1="230.3" x2="448" y2="225"/>
<line class="st0" x1="433.1" y1="237.6" x2="431.2" y2="222"/>
<line class="st0" x1="424.7" y1="228.5" x2="440.1" y2="231.3"/>
<line class="st0" x1="447.1" y1="238.5" x2="431.2" y2="222"/>
<g>
	<polygon class="st19" points="398.7,130 381.4,145.6 373.9,137.2 391.5,122.2 	"/>
	<line class="st0" x1="394.9" y1="126.2" x2="380.9" y2="138.6"/>
	<line class="st0" x1="378.3" y1="135.7" x2="383.5" y2="141.5"/>
</g>
<polygon class="st18" points="289.6,349.4 301.4,346.9 308.1,379.9 296.6,382.5 "/>
<polygon class="st18" points="273.5,253.1 285.5,307.1 301.8,303.5 288.9,249.9 "/>
<polygon class="st18" points="335.5,305.5 311.2,311.7 292,222.3 285.8,215.7 367.7,143 425.2,206.9 406,225.9 359.2,175 
	345.4,187.8 351.1,194.4 317.9,225.1 "/>
<polygon class="st0" points="322.6,311.5 349.8,305 352.5,317.2 325.4,323.8 "/>
<polygon class="st18" points="222.1,262.3 251.4,261.9 252.7,267.6 258.5,266.1 261.4,279.1 266.1,278.5 283.2,356.9 276.7,358.2 
	278.7,367.2 274.6,373.5 268.7,374.9 269.2,377.1 261.4,378.6 257.9,357.7 242.5,286.1 242.2,279.7 222.5,280.1 "/>
<polygon class="st18" points="266.6,192.1 363.3,102.9 379.6,120.3 282.5,209.1 "/>
<polyline class="st0" points="234.4,359.7 237,355.1 209,331.4 218.5,293 211.2,286.8 "/>
<g>
	<polygon class="st19" points="276.9,358.2 283,356.8 282.1,352.7 275.9,354.1 	"/>
	<line class="st0" x1="275.9" y1="354.2" x2="283" y2="356.8"/>
	<line class="st0" x1="282" y1="352.8" x2="276.9" y2="358.2"/>
</g>
<polygon class="st18" points="338.6,493.6 334.2,473.2 312.3,478.1 305.9,479.6 310.3,499.9 "/>
<polygon class="st18" points="331.3,427.6 335.5,446.4 348.1,443.9 349.8,451.5 477.5,423.1 479.7,433.1 442.1,440.8 443.1,446.2 
	427,449.9 425.3,443.5 368.4,456.3 375.1,485.6 489.9,459.9 475.6,396 "/>
<g>
	<polygon class="st20" points="226.6,564 201.4,547.9 172.4,554.6 156.4,579.9 162.7,609 187.9,625 217.2,618.8 233.3,593.9 	"/>
	<line class="st20" x1="218.5" y1="558.6" x2="271.2" y2="546.9"/>
	<line class="st20" x1="228" y1="601.8" x2="280.6" y2="589.9"/>
</g>
<circle class="st21" cx="367.4" cy="162.8" r="3.5"/>
<rect x="374.2" y="157.6" class="st22" width="140.6" height="11.7"/>
<text transform="matrix(1 0 0 1 374.1805 167.5959)" class="st23 st24 st25">Sonographie</text>
<circle class="st21" cx="412" cy="422.5" r="3.5"/>
<rect x="420.1" y="416.7" class="st22" width="140.6" height="33.5"/>
<text transform="matrix(1 0 0 1 420.0839 426.6452)" class="st23 st24 st25">Röntgen</text>
<text transform="matrix(1 0 0 1 420.0839 442.6452)" class="st23 st24 st25">(Sportklinik)</text>
<line class="st0" x1="343.2" y1="388.6" x2="350.8" y2="423.4"/>
<polyline class="st19" points="319.7,430.6 314.5,406.1 304.8,408.2 "/>
<polyline class="st0" points="365,181.4 351.1,194.4 355.4,199.7 331.9,221.5 342.6,269.6 328.5,272.9 "/>
<g>
	<polygon class="st19" points="264.8,194 255.8,202 260.3,220.3 273.2,217.4 282.2,209.1 266.5,192.4 	"/>
	<polyline class="st19" points="273.2,217.4 266.5,206.5 258.2,212 266.5,206.5 274.1,200.5 	"/>
</g>
<circle class="st21" cx="347.8" cy="174.9" r="3.5"/>
<rect x="200.4" y="168.1" class="st22" width="140.6" height="11.7"/>
<text transform="matrix(1 0 0 1 265.507 178.1169)" class="st23 st24 st25">Psychologie</text>
<polyline class="st0" points="235,228.6 228.3,198.6 247.8,194.3 255,225.9 253.7,226.5 254.2,228.4 "/>
<g>
	<polygon class="st19" points="429.3,390.7 446.3,386.9 449.6,401.4 432.5,405.4 	"/>
	<circle class="st0" cx="439.4" cy="396.2" r="5.9"/>
</g>
<g>
	<polygon class="st19" points="375.1,485.6 370.8,466.2 350.7,470.5 355.1,490 	"/>
	<line class="st0" x1="352.9" y1="480.3" x2="366.7" y2="477.3"/>
	<line class="st0" x1="364.6" y1="467.5" x2="368.9" y2="486.8"/>
</g>
<g>
	<polygon class="st19" points="271.3,241.6 286.1,238.4 288.8,249.8 273.7,253.2 	"/>
	<line class="st0" x1="288.8" y1="249.8" x2="271.3" y2="241.6"/>
	<line class="st0" x1="286.1" y1="238.4" x2="273.7" y2="253.2"/>
</g>
<polyline class="st0" points="51.2,300 51.2,306.8 131.1,304.7 131.1,298.3 "/>
<polyline class="st0" points="131.2,285.9 137.8,285.9 137.8,288.3 242.5,286.1 "/>
<polyline class="st0" points="119.1,392.1 117.8,385.9 257.3,354.7 "/>
<polyline class="st0" points="398.7,130 401.3,127.6 481.5,215.1 407.4,283.1 403.4,278.8 "/>
<polyline class="st0" points="384.7,258.6 380.3,253.4 407.8,228.4 "/>
<polygon class="st18" points="318.7,563.9 326.9,601.6 296.6,608.3 289.6,576.6 313.8,571.2 312.6,565.4 "/>
<polyline class="st0" points="312.4,537 308.7,537.9 300.8,502.2 304.6,501.2 "/>
<polyline class="st0" points="282.7,491.2 260.9,500.4 285.5,611.1 338.2,599.7 315.7,498.7 323.7,534.4 321.8,534.8 "/>
<polyline class="st0" points="326.9,601.6 338.2,599.1 329.8,561.4 328.9,561.6 327.7,561.9 "/>
<polyline class="st0" points="284.1,496.1 282.6,496.5 284.7,505.9 492,459.6 489.9,450.2 487.6,450.4 "/>
<polygon class="st0" points="462.3,293.8 504.6,257.5 615.8,387.9 574.6,424 517.2,454.4 493.4,404.2 536.5,381.3 504.8,343.4 
	496.9,350.6 488.3,341.2 496.9,334.1 "/>
</svg>
