<svg id="Erdgeschoss" xmlns="http://www.w3.org/2000/svg" viewBox="0 0 975.63 989.35"><defs><style>.cls-1,.cls-10,.cls-9{fill:#dfdfdf;stroke-dasharray:10 3 3 3 10 3;}.cls-1{stroke:#1d1d1b;}.cls-1,.cls-10,.cls-12,.cls-13,.cls-14,.cls-15,.cls-16,.cls-17,.cls-18,.cls-19,.cls-20,.cls-22,.cls-23,.cls-24,.cls-25,.cls-4,.cls-5,.cls-6,.cls-7,.cls-8,.cls-9{stroke-miterlimit:10;}.cls-2,.cls-4,.cls-5,.cls-6{fill:#fff7cc;}.cls-3{fill:#ffd500;}.cls-12,.cls-13,.cls-14,.cls-15,.cls-16,.cls-17,.cls-18,.cls-19,.cls-20,.cls-25,.cls-4,.cls-5,.cls-6,.cls-7,.cls-8,.cls-9{stroke:#878787;}.cls-10,.cls-4,.cls-7,.cls-8,.cls-9{stroke-width:0.5px;}.cls-5{stroke-width:0.33px;}.cls-25,.cls-6{stroke-width:0.33px;}.cls-12,.cls-13,.cls-14,.cls-15,.cls-16,.cls-17,.cls-18,.cls-19,.cls-20,.cls-23,.cls-24,.cls-25,.cls-7,.cls-8{fill:none;}.cls-23,.cls-7{stroke-dasharray:3 3 3 3 3 3;}.cls-10,.cls-23,.cls-24{stroke:#000;}.cls-11{font-size:25px;letter-spacing:-0.02em;}.cls-11,.cls-26,.cls-29{fill:#575756;}.cls-11,.cls-26{font-family:ArialMT, Arial;}.cls-12,.cls-13,.cls-14,.cls-15,.cls-16,.cls-17,.cls-18,.cls-19,.cls-20{stroke-width:0.33px;}.cls-13{stroke-dasharray:1.56 1.56 1.56 1.56;}.cls-14{stroke-dasharray:1.56 1.56 1.56 1.56 1.56 1.56;}.cls-15{stroke-dasharray:2.7 2.7 2.7 2.7;}.cls-16{stroke-dasharray:2.7 2.7 2.7 2.7 2.7 2.7;}.cls-17{stroke-dasharray:1.58 1.58 1.58 1.58;}.cls-18{stroke-dasharray:1.58 1.58 1.58 1.58 1.58 1.58;}.cls-19{stroke-dasharray:2.7 2.7 2.7 2.7;}.cls-20{stroke-dasharray:2.7 2.7 2.7 2.7 2.7 2.7;}.cls-21{fill:#e30613;}.cls-22{fill:#fff;stroke:#9d9d9c;}.cls-23{stroke-width:0.2px;}.cls-24{stroke-width:0.1px;}.cls-26{font-size:14px;}.cls-27{letter-spacing:-0.02em;}.cls-28{letter-spacing:-0.06em;}</style></defs><title>WZK_Bad_Füssing_200227_EG</title><path class="cls-1" d="M406.38,988.55s23.94-28.93,29.93-36.24l35.91-31.26,41.57-38.24s80.48-52.55,82.14-54.21,23-15,23-15l107.41-46.89,25.93-12.31S850,694.59,857,687.94s79.48-73.16,79.48-73.16l20.29-19L975,565.23l-199.86-267L625,98.23s-7.54-8.87,2.66-20L563.78.69.68,418.91,135,618.1,254.08,798.34Z"/><polyline class="cls-2" points="360.66 160 360.05 159.14 423.92 112.39 493.76 207.91 367.89 300.19 448.03 409.1 580.47 311.67 597.01 334.2 605.16 328.13 634.59 306.51 687.16 378.12 700.13 368.59 780.03 477.44 712.43 525.1 741.47 570.88 675.52 628.19 617.21 545.05 543.39 597.71 537.4 609.46 489.18 543.67 451.83 571.05 434.07 583.93 377.04 625.92 388.87 641.56 389.34 641.21 414.69 675.69 300.56 759.35 275.01 725.15 268.07 716.37 242.88 681.95 319.38 625.83 324.45 632.78 342.28 619.93 342.35 619.83 330.89 603.58 310.78 576.2 443.4 479.1 440.19 474.56 458.85 460.98 432.82 425.06 406.05 388.82 298.64 467.79 266.71 446.95 259.62 452.28 197.27 368.81 204.2 363.88 216 351.07 264.83 315.71"/><polygon class="cls-3" points="299.86 759.99 414.69 675.69 389.31 641.22 274.53 725.51 299.86 759.99"/><polygon class="cls-3" points="242.88 681.95 268.07 716.37 363.37 646.59 337.99 612.01 242.88 681.95"/><polygon class="cls-3" points="356.67 598.32 377.04 625.92 434.07 583.93 414.03 556.5 356.67 598.32"/><polygon class="cls-3" points="330.89 603.58 310.78 576.2 443.4 479.1 463.47 506.48 330.89 603.58"/><polyline class="cls-3" points="451.83 571.05 431.57 543.53 488.85 501.8 502.71 520.72 530 500.83 552.1 531.02 550.32 541.56 570.55 544.67 571.04 541.45 574.92 538.74 596.93 568.64 538.9 611.31 489.1 543.53"/><polygon class="cls-3" points="290.82 429.88 311.77 458.15 407.8 387.9 387.09 359.47 290.82 429.88"/><polygon class="cls-3" points="188.12 370.03 274.03 487.19 300.08 468.02 284.89 447.4 287.67 445.29 217.17 349.08 188.12 370.03"/><polygon class="cls-3" points="247.98 371.25 227.14 342.87 264.83 315.71 263.83 314.38 223.98 259.79 360.66 160 389.01 198.52 290.88 271.15 302.74 287.89 295.09 293.76 315.49 321.81 247.98 371.25"/><polygon class="cls-3" points="322.91 316.49 296.06 279.74 334.39 251.56 361.24 288.39 322.91 316.49"/><polygon class="cls-3" points="283.51 420.07 359.66 364.54 338.29 335.61 359.66 320.56 352.09 310.5 255.16 381.58 283.51 420.07"/><polygon class="cls-3" points="386.49 286.45 407.55 271.15 370.86 221.22 360.55 229.03 367.92 239.06 357.44 246.82 386.49 286.45"/><polygon class="cls-3" points="448.03 409.1 468.23 436.45 601.03 339.21 580.47 311.67 448.03 409.1"/><polygon class="cls-3" points="474.66 445.51 499.71 479.99 538.4 451.83 513.02 417.14 474.66 445.51"/><polyline class="cls-3" points="549.49 390.53 606.79 348.86 661.11 420.91 621.65 449.73 587.62 402.73 568.44 416.14"/><polyline class="cls-3" points="687.82 435.48 709.04 419.49 724.41 408.24 733.1 420.07 685.76 454.6 664.47 425.55 661.11 420.91 603.08 463.47 630.51 501.38 615.22 512.19 610.56 505.7 588.17 521.89 619.87 567 625.86 562.46 675.08 630.3 757.77 570.66 721.3 520.5 780.03 477.44 713.32 386.16 671.48 416.83"/><polygon class="cls-3" points="661.22 403.06 689.93 381.78 634.59 306.51 606.13 327.46 661.22 403.06"/><polygon class="cls-3" points="389.01 198.52 407.05 223.21 392.58 234.02 415.19 265.11 493.76 207.91 423.92 112.39 360.05 159.14 389.01 198.52"/><polygon class="cls-4" points="348.94 349.78 368.77 335.42 378.42 349.07 358.62 363.32 348.94 349.78"/><polyline class="cls-4" points="373.71 342.43 359.49 352.86 364.07 359.14 358.27 351.2 354.4 345.82"/><path class="cls-2" d="M465.52,470"/><polygon class="cls-4" points="316.6 584.4 330.89 603.58 323.76 608.74 316.04 614.33 301.96 595.27 309.37 589.77 316.6 584.4"/><line class="cls-4" x1="314.56" y1="596.62" x2="323.77" y2="608.74"/><polygon class="cls-4" points="268.05 716.42 282.34 735.6 275.21 740.76 267.49 746.35 253.41 727.29 260.82 721.79 268.05 716.42"/><line class="cls-4" x1="260.82" y1="721.79" x2="275.21" y2="740.76"/><path class="cls-2" d="M345.36,335.78"/><polygon class="cls-4" points="345.36 335.78 351.51 344.03 366.53 333 360.44 324.69 345.36 335.78"/><line class="cls-5" x1="345.36" y1="335.78" x2="366.53" y2="333"/><line class="cls-6" x1="360.44" y1="324.69" x2="351.51" y2="344.03"/><polygon class="cls-7" points="621.65 449.73 593.82 411.37 557.77 438.07 585.21 476.27 621.65 449.73"/><polyline class="cls-4" points="678.49 411.89 688.92 426.11 695.2 421.53 687.26 427.33 681.88 431.2"/><polygon class="cls-4" points="685.84 436.66 671.48 416.83 678.56 411.83 685.13 407.18 699.38 426.98 692.65 431.8 685.84 436.66"/><polygon class="cls-4" points="694.29 400.41 685.96 406.46 696.79 421.62 705.18 415.63 694.29 400.41"/><line class="cls-5" x1="694.29" y1="400.41" x2="696.79" y2="421.62"/><line class="cls-6" x1="705.18" y1="415.63" x2="685.96" y2="406.46"/><polygon class="cls-4" points="478.31 450.29 483.18 457.01 490.85 451.33 485.94 444.62 478.31 450.29"/><line class="cls-6" x1="485.94" y1="444.62" x2="483.18" y2="457.01"/><line class="cls-6" x1="478.31" y1="450.29" x2="490.85" y2="451.33"/><polygon class="cls-4" points="485.28 459.84 490.14 466.55 497.81 460.88 492.9 454.17 485.28 459.84"/><line class="cls-6" x1="492.9" y1="454.17" x2="490.14" y2="466.55"/><line class="cls-6" x1="485.28" y1="459.84" x2="497.81" y2="460.88"/><polygon class="cls-4" points="492.05 469.38 498.2 477.64 513.22 466.61 507.12 458.3 492.05 469.38"/><line class="cls-5" x1="492.05" y1="469.38" x2="513.22" y2="466.61"/><line class="cls-6" x1="507.12" y1="458.3" x2="498.2" y2="477.64"/><polygon class="cls-4" points="383.19 632.71 390.86 627.19 412.92 657.01 405.09 662.74 383.19 632.71"/><polygon class="cls-4" points="350.93 602.82 337.99 612.01 363.37 646.59 372.05 640.13 367.31 633.75 365.19 635.35 349.52 614.07 355.79 609.58 350.93 602.82"/><line class="cls-4" x1="306.95" y1="602.02" x2="321.81" y2="591.4"/><polyline class="cls-8" points="355.79 609.58 371.35 630.68 367.31 633.75"/><polygon class="cls-4" points="349.52 614.07 343 618.83 337.99 612.01 344.69 607.25 349.52 614.07"/><polygon class="cls-4" points="369.9 641.73 363.37 646.59 358.65 640.16 365.19 635.35 369.9 641.73"/><path class="cls-2" d="M393.23,222.8"/><polyline class="cls-4" points="387.62 211.46 394.67 206.27 407.05 223.21 392.58 234.02 384.59 239.91 371.96 222.72 379.28 217.5"/><polygon class="cls-4" points="379.28 217.5 387.62 211.46 394.96 221.55 386.68 227.51 379.28 217.5"/><line class="cls-4" x1="385.91" y1="226.47" x2="378.66" y2="231.84"/><line class="cls-4" x1="388.58" y1="226.14" x2="393.69" y2="233.19"/><polygon class="cls-4" points="394.96 221.55 402.09 216.42 407.05 223.21 398.19 229.66 393.23 222.8 394.96 221.55"/><line class="cls-4" x1="391.26" y1="229.56" x2="395.76" y2="226.3"/><polygon class="cls-4" points="675.88 362.67 690.87 351.74 694.29 356.62 696.79 354.79 704.3 365.6 700.13 368.59 687.16 378.12 675.88 362.67"/><polyline class="cls-4" points="694.29 356.62 684.83 363.38 681.39 358.65"/><path class="cls-1" d="M692.3,358"/><line class="cls-4" x1="692.3" y1="358.04" x2="699.9" y2="368.75"/><polygon class="cls-4" points="411.29 464.22 417.19 472.12 430.99 461.89 440.19 474.56 458.42 461.14 443.35 440.25 411.29 464.22"/><line class="cls-9" x1="423.66" y1="455.14" x2="429.44" y2="463.04"/><polygon class="cls-4" points="580.47 311.67 586.88 307.12 598.2 322.7 623.47 303.93 628.57 310.94 605.16 328.13 597.01 334.2 580.47 311.67"/><path class="cls-9" d="M622,315.57"/><path class="cls-3" d="M488.85,501.8"/><path class="cls-3" d="M448.35,468.59"/><polygon class="cls-4" points="463.47 506.48 482.28 492.65 475.22 483.17 464.74 490.82 455.21 477.55 465.52 470.01 458.92 460.87 440.19 474.56 463.47 506.48"/><line class="cls-4" x1="465.52" y1="470.01" x2="475.22" y2="483.17"/><line class="cls-6" x1="455.22" y1="477.73" x2="475.3" y2="483.17"/><line class="cls-6" x1="465.54" y1="470.23" x2="464.91" y2="490.66"/><polyline class="cls-8" points="446.75 483.67 455.21 477.55 448.73 468.31"/><polyline class="cls-4" points="471.8 500.36 464.74 490.82 456.41 496.85"/><line class="cls-4" x1="388.87" y1="640.56" x2="396.55" y2="634.88"/><polyline class="cls-8" points="678.56 411.83 688.92 426.11 688.71 426.26 681.88 431.2 695.2 421.53"/><polygon class="cls-10" points="492.84 790.58 454.93 737.82 558.35 662.33 596.93 714.54 492.84 790.58"/><text class="cls-11" transform="translate(509.33 724.67)">P</text><line class="cls-4" x1="606.13" y1="327.46" x2="601" y2="320.31"/><polygon class="cls-4" points="643.49 318.62 654.58 310.63 665.82 326.38 654.9 334.22 643.49 318.62"/><polyline class="cls-4" points="650.23 327.84 655.18 324.3 659.7 330.54"/><line class="cls-4" x1="655.18" y1="324.3" x2="661.11" y2="320.04"/><polyline class="cls-12" points="635.24 599.16 636.08 600.3 634.94 601.15"/><line class="cls-13" x1="633.69" y1="602.08" x2="629.31" y2="605.33"/><line class="cls-14" x1="628.69" y1="605.8" x2="621.81" y2="610.91"/><polyline class="cls-12" points="621.18 611.38 620.04 612.22 619.2 611.09"/><line class="cls-15" x1="617.58" y1="608.92" x2="611.92" y2="601.36"/><line class="cls-16" x1="611.11" y1="600.28" x2="602.21" y2="588.39"/><polyline class="cls-12" points="601.41 587.31 600.56 586.18 601.7 585.33"/><line class="cls-17" x1="602.96" y1="584.4" x2="607.4" y2="581.11"/><line class="cls-18" x1="608.04" y1="580.64" x2="615.02" y2="575.48"/><polyline class="cls-12" points="615.65 575.01 616.79 574.17 617.63 575.31"/><line class="cls-19" x1="619.23" y1="577.48" x2="624.83" y2="585.07"/><line class="cls-20" x1="625.63" y1="586.15" x2="634.43" y2="598.08"/><polygon class="cls-21" points="609.89 581.63 615.91 585.57 611.62 588.74 609.89 581.63"/><circle class="cls-22" cx="642.8" cy="628.79" r="3.5"/><path class="cls-23" d="M389.59,198.27l-19.23-26.38,10-7.15s28.88,27.88,44.12,60.47l-9.7,7.09Z"/><polygon class="cls-4" points="457.83 219.33 463.07 226.32 488.18 207.78 483.1 200.71 457.83 219.33"/><line class="cls-4" x1="472.19" y1="219.58" x2="467.06" y2="212.43"/><polyline class="cls-24" points="387.09 325.25 399.29 318.82 485.08 255.63 491.29 263.39 404.17 327.24 395.07 336.11 387.09 325.25"/><path class="cls-2" d="M360.05,159.14"/><polyline class="cls-25" points="494.3 550.76 436.2 593.83 382.66 633.07 388.87 641.56 389.34 641.21 414.69 675.69 300.56 759.35 275.01 725.15 268.07 716.37 242.88 681.95 319.38 625.83 337.32 612.67"/><polyline class="cls-25" points="494.28 550.6 537.4 609.46 545.94 621.1 619.87 567 673.58 639.55 766.52 572.21 725.95 517.12 780.03 477.44 700.13 368.59 687.16 378.12 634.59 306.51 605.16 328.13 597.01 334.2 580.47 311.67 448.03 409.1 367.89 300.19 493.76 207.91 423.92 112.39 360.05 159.14 360.66 160 298.51 205.47 204.03 274.59 183.63 271.32 180.81 289.55 199.87 292.43 214.84 313.16 132.78 373.35 150.99 398.02 144.06 402.95 229.25 519.67 236.34 514.35 254.3 539.4 424.78 413.92 432.82 425.06 458.85 460.98 440.19 474.56 443.4 479.1 310.78 576.2 330.89 603.58 337.32 612.67"/><text class="cls-26" transform="translate(548.61 632.7)">Haupteingang</text><circle class="cls-22" cx="318.19" cy="206.09" r="3.5"/><text class="cls-26" transform="translate(326.34 210.26)">T4,<tspan class="cls-27" x="20.23" y="0"> </tspan><tspan x="23.86" y="0">T5</tspan></text><circle class="cls-22" cx="267.65" cy="335.45" r="3.5"/><text class="cls-26" transform="translate(186.03 339.62)">Labor/ EKG</text><circle class="cls-22" cx="297.8" cy="379.34" r="3.5"/><text class="cls-26" transform="translate(305.95 383.52)">Röntgen</text><circle class="cls-22" cx="382.93" cy="384.66" r="3.5"/><text class="cls-26" transform="translate(391.08 388.84)">T3</text><circle class="cls-22" cx="317.75" cy="433.88" r="3.5"/><text class="cls-26" transform="translate(325.9 438.05)">Sozialdienst</text><circle class="cls-22" cx="248.03" cy="420.13" r="3.5"/><text class="cls-26" transform="translate(183.31 424.31)">Chefarzt/ <tspan x="-75.47" y="16.8">Ärztliches Sekretariat</tspan></text><circle class="cls-22" cx="474.71" cy="411.27" r="3.5"/><text class="cls-26" transform="translate(482.86 415.44)">Lehrküche</text><circle class="cls-22" cx="528.8" cy="371.36" r="3.5"/><text class="cls-26" transform="translate(536.95 375.53)">Studio<tspan class="cls-28" x="39.7" y="0" xml:space="preserve"> A</tspan></text><circle class="cls-22" cx="339.48" cy="576.65" r="3.5"/><text class="cls-26" transform="translate(252.02 580.82)">Diätberatung</text><path class="cls-29" d="M216.6,774.32l1-.73,8.21.34c.58,0,1.11.07,1.57.13l-3.31-4.5,1-.7,4.24,5.78-1,.7-8.93-.42-.93-.07,3.79,5.15-1,.7Z"/><path class="cls-29" d="M224.86,785.57l.86-.64a2.65,2.65,0,0,1-2.36-1.13,3,3,0,0,1-.51-1.11,2.09,2.09,0,0,1,0-1,2.63,2.63,0,0,1,.51-.85,6.53,6.53,0,0,1,.89-.74l3.62-2.66.73,1-3.25,2.39a7,7,0,0,0-1,.83,1.23,1.23,0,0,0-.32.84,1.6,1.6,0,0,0,.32.92,2.09,2.09,0,0,0,.85.67,1.53,1.53,0,0,0,1,.09,3.9,3.9,0,0,0,1.26-.67l3.14-2.3.72,1-5.85,4.29Z"/><path class="cls-29" d="M226.83,788.24l5.08-3.73-.65-.87.78-.57.64.88.62-.46a3.33,3.33,0,0,1,.95-.54,1.64,1.64,0,0,1,1,0,2.23,2.23,0,0,1,1,.83,5.85,5.85,0,0,1,.58,1l-1,.49a4.78,4.78,0,0,0-.38-.63,1.06,1.06,0,0,0-.66-.49,1.29,1.29,0,0,0-.86.34l-.54.39.84,1.15-.77.56-.84-1.14-5.08,3.73Z"/><path class="cls-29" d="M232.48,794.43a4.7,4.7,0,0,1-1.44-.57,4,4,0,0,1-1-1,2.64,2.64,0,0,1-.62-1.82,2,2,0,0,1,.83-1.41,2,2,0,0,1,.93-.38,2,2,0,0,1,.94.1,2.74,2.74,0,0,1,.85.47,10.08,10.08,0,0,1,.8.77,10.55,10.55,0,0,0,1.64,1.52l.26-.18a1.36,1.36,0,0,0,.65-.91,2.09,2.09,0,0,0-.49-1.38,2.22,2.22,0,0,0-1-.85,1.93,1.93,0,0,0-1.23.14l-.58-1.06a3,3,0,0,1,1.33-.31,2.45,2.45,0,0,1,1.23.45,4.83,4.83,0,0,1,1.18,1.17,4.27,4.27,0,0,1,.72,1.35,2,2,0,0,1,.06,1,2,2,0,0,1-.45.8,6,6,0,0,1-.87.72l-1.33,1a17.7,17.7,0,0,0-1.7,1.35,2.75,2.75,0,0,0-.52.77l-.76-1A2.55,2.55,0,0,1,232.48,794.43Zm2.15-1.71a9.06,9.06,0,0,1-1.56-1.34,4.22,4.22,0,0,0-.84-.72,1,1,0,0,0-.6-.16,1.24,1.24,0,0,0-.58.21,1.08,1.08,0,0,0-.44.79,1.61,1.61,0,0,0,.38,1.07,2.65,2.65,0,0,0,1,.84,2,2,0,0,0,1.17.15,3.07,3.07,0,0,0,1.11-.57Z"/><path class="cls-29" d="M233.56,797.42l8.08-5.93.73,1-2.9,2.13a2.78,2.78,0,0,1,2.09,1.16,2.88,2.88,0,0,1,.57,1.32,1.91,1.91,0,0,1-.2,1.21,4.18,4.18,0,0,1-1.16,1.16l-3.71,2.73-.73-1,3.71-2.72a1.86,1.86,0,0,0,.84-1.11,1.5,1.5,0,0,0-.33-1.17,2,2,0,0,0-.83-.66,1.67,1.67,0,0,0-1-.1,3.67,3.67,0,0,0-1.2.63l-3.2,2.35Z"/><path class="cls-29" d="M238.16,803.69l5.85-4.3.66.89-.89.65a3.2,3.2,0,0,1,1.28,0,1.38,1.38,0,0,1,.67.49,2.49,2.49,0,0,1,.43,1.26L245,803a1.86,1.86,0,0,0-.32-.88,1.13,1.13,0,0,0-.63-.44,1.32,1.32,0,0,0-.81,0,4.71,4.71,0,0,0-1.28.69l-3.06,2.25Z"/><path class="cls-29" d="M243.4,809l-.77.79a4.93,4.93,0,0,1-.64-.69,2.12,2.12,0,0,1-.44-1,1.18,1.18,0,0,1,.14-.75,4.57,4.57,0,0,1,1.08-1l3.37-2.47-.54-.73.78-.57.53.73,1.45-1.06,1.32.55-2.05,1.5.74,1-.78.56-.73-1-3.42,2.52a2.29,2.29,0,0,0-.51.45.47.47,0,0,0-.06.31.73.73,0,0,0,.17.39A3.61,3.61,0,0,0,243.4,809Z"/><path class="cls-29" d="M245.62,813.85l8.08-5.93,2.24,3.05a10,10,0,0,1,.82,1.29,2.9,2.9,0,0,1,.35,1.27,2.4,2.4,0,0,1-.3,1.22,3.23,3.23,0,0,1-3.15,1.68,3.91,3.91,0,0,1-2.45-1.85l-1.52-2.07-3.29,2.41Zm5-2,1.54,2.09a2.72,2.72,0,0,0,1.46,1.19,1.73,1.73,0,0,0,1.41-.36,1.93,1.93,0,0,0,.68-.89,1.52,1.52,0,0,0,0-1,6.85,6.85,0,0,0-.66-1l-1.52-2.07Z"/><path class="cls-29" d="M254.58,824.54a4.37,4.37,0,0,1-1.44-.57,3.91,3.91,0,0,1-1-1,2.68,2.68,0,0,1-.62-1.83,1.92,1.92,0,0,1,.83-1.4,1.9,1.9,0,0,1,.93-.38,1.86,1.86,0,0,1,.94.09,3.1,3.1,0,0,1,.85.47,8.92,8.92,0,0,1,.8.78,11.67,11.67,0,0,0,1.64,1.52l.26-.19a1.39,1.39,0,0,0,.65-.91,2.08,2.08,0,0,0-.49-1.37,2.25,2.25,0,0,0-1-.86,1.88,1.88,0,0,0-1.23.15l-.58-1.07a2.86,2.86,0,0,1,1.33-.3,2.34,2.34,0,0,1,1.23.44,4.71,4.71,0,0,1,1.18,1.18,4.34,4.34,0,0,1,.72,1.34,2,2,0,0,1,.06,1,1.9,1.9,0,0,1-.45.8,5.66,5.66,0,0,1-.88.72l-1.32,1a17.7,17.7,0,0,0-1.7,1.35,2.75,2.75,0,0,0-.52.77l-.76-1A2.69,2.69,0,0,1,254.58,824.54Zm2.15-1.7a9.21,9.21,0,0,1-1.56-1.35,5.06,5.06,0,0,0-.84-.72,1,1,0,0,0-.61-.15,1.07,1.07,0,0,0-1,1,1.6,1.6,0,0,0,.38,1.07,2.5,2.5,0,0,0,1,.84,1.92,1.92,0,0,0,1.17.15,3.07,3.07,0,0,0,1.11-.57Z"/><path class="cls-29" d="M255.65,827.52l5.85-4.29.66.89-.89.65a2.86,2.86,0,0,1,1.28,0,1.32,1.32,0,0,1,.67.49,2.34,2.34,0,0,1,.43,1.25l-1.17.34a1.79,1.79,0,0,0-.32-.89,1.23,1.23,0,0,0-.63-.44,1.26,1.26,0,0,0-.81,0,5.13,5.13,0,0,0-1.28.68l-3.06,2.25Z"/><path class="cls-29" d="M258.42,831.3l8.08-5.93.73,1-4.61,3.38,4.1.6.95,1.29-3.82-.65L262,836.15l-.9-1.23,1.57-4.13-1.18-.2-2.32,1.7Z"/><path class="cls-29" d="M260.31,838.58l8.1-5.94.66.9-.76.56a2.79,2.79,0,0,1,1.2.23,2.45,2.45,0,0,1,.94.81,2.81,2.81,0,0,1,.13,3.27,4.82,4.82,0,0,1-1.32,1.43,4.89,4.89,0,0,1-1.86.86,3,3,0,0,1-3.12-1.14,2.31,2.31,0,0,1-.44-1,2.41,2.41,0,0,1,.05-1L261,839.57Zm5.8-2.87a3.12,3.12,0,0,0-1.33,1.68,1.74,1.74,0,0,0,.27,1.51,1.78,1.78,0,0,0,1.39.72,3.32,3.32,0,0,0,2.08-.8,3.27,3.27,0,0,0,1.34-1.69,1.75,1.75,0,0,0-.25-1.51,1.81,1.81,0,0,0-1.42-.69A3.34,3.34,0,0,0,266.11,835.71Z"/><path class="cls-29" d="M267.15,843.19l8.08-5.93.73,1-8.08,5.93Z"/><path class="cls-29" d="M272.53,849a4.56,4.56,0,0,1-1.44-.58,3.74,3.74,0,0,1-1-.95,2.64,2.64,0,0,1-.61-1.83,1.93,1.93,0,0,1,.82-1.4,2,2,0,0,1,.93-.38,2.16,2.16,0,0,1,.95.09,3.29,3.29,0,0,1,.85.48,10.24,10.24,0,0,1,.79.77,11.08,11.08,0,0,0,1.64,1.52l.26-.18a1.36,1.36,0,0,0,.65-.91,2,2,0,0,0-.49-1.38,2.14,2.14,0,0,0-1-.85,1.79,1.79,0,0,0-1.23.14l-.58-1.07a3.13,3.13,0,0,1,1.32-.3,2.3,2.3,0,0,1,1.23.45,4.86,4.86,0,0,1,1.19,1.17,4.43,4.43,0,0,1,.71,1.35,1.89,1.89,0,0,1,.06,1,2,2,0,0,1-.44.81,9.25,9.25,0,0,1-.88.72l-1.32,1a16.75,16.75,0,0,0-1.71,1.35,2.92,2.92,0,0,0-.52.76l-.76-1A2.59,2.59,0,0,1,272.53,849Zm2.15-1.71a8.76,8.76,0,0,1-1.56-1.35,4.82,4.82,0,0,0-.83-.71,1.06,1.06,0,0,0-.61-.16,1,1,0,0,0-.57.21,1,1,0,0,0-.45.78,1.64,1.64,0,0,0,.38,1.08,2.54,2.54,0,0,0,1,.83,1.92,1.92,0,0,0,1.17.16,3.07,3.07,0,0,0,1.11-.57Z"/><path class="cls-29" d="M276.09,853.51l-.77.79a4.39,4.39,0,0,1-.64-.69,2.15,2.15,0,0,1-.45-1,1.19,1.19,0,0,1,.15-.75,4.18,4.18,0,0,1,1.08-1l3.37-2.47-.54-.73.77-.56.54.72,1.45-1.06,1.32.55-2.05,1.5.73,1-.77.56-.73-1L276.13,852a2.07,2.07,0,0,0-.51.45.48.48,0,0,0-.07.31.75.75,0,0,0,.18.39A3.61,3.61,0,0,0,276.09,853.51Z"/><path class="cls-29" d="M275.53,854.61l.8-.59,7,.59c-.33-.41-.61-.78-.85-1.1l-1.75-2.39.8-.59,3.51,4.79-.65.48-6-.44-1.13-.12c.36.42.68.83,1,1.22l2,2.7-.85.63Z"/><circle class="cls-22" cx="383.81" cy="544.73" r="3.5"/><text class="cls-26" transform="translate(323.6 548.9)">Studio B</text><circle class="cls-22" cx="433.92" cy="508.81" r="3.5"/><text class="cls-26" transform="translate(371.38 512.99)">Bücherei</text><circle class="cls-22" cx="395.68" cy="591.06" r="3.5"/><text class="cls-26" transform="translate(403.82 595.23)">Anmeldung <tspan x="0" y="16.8">ambulant</tspan></text><circle class="cls-22" cx="527.36" cy="525.22" r="3.5"/><text class="cls-26" transform="translate(535.51 529.39)"><tspan class="cls-28">V</tspan><tspan x="8.57" y="0">erwaltung</tspan></text><circle class="cls-22" cx="571.26" cy="440.75" r="3.5"/><text class="cls-26" transform="translate(579.41 444.93)">Cafe Lounge</text><circle class="cls-22" cx="666.29" cy="565.22" r="3.5"/><text class="cls-26" transform="translate(674.44 569.4)">Speisesaal</text><path class="cls-29" d="M531.19,739a5.36,5.36,0,0,1-2,2.11,5.25,5.25,0,0,1-2.79.78,5.37,5.37,0,0,1-4.5-8.31,5.34,5.34,0,0,1,2.34-2l-.21-1.57a6.91,6.91,0,0,0-3.62,10,6.92,6.92,0,0,0,2.52,2.52A6.94,6.94,0,0,0,533,738.56l-1.23-2.44A5.14,5.14,0,0,1,531.19,739Z"/><path class="cls-29" d="M538.36,737.32,536,738.5,533.25,733a.72.72,0,0,0-.69-.42H527.1l-.19-1.53h4.88v-1.54h-5.07l-.45-3.47a1.73,1.73,0,0,0,1.44-.5,1.92,1.92,0,0,0-1.29-3.33,2,2,0,0,0-1.17.38,1.77,1.77,0,0,0-.68,1,1.28,1.28,0,0,0-.07.51l1.15,9.35a.72.72,0,0,0,.26.48.76.76,0,0,0,.51.2h5.66l2.87,5.72a.72.72,0,0,0,.69.42.66.66,0,0,0,.34-.08l3.08-1.54Z"/><polygon class="cls-1" points="247.09 543.28 139.02 624.09 41.58 479.1 144.06 402.95 247.09 543.28"/><text class="cls-11" transform="translate(135.56 519.83)">P</text></svg>