<svg id="Ebene_1" data-name="Ebene 1" xmlns="http://www.w3.org/2000/svg" viewBox="0 0 39.69 39.69"><defs><style>.cls-1{fill:#fff;stroke:#be2518;stroke-miterlimit:10;}</style></defs><path class="cls-1" d="M26.66,34.79a16.6,16.6,0,0,0,2.91-7.52c.5-3.53.57-7.29.73-9.44s3.38-9-.72-13.28C27,1.9,22.06,3.73,19.52,3.74S15.64,3,12.75,3.55,7.77,6.94,8.06,11s1.23,5,1.48,7.53c.42,4.25,0,8.68,1.37,12s3.84,6.69,4.61,6.69,1.32-4.73,1.13-8,.89-7.63,2.69-7.87c2.33-.32,3.24,3.25,3.29,6.39.06,4.1-.06,9.07.93,9.81.51.38,2.34-1.68,3.1-2.73"/></svg>