<?xml version="1.0" encoding="utf-8"?>
<!-- Generator: Adobe Illustrator 22.1.0, SVG Export Plug-In . SVG Version: 6.00 Build 0)  -->
<!DOCTYPE svg PUBLIC "-//W3C//DTD SVG 1.1//EN" "http://www.w3.org/Graphics/SVG/1.1/DTD/svg11.dtd">
<svg version="1.1" id="Ebene_1" xmlns="http://www.w3.org/2000/svg" xmlns:xlink="http://www.w3.org/1999/xlink" x="0px" y="0px"
	 viewBox="0 0 54.6 52.2" style="enable-background:new 0 0 54.6 52.2;" xml:space="preserve">
<style type="text/css">
	.st0{fill:#fc0;}
	.st1{fill:#FFFFFF;}
	.st2{fill:#87888A;}
</style>
<title>food_svg</title>
<path class="st0" d="M48.2,51.2H5.2C3,51.2,1,49.3,1,47V9.1c0-2.3,1.9-4.1,4.2-4.1h43c2.3,0,4.2,1.9,4.2,4.2v37.9
	C52.4,49.3,50.5,51.2,48.2,51.2z"/>
<g>
	<rect x="12.2" y="17.7" class="st1" width="6.4" height="4.8"/>
	<rect x="12.2" y="25.8" class="st1" width="6.4" height="4.8"/>
	<rect x="12.2" y="33.8" class="st1" width="6.4" height="4.8"/>
	<rect x="23.5" y="33.8" class="st1" width="6.4" height="4.8"/>
	<rect x="23.5" y="25.8" class="st1" width="6.4" height="4.8"/>
	<rect x="23.5" y="17.7" class="st1" width="6.4" height="4.8"/>
	<rect x="34.6" y="17.7" class="st1" width="6.4" height="4.8"/>
	<rect x="34.6" y="33.7" class="st1" width="6.4" height="4.8"/>
	<rect x="34.8" y="25.8" class="st1" width="6.4" height="4.8"/>
</g>
<path class="st2" d="M13.8,12.6L13.8,12.6c-0.9,0-1.6-0.7-1.6-1.6V1.8c0-0.9,0.7-1.6,1.6-1.6l0,0c0.9,0,1.6,0.7,1.6,1.6V11
	C15.4,11.8,14.7,12.6,13.8,12.6z"/>
<path class="st2" d="M26.7,12.6L26.7,12.6c-0.9,0-1.6-0.7-1.6-1.6V1.8c0-0.9,0.7-1.6,1.6-1.6l0,0c0.9,0,1.6,0.7,1.6,1.6V11
	C28.3,11.8,27.6,12.6,26.7,12.6z"/>
<path class="st2" d="M39.2,12.6L39.2,12.6c-0.9,0-1.6-0.7-1.6-1.6V1.8c0-0.9,0.7-1.6,1.6-1.6l0,0c0.9,0,1.6,0.7,1.6,1.6V11
	C40.7,11.8,40,12.6,39.2,12.6z"/>
</svg>
